<svg xmlns="http://www.w3.org/2000/svg" width="85.931" height="74.91" viewBox="0 0 85.931 74.91">
  <g id="Group_3526" data-name="Group 3526" transform="translate(-278.923 -606.51)">
    <g id="Group_3291" data-name="Group 3291" transform="translate(50 617)">
      <g id="Group_2811" data-name="Group 2811" transform="translate(0)">
        <g id="Group_3525" data-name="Group 3525">
          <path id="Path_25862" data-name="Path 25862" d="M1371.5,5043.15l24.438,28.762,7.388,8.694L1371.5,5118.06h85.93v-74.91Z" transform="translate(-1142.575 -5053.641)" fill="#ffd101"/>
          <path id="Path_25863" data-name="Path 25863" d="M1374.679,5043.15H1371.5l31.826,37.456L1371.5,5118.06h3.183l31.826-37.454Z" transform="translate(-1142.573 -5053.641)" fill="#e3051b"/>
        </g>
      </g>
    </g>
    <g id="Group_3489" data-name="Group 3489" transform="translate(-7769 3707.975)">
      <path id="Path_27051" data-name="Path 27051" d="M1515.823,4954.583a2.306,2.306,0,1,1,2.305-2.308,2.323,2.323,0,0,1-2.305,2.308m-16.141,0a2.306,2.306,0,1,1,2.307-2.308,2.323,2.323,0,0,1-2.307,2.308m20.752-12.682a1.18,1.18,0,0,1-1.026,1.152l-18.808,2.2a5.926,5.926,0,0,1,.234,1.261,2.7,2.7,0,0,1-.433,1.154h16.574a1.153,1.153,0,1,1,0,2.306h-18.446a1.161,1.161,0,0,1-1.154-1.153,9.252,9.252,0,0,1,1.1-2.467l-3.188-14.827h-3.676a1.153,1.153,0,1,1,0-2.306h4.611c1.208,0,1.244,1.444,1.425,2.306h21.635a1.161,1.161,0,0,1,1.152,1.152v9.224Z" transform="translate(6597.705 -7999.114)"/>
      <path id="Path_27052" data-name="Path 27052" d="M1535.016,4896.633l-5.864,5.873a1.192,1.192,0,0,1-.819.333,1.156,1.156,0,0,1-.81-.333l-5.864-5.873a1.124,1.124,0,0,1-.343-.81,1.165,1.165,0,0,1,.343-.819l.668-.678a1.2,1.2,0,0,1,.819-.332,1.17,1.17,0,0,1,.81.332l2.648,2.648v-6.341a1.162,1.162,0,0,1,1.153-1.153h1.152a1.162,1.162,0,0,1,1.153,1.153v6.341l2.648-2.648a1.168,1.168,0,0,1,.811-.332,1.2,1.2,0,0,1,.819.332l.676.678a1.192,1.192,0,0,1,.333.819,1.148,1.148,0,0,1-.333.81" transform="translate(6577.004 -7972.456)"/>
    </g>
  </g>
</svg>
