<svg xmlns="http://www.w3.org/2000/svg" width="43.496" height="43.5" viewBox="0 0 43.496 43.5">
  <path id="home-run" d="M42.327,18.92l0,0L24.579,1.173a4,4,0,0,0-5.663,0L1.181,18.907l-.018.018a4,4,0,0,0,2.665,6.823q.061.006.123.006h.707V38.813A4.692,4.692,0,0,0,9.346,43.5h6.942a1.275,1.275,0,0,0,1.274-1.274V31.987A2.141,2.141,0,0,1,19.7,29.849H23.8a2.141,2.141,0,0,1,2.138,2.138V42.225A1.274,1.274,0,0,0,27.208,43.5H34.15a4.692,4.692,0,0,0,4.687-4.686V25.754h.656a4,4,0,0,0,2.834-6.835Zm0,0" transform="translate(0 0.001)" fill="#ffd101"/>
</svg>
