<svg xmlns="http://www.w3.org/2000/svg" width="20.955" height="25.548" viewBox="0 0 20.955 25.548">
  <g id="company" transform="translate(-46.022)">
    <path id="Path_27057" data-name="Path 27057" d="M52.97,137.62c-3.8-.022-6.948-7.784-6.948-11.737,0-6.457,4.844-7.871,6.711-7.871a7.722,7.722,0,0,1,2.532.623,5.66,5.66,0,0,0,1.446.414,4.5,4.5,0,0,0,1.037-.336,8.313,8.313,0,0,1,3.126-.756h.007a6.408,6.408,0,0,1,5.362,2.708l.391.588-.563.425a4.736,4.736,0,0,0-2.271,3.905,4.408,4.408,0,0,0,2.46,4.075c.352.212.717.431.717.909,0,.312-2.491,7.014-6.108,7.014a4.913,4.913,0,0,1-2.063-.5,4.183,4.183,0,0,0-1.836-.442,4.722,4.722,0,0,0-1.454.393,7.121,7.121,0,0,1-2.522.588Z" transform="translate(0 -112.072)"/>
    <path id="Path_27058" data-name="Path 27058" d="M259.954,0c.094,3.4-2.335,5.753-4.762,5.606C254.793,2.895,257.619,0,259.954,0Z" transform="translate(-198.697)"/>
  </g>
</svg>
