<svg id="chili" xmlns="http://www.w3.org/2000/svg" width="43.977" height="43.984" viewBox="0 0 43.977 43.984">
  <g id="Group_3392" data-name="Group 3392" transform="translate(0)">
    <g id="Group_3391" data-name="Group 3391">
      <path id="Path_26967" data-name="Path 26967" d="M43.16,4.766a.859.859,0,0,0,.859-.859V.859A.859.859,0,0,0,43.16,0c-4.672,0-7.813,3.122-9.842,5.725A7.32,7.32,0,0,0,25,8.086l-1.226,1.57-.008.01c-.617.815-1.194,1.612-1.74,2.392-.566-.809-1.141-1.6-1.74-2.392l-.008-.01-1.226-1.57a7.32,7.32,0,0,0-8.315-2.361C8.713,3.122,5.573,0,.9,0A.859.859,0,0,0,.042.859V3.907A.859.859,0,0,0,.9,4.766c2.048,0,4.009,1.278,6.137,4.008a7.319,7.319,0,0,0-.309,7.075L8.35,19.112A48.341,48.341,0,0,0,13.02,26.8,86.444,86.444,0,0,1,.293,42.518.859.859,0,0,0,.9,43.985a32.352,32.352,0,0,0,15.422-3.912,38.287,38.287,0,0,0,5.708-3.77,33.406,33.406,0,0,0,21.13,7.682.859.859,0,0,0,.607-1.466c-1.591-1.591-3.086-3.172-4.444-4.7a.859.859,0,1,0-1.284,1.141c.941,1.058,1.946,2.141,3,3.235a31.938,31.938,0,0,1-17.656-7.013,46.671,46.671,0,0,0,3.785-3.665c1.014-1.1,1.934-2.191,2.764-3.249,1.134,1.779,2.245,3.39,3.448,5a.859.859,0,0,0,1.376-1.028c-1.3-1.736-2.487-3.475-3.717-5.434a48.033,48.033,0,0,0,4.669-7.694l1.622-3.263a7.319,7.319,0,0,0-.309-7.075C39.152,6.044,41.112,4.767,43.16,4.766ZM1.76,3.1V1.762C5.1,2.111,7.522,4.448,9.186,6.526a7.337,7.337,0,0,0-1.052.862C6.631,5.517,4.514,3.467,1.76,3.1ZM8.52,15.594l-.253-.51a5.6,5.6,0,0,1,.517-5.831l0-.006a5.589,5.589,0,0,1,1.438-1.352,5.735,5.735,0,0,1,.587-.333l.05-.025A5.559,5.559,0,0,1,17.323,8.7a4.646,4.646,0,0,0-4.365,4.224h-.241A4.644,4.644,0,0,0,8.52,15.594Zm1.275,2.564c0-.012,0-.023,0-.035v-.557a2.924,2.924,0,0,1,2.921-2.921H13.8a.859.859,0,0,0,.859-.859v-.452a2.924,2.924,0,0,1,2.921-2.921H18.7l.229.294c.716.947,1.4,1.891,2.069,2.87-1.794,2.693-3.248,5.209-4.668,7.668-.754,1.306-1.514,2.622-2.33,3.971A49.176,49.176,0,0,1,9.795,18.158Zm24.371.2-.013.028a50.852,50.852,0,0,1-8.244,11.963C21.2,35.449,13.5,41.465,3.021,42.193A85.684,85.684,0,0,0,14.77,27.244c.014-.02.027-.041.039-.062,1.078-1.738,2.046-3.415,3.005-5.076a103.066,103.066,0,0,1,7.323-11.4l.229-.293h1.117A2.924,2.924,0,0,1,29.4,13.335v.452a.859.859,0,0,0,.859.859h1.082a2.924,2.924,0,0,1,2.921,2.921v.557c0,.012,0,.023,0,.035Zm1.628-3.276-.253.51a4.644,4.644,0,0,0-4.2-2.666H31.1A4.646,4.646,0,0,0,26.738,8.7,5.559,5.559,0,0,1,33.2,7.537l.048.024a5.79,5.79,0,0,1,.588.334,5.588,5.588,0,0,1,1.438,1.352l0,.006A5.6,5.6,0,0,1,35.794,15.084Zm.133-7.7a7.331,7.331,0,0,0-1.052-.862C36.539,4.448,38.96,2.111,42.3,1.762V3.1C39.547,3.467,37.43,5.517,35.927,7.388Z" transform="translate(-0.042 0)" fill="#ffd101"/>
    </g>
  </g>
  <g id="Group_3394" data-name="Group 3394" transform="translate(35.459 34.816)">
    <g id="Group_3393" data-name="Group 3393">
      <path id="Path_26968" data-name="Path 26968" d="M414.359,405.632l-.033-.04A.859.859,0,1,0,413,406.683l.032.038a.859.859,0,0,0,1.328-1.09Z" transform="translate(-412.804 -405.278)" fill="#ffd101"/>
    </g>
  </g>
  <g id="Group_3396" data-name="Group 3396" transform="translate(16.224 25.276)">
    <g id="Group_3395" data-name="Group 3395">
      <path id="Path_26969" data-name="Path 26969" d="M199.3,294.415a.859.859,0,0,0-1.208.13,40.519,40.519,0,0,1-8.822,8.255.859.859,0,1,0,.96,1.425,42.229,42.229,0,0,0,9.2-8.6A.859.859,0,0,0,199.3,294.415Z" transform="translate(-188.891 -294.225)" fill="#ffd101"/>
    </g>
  </g>
  <g id="Group_3398" data-name="Group 3398" transform="translate(13.409 35.371)">
    <g id="Group_3397" data-name="Group 3397">
      <path id="Path_26970" data-name="Path 26970" d="M157.8,412.183a.859.859,0,0,0-1.164-.347l-.061.033a.859.859,0,1,0,.811,1.514l.067-.036A.859.859,0,0,0,157.8,412.183Z" transform="translate(-156.126 -411.732)" fill="#ffd101"/>
    </g>
  </g>
</svg>
