<svg id="pepper" xmlns="http://www.w3.org/2000/svg" width="37.977" height="44.751" viewBox="0 0 37.977 44.751">
  <g id="Group_3400" data-name="Group 3400" transform="translate(20.423 21.763)">
    <g id="Group_3399" data-name="Group 3399">
      <path id="Path_26971" data-name="Path 26971" d="M276.13,249.051a.876.876,0,0,0-1.14.483,36.682,36.682,0,0,0-2.579,10.878.876.876,0,0,0,.8.942l.071,0a.876.876,0,0,0,.872-.806,34.934,34.934,0,0,1,2.457-10.359A.875.875,0,0,0,276.13,249.051Z" transform="translate(-272.408 -248.987)" fill="#999"/>
    </g>
  </g>
  <g id="Group_3402" data-name="Group 3402" transform="translate(2.559 13.242)">
    <g id="Group_3401" data-name="Group 3401">
      <path id="Path_26972" data-name="Path 26972" d="M69.523,151.748a.881.881,0,1,0-.006,1.257l.019-.019A.876.876,0,0,0,69.523,151.748Z" transform="translate(-68.029 -151.498)" fill="#999"/>
    </g>
  </g>
  <g id="Group_3404" data-name="Group 3404" transform="translate(0 0)">
    <g id="Group_3403" data-name="Group 3403">
      <path id="Path_26973" data-name="Path 26973" d="M76.491,3.176C75.657,2.285,71.128-2,63.837,1.127a9.709,9.709,0,0,0-5.779,6.248c-.072.242-.132.478-.182.709a15.189,15.189,0,0,0-3.268-3.516.876.876,0,0,0-1.154.074L51.026,7.071a.876.876,0,0,0,.06,1.293,10.165,10.165,0,0,1,2.749,3.747l-2.73-.878a9.421,9.421,0,0,0-5.62-.053.876.876,0,1,0,.5,1.677,7.673,7.673,0,0,1,4.142-.083,7.535,7.535,0,0,0-4.137,9.8l.693,1.709A31.407,31.407,0,0,1,49,36.138V37.1a7.594,7.594,0,0,0,2.718,5.815,3.644,3.644,0,0,1-.8.089h-.284a6.937,6.937,0,0,1-6.937-6.937,32.865,32.865,0,0,0-2.385-12.319l-.252-.627a7.725,7.725,0,0,1-.178-5.264.876.876,0,0,0-1.665-.542,9.48,9.48,0,0,0,.219,6.46l.252.627a31.12,31.12,0,0,1,2.258,11.666,8.688,8.688,0,0,0,8.688,8.688h.284a5.356,5.356,0,0,0,2.644-.694,7.553,7.553,0,0,0,2.085.574l.9.113a.879.879,0,0,0,.224,0l.894-.118a7.588,7.588,0,0,0,2.067-.58,5.356,5.356,0,0,0,2.664.706h.284a8.688,8.688,0,0,0,8.688-8.688A31.118,31.118,0,0,1,73.626,24.4l.252-.627a9.469,9.469,0,0,0-5.735-12.492c.079-.042.158-.083.235-.126A17.058,17.058,0,0,0,72.5,7.619a11.676,11.676,0,0,1,3.7-3.041.875.875,0,0,0,.294-1.4ZM52.91,7.663l1.22-1.22a14.034,14.034,0,0,1,3.592,5.022.878.878,0,0,0,.051.125,9.39,9.39,0,0,1,.329.971l-1.447.39-.768-.207A11.555,11.555,0,0,0,52.91,7.663ZM57.434,42.89l-.782.1-.789-.1a5.853,5.853,0,0,1-5.114-5.8v-.958a33.151,33.151,0,0,0-2.44-12.512l-.693-1.709a5.767,5.767,0,0,1,6.853-7.741l1.958.528a.874.874,0,0,0,.456,0l1.958-.528a5.772,5.772,0,0,1,6.853,7.741L65,23.626a33.15,33.15,0,0,0-2.44,12.512v.9A5.918,5.918,0,0,1,57.434,42.89ZM70.506,14.742a7.689,7.689,0,0,1,1.747,8.375L72,23.744a32.864,32.864,0,0,0-2.385,12.319A6.937,6.937,0,0,1,62.679,43h-.284a3.646,3.646,0,0,1-.832-.1,7.658,7.658,0,0,0,2.75-5.865v-.9a31.407,31.407,0,0,1,2.312-11.854l.693-1.709a7.535,7.535,0,0,0-4.138-9.8c.1-.026.2-.051.305-.073q.451-.055.9-.139A7.686,7.686,0,0,1,70.506,14.742Zm.709-8.318a15.7,15.7,0,0,1-3.695,3.2,11.328,11.328,0,0,1-3.319,1.2,9.487,9.487,0,0,0-1.061.163,9.192,9.192,0,0,1-3.1-.134,17.283,17.283,0,0,1,5.151-3.714.876.876,0,0,0-.75-1.583A19.084,19.084,0,0,0,59.5,8.913a7.969,7.969,0,0,1,5.025-6.177c4.877-2.093,8.252-.351,9.814.855A16.935,16.935,0,0,0,71.215,6.425Z" transform="translate(-38.75 0)" fill="#999"/>
    </g>
  </g>
  <g id="Group_3406" data-name="Group 3406" transform="translate(28.647 4.213)">
    <g id="Group_3405" data-name="Group 3405">
      <path id="Path_26974" data-name="Path 26974" d="M368.228,48.847a.88.88,0,1,0-.627,1.072h0A.879.879,0,0,0,368.228,48.847Z" transform="translate(-366.498 -48.197)" fill="#999"/>
    </g>
  </g>
</svg>
