<svg id="yogurt" xmlns="http://www.w3.org/2000/svg" width="33.811" height="40.573" viewBox="0 0 33.811 40.573">
  <g id="Group_2935" data-name="Group 2935" transform="translate(2.705 22.992)">
    <g id="Group_2934" data-name="Group 2934">
      <path id="Path_26213" data-name="Path 26213" d="M105.034,290.365a.676.676,0,0,0-.507-.229H77.478a.676.676,0,0,0-.671.76l2.029,16.229a.676.676,0,0,0,.671.592H102.5a.677.677,0,0,0,.672-.592L105.2,290.9A.677.677,0,0,0,105.034,290.365Zm-3.133,16H80.1l-1.86-14.877h25.516Z" transform="translate(-76.802 -290.136)" fill="#FFD101"/>
    </g>
  </g>
  <g id="Group_2937" data-name="Group 2937" transform="translate(1.352 20.287)">
    <g id="Group_2936" data-name="Group 2936">
      <path id="Path_26214" data-name="Path 26214" d="M90.164,256H60.41a.676.676,0,0,0-.676.676v2.7a.676.676,0,0,0,.676.676H90.164a.676.676,0,0,0,.676-.676v-2.7A.676.676,0,0,0,90.164,256Zm-.676,2.7h-28.4v-1.352h28.4Z" transform="translate(-59.734 -256.002)" fill="#FFD101"/>
    </g>
  </g>
  <g id="Group_2939" data-name="Group 2939" transform="translate(0 16.229)">
    <g id="Group_2938" data-name="Group 2938">
      <path id="Path_26215" data-name="Path 26215" d="M75.8,204.8H43.344a.676.676,0,0,0-.676.676v4.057a.676.676,0,0,0,.676.676H75.8a.676.676,0,0,0,.676-.676v-4.057A.676.676,0,0,0,75.8,204.8Zm-.676,4.057H44.02v-2.7H75.126Z" transform="translate(-42.668 -204.802)" fill="#FFD101"/>
    </g>
  </g>
  <g id="Group_2945" data-name="Group 2945" transform="translate(1.319 0)">
    <g id="Group_2944" data-name="Group 2944">
      <path id="Path_26218" data-name="Path 26218" d="M88.879,10.329a1.814,1.814,0,0,0,.068-1.054A3.65,3.65,0,0,0,86.909,7.21a3.7,3.7,0,0,0,.828-2.15C87.875,2.58,85.62.295,85.524.2A.676.676,0,0,0,84.37.677,1.359,1.359,0,0,1,83.9,1.75c-1.231,1.115-4.418,1.069-5.611.956-6.421,0-8.156,1.713-8.621,2.712C65,5.562,63.814,7.7,63.511,8.811a4.481,4.481,0,0,0-3.261,1.448,4.476,4.476,0,0,0-.9,3.317c.041,2.389,2.954,3.873,3.079,3.936a.678.678,0,0,0,.3.071H87.075a3.912,3.912,0,0,0,4.057-4.057A3.124,3.124,0,0,0,88.879,10.329Zm-1.8,5.9H62.9c-.49-.28-2.2-1.356-2.2-2.7a.611.611,0,0,0-.009-.111,3.169,3.169,0,0,1,.588-2.281,3.508,3.508,0,0,1,2.8-.989.676.676,0,0,0,.676-.676c0-.027.062-2.7,5.41-2.7a.643.643,0,0,0,.675-.638c.072-.575,1.551-2.067,7.373-2.071.474.047,4.69.414,6.585-1.3A2.838,2.838,0,0,0,85.34,2.1a4.913,4.913,0,0,1,1.047,2.887A2.593,2.593,0,0,1,85.3,6.911a.677.677,0,0,0,.208,1.169c.774.26,1.985.919,2.123,1.506.019.08.076.323-.358.756a.677.677,0,0,0,.475,1.154,1.929,1.929,0,0,1,2.032,2.029A2.623,2.623,0,0,1,87.075,16.23Z" transform="translate(-59.317 0)" fill="#FFD101"/>
    </g>
  </g>
  <g id="Group_2947" data-name="Group 2947" transform="translate(5.409 8.79)">
    <g id="Group_2946" data-name="Group 2946" transform="translate(0)">
      <path id="Path_26219" data-name="Path 26219" d="M115.149,112.978c-2.279-.57-2.921-1.644-2.946-1.686a.676.676,0,0,0-1.2.615c.084.167.9,1.651,3.822,2.382a.661.661,0,0,0,.165.02.676.676,0,0,0,.163-1.332Z" transform="translate(-110.928 -110.928)" fill="#FFD101"/>
    </g>
  </g>
  <g id="Group_2949" data-name="Group 2949" transform="translate(11.496 5.409)">
    <g id="Group_2948" data-name="Group 2948">
      <path id="Path_26220" data-name="Path 26220" d="M191.792,70.292a4.017,4.017,0,0,1-2.82-1.729.676.676,0,0,0-1.124.752,5.314,5.314,0,0,0,3.944,2.33.676.676,0,0,0,0-1.352Z" transform="translate(-187.735 -68.263)" fill="#FFD101"/>
    </g>
  </g>
  <g id="Group_2951" data-name="Group 2951" transform="translate(26.372 10.143)">
    <g id="Group_2950" data-name="Group 2950">
      <path id="Path_26221" data-name="Path 26221" d="M379.317,128.2a.676.676,0,0,0-.956,0,6.4,6.4,0,0,1-2.432,1.186.677.677,0,0,0,.2,1.321.662.662,0,0,0,.2-.032,7.341,7.341,0,0,0,2.979-1.519A.675.675,0,0,0,379.317,128.2Z" transform="translate(-375.458 -128.001)" fill="#FFD101"/>
    </g>
  </g>
  <g id="Group_2953" data-name="Group 2953" transform="translate(23.668 6.762)">
    <g id="Group_2952" data-name="Group 2952">
      <path id="Path_26222" data-name="Path 26222" d="M345.869,85.532a.675.675,0,0,0-.956,0,4.468,4.468,0,0,1-2.9,1.154.676.676,0,0,0,0,1.352,5.847,5.847,0,0,0,3.859-1.551A.675.675,0,0,0,345.869,85.532Z" transform="translate(-341.334 -85.333)" fill="#FFD101"/>
    </g>
  </g>
</svg>
