<svg xmlns="http://www.w3.org/2000/svg" width="68.999" height="48.784" viewBox="0 0 68.999 48.784">
  <g id="salami_1_" data-name="salami (1)" transform="translate(0 -75)">
    <g id="Group_3462" data-name="Group 3462" transform="translate(0 75)">
      <path id="Path_27025" data-name="Path 27025" d="M30.239,219.754A5.561,5.561,0,0,0,30.524,218a6.681,6.681,0,0,0-2.685-5.069,5.553,5.553,0,0,0,.327-1.871c0-2.392-1.539-4.6-4.334-6.212a19.811,19.811,0,0,0-9.749-2.346,19.811,19.811,0,0,0-9.749,2.346C1.539,206.459,0,208.665,0,211.057a6.692,6.692,0,0,0,2.686,5.071A5.528,5.528,0,0,0,2.358,218c0,2.191,1.292,4.226,3.657,5.793a5.511,5.511,0,0,0-.288,1.754c0,2.392,1.539,4.6,4.334,6.212A19.812,19.812,0,0,0,19.81,234.1c5.977,0,11.159-2.172,13.2-5.533a1.011,1.011,0,1,0-1.728-1.05c-1.658,2.728-6.269,4.561-11.474,4.561-6.538,0-12.061-2.993-12.061-6.536a3.443,3.443,0,0,1,.082-.745,20.688,20.688,0,0,0,8.61,1.755,19.812,19.812,0,0,0,9.749-2.346,10.036,10.036,0,0,0,3.1-2.656,6.137,6.137,0,0,1,2.331,2.7,1.011,1.011,0,0,0,1.884-.733A8.259,8.259,0,0,0,30.239,219.754Zm-13.8,4.78c-6.262,0-12.816-3.054-12-7.2a18.283,18.283,0,0,0,6.157,2.026,1.011,1.011,0,0,0,.3-2c-5.148-.78-8.885-3.43-8.885-6.3,0-3.543,5.523-6.536,12.061-6.536s12.061,2.993,12.061,6.536a3.685,3.685,0,0,1-.433,1.7l-.023.044a7,7,0,0,1-2.578,2.545,17.04,17.04,0,0,1-8.1,2.228,1.011,1.011,0,0,0,.042,2.021H15.1c5.289-.224,9.655-2.138,11.743-4.858C31.835,219.3,25,224.534,16.441,224.534Z" transform="translate(0 -185.318)" fill="#ffd101"/>
      <path id="Path_27026" data-name="Path 27026" d="M241.656,77.852C239.15,75.906,235.467,75,230.067,75h-5.673a1.011,1.011,0,1,0,0,2.021h5.673c10.1,0,13.851,3.269,13.851,12.061s-3.754,12.061-13.851,12.061h-12.54a11.069,11.069,0,0,0,1.742-2.313,21.429,21.429,0,0,0,0-19.5,11.074,11.074,0,0,0-1.742-2.313h2.538a1.011,1.011,0,0,0,0-2.021h-7.008c-2.392,0-4.6,1.539-6.212,4.334a21.429,21.429,0,0,0,0,19.5c1.614,2.8,3.82,4.334,6.212,4.334h17.01c5.4,0,9.082-.906,11.588-2.852,2.883-2.238,4.284-5.912,4.284-11.231S244.539,80.09,241.656,77.852ZM206.521,89.083c0-6.538,2.993-12.061,6.536-12.061h.055c3.519.057,6.481,5.557,6.481,12.061s-2.962,12-6.481,12.061h-.055C209.515,101.144,206.521,95.621,206.521,89.083Z" transform="translate(-176.941 -75)" fill="#ffd101"/>
      <path id="Path_27027" data-name="Path 27027" d="M268.556,127.259a1.011,1.011,0,0,0,1.9-.689l-.521-1.438a1.011,1.011,0,1,0-1.9.689Z" transform="translate(-231.861 -117.8)" fill="#ffd101"/>
      <path id="Path_27028" data-name="Path 27028" d="M241.779,180.2l-1.339-.738a1.011,1.011,0,1,0-.977,1.77l1.339.739a1.011,1.011,0,0,0,.977-1.77Z" transform="translate(-206.741 -165.278)" fill="#ffd101"/>
      <path id="Path_27029" data-name="Path 27029" d="M265.847,225.832l1.045-1.116a1.011,1.011,0,1,0-1.476-1.382l-1.045,1.116a1.011,1.011,0,1,0,1.476,1.382Z" transform="translate(-228.508 -203.067)" fill="#ffd101"/>
      <path id="Path_27030" data-name="Path 27030" d="M112.786,264.468l-.67,1.374a1.011,1.011,0,1,0,1.817.885l.67-1.374a1.011,1.011,0,1,0-1.817-.885Z" transform="translate(-96.918 -238.443)" fill="#ffd101"/>
      <path id="Path_27031" data-name="Path 27031" d="M98.072,231.86a1.011,1.011,0,0,0-.812-1.176l-1.266-.232a1.011,1.011,0,1,0-.364,1.988l1.266.232A1.011,1.011,0,0,0,98.072,231.86Z" transform="translate(-82.024 -209.488)" fill="#ffd101"/>
      <path id="Path_27032" data-name="Path 27032" d="M56.56,253.387l-1.267-.232a1.011,1.011,0,1,0-.364,1.988l1.267.232a1.011,1.011,0,1,0,.364-1.988Z" transform="translate(-46.809 -229.132)" fill="#ffd101"/>
    </g>
  </g>
</svg>
