<svg id="bacon" xmlns="http://www.w3.org/2000/svg" width="42.743" height="41.367" viewBox="0 0 42.743 41.367">
  <g id="Group_3018" data-name="Group 3018" transform="translate(30.513 13.394)">
    <g id="Group_3017" data-name="Group 3017">
      <path id="Path_26277" data-name="Path 26277" d="M366.922,168.926a.835.835,0,1,0,0,1.181A.835.835,0,0,0,366.922,168.926Z" transform="translate(-365.497 -168.681)" fill="#999"/>
    </g>
  </g>
  <g id="Group_3020" data-name="Group 3020" transform="translate(0 0)">
    <g id="Group_3019" data-name="Group 3019" transform="translate(0 0)">
      <path id="Path_26278" data-name="Path 26278" d="M42.5,19.119,31.867,8.486a.835.835,0,0,0-1.273.109,7.282,7.282,0,0,1-2.838,2.286,8.259,8.259,0,0,0-4.361,4.36A6.328,6.328,0,0,1,22,17.293a8.3,8.3,0,0,1-2.3,1.642,8.021,8.021,0,0,0-2.6,1.758,9.964,9.964,0,0,0-2.009,2.853,6.574,6.574,0,0,1-3.442,3.443A9.926,9.926,0,0,0,8.8,29a7.993,7.993,0,0,0-1.758,2.6A8.294,8.294,0,0,1,5.4,33.9a6.291,6.291,0,0,1-2.052,1.391A9.847,9.847,0,0,0,.22,37.585a.835.835,0,0,0,.026,1.153L3.789,42.28l3.52,3.52.022.022,3.543,3.542a.835.835,0,0,0,1.207-.028A8.247,8.247,0,0,1,14.6,47.466a7.977,7.977,0,0,0,2.6-1.757,9.94,9.94,0,0,0,2.008-2.854A6.3,6.3,0,0,1,20.6,40.8a8.287,8.287,0,0,1,2.3-1.642,8.251,8.251,0,0,0,4.36-4.36,8.316,8.316,0,0,1,1.643-2.3,6.339,6.339,0,0,1,2.051-1.392A9.952,9.952,0,0,0,33.812,29.1a8.008,8.008,0,0,0,1.757-2.6,6.593,6.593,0,0,1,3.443-3.443,9.146,9.146,0,0,0,3.568-2.846A.835.835,0,0,0,42.5,19.119ZM2.021,38.151a7.4,7.4,0,0,1,1.951-1.312,7.971,7.971,0,0,0,2.6-1.757,9.935,9.935,0,0,0,2.008-2.854,6.314,6.314,0,0,1,1.392-2.051,8.285,8.285,0,0,1,2.3-1.642,8.245,8.245,0,0,0,4.36-4.36,8.316,8.316,0,0,1,1.643-2.3,6.335,6.335,0,0,1,2.051-1.392,9.951,9.951,0,0,0,2.854-2.008,8.006,8.006,0,0,0,1.757-2.6,6.59,6.59,0,0,1,3.443-3.443,8.986,8.986,0,0,0,2.952-2.111l2.36,2.36a7.679,7.679,0,0,1-2.4,1.746,8.261,8.261,0,0,0-4.359,4.36,6.326,6.326,0,0,1-1.391,2.052,8.306,8.306,0,0,1-2.3,1.642,8.017,8.017,0,0,0-2.6,1.759,9.979,9.979,0,0,0-2.008,2.852A6.577,6.577,0,0,1,15.19,30.53a9.946,9.946,0,0,0-2.852,2.009,8,8,0,0,0-1.759,2.6,8.278,8.278,0,0,1-1.642,2.3,6.3,6.3,0,0,1-2.052,1.391,9.547,9.547,0,0,0-2.5,1.678ZM38.382,21.508a8.261,8.261,0,0,0-4.36,4.36,6.326,6.326,0,0,1-1.391,2.051,8.306,8.306,0,0,1-2.3,1.642,8.017,8.017,0,0,0-2.6,1.758,9.959,9.959,0,0,0-2.009,2.853,6.579,6.579,0,0,1-3.442,3.443,9.931,9.931,0,0,0-2.853,2.009,7.981,7.981,0,0,0-1.758,2.6,8.3,8.3,0,0,1-1.642,2.3,6.294,6.294,0,0,1-2.052,1.391A9.185,9.185,0,0,0,11.465,47.6L9.106,45.237a7.9,7.9,0,0,1,1.95-1.313,7.98,7.98,0,0,0,2.6-1.758,9.935,9.935,0,0,0,2.008-2.854,6.333,6.333,0,0,1,1.391-2.05,8.407,8.407,0,0,1,2.3-1.644,8.245,8.245,0,0,0,4.361-4.36,8.283,8.283,0,0,1,1.642-2.3C27,27.324,27.8,27.834,30,25.819a.835.835,0,1,0-1.129-1.23c-2.038,1.871-2.743,1.249-4.682,3.188a9.924,9.924,0,0,0-2.008,2.853,6.584,6.584,0,0,1-3.444,3.443,9.256,9.256,0,0,0-4.61,4.611,8.3,8.3,0,0,1-1.642,2.3,6.319,6.319,0,0,1-2.052,1.392,9.513,9.513,0,0,0-2.5,1.678l-2.36-2.36a7.875,7.875,0,0,1,1.95-1.314,7.986,7.986,0,0,0,2.6-1.757,9.925,9.925,0,0,0,2.008-2.854,6.314,6.314,0,0,1,1.393-2.051,8.3,8.3,0,0,1,2.3-1.643,8.245,8.245,0,0,0,4.361-4.36,8.335,8.335,0,0,1,1.642-2.3,6.334,6.334,0,0,1,2.051-1.393,9.949,9.949,0,0,0,2.854-2.008,8.009,8.009,0,0,0,1.757-2.6,6.592,6.592,0,0,1,3.442-3.442,9.212,9.212,0,0,0,2.951-2.111l2.361,2.361q-.088.1-.18.187a7.556,7.556,0,0,1-2.22,1.559,7.725,7.725,0,0,0-1.993,1.2.835.835,0,1,0,1.06,1.29,6.082,6.082,0,0,1,1.563-.948,9.245,9.245,0,0,0,2.77-1.924c.061-.061.122-.124.181-.188l2.361,2.361A7.276,7.276,0,0,1,38.382,21.508Z" transform="translate(-0.002 -8.241)" fill="#999"/>
    </g>
  </g>
</svg>
