<svg id="beef" xmlns="http://www.w3.org/2000/svg" width="46.751" height="40.451" viewBox="0 0 46.751 40.451">
  <path id="Path_26210" data-name="Path 26210" d="M46.734,49.1c0-5.876-6.212-13.373-18.713-14.4-1.893-.157-3.752-.192-5.5-.2-5.716-.032-11.626.378-16.132,3.57a.685.685,0,1,0,.792,1.118,16.052,16.052,0,0,1,5.231-2.359,11.367,11.367,0,0,1-1.845,4.476,30.764,30.764,0,0,1-5.882,5.887c-1.128.943-2.186,1.823-3.152,2.766A14.633,14.633,0,0,1,5.084,41.05a.685.685,0,0,0-1.019-.915A15.692,15.692,0,0,0,.426,47.713c-.006.017-.011.035-.015.053a12.2,12.2,0,0,0-.283,2.726c0,.206-.015.717-.032,1.364C.014,55.1-.057,58.333.067,59.05A20.5,20.5,0,0,0,8.956,72.188a16.226,16.226,0,0,0,6.2,2.6,9.2,9.2,0,0,0,6.479-1.063,14.861,14.861,0,0,0,3.624-3.589,18.261,18.261,0,0,1,2.421-2.66.685.685,0,0,0-.88-1.049,19.55,19.55,0,0,0-2.611,2.854,13.639,13.639,0,0,1-3.275,3.28,7.734,7.734,0,0,1-5.526.878,14.833,14.833,0,0,1-5.658-2.378,19.125,19.125,0,0,1-8.31-12.24,15.519,15.519,0,0,1-.048-1.7,19.25,19.25,0,0,0,1.185,2.47,21.779,21.779,0,0,0,6.6,7.119,15.924,15.924,0,0,0,6.123,2.6,9.008,9.008,0,0,0,6.408-1.065c2.835-1.776,4.176-5.157,6.723-6.814,3.021-1.966,7.829-1.3,11.362-2.627a10.819,10.819,0,0,0,5.442-4.925q.088-.158.17-.318A24.256,24.256,0,0,1,45.3,56a9.918,9.918,0,0,1-5.831,7,20.383,20.383,0,0,1-4.908.924,21.421,21.421,0,0,0-5.041.944.685.685,0,1,0,.466,1.288,20.1,20.1,0,0,1,4.719-.87,21.394,21.394,0,0,0,5.241-1A11.337,11.337,0,0,0,46.641,56.3C46.81,55.545,46.734,50.2,46.734,49.1ZM44,44.507c-.315-.008-.625-.006-.931,0-1.877.012-2.169,0-2.382-.479a4.674,4.674,0,0,1,.341-3q.189.166.371.335A14.431,14.431,0,0,1,44,44.507ZM24.712,35.9a17.1,17.1,0,0,0-1.287,1.32,27.436,27.436,0,0,1-6.259,5.416c-.273-.566-.73-2.383-1.145-6.477A63.93,63.93,0,0,1,24.712,35.9ZM5.56,48.244a31.781,31.781,0,0,0,6.134-6.164A12.6,12.6,0,0,0,13.839,36.5q.4-.079.825-.149c.679,6.7,1.427,7.273,1.753,7.523a.942.942,0,0,0,.735.193c1.511-.255,5.336-3.691,7.305-5.944a15.88,15.88,0,0,1,2.28-2.138,38.357,38.357,0,0,1,4.341.479c-2.937,1.154-5,3.766-6.334,5.711-.411.6-.813,1.218-1.2,1.817a24.162,24.162,0,0,1-4.2,5.337,24.079,24.079,0,0,1-3.8,2.529c-.88.509-1.79,1.036-2.65,1.629A20.143,20.143,0,0,0,5.943,62.01a19.321,19.321,0,0,1-2.612-3.867v0l0-.005a16.52,16.52,0,0,1-1.778-6.222A38.357,38.357,0,0,1,5.56,48.244ZM20.954,67.078a7.541,7.541,0,0,1-5.446.876,14.531,14.531,0,0,1-5.581-2.375,21.224,21.224,0,0,1-2.961-2.461,18.8,18.8,0,0,1,6.7-8.5c.815-.562,1.7-1.075,2.558-1.571a25.48,25.48,0,0,0,4.016-2.679,25.554,25.554,0,0,0,4.457-5.626c.384-.592.781-1.2,1.182-1.788,2.148-3.128,4.214-4.867,6.5-5.473.455-.12.956-.236,1.46-.385a17.672,17.672,0,0,1,3.418,1.345,10.651,10.651,0,0,1-1.564,2.342c-1.54,1.77-3.5,3.167-5.221,4.893A22.665,22.665,0,0,0,24.1,63.912,13.12,13.12,0,0,1,20.954,67.078Zm11.9-8.456a15.764,15.764,0,0,0-3.417.771,18.8,18.8,0,0,1,3.51-8c.476-.626.946-.944,1.256-.852a.82.82,0,0,1,.428.774C34.652,52.357,33.39,54.074,32.855,58.622ZM44.01,53.21a9.434,9.434,0,0,1-4.726,4.307,10.515,10.515,0,0,1-1.094.341,11.273,11.273,0,0,1,1.476-4.163.685.685,0,1,0-1.175-.7,12.649,12.649,0,0,0-1.717,5.156c-.771.125-1.554.209-2.332.292l-.187.02c.555-4.226,1.773-5.751,1.746-7.172A2.144,2.144,0,0,0,34.6,49.227c-.641-.191-1.636-.114-2.738,1.337A20.2,20.2,0,0,0,27.94,60.1a10.668,10.668,0,0,0-2.586,2.263,21.318,21.318,0,0,1,1.137-7.706,20.975,20.975,0,0,1,4.946-8.018c1.679-1.681,3.671-3.105,5.286-4.962a12.1,12.1,0,0,0,1.723-2.56c.5.311.994.648,1.469,1.005-.534,1.228-1.065,3.145-.483,4.456.644,1.449,2.028,1.3,3.643,1.292a15.119,15.119,0,0,1,1.622.046,7.458,7.458,0,0,1,.467,1.7A12.63,12.63,0,0,0,40.4,50.566a.685.685,0,0,0,.961.976,11.261,11.261,0,0,1,3.873-2.491A9.578,9.578,0,0,1,44.01,53.21Z" transform="translate(0 -34.5)" fill="#ffd101"/>
</svg>
