<svg xmlns="http://www.w3.org/2000/svg" width="53.201" height="46.705" viewBox="0 0 53.201 46.705">
  <g id="_006---Mozzerella" data-name="006---Mozzerella" transform="translate(0.1 0.1)">
    <path id="Shape" d="M53,19.118C53,18.337,52.693,0,26.508,0,17.6,0,11.673,2.367,8.4,7.235,5.675,11.279,5.3,16.342,5.3,21.2a8.425,8.425,0,0,0,1.678,4.753c-.088.14-.184.283-.265.434C2.442,27.075,0,29.239,0,32.372,0,38.3,4.912,46.505,14.134,46.505c3.589,0,5.294-1.51,6.1-3.04,4.485,1.362,7.519-.148,8.819-2.747,1.39-2.782-.34-6.179-2.883-8.922,6.954,0,19.677-.285,24.557-5.239C52.952,24.292,53,21.971,53,19.118ZM27.61,29.937c-.835.043-3.18.082-3.285.083a20.511,20.511,0,0,0-2.669-1.943c-3.591-2.154-10.018-5.83-13.415-3.432a7.286,7.286,0,0,1-1.173-3.414c.177-5.012,5.176-11.956,14.107-11.956,12.8,0,16.183,10.65,16.183,16.28C37.357,28.316,34.441,29.627,27.61,29.937Zm-13.476,14.8c-8.069,0-12.367-7.182-12.367-12.367,0-2.525,2.344-3.61,4.357-4.076-.764,5.964,7.294,12.33,12.427,14.546C17.774,44.111,16.324,44.739,14.134,44.739Zm13.343-4.812A3.975,3.975,0,0,1,24.7,42.071c-2.749.618-6.618-.875-10.91-4.213-5.312-4.132-6.011-7.372-5.955-8.936A3.533,3.533,0,0,1,9.324,26.04c2.529-1.685,8.833,2,11.422,3.556,4.329,2.6,8.158,7.478,6.731,10.331ZM49.467,25.313c-2.067,2.1-6.207,3.505-12.35,4.2a4.622,4.622,0,0,0,2.005-3.959,20.415,20.415,0,0,0-3.492-11.1c-3.18-4.545-8.18-6.948-14.458-6.948A15.921,15.921,0,0,0,7.481,14.772C8.727,6.97,13.475,1.767,26.508,1.767c24.439,0,24.726,16.643,24.726,17.352,0,2.442.057,4.342-1.767,6.195Z" fill="#999" stroke="#999" stroke-width="0.2"/>
    <path id="Shape-2" data-name="Shape" d="M15.651,17c-3.11,0-3.161,2.65-1.767,2.65a.883.883,0,0,0,.867-.717,1.656,1.656,0,0,1,.9-.166.883.883,0,0,0,0-1.767Z" transform="translate(-1.517 -1.983)" fill="#999" stroke="#999" stroke-width="0.2"/>
    <path id="Shape-3" data-name="Shape" d="M33.884,18a.878.878,0,0,0-.877.872.889.889,0,0,0,.867.895.812.812,0,0,1,.894.883.883.883,0,1,0,1.767,0A2.576,2.576,0,0,0,33.884,18Z" transform="translate(-3.85 -2.1)" fill="#999" stroke="#999" stroke-width="0.2"/>
    <path id="Shape-4" data-name="Shape" d="M25.65,26.766a.811.811,0,0,1-.883-.892A.883.883,0,0,0,23,25.883a2.576,2.576,0,0,0,2.65,2.65.883.883,0,1,0,0-1.767Z" transform="translate(-2.683 -2.916)" fill="#999" stroke="#999" stroke-width="0.2"/>
    <path id="Shape-5" data-name="Shape" d="M13.883,32.647a.883.883,0,1,0,0,1.767.883.883,0,0,0,.883.883C16.23,35.3,15.833,32.647,13.883,32.647Z" transform="translate(-1.517 -3.808)" fill="#999" stroke="#999" stroke-width="0.2"/>
    <path id="Shape-6" data-name="Shape" d="M22.65,41.413a.811.811,0,0,1-.883-.891A.883.883,0,0,0,20,40.53a2.575,2.575,0,0,0,2.65,2.65.883.883,0,1,0,0-1.767Z" transform="translate(-2.333 -4.624)" fill="#999" stroke="#999" stroke-width="0.2"/>
    <path id="Shape-7" data-name="Shape" d="M7.767,41.5A.883.883,0,0,0,6,41.529c0,1.954,2.65,2.344,2.65.871A.894.894,0,0,0,7.767,41.5Z" transform="translate(-0.7 -4.74)" fill="#999" stroke="#999" stroke-width="0.2"/>
  </g>
</svg>
