<svg id="Group_2972" data-name="Group 2972" xmlns="http://www.w3.org/2000/svg" width="26.698" height="51.728" viewBox="0 0 26.698 51.728">
  <g id="ketchup" transform="translate(0 0)">
    <path id="Path_26251" data-name="Path 26251" d="M18.67,13.349h.523a1.67,1.67,0,0,0,1.669-1.669V10.012a1.67,1.67,0,0,0-1.669-1.669H17.311L14.808,0H11.9l-2.5,8.343H7.512a1.67,1.67,0,0,0-1.669,1.669V11.68a1.67,1.67,0,0,0,1.669,1.669h.523L.566,36.5A11.649,11.649,0,0,0,11.651,51.728h3.4A11.649,11.649,0,0,0,26.139,36.5ZM13.139,1.669h.427l2,6.675H11.137ZM7.512,10.012h11.68V11.68H7.512Zm7.541,40.047h-3.4a9.979,9.979,0,0,1-9.5-13.044L9.788,13.349h7.128l7.635,23.666a9.981,9.981,0,0,1-9.5,13.044Zm0,0" transform="translate(-0.004)" fill="#ffd101"/>
  </g>
  <g id="laurel" transform="translate(4.955 29.578)">
    <g id="Group_2963" data-name="Group 2963" transform="translate(11.625 14.171)">
      <g id="Group_2962" data-name="Group 2962" transform="translate(0 0)">
        <path id="Path_26236" data-name="Path 26236" d="M346.946,457.2l-.012,0a.335.335,0,1,0-.111.662l.012,0a.34.34,0,0,0,.056,0,.336.336,0,0,0,.33-.28.34.34,0,0,0,0-.056A.336.336,0,0,0,346.946,457.2Z" transform="translate(-346.543 -457.196)" fill="#ffd101"/>
      </g>
    </g>
    <g id="Group_2965" data-name="Group 2965" transform="translate(4.867 14.171)">
      <g id="Group_2964" data-name="Group 2964" transform="translate(0 0)">
        <path id="Path_26237" data-name="Path 26237" d="M145.767,457.476a.335.335,0,0,0-.386-.276l-.012,0a.335.335,0,0,0,.055.666.341.341,0,0,0,.056,0l.012,0a.335.335,0,0,0,.275-.386Z" transform="translate(-145.088 -457.196)" fill="#ffd101"/>
      </g>
    </g>
    <g id="Group_2967" data-name="Group 2967" transform="translate(0 0)">
      <g id="Group_2966" data-name="Group 2966" transform="translate(0 0)">
        <path id="Path_26238" data-name="Path 26238" d="M14.49,44.692a1.753,1.753,0,0,0,.6-.106c1.351-.486,2.043-2.522,2.072-2.609a.335.335,0,0,0-.289-.44,3.887,3.887,0,0,0-2.53.5,9.4,9.4,0,0,0,.095-.974h.016a1.7,1.7,0,0,0,1.192-.452,4.211,4.211,0,0,0,.88-2.89.335.335,0,0,0-.447-.3,3.681,3.681,0,0,0-1.821,1.248c-.045-.23-.089-.415-.123-.544a1.6,1.6,0,0,0,.281-1.232c-.228-1.221-1.847-2.085-1.916-2.122a.336.336,0,0,0-.482.216,3.094,3.094,0,0,0,.234,2.453,2.359,2.359,0,0,0,1.263.969,9.55,9.55,0,0,1,.251,1.766,5.968,5.968,0,0,0-1.883-1.373.335.335,0,0,0-.425.258,3.7,3.7,0,0,0,.428,2.908,2.766,2.766,0,0,0,1.55,1.062,14.44,14.44,0,0,1-.641,1.5,5.517,5.517,0,0,0-1.767-2.59.335.335,0,0,0-.517.118,3.854,3.854,0,0,0-.306,3.029,2.885,2.885,0,0,0,1.02,1.312,8.946,8.946,0,0,1-1.527,1.039,1.849,1.849,0,0,0,.168-.748A2.776,2.776,0,0,0,8.793,44.8a.335.335,0,0,0-.41,0,2.776,2.776,0,0,0-1.07,1.888,1.849,1.849,0,0,0,.168.748A8.947,8.947,0,0,1,5.954,46.4a2.885,2.885,0,0,0,1.02-1.312,3.854,3.854,0,0,0-.306-3.029.335.335,0,0,0-.517-.118,5.517,5.517,0,0,0-1.767,2.59,14.443,14.443,0,0,1-.641-1.5,2.766,2.766,0,0,0,1.55-1.062,3.7,3.7,0,0,0,.428-2.908.335.335,0,0,0-.425-.258A5.969,5.969,0,0,0,3.414,40.18a9.548,9.548,0,0,1,.251-1.766,2.359,2.359,0,0,0,1.263-.969,3.094,3.094,0,0,0,.234-2.453.335.335,0,0,0-.482-.216c-.069.036-1.688.9-1.916,2.122a1.6,1.6,0,0,0,.281,1.232c-.034.13-.079.314-.123.544A3.681,3.681,0,0,0,1.1,37.427a.335.335,0,0,0-.447.3,4.211,4.211,0,0,0,.88,2.89,1.7,1.7,0,0,0,1.192.452h.016a9.4,9.4,0,0,0,.095.974,3.886,3.886,0,0,0-2.53-.5.335.335,0,0,0-.289.44c.029.086.721,2.123,2.072,2.609a1.752,1.752,0,0,0,.6.106,1.971,1.971,0,0,0,.9-.232c.091.183.548.933.684,1.118a4.563,4.563,0,0,0-3.022.8.335.335,0,0,0-.066.521c.073.075,1.727,1.749,3.36,1.749a2.275,2.275,0,0,0,.245-.013,2.215,2.215,0,0,0,1.63-1.051,10.737,10.737,0,0,0,1.268.713q-.572.189-1.2.342a.335.335,0,1,0,.16.652,15.762,15.762,0,0,0,1.938-.6,15.764,15.764,0,0,0,1.938.6.335.335,0,0,0,.16-.652q-.623-.153-1.2-.342a10.735,10.735,0,0,0,1.268-.713,2.215,2.215,0,0,0,1.63,1.051,2.275,2.275,0,0,0,.245.013c1.634,0,3.287-1.674,3.36-1.749a.335.335,0,0,0-.066-.521,4.563,4.563,0,0,0-3.022-.8c.136-.185.593-.935.684-1.118A1.971,1.971,0,0,0,14.49,44.692Zm1.355-6.445a2.978,2.978,0,0,1-.657,1.875,1.047,1.047,0,0,1-.737.274A2.068,2.068,0,0,1,15.844,38.247ZM14.42,42.836a2.854,2.854,0,0,1,1.922-.652h.014a3.347,3.347,0,0,1-1.5,1.77,1.172,1.172,0,0,1-.969-.094A2.408,2.408,0,0,1,14.42,42.836ZM13.6,37.724l-.008,0a1.674,1.674,0,0,1-.773-.64,2.167,2.167,0,0,1-.24-1.476,2.693,2.693,0,0,1,1.177,1.41A.932.932,0,0,1,13.6,37.724ZM2.725,40.4a1.047,1.047,0,0,1-.737-.274,2.978,2.978,0,0,1-.657-1.875A2.068,2.068,0,0,1,2.725,40.4Zm-.408,3.559a3.353,3.353,0,0,1-1.5-1.771H.834a2.628,2.628,0,0,1,1.922.652,1.883,1.883,0,0,1,.426.647c.017.05.095.316.1.378A1.172,1.172,0,0,1,2.317,43.955Zm1.106-6.932A2.693,2.693,0,0,1,4.6,35.612a2.174,2.174,0,0,1-.234,1.468,1.674,1.674,0,0,1-.78.649l0,0A.933.933,0,0,1,3.423,37.022ZM3.5,41.38c.144-.74,1.035-1.381,1.63-1.733a2.786,2.786,0,0,1-.381,1.931,2.094,2.094,0,0,1-1.059.773A1.49,1.49,0,0,1,3.5,41.38Zm1.215,6.587A4.247,4.247,0,0,1,1.988,46.73a3.485,3.485,0,0,1,2.6-.389,2.7,2.7,0,0,1,1.223.936A1.525,1.525,0,0,1,4.717,47.967Zm.735-2.038a1.523,1.523,0,0,1-.442-.941A3.562,3.562,0,0,1,6.241,42.77a2.939,2.939,0,0,1,.11,2.07A2.252,2.252,0,0,1,5.452,45.929Zm3.137,1.93a1.434,1.434,0,0,1,0-2.339,1.435,1.435,0,0,1,0,2.339Zm2.236-3.019a2.94,2.94,0,0,1,.11-2.07,3.641,3.641,0,0,1,1.231,2.218,1.25,1.25,0,0,1-.358.855l-.042.044-.042.041A2.251,2.251,0,0,1,10.825,44.84Zm4.366,1.891a4.278,4.278,0,0,1-2.73,1.236,1.525,1.525,0,0,1-1.1-.691,3.3,3.3,0,0,1,1.223-.936A3.345,3.345,0,0,1,15.19,46.731Zm-2.76-5.145a2.778,2.778,0,0,1-.387-1.939,3.489,3.489,0,0,1,1.63,1.733,1.629,1.629,0,0,1-.191.972A2.073,2.073,0,0,1,12.43,41.586Z" transform="translate(0 -34.738)" fill="#ffd101"/>
      </g>
    </g>
  </g>
</svg>
