<svg xmlns="http://www.w3.org/2000/svg" width="40.471" height="47.402" viewBox="0 0 40.471 47.402">
  <g id="meat" transform="translate(-37.394 0.112)">
    <path id="Path_26987" data-name="Path 26987" d="M43.573,8.74a4.267,4.267,0,0,0-1.327-.2l.112-1.487a1.056,1.056,0,0,0-1.514-1.029L38.09,7.364a1.054,1.054,0,0,0-.126,1.826l1.132.756a4.224,4.224,0,0,0-.811,4.706,28.531,28.531,0,0,1,0,23.8,4.224,4.224,0,0,0,.81,4.706l-1.132.756a1.055,1.055,0,0,0,.126,1.826l2.755,1.338a1.056,1.056,0,0,0,1.513-1.029l-.112-1.489a4.224,4.224,0,0,0,1.327-.2,4.267,4.267,0,0,0,2.6-2.295,37.377,37.377,0,0,0,0-31.031,4.266,4.266,0,0,0-2.6-2.295ZM40.937,7.518,40.84,8.8a4.262,4.262,0,0,0-.584.262l-1.049-.7ZM39.206,44.741l1.051-.7a4.261,4.261,0,0,0,.583.262l.1,1.279Zm5.707-3.25a2.956,2.956,0,0,1-5.369-2.472A30.126,30.126,0,0,0,42,30.389l2.019-.98a.691.691,0,0,0-.6-1.244l-1.252.608q.066-.887.079-1.777l1.776-.862a.691.691,0,0,0-.6-1.244l-1.189.577q-.03-.844-.108-1.686l1.9-.922a.691.691,0,0,0-.6-1.244l-1.467.712a30.128,30.128,0,0,0-2.4-8.249,2.956,2.956,0,0,1,5.369-2.472A36,36,0,0,1,44.913,41.492ZM63.649,2.32a1.059,1.059,0,0,0-.592-.877L60.3.105a1.056,1.056,0,0,0-1.513,1.029L58.9,2.622a4.264,4.264,0,0,0-3.925,2.491,37.249,37.249,0,0,0-2.814,21.941.691.691,0,1,0,1.362-.237,35.872,35.872,0,0,1,2.71-21.13A2.886,2.886,0,0,1,60.324,4.4,2.894,2.894,0,0,1,61.6,8.159a30.127,30.127,0,0,0-2.4,8.249L57.732,15.7a.691.691,0,0,0-.6,1.244l1.9.922q-.078.842-.108,1.686l-1.189-.577a.691.691,0,0,0-.6,1.244l1.776.862q.013.889.079,1.777l-1.252-.608a.691.691,0,0,0-.6,1.244l2.019.98A30.123,30.123,0,0,0,61.6,33.1a2.956,2.956,0,0,1-5.369,2.472A36.088,36.088,0,0,1,54.2,29.9a.691.691,0,1,0-1.336.356,37.479,37.479,0,0,0,2.11,5.886,4.257,4.257,0,0,0,3.925,2.49l-.112,1.488A1.056,1.056,0,0,0,60.3,41.151l2.753-1.337a1.054,1.054,0,0,0,.126-1.826l-1.132-.756a4.224,4.224,0,0,0,.811-4.706,28.75,28.75,0,0,1,0-23.8,4.224,4.224,0,0,0-.81-4.706l1.132-.756a1.059,1.059,0,0,0,.466-.949Zm-3.44,37.34.1-1.279a4.247,4.247,0,0,0,.583-.262l1.05.7ZM60.89,3.138a4.266,4.266,0,0,0-.584-.261l-.1-1.279,1.73.84ZM77.73,21.822a.691.691,0,0,0-1.381.058,36.185,36.185,0,0,1-3.213,16.455,2.956,2.956,0,0,1-5.369-2.472,30.125,30.125,0,0,0,2.455-8.63l2.019-.98a.691.691,0,0,0-.6-1.244l-1.252.608q.066-.887.079-1.777l1.776-.862a.691.691,0,0,0-.6-1.244l-1.189.577q-.03-.844-.108-1.686l1.9-.922a.691.691,0,0,0-.6-1.244l-1.467.712a30.128,30.128,0,0,0-2.4-8.249,2.956,2.956,0,0,1,5.369-2.472,35.964,35.964,0,0,1,2.947,10.32.691.691,0,1,0,1.371-.177A37.341,37.341,0,0,0,74.394,7.878a4.264,4.264,0,0,0-3.925-2.491L70.581,3.9A1.056,1.056,0,0,0,69.067,2.87L66.311,4.208a1.055,1.055,0,0,0-.124,1.826l1.132.755a4.224,4.224,0,0,0-.81,4.706,28.756,28.756,0,0,1,0,23.8A4.224,4.224,0,0,0,67.319,40l-1.131.755a1.054,1.054,0,0,0,.124,1.827l2.755,1.338a1.056,1.056,0,0,0,1.513-1.029L70.468,41.4a4.223,4.223,0,0,0,1.327-.2,4.267,4.267,0,0,0,2.6-2.295A37.573,37.573,0,0,0,77.73,21.822ZM69.16,4.361l-.1,1.279a4.256,4.256,0,0,0-.584.261l-1.05-.7ZM67.43,41.585l1.05-.7a4.274,4.274,0,0,0,.583.262l.1,1.279Z" transform="translate(0)" fill="#999" stroke="#999" stroke-width="0.2"/>
  </g>
</svg>
