<svg xmlns="http://www.w3.org/2000/svg" width="39.702" height="33.595" viewBox="0 0 39.702 33.595">
  <path id="Path_26057" data-name="Path 26057" d="M5159.045,483.2a3.054,3.054,0,1,1,3.055-3.054,3.075,3.075,0,0,1-3.055,3.054m-21.377,0a3.054,3.054,0,1,1,3.053-3.054,3.074,3.074,0,0,1-3.053,3.054m27.485-16.8a1.563,1.563,0,0,1-1.359,1.527l-24.91,2.91a7.869,7.869,0,0,1,.309,1.671,3.6,3.6,0,0,1-.573,1.527h21.951a1.526,1.526,0,1,1,0,3.053h-24.431a1.537,1.537,0,0,1-1.526-1.527c0-.738,1.073-2.528,1.454-3.268l-4.223-19.636h-4.868a1.527,1.527,0,0,1,0-3.054h6.109c1.6,0,1.646,1.909,1.885,3.054h28.655a1.537,1.537,0,0,1,1.526,1.527Z" transform="translate(-5125.451 -449.603)" fill="#e3051b"/>
</svg>
