<svg xmlns="http://www.w3.org/2000/svg" width="30.833" height="43.79" viewBox="0 0 30.833 43.79">
  <g id="onion" transform="translate(-22.19 -4.496)">
    <path id="Path_26982" data-name="Path 26982" d="M52.773,31.9c0-4.178-3.424-6.9-6.735-9.525-2.933-2.328-5.7-4.528-6.032-7.554a30.558,30.558,0,0,1,1.189-9.233.639.639,0,0,0-.7-.832,3.972,3.972,0,0,0-2.306,1.181,5.116,5.116,0,0,0-.59.74,5.236,5.236,0,0,0-.587-.745,3.969,3.969,0,0,0-2.3-1.175.639.639,0,0,0-.7.832,30.569,30.569,0,0,1,1.189,9.233c-.328,3.024-3.1,5.224-6.032,7.554C25.864,25,22.44,27.72,22.44,31.9c0,7.417,5.819,12.888,14,13.366a8.53,8.53,0,0,1-.968,1.679.639.639,0,0,0,.933.87.656.656,0,0,0,.066-.073c.05-.064.255-.34.5-.735v.349a.639.639,0,0,0,1.277,0v-.349c.245.395.451.67.5.735a.656.656,0,0,0,.066.073l0,0a.639.639,0,0,0,.938-.863,8.548,8.548,0,0,1-.977-1.692C46.955,44.786,52.773,39.315,52.773,31.9ZM37.615,44.024H37.6C36.375,44,34.687,39.792,34.687,31.9a27.33,27.33,0,0,1,1.562-8.835,33.432,33.432,0,0,0,1.358-5.59,33.431,33.431,0,0,0,1.358,5.59A27.369,27.369,0,0,1,40.526,31.9C40.526,39.792,38.839,44,37.615,44.024ZM35.029,22.685A28.407,28.407,0,0,0,33.41,31.9c0,4.671.638,9.371,2.015,11.77-3.756-1.272-6.3-5.833-6.3-11.77,0-3.648,1.914-6.067,3.941-8.627a24.494,24.494,0,0,0,3.021-4.459c-.283,1.366-.663,2.6-1.056,3.874Zm4.76,20.984c1.377-2.4,2.015-7.1,2.015-11.77a28.4,28.4,0,0,0-1.619-9.212c-.392-1.273-.773-2.509-1.054-3.875a24.444,24.444,0,0,0,3.021,4.459c2.026,2.561,3.941,4.98,3.941,8.627C46.091,37.835,43.544,42.4,39.789,43.669ZM39.1,6.83a2.983,2.983,0,0,1,.521-.421,27.442,27.442,0,0,0-.675,3.715c-.185-.657-.392-1.335-.626-2.009-.008-.022-.018-.042-.026-.063A4.306,4.306,0,0,1,39.1,6.83Zm-3-.005a4.677,4.677,0,0,1,1.012,1.71,43.282,43.282,0,0,1,1.488,5.7H36.495a32.449,32.449,0,0,0-.905-7.828,2.96,2.96,0,0,1,.516.416ZM23.717,31.9c0-3.561,3.037-5.971,6.252-8.523a34,34,0,0,0,4.143-3.668c-.609.946-1.322,1.849-2.052,2.773-2.072,2.619-4.215,5.328-4.215,9.42,0,4.862,1.609,8.888,4.2,11.221C27,41.356,23.717,37.169,23.717,31.9ZM43.168,43.119c2.591-2.333,4.2-6.359,4.2-11.221,0-4.092-2.143-6.8-4.215-9.42-.73-.923-1.443-1.825-2.052-2.773a34,34,0,0,0,4.145,3.67C48.459,25.926,51.5,28.338,51.5,31.9c0,5.271-3.287,9.458-8.327,11.221Z" transform="translate(0)" fill="#999" stroke="#999" stroke-width="0.5"/>
    <path id="Path_26983" data-name="Path 26983" d="M95.962,77.4a.639.639,0,0,0-.639.639,9.529,9.529,0,0,1-.4,2.773.639.639,0,0,0,1.221.369,10.8,10.8,0,0,0,.459-3.144.639.639,0,0,0-.638-.637Z" transform="translate(-46.017 -46.139)" fill="#999" stroke="#999" stroke-width="0.5"/>
  </g>
</svg>
