<svg id="chili" xmlns="http://www.w3.org/2000/svg" width="49.159" height="40.501" viewBox="0 0 49.159 40.501">
  <g id="Group_2925" data-name="Group 2925" transform="translate(15.127 27.894)">
    <g id="Group_2924" data-name="Group 2924">
      <path id="Path_26207" data-name="Path 26207" d="M159.172,335.813a1,1,0,0,0-1.407.186l-.007.01a1,1,0,0,0,1.595,1.218l.006-.008A1,1,0,0,0,159.172,335.813Z" transform="translate(-157.552 -335.606)" fill="#999"/>
    </g>
  </g>
  <g id="Group_2927" data-name="Group 2927" transform="translate(16.794 12.499)">
    <g id="Group_2926" data-name="Group 2926" transform="translate(0 0)">
      <path id="Path_26208" data-name="Path 26208" d="M183.848,175.561a1,1,0,0,0-1.419,0l-.014.014c-1.712,1.655-3.524,5.343-5.123,8.6-.782,1.591-1.52,3.093-2.257,4.41a1,1,0,1,0,1.751.979c.763-1.363,1.512-2.889,2.306-4.505,1.451-2.952,3.256-6.626,4.717-8.039l.041-.04A1,1,0,0,0,183.848,175.561Z" transform="translate(-174.908 -175.269)" fill="#999"/>
    </g>
  </g>
  <g id="Group_2929" data-name="Group 2929" transform="translate(0 0)">
    <g id="Group_2928" data-name="Group 2928">
      <path id="Path_26209" data-name="Path 26209" d="M48.547,45.724a8.869,8.869,0,0,0-3.375-.636,8.345,8.345,0,0,0-7.085,3.931,10.492,10.492,0,0,0-6-1.742,12.247,12.247,0,0,0-7.764,3.039c-2.5,2.155-4.795,6.566-7.45,11.672C12.855,69.723,7.85,79.349.5,83.574A1,1,0,0,0,.9,85.441a27.723,27.723,0,0,0,2.917.148,37.35,37.35,0,0,0,14.37-3.038c7.785-3.255,15.055-8.905,21.609-16.794,3.386-4.075,3.908-9.294,1.579-13.27a5.062,5.062,0,0,1,6.392-2.21,1,1,0,0,0,1.394-.924v-2.7A1,1,0,0,0,48.547,45.724Zm-10.3,18.75C31.9,72.112,24.894,77.571,17.411,80.7A35.439,35.439,0,0,1,4.07,83.583c6.443-5.006,10.914-13.6,14.588-20.668,2.143-4.121,4.041-7.77,5.9-9.967h6.38l-.85,5.134a1,1,0,0,0,1.26,1.13L37.1,57.6l1.817,5.983C38.712,63.889,38.491,64.185,38.25,64.475ZM40.231,61l-1.494-4.92a1,1,0,0,0-1.23-.675l-5.185,1.448.786-4.748a1,1,0,0,0-.99-1.167H26.823a9.86,9.86,0,0,1,5.4-1.679,8.516,8.516,0,0,1,6.085,2.523A8.74,8.74,0,0,1,40.231,61ZM40.1,50.757q-.18-.2-.371-.39l-.072-.07a6.34,6.34,0,0,1,5.512-3.2,7.432,7.432,0,0,1,1.981.265V48a7.079,7.079,0,0,0-7.05,2.753Z" transform="translate(0 -45.088)" fill="#999"/>
    </g>
  </g>
</svg>
