<svg xmlns="http://www.w3.org/2000/svg" width="45.251" height="40.528" viewBox="0 0 45.251 40.528">
  <g id="mushroom_1_" data-name="mushroom (1)" transform="translate(0.25 0.25)">
    <g id="Group_3414" data-name="Group 3414" transform="translate(9.23 4.477)">
      <g id="Group_3413" data-name="Group 3413">
        <path id="Path_26978" data-name="Path 26978" d="M107.344,78.757a.874.874,0,0,0-1.155-.439l-.079.036a.874.874,0,1,0,.727,1.59l.068-.031A.874.874,0,0,0,107.344,78.757Z" transform="translate(-105.599 -78.241)" fill="#ffd101" stroke="#ffd101" stroke-width="0.5"/>
      </g>
    </g>
    <g id="Group_3416" data-name="Group 3416" transform="translate(3.496 6.409)">
      <g id="Group_3415" data-name="Group 3415">
        <path id="Path_26979" data-name="Path 26979" d="M44.372,100.631a.874.874,0,0,0-1.235-.061A9.58,9.58,0,0,0,40,107.655a8.2,8.2,0,0,0,2.109,5.5.874.874,0,1,0,1.3-1.169,6.457,6.457,0,0,1-1.661-4.327,7.829,7.829,0,0,1,2.567-5.79A.874.874,0,0,0,44.372,100.631Z" transform="translate(-39.997 -100.344)" fill="#ffd101" stroke="#ffd101" stroke-width="0.5"/>
      </g>
    </g>
    <g id="Group_3418" data-name="Group 3418" transform="translate(38.787 16.659)">
      <g id="Group_3417" data-name="Group 3417">
        <path id="Path_26980" data-name="Path 26980" d="M445.066,217.733a.874.874,0,1,0-.857,1.523l.005,0a.874.874,0,1,0,.852-1.526Z" transform="translate(-443.759 -217.621)" fill="#ffd101" stroke="#ffd101" stroke-width="0.5"/>
      </g>
    </g>
    <g id="Group_3420" data-name="Group 3420" transform="translate(0 0)">
      <g id="Group_3419" data-name="Group 3419">
        <path id="Path_26981" data-name="Path 26981" d="M43.047,46.351a.874.874,0,0,0-1.4,1.048A6.824,6.824,0,0,1,43,51.466a5.953,5.953,0,0,1-1.531,3.989l-.05.056a3.037,3.037,0,0,1-2.169,1.012h-.108a.069.069,0,0,1-.055-.026.129.129,0,0,1-.031-.1c.01-.117.015-.237.015-.356A4.511,4.511,0,0,0,37.6,52.705a5.229,5.229,0,0,0-1.967-1.123.874.874,0,0,0-1.134.834V54.86a16.152,16.152,0,0,0,.611,4.4,14.4,14.4,0,0,1,.545,3.925A2.115,2.115,0,0,1,33.538,65.3h-.825A2.115,2.115,0,0,1,30.6,63.187a14.4,14.4,0,0,1,.536-3.894,16.12,16.12,0,0,0,.62-4.352V52.416a.874.874,0,0,0-1.134-.834,5.227,5.227,0,0,0-1.967,1.123,4.511,4.511,0,0,0-1.479,3.336c0,.113,0,.227.014.339a.149.149,0,0,1-.036.114.075.075,0,0,1-.055.029H27.07a2.991,2.991,0,0,1-2.22-.988l-.072-.08a5.953,5.953,0,0,1-1.531-3.989,6.737,6.737,0,0,1,1.986-4.795l.283-.283a7.3,7.3,0,0,1,5.2-2.153h4.422c.2,0,.4.007.592.021a.874.874,0,0,0,.124-1.743c-.237-.017-.478-.026-.716-.026H30.715a9.039,9.039,0,0,0-6.434,2.665L24,45.435a8.565,8.565,0,0,0-1.461,1.948,12.9,12.9,0,0,0-11.39,1.059l-.079.049a5.246,5.246,0,0,1-6.648-.958l-.114-.126a9.948,9.948,0,0,1-2.558-6.666A11.331,11.331,0,0,1,5.463,32.36a13.842,13.842,0,0,1,9.313-3.592h6.282A13.842,13.842,0,0,1,30.37,32.36a11.269,11.269,0,0,1,3.679,7.475.874.874,0,1,0,1.742-.14,13.011,13.011,0,0,0-4.247-8.63A15.586,15.586,0,0,0,21.057,27.02H14.776A15.586,15.586,0,0,0,4.289,31.065,13.082,13.082,0,0,0,0,40.741a11.692,11.692,0,0,0,3.007,7.835l.114.126a6.994,6.994,0,0,0,8.863,1.277l.079-.049c.178-.11.359-.212.542-.311v1.365a11.32,11.32,0,0,1-1.064,4.774,13.079,13.079,0,0,0-1.229,5.516,5.78,5.78,0,0,0,5.773,5.773h3.681a5.78,5.78,0,0,0,5.773-5.773,13.051,13.051,0,0,0-.469-3.449,4.734,4.734,0,0,0,2,.445h.036a1.815,1.815,0,0,0,1.339-.6,1.9,1.9,0,0,0,.487-1.437c-.005-.064-.008-.13-.008-.194a2.759,2.759,0,0,1,.9-2.041q.088-.079.18-.152v1.092a14.375,14.375,0,0,1-.555,3.879,16.15,16.15,0,0,0-.6,4.367,3.865,3.865,0,0,0,3.861,3.861h.825A3.865,3.865,0,0,0,37.4,63.187a16.155,16.155,0,0,0-.611-4.4,14.4,14.4,0,0,1-.545-3.925V53.848q.092.073.18.152a2.76,2.76,0,0,1,.9,2.041c0,.068,0,.137-.009.2a1.885,1.885,0,0,0,.476,1.425,1.806,1.806,0,0,0,1.33.6c.056,0,.113,0,.17,0a4.792,4.792,0,0,0,3.427-1.59l.05-.056a7.7,7.7,0,0,0,1.98-5.159A8.582,8.582,0,0,0,43.047,46.351ZM19.767,65.3H16.086a4.03,4.03,0,0,1-4.025-4.025A11.319,11.319,0,0,1,13.125,56.5a13.079,13.079,0,0,0,1.229-5.516V48.859A11.137,11.137,0,0,1,21.861,49a8.56,8.56,0,0,0-.361,2.47,7.718,7.718,0,0,0,.176,1.631,13.063,13.063,0,0,0,1.053,3.4,11.32,11.32,0,0,1,1.064,4.774A4.03,4.03,0,0,1,19.767,65.3Z" transform="translate(0 -27.02)" fill="#ffd101" stroke="#ffd101" stroke-width="0.5"/>
      </g>
    </g>
  </g>
</svg>
