<svg id="clock_5_" data-name="clock (5)" xmlns="http://www.w3.org/2000/svg" width="45" height="45" viewBox="0 0 45 45">
  <g id="Group_3273" data-name="Group 3273" transform="translate(0 0)">
    <g id="Group_3272" data-name="Group 3272">
      <path id="Path_26730" data-name="Path 26730" d="M38.41,6.59A22.5,22.5,0,0,0,6.59,38.41,22.5,22.5,0,0,0,38.41,6.59ZM22.5,40.584A18.1,18.1,0,0,1,4.416,22.5c0-.016,0-.033,0-.049s0-.008,0-.012,0-.014,0-.02a18.1,18.1,0,0,1,17.837-18c.021,0,.041,0,.062,0l.037,0,.147,0a18.084,18.084,0,1,1,0,36.167Z" transform="translate(0 0)" fill="#ffd101"/>
    </g>
  </g>
  <g id="Group_3275" data-name="Group 3275" transform="translate(7.132 7.122)">
    <g id="Group_3274" data-name="Group 3274">
      <path id="Path_26731" data-name="Path 26731" d="M110.247,97.494a1.331,1.331,0,1,1,0-2.663h1.6a15.447,15.447,0,0,0-14.194-13.8v1.4a1.331,1.331,0,1,1-2.663,0V81.061A15.447,15.447,0,0,0,81.153,95.015H82.59a1.331,1.331,0,0,1,0,2.663H81.142A15.446,15.446,0,0,0,95.179,111.77v-1.688a1.331,1.331,0,0,1,2.663,0v1.688a15.445,15.445,0,0,0,14.051-14.277ZM101.9,92.9l-4.448,4.448a1.331,1.331,0,0,1-1.883,0l-7.743-7.743a1.331,1.331,0,0,1,1.883-1.883l6.8,6.8,3.507-3.507A1.331,1.331,0,1,1,101.9,92.9Z" transform="translate(-81.142 -81.029)" fill="#ffd101"/>
    </g>
  </g>
</svg>
