<svg id="Group_3512" data-name="Group 3512" xmlns="http://www.w3.org/2000/svg" width="118.525" height="84.583" viewBox="0 0 118.525 84.583">
  <g id="Group_2831" data-name="Group 2831" transform="translate(44.454 55.346)">
    <g id="Group_2830" data-name="Group 2830" transform="translate(0 0)">
      <path id="Path_26124" data-name="Path 26124" d="M193.768,312.395a1.736,1.736,0,0,0-1.736,1.736V316.5a1.736,1.736,0,1,0,3.472,0v-2.366A1.736,1.736,0,0,0,193.768,312.395Z" transform="translate(-192.032 -312.395)" fill="#ffd100"/>
    </g>
  </g>
  <g id="Group_2833" data-name="Group 2833" transform="translate(70.598 55.346)">
    <g id="Group_2832" data-name="Group 2832" transform="translate(0 0)">
      <path id="Path_26125" data-name="Path 26125" d="M306.7,312.395a1.736,1.736,0,0,0-1.736,1.736V316.5a1.736,1.736,0,0,0,3.472,0v-2.366A1.736,1.736,0,0,0,306.7,312.395Z" transform="translate(-304.967 -312.395)" fill="#ffd100"/>
    </g>
  </g>
  <g id="Group_2835" data-name="Group 2835" transform="translate(54.3 57.547)">
    <g id="Group_2834" data-name="Group 2834" transform="translate(0 0)">
      <path id="Path_26126" data-name="Path 26126" d="M243.894,322.332a1.736,1.736,0,0,0-2.45.165,2.625,2.625,0,0,1-3.838,0,1.736,1.736,0,0,0-2.615,2.285,6.1,6.1,0,0,0,9.067,0A1.736,1.736,0,0,0,243.894,322.332Z" transform="translate(-234.563 -321.903)" fill="#ffd100"/>
    </g>
  </g>
  <g id="Group_2837" data-name="Group 2837">
    <g id="Group_2836" data-name="Group 2836">
      <path id="Path_26127" data-name="Path 26127" d="M112.953,141.482h-.046c0-5.521-.035-11.042-.036-16.567,0-20.5-14.059-39.522-32.669-47.347A54.29,54.29,0,0,0,39,77.184a53.28,53.28,0,0,0-12.779,7.434,1.736,1.736,0,1,0,2.144,2.731A49.858,49.858,0,0,1,38.907,81l4.674,8.259a41.247,41.247,0,0,0-17.289,13.675l-7.561-5.635a51.031,51.031,0,0,1,4.677-5.5,1.736,1.736,0,0,0-2.481-2.43,54.2,54.2,0,0,0-6.008,7.306c-.006.009-.014.016-.02.025a54.076,54.076,0,0,0-9.283,30.19v14.6H5.571A5.577,5.577,0,0,0,0,147.054v5.268a5.578,5.578,0,0,0,5.572,5.572H90.13a1.736,1.736,0,0,0,0-3.472H5.572a2.1,2.1,0,0,1-2.1-2.1v-5.268a2.1,2.1,0,0,1,2.1-2.1H112.953a2.1,2.1,0,0,1,2.1,2.1v5.268a2.1,2.1,0,0,1-2.1,2.1H97.074a1.736,1.736,0,0,0,0,3.472h15.879a5.578,5.578,0,0,0,5.572-5.572v-5.268A5.578,5.578,0,0,0,112.953,141.482ZM94.739,91.406a50.967,50.967,0,0,1,5.054,5.887l-7.561,5.635A41.248,41.248,0,0,0,74.943,89.254l4.674-8.259A49.969,49.969,0,0,1,94.739,91.406ZM42.157,79.687a50.64,50.64,0,0,1,34.211,0l-4.726,8.35a40.824,40.824,0,0,0-24.758,0ZM18.5,141.482H9.09V126.988l9.4,1.392v13.1ZM9.2,123.495a49.814,49.814,0,0,1,7.571-23.33l7.592,5.659a40.514,40.514,0,0,0-5.822,19.055ZM87.67,141.482H30.519c-.348-4.692.813-8.374,3.459-10.959a24.965,24.965,0,0,1,3.99-2.956,26.478,26.478,0,0,0,4.749-3.609,9.4,9.4,0,0,0,2.23-3.5,27.9,27.9,0,0,0,.75-2.714,10.762,10.762,0,0,1,1.7-4.287,17.915,17.915,0,0,1,5.586-4.732,24.471,24.471,0,0,1,12.7-3.32,20.242,20.242,0,0,0-1.218,3.378c-1.177,4.563-.194,8.355,2.843,10.966a1.739,1.739,0,0,0,2.863-1.181,9.552,9.552,0,0,1,1.115-3.477,5.683,5.683,0,0,1,4.277-3.009,17.335,17.335,0,0,0,.251,4.21,18.7,18.7,0,0,0,8.158,12.042C88.33,131.377,88.491,136.921,87.67,141.482Zm8.887,0H91.192c1.169-7.269-.617-12.772-5.225-15.993-8.806-6.154-6.809-14.422-6.722-14.763a1.736,1.736,0,0,0-1.568-2.18c-.286-.018-.572-.027-.85-.027a9.467,9.467,0,0,0-9.065,5.822c-1.255-4.2,2.09-9.372,2.131-9.434a1.736,1.736,0,0,0-1.153-2.67,22.177,22.177,0,0,0-3.748-.313,28.255,28.255,0,0,0-13.728,3.789,21.347,21.347,0,0,0-6.651,5.674,13.862,13.862,0,0,0-2.3,5.555c-.186.779-.378,1.584-.655,2.389a5.977,5.977,0,0,1-1.429,2.2,23.5,23.5,0,0,1-4.15,3.12,27.966,27.966,0,0,0-4.533,3.39c-3.368,3.29-4.881,7.806-4.513,13.443H21.968v-14.6a37.093,37.093,0,0,1,6.174-20.532h0A37.675,37.675,0,0,1,46.668,91.777h0a37.314,37.314,0,0,1,25.187,0h0A37.675,37.675,0,0,1,90.383,106.35h0a37.093,37.093,0,0,1,6.174,20.532v14.6Zm-2.4-35.659,7.593-5.659a49.814,49.814,0,0,1,7.571,23.33l-9.342,1.383A40.515,40.515,0,0,0,94.159,105.823Zm15.276,35.659h-9.4v-13.1l9.4-1.392v14.494Z" transform="translate(0 -73.311)" fill="#ffd100"/>
    </g>
  </g>
</svg>
