<svg xmlns="http://www.w3.org/2000/svg" width="33.091" height="28" viewBox="0 0 33.091 28">
  <path id="Path_26057" data-name="Path 26057" d="M5153.451,477.6a2.546,2.546,0,1,1,2.546-2.546,2.563,2.563,0,0,1-2.546,2.546m-17.817,0a2.546,2.546,0,1,1,2.545-2.546,2.562,2.562,0,0,1-2.545,2.546m22.908-14a1.3,1.3,0,0,1-1.133,1.273l-20.762,2.426a6.555,6.555,0,0,1,.258,1.393,3,3,0,0,1-.478,1.273h18.3a1.272,1.272,0,1,1,0,2.545h-20.362a1.281,1.281,0,0,1-1.272-1.273,10.3,10.3,0,0,1,1.212-2.724l-3.52-16.366h-4.058a1.273,1.273,0,0,1,0-2.546h5.092c1.332,0,1.372,1.591,1.571,2.546h23.883a1.281,1.281,0,0,1,1.272,1.273V463.6Z" transform="translate(-5125.451 -449.603)" fill="#e3e3e3"/>
</svg>
