<svg xmlns="http://www.w3.org/2000/svg" width="44.999" height="45.066" viewBox="0 0 44.999 45.066">
  <g id="pizza_4_" data-name="pizza (4)" transform="translate(-0.383)">
    <path id="Path_26229" data-name="Path 26229" d="M14.936,31.013a2.155,2.155,0,1,0,2.155-2.158,2.159,2.159,0,0,0-2.155,2.158Zm2.992,0a.837.837,0,1,1-.837-.84A.839.839,0,0,1,17.928,31.013ZM16.468,14.106a2.158,2.158,0,1,0,2.155,2.158A2.159,2.159,0,0,0,16.468,14.106Zm0,3a.84.84,0,1,1,.837-.84A.839.839,0,0,1,16.468,17.1Zm-.73,9.853A2.158,2.158,0,1,0,13.582,24.8a2.159,2.159,0,0,0,2.155,2.158Zm0-3a.84.84,0,1,1-.837.84A.839.839,0,0,1,15.737,23.959Zm19.947,7.332a2.158,2.158,0,1,0-2.155-2.158A2.159,2.159,0,0,0,35.684,31.291Zm0-3a.84.84,0,1,1-.837.84A.839.839,0,0,1,35.684,28.293Zm-8.617.6a2.155,2.155,0,1,0,2.155-2.158A2.159,2.159,0,0,0,27.068,28.888Zm2.992,0a.837.837,0,1,1-.837-.84A.839.839,0,0,1,30.059,28.888Zm11.553-9.314A20.608,20.608,0,0,0,21.01,0,20.582,20.582,0,0,0,20,41.141a1.616,1.616,0,0,0,1.665-1.595v-18.3h18.35a1.614,1.614,0,0,0,1.593-1.668ZM7.356,6.961A19.192,19.192,0,0,1,20.351,1.331V3.983A16.64,16.64,0,0,0,4.376,19.924H1.714A19.107,19.107,0,0,1,7.356,6.961Zm2.867,6.7a1.934,1.934,0,0,1-3.44,1.22A15.273,15.273,0,0,1,8.51,11.737,1.941,1.941,0,0,1,10.224,13.665ZM20.351,39.546a.254.254,0,0,1-.284.278A19.284,19.284,0,0,1,1.714,21.242H4.376A16.657,16.657,0,0,0,20.351,37.183ZM6.983,26.751a2.442,2.442,0,0,1,1.479-.492,2.48,2.48,0,0,1,1.23,4.63A15.336,15.336,0,0,1,6.983,26.751Zm13.367,9.111a15.29,15.29,0,0,1-9.705-4.021,3.8,3.8,0,0,0-2.183-6.9,3.751,3.751,0,0,0-1.972.553,15.175,15.175,0,0,1-.8-4.251H20.351Zm1.318-15.938v-7.68a.659.659,0,0,0-1.318,0v7.68H5.695a15.19,15.19,0,0,1,.613-3.676A3.256,3.256,0,1,0,9.4,10.6,15.316,15.316,0,0,1,20.351,5.3V9.168a.659.659,0,0,0,1.318,0V5.3A15.278,15.278,0,0,1,25.64,6a3.09,3.09,0,1,0,5.368,3,15.256,15.256,0,0,1,5.316,10.925H21.669ZM26.4,7.772a1.772,1.772,0,0,1,.552-1.288,15.331,15.331,0,0,1,2.954,1.651A1.771,1.771,0,0,1,26.4,7.772ZM21.669,3.983V1.331A19.286,19.286,0,0,1,40.3,19.638a.254.254,0,0,1-.276.286H37.645A16.644,16.644,0,0,0,21.669,3.983Zm22.4,19.852H36.341a.659.659,0,0,0,0,1.318h3.747a15.264,15.264,0,0,1-5.423,11.018,3.574,3.574,0,1,0-6.327,3.2,15.32,15.32,0,0,1-2.913.405V25.431a.277.277,0,0,1,.276-.278h7.564a.659.659,0,1,0,0-1.318H25.7a1.6,1.6,0,0,0-1.594,1.6v18.32a1.327,1.327,0,0,0,1.352,1.314A20.6,20.6,0,0,0,45.381,25.189,1.326,1.326,0,0,0,44.068,23.836ZM31.3,35.115a2.262,2.262,0,0,1,2.231,1.929,15.313,15.313,0,0,1-3.823,1.937A2.263,2.263,0,0,1,31.3,35.115Zm7.118,3a19.249,19.249,0,0,1-12.994,5.631V41.1A16.7,16.7,0,0,0,41.408,25.154h2.656a19.164,19.164,0,0,1-5.645,12.963ZM29.212,16.459A2.155,2.155,0,1,0,31.367,14.3,2.159,2.159,0,0,0,29.212,16.459Zm2.992,0a.837.837,0,1,1-.837-.84A.839.839,0,0,1,32.2,16.459ZM16.468,7.684a2.158,2.158,0,1,0,2.155,2.158A2.159,2.159,0,0,0,16.468,7.684Zm0,3a.84.84,0,1,1,.837-.84A.839.839,0,0,1,16.468,10.682Zm8.556,3.424a2.158,2.158,0,1,0,2.155,2.158A2.159,2.159,0,0,0,25.024,14.106Zm0,3a.84.84,0,1,1,.837-.84A.839.839,0,0,1,25.024,17.1Z" transform="translate(0 0)" fill="#ffd101"/>
  </g>
</svg>
