<svg xmlns="http://www.w3.org/2000/svg" width="48.186" height="48.159" viewBox="0 0 48.186 48.159">
  <g id="french-fries" transform="translate(0 -0.142)">
    <g id="Group_3513" data-name="Group 3513" transform="translate(0 0.142)">
      <g id="Group_3512" data-name="Group 3512" transform="translate(0)">
        <path id="Path_27082" data-name="Path 27082" d="M48.025,27.752a.8.8,0,0,0-.642-.321H45.462L48.121,15.5a1.653,1.653,0,0,0-.237-1.272,1.551,1.551,0,0,0-1.028-.676l-3.1-.546A1.509,1.509,0,0,0,43.344,13V5.9a1.745,1.745,0,0,0-.48-1.267,1.535,1.535,0,0,0-1.109-.476H38.617a1.633,1.633,0,0,0-1.59,1.629l-.059,1.966-1.453-.34a1.6,1.6,0,0,0-1.942,1.277l-.2,1.05a1.649,1.649,0,0,0-.3-.081l-3.441-.573.033-.852a1.6,1.6,0,0,0-1.6-1.668h-.779l1.005-3.339a1.62,1.62,0,0,0-.114-1.252,1.579,1.579,0,0,0-.939-.782L24.172.218a1.6,1.6,0,0,0-2.018,1.071l-1.99,6.62L20.088,5.7a1.6,1.6,0,0,0-1.608-1.55H15.254a1.606,1.606,0,0,0-1.608,1.661l.168,4.854-3.633.6a1.61,1.61,0,0,0-1.345,1.718H6.42a1.607,1.607,0,0,0-1.605,1.605v4.945l-.846-.62A1.542,1.542,0,0,0,2.8,18.621a1.584,1.584,0,0,0-1.051.647L.315,21.289a1.663,1.663,0,0,0,.3,2.267l4.2,3.224v.651H.827a.8.8,0,0,0-.771,1.027L4.241,42.806a7.671,7.671,0,0,0,7.326,5.5H36.643a7.671,7.671,0,0,0,7.326-5.5l4.184-14.348A.8.8,0,0,0,48.025,27.752Zm-4.7-12.522h.02v-.083l.136-.56,3.074.564L43.818,27.431H40.353Zm-4.692-9.4c0-.043.016-.071,0-.076l3.078-.013c.007.006.031.04.029.125v9.278l-1.933,7.82-1.645-2,1.833-10.952a1.616,1.616,0,0,0-1.217-1.846l-.213-.05ZM35.15,8.972l2.406.562.854.218-1.6,9.574L35.057,17.2a1.659,1.659,0,0,0-1.18-.6c-.049,0-.1,0-.146.006Zm-1.415,9.245h.082l5.508,6.693-.623,2.52H37.591L32.8,21.713l-1.226-1.435Zm1.713,9.158-.009.057H32.224l.458-3.359ZM29.572,10.7l3.239.54-.778,5.719-.01.052h0l-.01.075-.006.023h0l0,.011L32,17.15l-.118.616-1.416,1.351a1.568,1.568,0,0,0-.122,2.167l.727.868-1,5.279H28.929ZM28.063,8.166l-.741,19.265H24.111l.741-19.265h3.212ZM23.685,1.747l3.07,1L25.607,6.56h-.754a1.6,1.6,0,0,0-1.6,1.543l-.033.865H21.522Zm-.532,8.827L22.5,27.431H20.841l-.584-16.857ZM18.481,5.758l.755,21.673H16L15.254,5.758h3.226Zm-4.61,6.527L14.4,27.431h-2.48L10.442,12.848Zm-7.45,2.3H9l.878,8.654L6.42,20.709V14.588Zm-4.8,7.641,1.4-2.025,7.077,5.188.207,2.039h-2ZM42.428,42.357A6.057,6.057,0,0,1,36.643,46.7H11.567a6.057,6.057,0,0,1-5.785-4.339L1.9,29.036H46.313Z" transform="translate(0 -0.142)" fill="#000000"/>
        <path id="Path_27083" data-name="Path 27083" d="M78.7,365.538a3.637,3.637,0,0,0,3.473,2.6h4.485a.8.8,0,0,0,0-1.605H82.173a2.018,2.018,0,0,1-1.928-1.432l-1.616-6a.8.8,0,0,0-1.551.418Z" transform="translate(-69.802 -324.799)" fill="#000000"/>
        <path id="Path_27084" data-name="Path 27084" d="M205.592,445.453h.8a.8.8,0,1,0,0-1.605h-.8a.8.8,0,1,0,0,1.605Z" transform="translate(-185.525 -402.11)" fill="#000000"/>
      </g>
    </g>
  </g>
</svg>
