<svg xmlns="http://www.w3.org/2000/svg" width="56" height="56" viewBox="0 0 56 56">
  <g id="Group_3479" data-name="Group 3479" transform="translate(-310 -509)">
    <g id="ketchup" transform="translate(300.705 513)">
      <g id="Group_3476" data-name="Group 3476" transform="translate(27.982 0)">
        <g id="Group_3475" data-name="Group 3475">
          <path id="Path_27037" data-name="Path 27037" d="M48.905,40.893l-.6-11.711a15.418,15.418,0,0,0-1.252-5.519l-2.964-6.877A13.875,13.875,0,0,1,42.985,12h.75a.75.75,0,0,0,.75-.75V6.75a.75.75,0,0,0-.75-.75H41.359L40.691.657A.75.75,0,0,0,39.947,0h-3A.75.75,0,0,0,36.2.657L35.535,6h-2.3a.75.75,0,0,0-.75.75v4.5a.75.75,0,0,0,.75.75h.675a13.866,13.866,0,0,1-1.1,4.787l-2.966,6.876a15.381,15.381,0,0,0-1.251,5.513L27.985,40.9a3.948,3.948,0,0,0,.649,2.339A3.872,3.872,0,0,0,31.88,45H45.014a3.876,3.876,0,0,0,3.244-1.76A3.953,3.953,0,0,0,48.905,40.893ZM37.609,1.5h1.676L39.847,6h-2.8Zm-3.624,6h9v3h-9ZM47,42.419A2.381,2.381,0,0,1,45.014,43.5H31.88a2.38,2.38,0,0,1-1.99-1.082,2.456,2.456,0,0,1-.4-1.448l.6-11.729a13.931,13.931,0,0,1,1.131-4.985l2.967-6.876A15.367,15.367,0,0,0,35.429,12h6.036a15.35,15.35,0,0,0,1.246,5.38l2.964,6.876a13.938,13.938,0,0,1,1.131,4.994l.6,11.711A2.471,2.471,0,0,1,47,42.419Z" transform="translate(-27.982 0)" fill="#999"/>
        </g>
      </g>
      <g id="Group_3478" data-name="Group 3478" transform="translate(31.697 24.711)">
        <g id="Group_3477" data-name="Group 3477">
          <path id="Path_27038" data-name="Path 27038" d="M81.109,279.339l-.487-9.757a6.269,6.269,0,0,0-12.525,0l-.487,9.757a.75.75,0,0,0,.712.787H80.359a.75.75,0,0,0,.751-.749C81.11,279.365,81.11,279.352,81.109,279.339Zm-11.962-.713.45-8.969a4.769,4.769,0,0,1,9.525,0l.45,8.969Z" transform="translate(-67.609 -263.588)" fill="#999"/>
        </g>
      </g>
    </g>
    <rect id="Rectangle_1514" data-name="Rectangle 1514" width="1.734" height="53.766" transform="translate(318.002 518.26) rotate(-51)" fill="#999"/>
    <g id="Ellipse_104" data-name="Ellipse 104" transform="translate(310 509)" fill="none" stroke="#999" stroke-width="2">
      <circle cx="28" cy="28" r="28" stroke="none"/>
      <circle cx="28" cy="28" r="27" fill="none"/>
    </g>
  </g>
</svg>
