<svg xmlns="http://www.w3.org/2000/svg" width="38.499" height="45.225" viewBox="0 0 38.499 45.225">
  <g id="salmon" transform="translate(-38.25 0.25)">
    <path id="Path_26998" data-name="Path 26998" d="M233.5,211.965A1.965,1.965,0,1,0,235.465,210,1.968,1.968,0,0,0,233.5,211.965Zm2.621,0a.655.655,0,1,1-.655-.655A.656.656,0,0,1,236.121,211.965Z" transform="translate(-177.966 -191.656)" fill="#999" stroke="#999" stroke-width="0.5"/>
    <path id="Path_26999" data-name="Path 26999" d="M70.934,5.565A19,19,0,0,0,38.5,19a19.118,19.118,0,0,0,.425,4.006l3.409,17.138A5.693,5.693,0,0,0,53.61,39.032V31.406a3.89,3.89,0,1,1,7.779,0v7.626a5.693,5.693,0,0,0,11.276,1.111l3.409-17.138A19.117,19.117,0,0,0,76.5,19,18.875,18.875,0,0,0,70.934,5.565ZM57.5,26.206a5.206,5.206,0,0,0-5.2,5.2V37.18a1.965,1.965,0,0,0-2.621,1.853,1.762,1.762,0,0,1-3.49.344l-.741-3.726a12.263,12.263,0,0,1,7.7-13.9,4.585,4.585,0,0,0,8.7,0,12.263,12.263,0,0,1,7.7,13.9l-.741,3.726a1.762,1.762,0,0,1-3.49-.344A1.965,1.965,0,0,0,62.7,37.18V31.406a5.206,5.206,0,0,0-5.2-5.2ZM44.666,19.7a.655.655,0,0,0-.865.331,14.909,14.909,0,0,0-.916,2.73l-.114-.571,0-.01A15.171,15.171,0,0,1,42.431,19,15.015,15.015,0,0,1,52.986,4.622,1.964,1.964,0,0,1,55.534,6.5v3.56a2.626,2.626,0,0,0-.618,1.3,15.015,15.015,0,0,0-9.716,6.2.655.655,0,1,0,1.075.75,13.7,13.7,0,0,1,8.756-5.641,2.625,2.625,0,0,0,.5.856V15.79l-1.277,1.277a4.556,4.556,0,0,0-1.343,3.243c0,.045,0,.089,0,.134a13.636,13.636,0,0,0-8.607,9.485l-.226-1.135A13.569,13.569,0,0,1,45,20.57a.655.655,0,0,0-.331-.865Zm15.3-7.035a13.719,13.719,0,0,1,8.672,5.52,13.537,13.537,0,0,1,2.275,10.6l-.226,1.135a13.636,13.636,0,0,0-8.607-9.485c0-.044,0-.089,0-.134a4.556,4.556,0,0,0-1.343-3.243L59.465,15.79V13.526a2.628,2.628,0,0,0,.5-.856Zm-.5-2.609V6.5a1.964,1.964,0,0,1,2.548-1.878A15.015,15.015,0,0,1,72.568,19a15.183,15.183,0,0,1-.338,3.185l0,.01-.111.559A15.049,15.049,0,0,0,60.083,11.359a2.627,2.627,0,0,0-.618-1.3ZM74.792,22.735l0,.01-3.41,17.143a4.383,4.383,0,0,1-8.681-.855.655.655,0,0,1,1.31,0,3.072,3.072,0,0,0,6.086.6l3.417-17.178A16.5,16.5,0,0,0,73.878,19a16.228,16.228,0,0,0-3.246-9.777,16.55,16.55,0,0,0-8.226-5.85A3.275,3.275,0,0,0,58.155,6.5v3.828a.655.655,0,0,0,.218.488,1.31,1.31,0,0,1,0,1.953.655.655,0,0,0-.218.488v2.8a.655.655,0,0,0,.192.463l1.469,1.469a3.276,3.276,0,1,1-4.633,0l1.469-1.469a.655.655,0,0,0,.192-.463v-2.8a.655.655,0,0,0-.218-.488,1.31,1.31,0,0,1,0-1.953.655.655,0,0,0,.218-.488V6.5a3.275,3.275,0,0,0-4.252-3.128,16.55,16.55,0,0,0-8.226,5.85A16.228,16.228,0,0,0,41.121,19a16.5,16.5,0,0,0,.366,3.455L44.9,39.632a3.072,3.072,0,0,0,6.086-.6.655.655,0,1,1,1.31,0,4.383,4.383,0,0,1-8.681.855l-3.41-17.143,0-.01a17.689,17.689,0,1,1,34.586,0Z" fill="#999" stroke="#999" stroke-width="0.5"/>
  </g>
</svg>
