<svg xmlns="http://www.w3.org/2000/svg" width="41.646" height="46.247" viewBox="0 0 41.646 46.247">
  <g id="canned-sardines" transform="translate(-25.469)">
    <path id="Path_27015" data-name="Path 27015" d="M55.058,27.656V43.38a2.876,2.876,0,0,1-2.87,2.868H28.339a2.876,2.876,0,0,1-2.87-2.868V2.87A2.876,2.876,0,0,1,28.339,0h1.754a.677.677,0,0,1,0,1.354H28.339A1.521,1.521,0,0,0,26.823,2.87V43.38a1.521,1.521,0,0,0,1.516,1.513H52.188A1.521,1.521,0,0,0,53.7,43.38V27.661H51.686V42.2a.678.678,0,0,1-.676.679H49.256a.677.677,0,1,1,0-1.354h1.075V27.661H33.376a.679.679,0,0,1,0-1.357,3.179,3.179,0,1,0-3.18-3.18v18.4h15.99a.677.677,0,1,1,0,1.354H29.517a.677.677,0,0,1-.676-.679V4.048a.675.675,0,0,1,.676-.676H51.01a.675.675,0,0,1,.676.676V18.589H53.7V2.87a1.521,1.521,0,0,0-1.516-1.516H33.161a.677.677,0,0,1,0-1.354H52.188a2.876,2.876,0,0,1,2.87,2.87V18.592a4.552,4.552,0,0,1,4.294,3.856h1.936v-2.3a1.556,1.556,0,0,1,1.554-1.554h2.717a1.561,1.561,0,0,1,1.557,1.554V21.59a.679.679,0,0,1-1.357,0V20.143A.191.191,0,0,0,65.7,20a.2.2,0,0,0-.141-.059H62.842a.2.2,0,0,0-.2.2v5.963a.2.2,0,0,0,.059.138.191.191,0,0,0,.141.059h2.717a.187.187,0,0,0,.141-.059.185.185,0,0,0,.059-.138V24.658a.679.679,0,0,1,1.357,0v1.449a1.565,1.565,0,0,1-1.557,1.554H62.842a1.56,1.56,0,0,1-1.554-1.554V23.8H59.352a4.553,4.553,0,0,1-4.294,3.853ZM36.041,34a.722.722,0,1,1,0-1.444h8.447a.722.722,0,1,1,0,1.444Zm0,2.63a.722.722,0,1,1,0-1.444h8.447a.722.722,0,1,1,0,1.444Zm11.75-22.471a.677.677,0,1,1-1.355,0V13.23a.677.677,0,1,1,1.355,0Zm-6.125,0a.677.677,0,1,1-1.354,0V13.23a.677.677,0,1,1,1.354,0Zm-6.122,0a.677.677,0,1,1-1.355,0V13.23a.677.677,0,1,1,1.355,0Zm7.781-2.991A12.121,12.121,0,0,1,45.948,8,.674.674,0,0,1,46.834,8a12.158,12.158,0,0,1,3.116,4.122c.133.284.261.581.382.891V4.727H30.2V13.02A12.433,12.433,0,0,1,33.693,8,.674.674,0,0,1,34.579,8a11.983,11.983,0,0,1,2.622,3.17,12.107,12.107,0,0,1,.878-1.324A11.922,11.922,0,0,1,39.823,8,.677.677,0,0,1,40.712,8,12.006,12.006,0,0,1,43.326,11.166ZM50.2,18.589A17.623,17.623,0,0,0,48.726,12.7a10.954,10.954,0,0,0-2.34-3.283,10.779,10.779,0,0,0-1.114,1.247,11.281,11.281,0,0,0-1.206,2,19.8,19.8,0,0,1,1.372,5.925H50.2Zm-6.122,0a17.6,17.6,0,0,0-1.482-5.9,10.905,10.905,0,0,0-2.333-3.27,10.7,10.7,0,0,0-1.109,1.242,11.271,11.271,0,0,0-1.214,2,19.634,19.634,0,0,1,1.372,5.922Zm-6.122,0A17.658,17.658,0,0,0,36.5,12.744,10.865,10.865,0,0,0,34.142,9.42,11.143,11.143,0,0,0,31.5,13.4a19.905,19.905,0,0,0-1.262,6.455,4.521,4.521,0,0,1,3.139-1.262h4.581Zm-6.2,17.537a.677.677,0,1,1,1.354,0v2.246h14.3V30.81h-14.3v2.246a.677.677,0,1,1-1.354,0V30.134a.68.68,0,0,1,.679-.679H48.091a.68.68,0,0,1,.679.679v8.913a.68.68,0,0,1-.679.679H32.436a.68.68,0,0,1-.679-.679ZM36.61,26.3H54.869a3.18,3.18,0,0,0,0-6.36H36.61a4.538,4.538,0,0,1,0,6.36Z" transform="translate(0)" fill="#ffd101"/>
  </g>
</svg>
