<svg xmlns="http://www.w3.org/2000/svg" width="55.331" height="50.276" viewBox="0 0 55.331 50.276">
  <g id="Group_3508" data-name="Group 3508" transform="translate(0 0)">
    <g id="Group_3507" data-name="Group 3507" transform="translate(0 0)">
      <path id="Path_27070" data-name="Path 27070" d="M277.748,283.459h-8.284a2,2,0,0,0-2,2V293.8h-.2a1.67,1.67,0,0,0-1.669,1.668v2.088a1.67,1.67,0,0,0,1.669,1.668h12.685a1.67,1.67,0,0,0,1.668-1.668v-2.088a1.67,1.67,0,0,0-1.668-1.668h-.2v-8.346A2,2,0,0,0,277.748,283.459Zm-3.331,1.621h3.331a.375.375,0,0,1,.375.374v3.175h-3.706Zm0,5.171h3.706v3.55h-3.706Zm-5.327-4.8a.375.375,0,0,1,.375-.374H272.8v3.55H269.09Zm0,4.8H272.8v3.55H269.09Zm10.859,5.171a.048.048,0,0,1,.047.047v2.088a.048.048,0,0,1-.047.047H267.263a.048.048,0,0,1-.048-.047v-2.088a.047.047,0,0,1,.048-.047Z" transform="translate(-236.892 -255.353)" fill="#ffd101"/>
      <path id="Path_27071" data-name="Path 27071" d="M53.312,39.748l-5.959-2.315V29.588a1.829,1.829,0,0,0,1.575-1.808V25.217A1.83,1.83,0,0,0,47.1,23.389H35.389a1.83,1.83,0,0,0-1.828,1.828V27.78a1.829,1.829,0,0,0,1.575,1.808v3.1l-5.441-2.114a5.591,5.591,0,0,0-4.058,0l-16.32,6.34A.811.811,0,1,0,9.9,38.424l16.32-6.34a3.975,3.975,0,0,1,2.884,0l23.618,9.174A1.534,1.534,0,0,1,53.71,42.7v3.075a1.544,1.544,0,0,1-2.1,1.439l-22.8-8.855a3.158,3.158,0,0,0-2.292,0l-22.8,8.855a1.544,1.544,0,0,1-2.1-1.439V42.7a1.534,1.534,0,0,1,.985-1.439l3.675-1.428a.811.811,0,0,0-.587-1.511L2.019,39.748A3.145,3.145,0,0,0,0,42.7v3.075a3.165,3.165,0,0,0,4.311,2.95l.951-.369V70.415a3.254,3.254,0,0,0,3.25,3.25H46.819a3.254,3.254,0,0,0,3.25-3.25V68.173a.811.811,0,0,0-1.621,0v2.241a1.631,1.631,0,0,1-1.629,1.629H25.974V54.57A3.079,3.079,0,0,0,22.9,51.495H13.683a3.079,3.079,0,0,0-3.076,3.076V72.044H8.512a1.631,1.631,0,0,1-1.629-1.629V47.724l20.223-7.856a1.542,1.542,0,0,1,1.118,0l20.224,7.856V64.332a.811.811,0,0,0,1.621,0V48.353l.951.369a3.165,3.165,0,0,0,4.311-2.95V42.7A3.145,3.145,0,0,0,53.312,39.748ZM45.732,36.8l-8.976-3.487V29.608h8.976Zm1.575-9.023a.207.207,0,0,1-.207.207H35.389a.207.207,0,0,1-.207-.207V25.217a.207.207,0,0,1,.207-.207H47.1a.207.207,0,0,1,.207.207ZM12.228,54.57a1.456,1.456,0,0,1,1.455-1.455H22.9a1.456,1.456,0,0,1,1.455,1.455V72.044H12.228Z" transform="translate(0 -23.389)" fill="#ffd101"/>
      <ellipse id="Ellipse_117" data-name="Ellipse 117" cx="0.773" cy="0.773" rx="0.773" ry="0.773" transform="translate(13.691 38.417)" fill="#ffd101"/>
    </g>
  </g>
</svg>
