<svg xmlns="http://www.w3.org/2000/svg" width="235.301" height="326.184" viewBox="0 0 235.301 326.184">
  <g id="Group_3239" data-name="Group 3239" transform="translate(-89 -74.404)">
    <path id="Path_26634" data-name="Path 26634" d="M1237.878,554.037c-.067-.03-.134-.06-.2-.089l-.076-.42c.043.018.084.037.127.056C1237.777,553.735,1237.827,553.886,1237.878,554.037Zm-3.976-1.613a51.987,51.987,0,0,0-6.845-1.969l.262-.362a52.249,52.249,0,0,1,6.673,1.968C1233.962,552.181,1233.934,552.3,1233.9,552.424Z" transform="translate(-1036.312 -275.228)" fill="#9ad8ff"/>
    <path id="Path_26635" data-name="Path 26635" d="M1250.97,493.8a47.243,47.243,0,0,1-1.82-8.859c.067-.432.125-.836.177-1.208l.364,2.253Q1250.274,489.9,1250.97,493.8Zm-2.057-12.342c0-.117-.008-.235-.009-.353l.051.31C1248.939,481.425,1248.925,481.439,1248.912,481.454Zm.943-7.94-.192-1.763q.191-1.013.418-1.979c2.13-9.136,6.567-14.976,8.145-14.976a.472.472,0,0,1,.338.129c-1.694.321-5.867,5.992-7.961,14.741C1250.31,470.889,1250.056,472.175,1249.855,473.514Z" transform="translate(-1049.823 -216.288)" fill="#e6f6ff"/>
    <path id="Path_26636" data-name="Path 26636" d="M1251.738,522.367c-.172-.08-.343-.158-.515-.235-.094-.285-.183-.566-.27-.849q-.694-3.891-1.28-7.814l-.364-2.253c-.051.372-.11.776-.177,1.208q-.188-1.774-.237-3.483c.013-.014.027-.029.041-.043l-.051-.31a45.352,45.352,0,0,1,.76-9.35l.192,1.763A46.137,46.137,0,0,0,1251.738,522.367Z" transform="translate(-1049.806 -243.775)" fill="#9ad8ff"/>
    <path id="Path_26637" data-name="Path 26637" d="M1271.593,589.836a22.347,22.347,0,0,1-2.2-1.788A60.216,60.216,0,0,1,1262.934,578c.113-.057.226-.113.339-.169a60.016,60.016,0,0,0,6.6,10.314,18.678,18.678,0,0,0,1.756,1.473Z" transform="translate(-1058.501 -292.386)" fill="#67c4ff"/>
    <path id="Path_26638" data-name="Path 26638" d="M1255.7,559.934l-.518-.235c-.051-.151-.1-.3-.149-.453.172.078.343.156.515.235Q1255.619,559.707,1255.7,559.934Z" transform="translate(-1053.613 -280.89)" fill="#b3e2ff"/>
    <path id="Path_26639" data-name="Path 26639" d="M1257.957,566.583a51.518,51.518,0,0,1-2.537-6.15l.518.235a51.33,51.33,0,0,0,2.362,5.745C1258.186,566.469,1258.072,566.526,1257.957,566.583Z" transform="translate(-1053.854 -281.624)" fill="#99d8ff"/>
    <path id="Path_26640" data-name="Path 26640" d="M1262.4,576.935c-.111-.219-.219-.437-.327-.657.114-.057.229-.114.343-.17q.157.329.323.658C1262.625,576.822,1262.512,576.878,1262.4,576.935Z" transform="translate(-1057.968 -291.319)" fill="#9ad8ff"/>
    <path id="Path_26641" data-name="Path 26641" d="M1298.513,393.517s-.184-.172-.481-.5c-.035-.8-.113-2.726-.161-5.268-.057-3.087-.08-7.067.036-11.006a77.015,77.015,0,0,1,.963-10.973,10.143,10.143,0,0,1,.6-1.982c.159-.428.359-.871.582-1.326,3.718-7.581,14.343-16.869,16.564-16.869a.4.4,0,0,1,.321.121c-2.476.377-12.362,9.064-16.184,16.4a14.723,14.723,0,0,0-.647,1.353,11.485,11.485,0,0,0-.765,2.412,75,75,0,0,0-.946,10.817c-.13,3.905-.108,7.875-.051,10.973l-.011,0c.071,3.464.183,5.845.183,5.845Zm26.147-25.431a4.156,4.156,0,0,1-.651-1.092,31.577,31.577,0,0,1,.709-6.867c.156-.9.343-1.846.536-2.822.063-.315.127-.634.194-.954l.77-1.261c-.166.763-.323,1.517-.471,2.255-.194.963-.378,1.917-.537,2.811-.639,3.578-.949,6.434-.625,7.481.092.307.113.448.076.448Zm2.169-17.858c.422-1.755.86-3.47,1.284-5.058.119.183.237.364.358.547-.248.935-.5,1.909-.749,2.907C1327.42,349.162,1327.131,349.7,1326.829,350.228Zm3.936-12.158c.024-.388.045-.785.064-1.194a.263.263,0,0,1,.045-.035c.332-.181,2.287-1.394,4.9-2.879-.094.178-.186.355-.278.533-2.235,1.286-3.858,2.292-4.157,2.458a2.985,2.985,0,0,0-.576,1.117Zm7.691-5.236c.083-.162.164-.326.246-.488a56.168,56.168,0,0,1,9.151-4.106,10.091,10.091,0,0,1,2.785-.52,2.96,2.96,0,0,1,.916.126,3.909,3.909,0,0,0-.421-.021,11.969,11.969,0,0,0-3.578.757A64.886,64.886,0,0,0,1338.456,332.835Z" transform="translate(-1080.08 -137.693)" fill="#e6f6ff"/>
    <path id="Path_26642" data-name="Path 26642" d="M1370.23,363.851c.3-1.421.618-2.885.957-4.343.088-.364.175-.729.259-1.093.055-.229.109-.458.165-.687.3-.533.591-1.067.893-1.6-.171.685-.341,1.381-.51,2.082-.087.364-.173.728-.25,1.092-.259,1.1-.51,2.2-.745,3.292Zm3.024-10.635c-.121-.183-.239-.364-.358-.547,1.188-4.433,2.28-7.861,2.715-8.293-.019.409-.04.806-.064,1.194C1374.978,347.057,1374.139,349.878,1373.254,353.216ZM1380.28,342c.092-.178.184-.354.278-.533.909-.517,1.9-1.067,2.927-1.616-.083.162-.164.326-.247.488C1382.182,340.909,1381.181,341.475,1380.28,342Z" transform="translate(-1124.863 -145.192)" fill="#81ceff"/>
    <path id="Path_26643" data-name="Path 26643" d="M1065.344,367.661l-35.024-17.085a1.59,1.59,0,0,1-.892-1.428V167.039a1.78,1.78,0,0,1,2.559-1.6l33.357,16.271Z" transform="translate(-914.079 -37.21)" fill="#ffd101"/>
    <path id="Path_26644" data-name="Path 26644" d="M1123.57,365.933l35.917-17.519V162.462l-35.917,17.519Z" transform="translate(-972.306 -35.481)" fill="#f29f05"/>
    <path id="Path_26645" data-name="Path 26645" d="M1253.624,365.933l-35.916-17.519V162.462l35.916,17.519Z" transform="translate(-1030.529 -35.481)" fill="#ffd101"/>
    <path id="Path_26646" data-name="Path 26646" d="M1311.85,365.933l35.917-17.519V162.462l-35.917,17.519Z" transform="translate(-1088.755 -35.481)" fill="#f29f05"/>
    <path id="Path_26647" data-name="Path 26647" d="M1439.354,364.685,1406,348.414V162.462l35.024,17.085a1.589,1.589,0,0,1,.89,1.427V363.086A1.779,1.779,0,0,1,1439.354,364.685Z" transform="translate(-1146.985 -35.481)" fill="#ffd101"/>
    <path id="Path_26648" data-name="Path 26648" d="M1340.478,124.9c0,29.637-53.662,87.044-53.662,87.044s-53.662-57.407-53.662-87.044a53.662,53.662,0,0,1,107.325,0Z" transform="translate(-1040.082 20.939)" fill="#e3051b"/>
    <path id="Path_26649" data-name="Path 26649" d="M1356.036,172.325a28.613,28.613,0,1,1-28.613-28.613A28.614,28.614,0,0,1,1356.036,172.325Z" transform="translate(-1080.69 -23.885)" fill="#ffd101"/>
    <path id="Path_26650" data-name="Path 26650" d="M1055.756,53.124a11.175,11.175,0,1,1-11.175-11.174A11.175,11.175,0,0,1,1055.756,53.124Z" transform="translate(-916.54 39.054)" fill="#ffd101"/>
    <path id="Path_26651" data-name="Path 26651" d="M1442.308,753.831a10.465,10.465,0,1,1-10.464-10.464A10.464,10.464,0,0,1,1442.308,753.831Z" transform="translate(-1156.498 -394.767)" fill="#ffd101"/>
    <path id="Path_26652" data-name="Path 26652" d="M1054.725,68.464a53.665,53.665,0,0,1,7.88,4.076,3.974,3.974,0,0,0,4.225-6.732,61.606,61.606,0,0,0-9.047-4.68,3.974,3.974,0,0,0-3.058,7.336Z" transform="translate(-928.213 27.382)" fill="#232323"/>
    <path id="Path_26653" data-name="Path 26653" d="M1114.7,113.788a86.914,86.914,0,0,1,10.371,16.179,3.974,3.974,0,1,0,7.094-3.585,94.728,94.728,0,0,0-11.335-17.654,3.974,3.974,0,0,0-6.13,5.06Zm17.909,34.29c2.084,6.028,3.95,12.4,5.668,19.034a3.975,3.975,0,0,0,7.7-1.993c-1.76-6.788-3.682-13.361-5.851-19.638a3.974,3.974,0,0,0-7.512,2.6Zm10.219,38.521c1.375,6.449,2.683,13.045,3.981,19.718a3.974,3.974,0,0,0,7.8-1.517c-1.3-6.694-2.618-13.334-4.009-19.859a3.974,3.974,0,0,0-7.773,1.658Zm7.829,39.548c1.305,6.624,2.655,13.262,4.106,19.854a3.974,3.974,0,1,0,7.762-1.708c-1.432-6.509-2.771-13.092-4.071-19.684a3.973,3.973,0,1,0-7.8,1.537Zm8.869,39.643c1.771,6.665,3.71,13.215,5.881,19.587a3.975,3.975,0,0,0,7.524-2.566c-2.1-6.163-3.991-12.541-5.723-19.061a3.974,3.974,0,1,0-7.682,2.039Zm13.45,38.715a141.849,141.849,0,0,0,9.938,18.18,3.974,3.974,0,1,0,6.66-4.337,134.275,134.275,0,0,1-9.379-17.166,3.974,3.974,0,0,0-7.22,3.323Zm22.916,34.525a90.655,90.655,0,0,0,16.262,13.264,3.974,3.974,0,1,0,4.27-6.7,82.737,82.737,0,0,1-14.841-12.108,3.974,3.974,0,1,0-5.691,5.548Z" transform="translate(-966.255 -1.354)" fill="#232323"/>
    <path id="Path_26654" data-name="Path 26654" d="M1417.073,761.017q4.578,1.6,9.519,2.814a3.975,3.975,0,0,0,1.885-7.722q-4.576-1.116-8.778-2.593a3.974,3.974,0,1,0-2.626,7.5Z" transform="translate(-1152.188 -400.905)" fill="#232323"/>
    <path id="Path_26655" data-name="Path 26655" d="M1170.86,57.8h6.413v-1.59h-6.413" transform="translate(-1001.554 30.233)" fill="#ffd101"/>
    <path id="Path_26656" data-name="Path 26656" d="M1221.35,57.8h6.411v-1.59h-6.411" transform="translate(-1032.782 30.233)" fill="#ffd101"/>
    <path id="Path_26657" data-name="Path 26657" d="M1179.24,34.157l4.533,4.533,1.124-1.124-4.534-4.534" transform="translate(-1006.737 44.569)" fill="#ffd101"/>
    <path id="Path_26658" data-name="Path 26658" d="M1214.94,69.853l4.535,4.535,1.124-1.125-4.535-4.534" transform="translate(-1028.817 22.491)" fill="#ffd101"/>
    <path id="Path_26659" data-name="Path 26659" d="M1202.42,24.65v6.412h1.59V24.65" transform="translate(-1021.074 49.754)" fill="#ffd101"/>
    <path id="Path_26660" data-name="Path 26660" d="M1202.42,75.133v6.413h1.59V75.133" transform="translate(-1021.074 18.53)" fill="#ffd101"/>
    <path id="Path_26661" data-name="Path 26661" d="M1219.478,33.033l-4.535,4.534,1.124,1.124,4.535-4.533" transform="translate(-1028.819 44.569)" fill="#ffd101"/>
    <path id="Path_26662" data-name="Path 26662" d="M1183.781,68.729l-4.534,4.534,1.124,1.125,4.534-4.535" transform="translate(-1006.741 22.491)" fill="#ffd101"/>
    <path id="Path_26663" data-name="Path 26663" d="M1550.88,555.958v.795a4.6,4.6,0,1,1-4.6,4.6,4.6,4.6,0,0,1,4.6-4.6v-1.589a6.187,6.187,0,1,0,6.188,6.187,6.185,6.185,0,0,0-6.188-6.187Z" transform="translate(-1232.767 -278.364)" fill="#ffd101"/>
    <path id="Path_26664" data-name="Path 26664" d="M1279.576,31.049v.795a2.3,2.3,0,1,1-2.3,2.3,2.305,2.305,0,0,1,2.3-2.3v-1.59a3.889,3.889,0,1,0,3.891,3.89,3.889,3.889,0,0,0-3.891-3.89Z" transform="translate(-1066.39 46.288)" fill="#ffd101"/>
    <path id="Path_26665" data-name="Path 26665" d="M972.84,144.037v.795a2.3,2.3,0,1,1-2.3,2.3,2.3,2.3,0,0,1,2.3-2.3v-1.589a3.889,3.889,0,1,0,3.89,3.888,3.888,3.888,0,0,0-3.89-3.888Z" transform="translate(-876.674 -23.595)" fill="#ffd101"/>
    <path id="Path_26666" data-name="Path 26666" d="M980.953,430.653v.795a2.3,2.3,0,1,1-2.3,2.3,2.3,2.3,0,0,1,2.3-2.3v-1.59a3.89,3.89,0,1,0,3.888,3.89,3.891,3.891,0,0,0-3.888-3.89Z" transform="translate(-881.692 -200.864)" fill="#ffd101"/>
    <path id="Path_26667" data-name="Path 26667" d="M1235.87,866.135h9.925v-1.589h-9.925" transform="translate(-1041.763 -469.715)" fill="#ffd101"/>
    <path id="Path_26668" data-name="Path 26668" d="M1246.79,853.621v9.926h1.589v-9.926" transform="translate(-1048.516 -462.958)" fill="#ffd101"/>
    <path id="Path_26669" data-name="Path 26669" d="M960.363,665.628l7.018,7.018,1.124-1.124-7.018-7.018" transform="translate(-871.363 -345.991)" fill="#ffd101"/>
    <path id="Path_26670" data-name="Path 26670" d="M967.381,664.5l-7.018,7.018,1.123,1.124,7.018-7.018" transform="translate(-871.363 -345.991)" fill="#ffd101"/>
  </g>
</svg>
