<svg xmlns="http://www.w3.org/2000/svg" width="28.664" height="28.663" viewBox="0 0 28.664 28.663">
  <g id="user_2_" data-name="user (2)" transform="translate(0 -0.011)">
    <g id="Group_3253" data-name="Group 3253" transform="translate(0 0.011)">
      <path id="Path_26723" data-name="Path 26723" d="M24.687,4.421A14.326,14.326,0,1,0,4.41,24.654c.008.008.011.02.019.028.083.08.173.147.257.224.23.2.461.417.7.614.13.1.265.2.4.3.229.171.458.342.7.5.163.1.331.2.5.307.221.133.441.267.669.389.193.1.391.19.587.283.215.1.427.2.647.3s.441.164.664.244.415.154.629.219c.242.073.489.129.735.189.2.05.4.107.614.148.282.056.569.092.856.131.177.025.35.059.529.077.469.046.941.072,1.418.072s.95-.026,1.418-.072c.179-.017.352-.052.529-.077.287-.039.573-.075.856-.131.2-.041.409-.1.614-.148.246-.06.493-.117.735-.189.214-.065.421-.145.629-.219s.446-.154.664-.244.432-.2.647-.3c.2-.093.394-.181.587-.283.228-.122.448-.256.669-.389.167-.1.335-.2.5-.307.239-.158.469-.328.7-.5.133-.1.268-.194.4-.3.243-.194.473-.4.7-.614.084-.077.174-.144.257-.224.008-.007.011-.019.019-.028A14.31,14.31,0,0,0,24.687,4.421Zm-2.3,19.161c-.186.164-.379.319-.573.47-.115.088-.229.175-.347.259-.185.134-.374.261-.565.383-.139.089-.281.175-.425.259q-.27.154-.549.307c-.164.084-.331.163-.5.241s-.353.161-.534.233-.374.141-.563.2c-.173.059-.346.121-.521.173-.2.061-.419.112-.63.163-.166.039-.329.083-.5.116-.243.047-.49.08-.739.114-.141.018-.281.044-.424.058-.393.038-.791.06-1.193.06s-.8-.022-1.193-.06c-.142-.014-.282-.04-.424-.058-.249-.034-.5-.066-.739-.114-.168-.033-.332-.077-.5-.116-.212-.051-.423-.1-.63-.163-.175-.052-.348-.114-.521-.173-.189-.065-.379-.132-.563-.2s-.358-.152-.534-.233-.335-.157-.5-.241c-.185-.1-.368-.2-.549-.307-.143-.084-.286-.17-.425-.259-.191-.122-.38-.249-.565-.383-.118-.084-.232-.171-.347-.259-.194-.15-.387-.307-.573-.47-.045-.034-.086-.077-.13-.116a8.211,8.211,0,0,1,5.581-7.67,6.068,6.068,0,0,0,5.213,0,8.211,8.211,0,0,1,5.581,7.67C22.472,23.505,22.431,23.544,22.387,23.582ZM10.759,8.216a4.094,4.094,0,1,1,5.574,5.574.022.022,0,0,0-.017.006,4.336,4.336,0,0,1-.856.362c-.053.015-.1.036-.159.049-.1.027-.21.045-.315.063a4.146,4.146,0,0,1-.6.06h-.117a4.145,4.145,0,0,1-.6-.06c-.1-.018-.211-.037-.315-.063-.054-.013-.1-.034-.159-.049a4.332,4.332,0,0,1-.856-.362l-.018-.006A4.094,4.094,0,0,1,10.759,8.216ZM24.33,21.437h0a10.285,10.285,0,0,0-5.479-7.054,6.14,6.14,0,1,0-9.047,0,10.285,10.285,0,0,0-5.479,7.054,12.281,12.281,0,1,1,20.005,0Z" transform="translate(0 -0.011)" fill="#fff"/>
    </g>
  </g>
</svg>
