<svg xmlns="http://www.w3.org/2000/svg" width="22.768" height="28.999" viewBox="0 0 22.768 28.999">
  <g id="Group_3254" data-name="Group 3254" transform="translate(-18.001 -891)">
    <path id="Subtraction_5" data-name="Subtraction 5" d="M10.385,27A10.478,10.478,0,0,1,0,16.453C0,13.007,1.6,9.276,4.758,5.364a.824.824,0,0,1,1.364.116A1.776,1.776,0,0,0,7.7,6.426,1.846,1.846,0,0,0,9.554,4.555V.845A.842.842,0,0,1,10.389,0a.81.81,0,0,1,.508.18A36.216,36.216,0,0,1,15.8,5.1c3.3,4.006,4.971,7.825,4.971,11.351A10.478,10.478,0,0,1,10.385,27Z" transform="translate(19 892)" fill="none" stroke="#fff" stroke-width="2"/>
    <g id="discount" transform="translate(24.502 902.286)">
      <path id="Path_26558" data-name="Path 26558" d="M192.206,224.219a.953.953,0,0,0-1.339.168l-6.68,8.6a.955.955,0,1,0,1.507,1.173l6.68-8.6A.957.957,0,0,0,192.206,224.219Z" transform="translate(-183.031 -224.018)" fill="#fff"/>
      <ellipse id="Ellipse_84" data-name="Ellipse 84" cx="1.909" cy="1.911" rx="1.909" ry="1.911" transform="translate(6.68 6.69)" fill="#fff"/>
      <ellipse id="Ellipse_85" data-name="Ellipse 85" cx="1.909" cy="1.911" rx="1.909" ry="1.911" transform="translate(0 0)" fill="#fff"/>
    </g>
  </g>
</svg>
