<svg xmlns="http://www.w3.org/2000/svg" width="40.586" height="38" viewBox="0 0 40.586 38">
  <g id="gift_2_" data-name="gift (2)" transform="translate(0 -16.308)">
    <g id="Group_3196" data-name="Group 3196" transform="translate(2.537 36.552)">
      <g id="Group_3195" data-name="Group 3195">
        <path id="Path_26573" data-name="Path 26573" d="M32,271.692v15.22a2.539,2.539,0,0,0,2.537,2.537H47.22V271.692Z" transform="translate(-32 -271.692)" fill="#e3051b"/>
      </g>
    </g>
    <g id="Group_3198" data-name="Group 3198" transform="translate(0 16.308)">
      <g id="Group_3197" data-name="Group 3197">
        <path id="Path_26574" data-name="Path 26574" d="M38.049,26.406H30.023a9.855,9.855,0,0,0,1.415-1.134,5.3,5.3,0,0,0,0-7.463,5.36,5.36,0,0,0-7.44,0c-1.1,1.1-4.018,5.6-3.615,8.6H20.2c.4-3-2.516-7.493-3.615-8.6a5.365,5.365,0,0,0-7.44,0,5.309,5.309,0,0,0,0,7.463,10.038,10.038,0,0,0,1.418,1.134H2.537A2.541,2.541,0,0,0,0,28.942v3.8a1.269,1.269,0,0,0,1.268,1.268H17.756V28.942h5.073v5.073H39.317a1.269,1.269,0,0,0,1.268-1.268v-3.8A2.539,2.539,0,0,0,38.049,26.406Zm-20.442-.084a.836.836,0,0,1-.469.084c-1.753,0-5.1-1.821-6.192-2.922a2.767,2.767,0,0,1,0-3.886,2.7,2.7,0,0,1,3.843,0C16.5,21.317,18.2,25.711,17.607,26.322Zm5.839.084c-.36,0-.467-.081-.467-.084-.591-.611,1.108-5,2.818-6.725a2.733,2.733,0,0,1,3.843,3.886C28.547,24.584,25.2,26.406,23.446,26.406Z" transform="translate(0 -16.308)" fill="#e3051b"/>
      </g>
    </g>
    <g id="Group_3200" data-name="Group 3200" transform="translate(22.829 36.552)">
      <g id="Group_3199" data-name="Group 3199">
        <path id="Path_26575" data-name="Path 26575" d="M288,271.692v17.756h12.683a2.538,2.538,0,0,0,2.537-2.537v-15.22Z" transform="translate(-288 -271.692)" fill="#e3051b"/>
      </g>
    </g>
  </g>
</svg>
