<svg id="lemon" xmlns="http://www.w3.org/2000/svg" width="44.698" height="44.751" viewBox="0 0 44.698 44.751">
  <g id="Group_3328" data-name="Group 3328" transform="translate(9.979 21.662)">
    <g id="Group_3327" data-name="Group 3327">
      <path id="Path_26935" data-name="Path 26935" d="M124.841,248.6a.911.911,0,0,0-1.049-.751,14.862,14.862,0,0,0-9.112,4.916.912.912,0,1,0,1.417,1.149,13.026,13.026,0,0,1,7.993-4.265A.912.912,0,0,0,124.841,248.6Z" transform="translate(-114.476 -247.832)" fill="#ffd101"/>
    </g>
  </g>
  <g id="Group_3330" data-name="Group 3330" transform="translate(21.42 21.426)">
    <g id="Group_3329" data-name="Group 3329">
      <path id="Path_26936" data-name="Path 26936" d="M246.3,245.132h-.017a.912.912,0,0,0,0,1.824h.017a.912.912,0,1,0,0-1.824Z" transform="translate(-245.366 -245.132)" fill="#ffd101"/>
    </g>
  </g>
  <g id="Group_3332" data-name="Group 3332" transform="translate(32.055 28.358)">
    <g id="Group_3331" data-name="Group 3331">
      <path id="Path_26937" data-name="Path 26937" d="M367.977,324.449h-.017a.912.912,0,1,0,0,1.824h.017a.912.912,0,1,0,0-1.824Z" transform="translate(-367.048 -324.449)" fill="#ffd101"/>
    </g>
  </g>
  <g id="Group_3334" data-name="Group 3334" transform="translate(29.873 24.284)">
    <g id="Group_3333" data-name="Group 3333">
      <path id="Path_26938" data-name="Path 26938" d="M343.007,277.833h-.017a.912.912,0,0,0,0,1.824h.017a.912.912,0,0,0,0-1.824Z" transform="translate(-342.078 -277.833)" fill="#ffd101"/>
    </g>
  </g>
  <g id="Group_3336" data-name="Group 3336" transform="translate(26.619 27.538)">
    <g id="Group_3335" data-name="Group 3335">
      <path id="Path_26939" data-name="Path 26939" d="M305.782,315.057h-.017a.912.912,0,1,0,0,1.824h.017a.912.912,0,1,0,0-1.824Z" transform="translate(-304.853 -315.057)" fill="#ffd101"/>
    </g>
  </g>
  <g id="Group_3338" data-name="Group 3338" transform="translate(0 0)">
    <g id="Group_3337" data-name="Group 3337">
      <path id="Path_26940" data-name="Path 26940" d="M43.2,27.55q-.034-.022-.07-.041a27.492,27.492,0,0,1-5.33-4.367A15.2,15.2,0,0,0,36.325,21.7a18.061,18.061,0,0,0,2.466-10.555,7.613,7.613,0,0,0-.156-.941,5.546,5.546,0,0,1,.257-3.918A3.984,3.984,0,0,0,33.338.728,5.547,5.547,0,0,1,29.42.984a7.584,7.584,0,0,0-.942-.156,17.088,17.088,0,0,0-8,1.241A22.932,22.932,0,0,0,12.85,7.161C8.543,11.467,6.159,17.087,6.47,22.2c0,.137.019,1.13-.043,2.387a5.285,5.285,0,0,1-2.809,2.374,3.984,3.984,0,0,0,0,7.854A5.546,5.546,0,0,1,6.569,37.4a7.6,7.6,0,0,0,.556.776,17.087,17.087,0,0,0,6.535,4.78,22.93,22.93,0,0,0,8.994,1.794c6.091,0,11.75-2.288,15.144-6.122a27.5,27.5,0,0,1,5.33-4.367c.024-.012.048-.026.07-.041a3.986,3.986,0,0,0,0-6.671ZM14.139,8.451c4.069-4.069,9.5-6.293,14.165-5.806l.033,0a6.572,6.572,0,0,1,.715.124,7.338,7.338,0,0,0,5.189-.457.927.927,0,0,0,.12-.075A2.159,2.159,0,0,1,37.38,5.257a.905.905,0,0,0-.075.12,7.338,7.338,0,0,0-.457,5.189,6.521,6.521,0,0,1,.124.715c0,.011,0,.022,0,.033a16.127,16.127,0,0,1-2.113,9.257A21.788,21.788,0,0,0,22.654,17.02a22.932,22.932,0,0,0-8.994,1.794A17.855,17.855,0,0,0,8.3,22.323c0-.109,0-.173,0-.184s0-.023,0-.035C8.006,17.5,10.192,12.4,14.139,8.451ZM42.246,32.665a29.173,29.173,0,0,0-5.779,4.717l-.024.026c-3.052,3.456-8.207,5.519-13.789,5.519-5.754,0-11.165-2.265-14.122-5.91l-.022-.026a6.558,6.558,0,0,1-.418-.593A7.337,7.337,0,0,0,4.1,33.052a.9.9,0,0,0-.138-.031,2.159,2.159,0,0,1,0-4.269A.911.911,0,0,0,4.1,28.72a7.338,7.338,0,0,0,3.992-3.346,6.546,6.546,0,0,1,.418-.593l.022-.026c2.957-3.646,8.368-5.91,14.122-5.91,5.583,0,10.738,2.063,13.789,5.519l.024.026a29.163,29.163,0,0,0,5.779,4.717,2.163,2.163,0,0,1,0,3.557Z" transform="translate(-0.305 0)" fill="#ffd101"/>
    </g>
  </g>
  <g id="Group_3340" data-name="Group 3340" transform="translate(22.788 6.314)">
    <g id="Group_3339" data-name="Group 3339">
      <path id="Path_26941" data-name="Path 26941" d="M261.948,72.234h-.017a.912.912,0,1,0,0,1.824h.017a.912.912,0,1,0,0-1.824Z" transform="translate(-261.019 -72.234)" fill="#ffd101"/>
    </g>
  </g>
  <g id="Group_3342" data-name="Group 3342" transform="translate(24.97 10.388)">
    <g id="Group_3341" data-name="Group 3341">
      <path id="Path_26942" data-name="Path 26942" d="M286.92,118.85H286.9a.912.912,0,1,0,0,1.824h.017a.912.912,0,0,0,0-1.824Z" transform="translate(-285.991 -118.85)" fill="#ffd101"/>
    </g>
  </g>
  <g id="Group_3344" data-name="Group 3344" transform="translate(28.224 7.135)">
    <g id="Group_3343" data-name="Group 3343">
      <path id="Path_26943" data-name="Path 26943" d="M324.145,81.627h-.017a.912.912,0,0,0,0,1.824h.024a.912.912,0,0,0-.007-1.824Z" transform="translate(-323.216 -81.627)" fill="#ffd101"/>
    </g>
  </g>
</svg>
