<svg xmlns="http://www.w3.org/2000/svg" width="282.032" height="196.669" viewBox="0 0 282.032 196.669">
  <g id="Group_3163" data-name="Group 3163" transform="translate(156.347 2059.448)">
    <path id="Path_26522" data-name="Path 26522" d="M398.073,566.54q-.188,2.725-.294,5.412a23.5,23.5,0,0,0,.055,3.787,4.443,4.443,0,0,1,.039,1.356q-.085.037-.3-.929a20.582,20.582,0,0,1-.31-3.943q-.026-2.683.157-5.409t.521-4.819q.331-2.091.823-2.3a6.683,6.683,0,0,0-.3,2.028q-.193,2.1-.386,4.816m-2.9,14.141c-.167-.351-.327-.685-.484-1.005a11.643,11.643,0,0,1-1.169-6.273,15.847,15.847,0,0,0,.752,3.889q.646,2.026,1.51,4.369a5.537,5.537,0,0,1-.609-.98m13.337-23.388q-.109-.484-.519-.312a2.645,2.645,0,0,0-.961,1.091c-.365.613-.765,1.293-1.193,2.034a24.808,24.808,0,0,0-1.408,4.244q-.634,2.542-1.357,5.275t-1.622,5.283a17.527,17.527,0,0,1-2.19,4.358,38.784,38.784,0,0,1-.474-11.174,119.555,119.555,0,0,1,1.968-14.209,4.723,4.723,0,0,0-.006-2,3.186,3.186,0,0,0-.908-1.632,4.118,4.118,0,0,0-1.51-.95,5.148,5.148,0,0,0-1.721-.283,4.272,4.272,0,0,0-1.633.315c-.763.319-1.166.772-1.215,1.356q-1.059,7.958-1.5,15.28a44.314,44.314,0,0,0,.675,12.252,10.868,10.868,0,0,0,2.434,5.008q1.732,1.914,4.511.749a5.56,5.56,0,0,0,2.37-2.581,32.9,32.9,0,0,0,2.151-4.924q1.008-2.854,1.806-6.047t1.337-5.957q.534-2.764.795-4.775a11.252,11.252,0,0,0,.172-2.4" transform="translate(-448.196 -2491.628)" fill="#ffd100"/>
    <path id="Path_26523" data-name="Path 26523" d="M402.662,516.643a3.139,3.139,0,0,1-.233-.768c-.043-.268-.087-.523-.129-.768a7.371,7.371,0,0,1,.656-4.52,10.069,10.069,0,0,0-.387,2.807q0,1.5.093,3.249m3.8-4.879a9.926,9.926,0,0,0-.412,1.679.714.714,0,0,1-.59.724.774.774,0,0,1,.018-.309.568.568,0,0,0,.024-.208,5.328,5.328,0,0,1,.236-1.178c.173-.655.38-1.372.629-2.147s.485-1.467.724-2.072.406-.924.522-.955a4.628,4.628,0,0,1-.169,1.01c-.124.538-.273,1.123-.445,1.742s-.355,1.2-.536,1.715m1.685-5.175a7.434,7.434,0,0,0-1.687-.719,9.5,9.5,0,0,0-1.916-.36,3.351,3.351,0,0,0-1.528.168c-.382.159-.711.741-.994,1.735a21.193,21.193,0,0,0-.631,3.338,33.561,33.561,0,0,0-.228,3.532,12,12,0,0,0,.112,2.282,1.82,1.82,0,0,0,.634,1,3.291,3.291,0,0,0,1.128.637,4.682,4.682,0,0,0,1.307.245,2.5,2.5,0,0,0,1.087-.141,1.066,1.066,0,0,0,.587-.562q.92-3.453,1.478-5.54a38.627,38.627,0,0,1,1.468-4.371.5.5,0,0,0,.016-.326,1.61,1.61,0,0,0-.832-.919" transform="translate(-453.811 -2464.539)" fill="#ffd100"/>
    <path id="Path_26524" data-name="Path 26524" d="M438.728,556.773q2-.647,3.729-1.133a15.316,15.316,0,0,1,3.317-.573,11.462,11.462,0,0,0-5.346.9l-.861.36a5.293,5.293,0,0,0-.839.45m9.03-3.214a19.593,19.593,0,0,0-9.815,1.718q-.819.34-1.6.669a10.739,10.739,0,0,0-1.638.879,49.478,49.478,0,0,1,13.048-3.266m-9.9-23.921a19.943,19.943,0,0,0,3.153-1.9,15.459,15.459,0,0,1-2.048,1.051l-2.083.875c-.709.3-1.476.606-2.3.917s-1.454.564-1.888.746l.4.215a7.455,7.455,0,0,0,1.553-.267q.9-.378,3.21-1.638m7.562-7.122a2.36,2.36,0,0,1,2.556.426,4.092,4.092,0,0,1,1.635,2.45,2.226,2.226,0,0,1-.2,1.528q-1.378,2.605-3.329,6.032t-3.99,7.077q-2.039,3.657-4.044,7.25t-3.548,6.654q1.308-.55,3.177-1.191t3.973-1.238q2.1-.6,4.183-1.092a24.366,24.366,0,0,1,3.847-.609,9.49,9.49,0,0,1,2.9.162,1.586,1.586,0,0,1,1.334,1.155,6.326,6.326,0,0,1,.08,1.919,11.227,11.227,0,0,1-.4,2.175,10.2,10.2,0,0,1-.706,1.822,2,2,0,0,1-.892,1,.418.418,0,0,1-.368-.039,14.67,14.67,0,0,0-3.445-.38,27.477,27.477,0,0,0-4.311.321,47.018,47.018,0,0,0-4.624.93,30.6,30.6,0,0,0-4.289,1.419,11.559,11.559,0,0,0-2.229,1.224,10.185,10.185,0,0,1-1.9,1.086,1.22,1.22,0,0,1-1.084-.023,3.216,3.216,0,0,1-.933-.765,4.542,4.542,0,0,1-.717-1.186,8.062,8.062,0,0,1-.43-1.311,2.75,2.75,0,0,1-.1-1.211,28.405,28.405,0,0,1,1.97-5.537q1.383-2.98,3.079-6.15t3.513-6.426q1.81-3.261,3.376-6.226a8.165,8.165,0,0,1,.555-.908c.244-.357.356-.6.33-.717a3,3,0,0,1-.634.364l-1.635.686q-1.147.481-2.506,1.005c-.9.348-1.757.673-2.55.975s-1.5.551-2.116.743a3.045,3.045,0,0,1-1.019.238q-.378,1.886-.995,4.7t-1.323,5.411q-.708,2.605-1.38,4.569t-1.247,2.206a.692.692,0,0,1-.875-.114,1.778,1.778,0,0,1-.4-.79,6.953,6.953,0,0,1,.154-2.28c.2-1.106.468-2.406.82-3.9s.708-3.054,1.083-4.689.665-3.2.862-4.688q-1.265-.045-1.721-2.064a9.788,9.788,0,0,1,.138-4.915q.694-2.459,2-3a3.223,3.223,0,0,1,2.467.019,2.368,2.368,0,0,1,1.6,1.735.468.468,0,0,1,0,.19.652.652,0,0,0,.021.28,34.075,34.075,0,0,0,7.453-2.266,27.513,27.513,0,0,0,6.83-4.026" transform="translate(-467.818 -2474.991)" fill="#ffd100"/>
    <path id="Path_26525" data-name="Path 26525" d="M488.554,517.659a10.317,10.317,0,0,1,1.682-.789l1.629-.582a19.6,19.6,0,0,1,9.893-1.185,49.342,49.342,0,0,0-13.2,2.556m7.8-.765q-1.75.392-3.785.928a4.92,4.92,0,0,1,.862-.4c.305-.108.6-.212.876-.314a11.523,11.523,0,0,1,5.39-.608,15.815,15.815,0,0,0-3.344.4m-2.476-25.978a30.315,30.315,0,0,1-4.526,1.577,7.956,7.956,0,0,1-2.184.118.817.817,0,0,1-.47-.363c.576-.179,1.611-.576,2.69-.87s1.876-.426,2.807-.72,1.847-.576,2.744-.858a18.286,18.286,0,0,0,2.725-1.108,21.673,21.673,0,0,1-3.786,2.225M508.041,513a1.59,1.59,0,0,0-1.27-1.226,9.578,9.578,0,0,0-2.889-.32,23.884,23.884,0,0,0-3.873.4q-2.105.382-4.239.86t-4.034,1.021q-1.9.543-3.235,1.018,1.7-2.971,3.907-6.449t4.425-7.02q2.233-3.54,4.368-6.854t3.652-5.843a2.19,2.19,0,0,0,.277-1.515,4.091,4.091,0,0,0-1.5-2.535q-1.232-1.022-1.9-.782a32.431,32.431,0,0,1-7.668,3.872,34.071,34.071,0,0,1-7.565,1.857,3.078,3.078,0,0,0-.034-.763,2.641,2.641,0,0,0-1.716-1.883,3.467,3.467,0,0,0-4.755,3.082,13.4,13.4,0,0,0-.022,4.912q.347,2.041,1.606,2.154a22.452,22.452,0,0,1-1.112,4.637c-.428,1.481-.834,2.884-1.23,4.245a.876.876,0,0,0,1.451.538c1.059-.691,2.609-4.371,3.261-5.954a18.215,18.215,0,0,0,1.138-3.724c.249-.036.464-.079.849-.167.628-.145,1.34-.368,2.153-.63s1.678-.538,2.6-.835,1.775-.587,2.556-.867l1.669-.6a3.016,3.016,0,0,0,.653-.329c.02.119-.1.354-.37.7a8.835,8.835,0,0,0-.6.876q-1.728,2.877-3.712,6.034t-3.856,6.229q-1.862,3.066-3.408,5.973a28.59,28.59,0,0,0-2.266,5.425,2.776,2.776,0,0,0,.032,1.213,8.232,8.232,0,0,0,.357,1.331,4.534,4.534,0,0,0,.655,1.224,3.1,3.1,0,0,0,.891.812,1.21,1.21,0,0,0,1.076.085,10.019,10.019,0,0,0,1.962-.984,11.7,11.7,0,0,1,2.291-1.1,30.582,30.582,0,0,1,4.358-1.183,45.73,45.73,0,0,1,4.667-.68,27.666,27.666,0,0,1,4.325-.086,14.552,14.552,0,0,1,3.419.566.417.417,0,0,0,.365.058,2,2,0,0,0,.947-.946,10.442,10.442,0,0,0,.8-1.781,11.26,11.26,0,0,0,.521-2.148,6.352,6.352,0,0,0,.024-1.922" transform="translate(-502.405 -2450.983)" fill="#ffd100"/>
    <path id="Path_26526" data-name="Path 26526" d="M560.13,487.409q3.627-3.457,3.839-9.94a20.479,20.479,0,0,1-3.839,9.94m2.758-12.659a.625.625,0,0,0-.547-.089c-.558.2-1.151.966-1.783,2.287a37.523,37.523,0,0,0-1.731,4.383q-.786,2.4-1.311,4.519a14.991,14.991,0,0,0-.519,2.679,1.372,1.372,0,0,0,.6-.12,5.283,5.283,0,0,0,2.618-2.3,18.681,18.681,0,0,0,1.834-3.809,21.985,21.985,0,0,0,1-3.984,10.082,10.082,0,0,0,.121-2.914,1.454,1.454,0,0,0-.285-.651m-7.775,8.43a7.632,7.632,0,0,0,.7-1.336q.618-1.3,1.274-2.9c.441-1.067,1-2.506,1.7-4.327a6.1,6.1,0,0,0-.7,1.1q-.616,1.069-1.3,2.492t-1.243,2.846a4.426,4.426,0,0,0-.434,2.132m-2.338,1.117c.149-.493.441-1.24.857-2.239l1.264-2.993c.417-1,.785-1.882,1.1-2.649a4.976,4.976,0,0,0,.436-1.336,28.535,28.535,0,0,0-3.557,7.442,13.029,13.029,0,0,0-.773,4.56c.112-.038.2-.414.252-1.125a3.933,3.933,0,0,1,.425-1.66m18.723-5.282q1.7-2.492,2.37-2.73c.165-.059.271.028.31.266a7.8,7.8,0,0,1-.477,2.9l-.686,2.222q-.9,3.051-1.9,6.237a42.731,42.731,0,0,1-2.39,5.987,22.594,22.594,0,0,1-3.238,4.92,10.479,10.479,0,0,1-4.438,3.048,9.788,9.788,0,0,1-3.834.62,8.409,8.409,0,0,1-3.282-.8,6.851,6.851,0,0,1-2.41-1.915,6.106,6.106,0,0,1-1.231-2.81,24.4,24.4,0,0,1,.118-7.623,43.007,43.007,0,0,1,2.242-8.664,33.984,33.984,0,0,1,3.893-7.557,10.787,10.787,0,0,1,4.986-4.278,4.982,4.982,0,0,1,4.309.248,4.492,4.492,0,0,1,2.322,3.313,11.755,11.755,0,0,1-.427,5.095,25.924,25.924,0,0,1-2.3,5.579,24.714,24.714,0,0,1-3.46,4.811,10.03,10.03,0,0,1-3.8,2.774,3.294,3.294,0,0,1-1.391.216,10.79,10.79,0,0,0-.039,1.333,10.121,10.121,0,0,0,.129,1.27,4.73,4.73,0,0,0,1.359,2.761q1.053.993,3.308.186a7.288,7.288,0,0,0,3.546-3.1,34.573,34.573,0,0,0,2.741-5.217q1.2-2.832,2.091-5.409a18.726,18.726,0,0,1,1.586-3.674" transform="translate(-546.476 -2441.493)" fill="#ffd100"/>
    <path id="Path_26527" data-name="Path 26527" d="M619.349,455.894a9.713,9.713,0,0,0-.016,3.018,5.919,5.919,0,0,0,1.378,2.9,15.039,15.039,0,0,1-.761-2.643q-.3-1.5-.6-3.269m-11.767,8.915a47.782,47.782,0,0,1,1.958-12.941,24.664,24.664,0,0,0-1.958,12.941m17.047-18.994a2.16,2.16,0,0,1,1.136,1.478,5.4,5.4,0,0,1-.256,2.4c-.28.946-.584,2.028-.91,3.241a31.419,31.419,0,0,0-.771,4.045,16.61,16.61,0,0,0,.168,4.882c.06.354.134.7.225,1.049s.194.718.319,1.109a1.341,1.341,0,0,1-.956,1.66,2.514,2.514,0,0,1-3.123-1.189,14.851,14.851,0,0,1-1.972-5.84q-.075-.444-.157-.932a6.262,6.262,0,0,1-.091-1.051q-2.046,6.194-3.591,12.2A49.033,49.033,0,0,0,613.007,480a1.644,1.644,0,0,1-1.139,1.632q-2.587.925-3.938-.757A10.581,10.581,0,0,1,606.037,476a38.489,38.489,0,0,1-.451-7.325q.095-4.13.5-7.949t.949-6.647a19.03,19.03,0,0,1,.864-3.509,2.139,2.139,0,0,1,1.413-1.068,4.968,4.968,0,0,1,1.591-.289,6.351,6.351,0,0,1,1.621.175,3.645,3.645,0,0,1,1.342.6,1.954,1.954,0,0,1,.7,1.775q-.635,3.528-1.529,8.174a46.6,46.6,0,0,0-.875,8.882,26.5,26.5,0,0,1,.5-3.051c.276-1.322.634-2.8,1.063-4.427s.944-3.285,1.542-4.978a45.537,45.537,0,0,1,1.979-4.755,22.751,22.751,0,0,1,2.313-3.841,5.954,5.954,0,0,1,2.65-2.124,2.881,2.881,0,0,1,2.421.172" transform="translate(-581.038 -2427.172)" fill="#ffd100"/>
    <path id="Path_26528" data-name="Path 26528" d="M666.074,404.778a.5.5,0,0,1-.011.2.634.634,0,0,0,0,.278c.277-.1.435-.387.472-.873a2.449,2.449,0,0,1,.068-.637,2.219,2.219,0,0,0,.314-.771c.15-.494.293-1.032.433-1.614s.247-1.125.34-1.627a4.122,4.122,0,0,0,.108-.933c-.113.039-.269.344-.464.919s-.4,1.222-.6,1.954-.367,1.4-.5,2.014a4.783,4.783,0,0,0-.168,1.1m3.579,3.336a1.141,1.141,0,0,1-.621.5,2.786,2.786,0,0,1-1.09.105,4.947,4.947,0,0,1-1.279-.245,3.187,3.187,0,0,1-1.078-.606,1.553,1.553,0,0,1-.558-.931,9.887,9.887,0,0,1,.046-2.085,28.269,28.269,0,0,1,.465-3.229,18.6,18.6,0,0,1,.856-3.037c.347-.906.714-1.432,1.1-1.572a3.681,3.681,0,0,1,1.531-.123,9.269,9.269,0,0,1,1.874.367,7.215,7.215,0,0,1,1.627.688c.458.277.714.562.765.858a.443.443,0,0,1-.038.3,35.084,35.084,0,0,0-1.757,3.973q-.7,1.893-1.844,5.037m-4.667,28.219a20.375,20.375,0,0,1,.208-3.464c.192-1.636.417-3.285.663-4.945s.486-3.125.711-4.4a6.091,6.091,0,0,1,.439-1.852q-.5.179-.972,2.091t-.845,4.4q-.373,2.487-.529,4.943a17.338,17.338,0,0,0,.038,3.613q.153.888.236.856a3.73,3.73,0,0,0,.052-1.243M674,422.185q.713-1,1.322-1.836a2.743,2.743,0,0,1,1.029-.979c.28-.1.444,0,.495.293a9.576,9.576,0,0,1-.337,2.192q-.395,1.837-1.114,4.355t-1.734,5.419q-1.01,2.905-2.209,5.5a30.725,30.725,0,0,1-2.469,4.462,5.721,5.721,0,0,1-2.53,2.316q-2.84,1.015-4.429-.769a9.09,9.09,0,0,1-2.072-4.629,37.326,37.326,0,0,1,.168-11.218q.942-6.691,2.541-13.948.127-.8,1.3-1.216a4.707,4.707,0,0,1,1.638-.258,5.39,5.39,0,0,1,1.688.294,3.88,3.88,0,0,1,1.438.9,2.691,2.691,0,0,1,.786,1.507,3.992,3.992,0,0,1-.13,1.834,104.048,104.048,0,0,0-2.925,12.961,32.633,32.633,0,0,0-.3,10.225,16.878,16.878,0,0,0,2.472-3.944q1.071-2.311,1.971-4.8t1.707-4.8A22.832,22.832,0,0,1,674,422.185" transform="translate(-614.67 -2396.932)" fill="#ffd100"/>
    <path id="Path_26529" data-name="Path 26529" d="M724.852,439.245a36.528,36.528,0,0,1,10.584-8.588,24.445,24.445,0,0,0-10.584,8.588m-11.21-6.541c.019.123.057-.08.119-.606s.126-1.158.2-1.909.134-1.463.17-2.134a8.1,8.1,0,0,0,0-1.269q-.415.148-.633,2.251t-.316,4.632q-.1,2.53-.08,4.736c.014,1.47.039,2.292.069,2.472q.058-1.718.151-3.259c.028-.886.065-1.778.118-2.676s.121-1.643.2-2.239m-3.986,1.049a2.6,2.6,0,0,1-.681-.368,1.065,1.065,0,0,1-.478-.722,9.85,9.85,0,0,1-.011-1.361c.024-.731.062-1.543.115-2.442s.077-1.8.071-2.709a14.385,14.385,0,0,0-.163-2.248c-.14-.828-.376-1.185-.711-1.065-.448.16-.9.779-1.369,1.853a31.8,31.8,0,0,0-1.358,3.973q-.661,2.351-1.257,5.107t-1,5.3q-.411,2.549-.592,4.591a12.6,12.6,0,0,0-.03,2.928c.078.475.2.684.368.625.332-.12.868-.8,1.6-2.034s1.488-2.6,2.266-4.107,1.473-2.96,2.089-4.369a23.694,23.694,0,0,0,1.136-2.952m-6.388-9.954a.862.862,0,0,0,.091-.221.951.951,0,0,1,.1-.223l.068-.12a2.788,2.788,0,0,0-1.131,1.156,18.629,18.629,0,0,0-1.182,2.167,16.345,16.345,0,0,0-.883,2.339,4.319,4.319,0,0,0-.233,1.776q.687-1.185,1.355-2.459a24.787,24.787,0,0,0,1.819-4.416m-4.345,6.731c.159-.43.39-1.083.687-1.939s.6-1.723.93-2.595.634-1.638.935-2.311.5-1.027.615-1.067a9.644,9.644,0,0,0-1.871,2.789,18.047,18.047,0,0,0-1.133,3.229,23.975,23.975,0,0,0-.538,2.829,8.27,8.27,0,0,0-.1,1.495c.053-.021.1-.258.145-.711a10.908,10.908,0,0,1,.327-1.72m34.959-2.237a8.906,8.906,0,0,1,4.586.15,3.027,3.027,0,0,1,2.145,2.437,2.649,2.649,0,0,1-.5,1.733,2.907,2.907,0,0,1-1.458,1.32c-.447.161-.7.034-.774-.379a4.432,4.432,0,0,1-.049-1.067,3.91,3.91,0,0,0-.035-.976q-.182-1.066-1.348-.648a25.052,25.052,0,0,0-7.515,5.557,63.848,63.848,0,0,0-5.522,6.825q-2.346,3.38-4.025,6.005t-3.1,3.131a2.627,2.627,0,0,1-2.338-.2,5.635,5.635,0,0,1-1.875-1.919,15.208,15.208,0,0,1-1.366-2.807,16.1,16.1,0,0,1-.8-2.866c-.03-.179-.061-.372-.1-.578a2.032,2.032,0,0,1-.016-.607,39.509,39.509,0,0,1-2.961,4.967A10.527,10.527,0,0,1,702.849,452a3.859,3.859,0,0,1-2.822.069,5.76,5.76,0,0,1-2.165-1.533,7.949,7.949,0,0,1-1.463-2.347,11.092,11.092,0,0,1-.7-2.294,31.687,31.687,0,0,1-.213-8.254,42.488,42.488,0,0,1,1.712-8.661,28.172,28.172,0,0,1,3.332-7.22,9.527,9.527,0,0,1,4.547-3.977,6.451,6.451,0,0,1,2.33-.362,5.544,5.544,0,0,1,2.355.57,6.484,6.484,0,0,1,2.048,1.62,8,8,0,0,1,1.49,2.763,6.668,6.668,0,0,1,2.744.761,2.891,2.891,0,0,1,1.736,2.155,3.43,3.43,0,0,1-.011.945q-.307,1.334-.642,3.524c-.224,1.463-.414,3.018-.573,4.678s-.272,3.345-.333,5.064a28.039,28.039,0,0,0,.156,4.558,40.177,40.177,0,0,1,3.051-4.717,44.482,44.482,0,0,1,3.8-4.467,31.648,31.648,0,0,1,4.286-3.7,18.567,18.567,0,0,1,4.506-2.411q.415-.148.925-.285a9.335,9.335,0,0,1,.941-.2" transform="translate(-636.893 -2409.725)" fill="#ffd100"/>
    <path id="Path_26530" data-name="Path 26530" d="M845.259,245.748a3.264,3.264,0,0,0,.953-.513,3.419,3.419,0,0,0,.66-.71,1.646,1.646,0,0,0,.282-1.04.121.121,0,0,0-.072-.105.634.634,0,0,0-.333.017c-.11.026-.253.068-.43.128a7.076,7.076,0,0,0-.661.277Zm1.488,1.27a.68.68,0,0,0,.216.451,2.5,2.5,0,0,0,.459.383,2.532,2.532,0,0,0,.475.263.644.644,0,0,0,.285.077,2.319,2.319,0,0,1-1.266.991,1.206,1.206,0,0,1-.852-.11,2.3,2.3,0,0,1-.671-.529,3.059,3.059,0,0,1-.6-.873l-.519,2.176a1.561,1.561,0,0,1-.524.285.529.529,0,0,1-.431-.064.9.9,0,0,1-.279-.3.99.99,0,0,1-.179-.478l1.2-5.559a.754.754,0,0,1-.491-.308.959.959,0,0,1-.132-.457,1.265,1.265,0,0,1,.052-.354,1.637,1.637,0,0,1,.062-.184,2.613,2.613,0,0,0,.629-.014c.2-.028.407-.069.626-.117l1.325-.281a4.72,4.72,0,0,1,.73-.087,1.548,1.548,0,0,1,.739.153,1.37,1.37,0,0,1,.568.6,2.808,2.808,0,0,1,.26,1.223,2.734,2.734,0,0,1-.237,1.256,4.84,4.84,0,0,1-1.445,1.858m2.56,1.073a9.3,9.3,0,0,0,.9-2.24,6.964,6.964,0,0,0,.217-1.819,4.45,4.45,0,0,0-.5-2.049,7.25,7.25,0,0,0-.906-1.3c-.535-.072-1.078-.116-1.633-.137a6.634,6.634,0,0,0-1.622.138,5.467,5.467,0,0,0-1.9.818,5.706,5.706,0,0,0-1.66,1.865,9.4,9.4,0,0,0-1.113,2.372,6.371,6.371,0,0,0-.266,1.88,4.572,4.572,0,0,0,.23,1.331,6.433,6.433,0,0,0,.467,1.037,4.987,4.987,0,0,0,.543.78,4.022,4.022,0,0,1,.417.566c.355.038.783.08,1.282.121a5.443,5.443,0,0,0,1.608-.115,5.737,5.737,0,0,0,2.008-.909,6.758,6.758,0,0,0,1.927-2.338m.126-7.947a7.777,7.777,0,0,1,1.073,1.32,11.505,11.505,0,0,1,.746,1.512,5.467,5.467,0,0,1,.4,1.929,5.86,5.86,0,0,1-.36,2.04,8.673,8.673,0,0,1-1.146,2.223,9.226,9.226,0,0,1-1.82,1.921,5.667,5.667,0,0,1-2.378,1.124,6.312,6.312,0,0,1-2.3.077,4.721,4.721,0,0,1-2-.8,4.638,4.638,0,0,1-1.432-1.657,5.711,5.711,0,0,1-.6-2.51,6.589,6.589,0,0,1,.157-1.633,9.1,9.1,0,0,1,.65-1.842,7.243,7.243,0,0,1,1.065-1.69,7.019,7.019,0,0,1,1.284-1.169,6.64,6.64,0,0,1,1.38-.741,9.577,9.577,0,0,1,1.393-.417c.307-.065.6-.115.89-.153s.56-.063.823-.074a3.681,3.681,0,0,1,.763.046c.223.044.456.105.7.178a3.092,3.092,0,0,1,.706.316" transform="translate(-726.707 -2299.049)" fill="#ffd100"/>
    <path id="Path_26531" data-name="Path 26531" d="M291.735,548.1q7.453-6.136,10.671-16.761A54.614,54.614,0,0,1,291.735,548.1m9.918-19.019a26.1,26.1,0,0,0,.768-5.958,34.549,34.549,0,0,0-.524-6.023,7.024,7.024,0,0,0-.373-1.393c-.161-.4-.384-.547-.672-.445a2.681,2.681,0,0,0-1.21,1.221c-.4.673-.672,1.136-.81,1.4a46.163,46.163,0,0,0-2.982,6.646q-1.37,3.752-2.578,7.918t-2.2,8.527q-1,4.356-1.8,8.222Q293,544.8,296.537,539.8a34.333,34.333,0,0,0,5.116-10.724M281.1,564.531q.279-6.413.867-13.677t1.373-15.542a125.709,125.709,0,0,0-2.24,29.219m-10.508-9.085a6.756,6.756,0,0,1-2.069-4.1,27.455,27.455,0,0,1,.407-9.407q-1.881,6.143-1.3,9.517a4.992,4.992,0,0,0,2.963,3.992m38.583-38.006a6.945,6.945,0,0,1,.442,1.526c.093.532.183,1.058.272,1.589a30.376,30.376,0,0,1,.415,5.378,35.09,35.09,0,0,1-.481,5.486,20.822,20.822,0,0,1-2.8,6.9,57.919,57.919,0,0,1-5.392,7.506,69.066,69.066,0,0,1-6.879,7.091,61.707,61.707,0,0,1-7.264,5.647q-.123,5.2.074,9.819c.128,3.078,1.042,9.038,1.471,11.547q.186,1.093.45,2.1c.176.675.32,1.34.434,2q.15.892-.538,1.139a3.912,3.912,0,0,1-2.522-.308,23.766,23.766,0,0,1-3.273-1.514,3.576,3.576,0,0,1-1.613-1.949,17.336,17.336,0,0,1-1.005-3.746,97.891,97.891,0,0,1-1.29-11.563q-.061-4.92.28-10.417t.887-11.156q.54-5.666,1.21-10.592c.447-3.277.865-6.187,1.257-8.71s.727-4.4,1.007-5.625a21.393,21.393,0,0,0-4.382,6.2,55.8,55.8,0,0,0-3.529,8.789,60.449,60.449,0,0,0-2.093,9.168,24.609,24.609,0,0,0-.144,7.472,4.861,4.861,0,0,0,1.2,2.73,3,3,0,0,1,.96,1.342c.08.463-.257.829-1,1.1a7.023,7.023,0,0,1-2.583.4,6.7,6.7,0,0,1-2.563-.556,5.953,5.953,0,0,1-2.1-1.57,5.257,5.257,0,0,1-1.18-2.628,17.624,17.624,0,0,1,.121-5.464,43.456,43.456,0,0,1,1.688-6.975,73.832,73.832,0,0,1,2.89-7.452,52.627,52.627,0,0,1,3.712-6.907,36.489,36.489,0,0,1,4.234-5.461A11.83,11.83,0,0,1,284,516.655a5,5,0,0,1,1.731-.3,6.858,6.858,0,0,0,.955-.025,2.051,2.051,0,0,0,.379-.189,2.254,2.254,0,0,1,.379-.187c-.06.021.108.013.5-.02a1.367,1.367,0,0,1,.791.083,7.6,7.6,0,0,1,.066,1.188,11.322,11.322,0,0,1-.247,2.037c-.025.219-.115.67-.272,1.358s-.308,1.41-.453,2.162-.324,1.767-.533,3.033a69.091,69.091,0,0,0,1.6-7.255,12.123,12.123,0,0,1,.36-2.18c.013.068.19.142.541.228s.585.492.71,1.221a3.7,3.7,0,0,1,.042.51,3.192,3.192,0,0,0,.043.511q-.189,3.222-.677,7.03t-.887,9q1.008-3.729,2.346-7.681a69.648,69.648,0,0,1,2.916-7.307,33.676,33.676,0,0,1,3.4-5.795,8.65,8.65,0,0,1,3.806-3.149,3.83,3.83,0,0,1,2.686-.064,5.661,5.661,0,0,1,2.173,1.485,10.419,10.419,0,0,1,1.645,2.414c.46.922.858,1.815,1.186,2.677" transform="translate(-370.152 -2467.749)" fill="#ffd100"/>
    <path id="Path_26532" data-name="Path 26532" d="M158.917,385.964a65.693,65.693,0,0,0,6.016-5.687c.249-.271-3.29,4.372-6.016,5.687M133.9,379.908q10.2-13.7,31.591-21.959-20.344,9.268-31.591,21.959m29.113,28.319q-6.924,15.376-25.6,20.578,17.939-5.973,25.6-20.578m15.562-49.4a8.1,8.1,0,0,0-1.111-1.567,6.1,6.1,0,0,0-6.008-1.711,69.516,69.516,0,0,0-11.22,3.47,71.106,71.106,0,0,0-11.243,5.693,62.428,62.428,0,0,0-10.06,7.76,40.33,40.33,0,0,0-7.579,9.66,18.088,18.088,0,0,0-1.682,3.765,11.266,11.266,0,0,0-.573,3.833,6.406,6.406,0,0,0,1.394,3.831,14.89,14.89,0,0,0,3.178,2.988,21.426,21.426,0,0,0,4.061,2.233q2.2.927,4.037,1.565,1.735.664,4.029,1.364c1.528.469,2.991.963,4.387,1.493a21.391,21.391,0,0,1,3.535,1.673q1.444.878,1.481,1.905a20.635,20.635,0,0,1-7.927,9.783,35.251,35.251,0,0,1-11.731,4.712,9.6,9.6,0,0,1-1.756.2,3.653,3.653,0,0,1-1.778-.374,6.044,6.044,0,0,1,1.037-.684c.492-.274,1-.538,1.533-.788s1.005-.49,1.436-.719a4.248,4.248,0,0,1,.942-.406,119.6,119.6,0,0,1,11.444-4.286,3.135,3.135,0,0,0,1.513-1.4,3.641,3.641,0,0,0,.685-2.052c-.025-.749-.475-1.032-1.34-.848q-3.092.864-7.083,2.124a52.5,52.5,0,0,0-7.456,2.975,24.58,24.58,0,0,0-5.861,3.926,6.223,6.223,0,0,0-2.3,4.865,4.234,4.234,0,0,0,1.63,3.362,11.123,11.123,0,0,0,3.642,1.852,15.9,15.9,0,0,0,4.259.691,15.611,15.611,0,0,0,3.571-.244,29.12,29.12,0,0,0,8.155-3.176,40.791,40.791,0,0,0,7.67-5.545,35.578,35.578,0,0,0,6.05-7.206,22.859,22.859,0,0,0,3.293-8.169,4.246,4.246,0,0,0,.157-1.27,5.54,5.54,0,0,0-1.378-3.414,14.964,14.964,0,0,0-3.123-2.788,29.59,29.59,0,0,0-3.756-2.135q-1.947-.925-3.281-1.569-1.635-.68-3.784-1.567t-4.045-1.818a15.162,15.162,0,0,1-3.2-2.048,3.305,3.305,0,0,1-1.342-2.341,1.956,1.956,0,0,1,.378-.8,49.7,49.7,0,0,1,5.716-6.621,85.779,85.779,0,0,1,7.481-6.586,64.985,64.985,0,0,1,8.076-5.426,33.663,33.663,0,0,1,7.5-3.241,28.976,28.976,0,0,1-2.4,4.885,18.363,18.363,0,0,1-3.433,4.181,7.218,7.218,0,0,1-.816-.29,1.352,1.352,0,0,0-.809-.083q-.3.064-1.163,1.276c-.579.812-1.185,1.745-1.819,2.807s-1.287,2.146-1.953,3.249-1.191,2-1.57,2.7a4.624,4.624,0,0,0-.719,2.52,3.536,3.536,0,0,0,1.046,2.508,2.392,2.392,0,0,0,2.292.7,2.228,2.228,0,0,0,1.186-.666,59.556,59.556,0,0,0,5.541-5.81q2.617-3.132,5.123-6.344.963-1.235,2.457-3.252t2.78-4.092A43.668,43.668,0,0,0,178.2,364a7.384,7.384,0,0,0,.892-3.279,4.137,4.137,0,0,0-.522-1.9" transform="translate(-282.898 -2371.1)" fill="#ffd100"/>
    <path id="Path_26533" data-name="Path 26533" d="M260.374,431.5q.517-2.119.9-3.907a12.336,12.336,0,0,0,.357-2.387c0-.065.014-.1.049-.109s.045-.043.044-.11l0-.1c-.065.014-.175.125-.33.323a2.913,2.913,0,0,0-.4,1.137q-.753,3.779-1.336,6.811-.5,2.622-.916,4.764a8.754,8.754,0,0,0-.31,2.324c.164-.9.464-2.221.892-3.953s.782-3.329,1.062-4.793m-10.046-11.923A6.817,6.817,0,0,0,249,420.968a24.688,24.688,0,0,0-1.876,2.51,2.765,2.765,0,0,1-.319.67q-.328.571-.648,1.241c-.214.447-.409.856-.593,1.23s-.245.555-.179.54q-.293.063,1.257-2.024a58.414,58.414,0,0,0,3.312-5.072l.376-.482Zm4.292,10.334a12.447,12.447,0,0,0,.473-1.909c.136-.766.269-1.58.408-2.446a25.048,25.048,0,0,0,.253-2.513c.036-.812.046-1.515.027-2.116-.034-.927-.247-1.353-.635-1.27-.522.11-1.122.727-1.8,1.839a35.2,35.2,0,0,0-2.111,4.165q-1.1,2.49-2.168,5.48t-1.913,5.73q-.838,2.737-1.35,4.954a14.163,14.163,0,0,0-.478,3.214c.016.466.123.677.318.634a8.167,8.167,0,0,0,2.042-1.99q1.654-1.9,3.386-4.333t3.133-4.632a7.737,7.737,0,0,0,1.373-2.8,2.9,2.9,0,0,1-.705-.5,1.181,1.181,0,0,1-.421-.864,1.733,1.733,0,0,1,.174-.639M244.2,426.909c.245-.518.592-1.245,1.054-2.181s.933-1.857,1.425-2.763.938-1.705,1.34-2.395.665-1.046.8-1.073c-.5.642-1.079,1.385-1.74,2.228a23.8,23.8,0,0,0-1.822,2.7,19.524,19.524,0,0,0-1.419,3.011,9.82,9.82,0,0,0-.628,3.1,7.549,7.549,0,0,0,.452-1.152q.354-1.029.54-1.471m27.436-2.217a25.628,25.628,0,0,1,1.753-1.877,3.181,3.181,0,0,1,1.3-.88c.326-.068.5.063.507.4a10.159,10.159,0,0,1-.58,1.729q-.583,1.532-1.485,3.831t-2.135,5.072q-1.227,2.771-2.464,5.392t-2.487,4.745a19.493,19.493,0,0,1-2.294,3.251,5.667,5.667,0,0,1-1.342.986,5.155,5.155,0,0,1-1.259.471,5.345,5.345,0,0,1-1.768.074l-.4-.117a4.3,4.3,0,0,1-3.1-1.6,8.575,8.575,0,0,1-1.6-3.627,44.654,44.654,0,0,1-4.05,5.027,11.958,11.958,0,0,1-4.992,3.421,4.423,4.423,0,0,1-3.154-.334,6.414,6.414,0,0,1-2.182-2,8.629,8.629,0,0,1-1.276-2.791,12.046,12.046,0,0,1-.436-2.616,34.87,34.87,0,0,1,1.006-9.2,45.09,45.09,0,0,1,3.216-9.218,31.618,31.618,0,0,1,4.8-7.4,10.8,10.8,0,0,1,5.67-3.714,7.386,7.386,0,0,1,2.65-.06,6.269,6.269,0,0,1,2.541.964A7.279,7.279,0,0,1,260.1,416.7a8.642,8.642,0,0,1,1.242,3.249,7.47,7.47,0,0,1,2.942,1.234A3.185,3.185,0,0,1,265.9,423.8a3.741,3.741,0,0,1-.159,1.038,60.676,60.676,0,0,0-2.98,8.967,30.7,30.7,0,0,0-1.031,8.452,24.626,24.626,0,0,0,2.855-4.119q1.336-2.4,2.478-4.9t2.291-4.8a22.453,22.453,0,0,1,2.275-3.748" transform="translate(-352.366 -2407.325)" fill="#ffd100"/>
    <path id="Path_26534" data-name="Path 26534" d="M347.7,415.361q5.535-4.588,8.583-13.07a41.859,41.859,0,0,1-8.583,13.07m-8.973-6.528a.416.416,0,0,1,.038-.259.23.23,0,0,0,.046-.159l0-.1q-.706,2.459-1.086,4.146c-.258,1.129-.5,2.247-.72,3.366a12.147,12.147,0,0,0-.3,2.675,8.415,8.415,0,0,0,.37,2.179c.219.724.4,1.072.527,1.043a5.655,5.655,0,0,0-.172-.716,6.535,6.535,0,0,1-.2-1.514,14.749,14.749,0,0,1,.158-2.593q.2-1.4.442-2.856t.491-2.816c.165-.9.3-1.7.409-2.4m16.948-12.739a3.068,3.068,0,0,1,2.318,1.616,7.927,7.927,0,0,1,.916,3.723,17.244,17.244,0,0,1-1.627,6.921,44.966,44.966,0,0,1-4.531,8.194,39.34,39.34,0,0,1-6.429,7.238,16.246,16.246,0,0,1-7.231,3.948q-2.841.4-4.084-1.59a10.554,10.554,0,0,1-1.366-5.283,36.648,36.648,0,0,1,.538-7.14q.644-3.956,1.6-7.622t1.833-6.614c.587-1.967,1.031-3.347,1.331-4.149l.181-.439a36.423,36.423,0,0,0-2.434,3.527q-1.864,2.908-4.174,7.112t-4.59,9.21a78.451,78.451,0,0,0-3.693,9.621A1.438,1.438,0,0,1,323,425.631a2.914,2.914,0,0,1-2.542-1.067q-1.369-1.312-1.515-5.4a45.216,45.216,0,0,1,1.4-10.639,110.262,110.262,0,0,1,6.065-17.655,1.828,1.828,0,0,1,1.433-1.21,4.3,4.3,0,0,1,2.67.439,10.269,10.269,0,0,1,2.51,1.573l-.466.7c-.184.374-.538,1.087-1.057,2.131s-1.037,2.181-1.553,3.394-.979,2.4-1.4,3.562a7.845,7.845,0,0,0-.6,2.733,1.332,1.332,0,0,0,.119.579,20.355,20.355,0,0,1,.869-3.3q.713-2.16,1.621-4.311c.6-1.435,1.149-2.685,1.636-3.762s.795-1.625.924-1.652a2.615,2.615,0,0,1,.848,1.729,4.154,4.154,0,0,1-.437,1.547c-.3.7-.653,1.481-1.049,2.333s-.793,1.707-1.187,2.561-.717,1.575-.96,2.16c.988-1.816,2.02-3.576,3.111-5.278a46.571,46.571,0,0,1,3.279-4.564,27.977,27.977,0,0,1,3.177-3.334,6.8,6.8,0,0,1,2.988-1.639,4.666,4.666,0,0,1,3.708.667,3.671,3.671,0,0,1,1.729,3.1,12.665,12.665,0,0,1-.524,1.819q-.536,1.619-1.333,4.1t-1.817,5.659q-1.017,3.177-1.889,6.375t-1.548,6.252a42.889,42.889,0,0,0-.9,5.31,43.621,43.621,0,0,0,9.144-8.268,38.366,38.366,0,0,0,6.587-11.139,3.744,3.744,0,0,0,.166-.839.574.574,0,0,0-.559-.584,8.491,8.491,0,0,0-1.232-.089c-.459,0-.87-.016-1.232-.04a.516.516,0,0,1-.559-.536,2.531,2.531,0,0,1,1.07-1.783,4.567,4.567,0,0,1,1.974-1.172" transform="translate(-402.632 -2390.877)" fill="#ffd100"/>
    <path id="Path_26535" data-name="Path 26535" d="M587.423,344.677q.529-2.171.919-4.006a12.8,12.8,0,0,0,.368-2.446c0-.066.011-.106.046-.113s.047-.046.045-.113l0-.1c-.066.014-.181.127-.34.33a2.929,2.929,0,0,0-.412,1.167q-.776,3.875-1.37,6.987-.51,2.685-.939,4.887a9.231,9.231,0,0,0-.321,2.385q.257-1.39.919-4.056t1.089-4.92m-10.309-12.229a7.018,7.018,0,0,0-1.361,1.422,25.573,25.573,0,0,0-1.926,2.574,2.626,2.626,0,0,1-.33.688c-.222.391-.44.815-.661,1.274s-.421.88-.612,1.26-.248.568-.179.554q-.3.063,1.288-2.075a60.373,60.373,0,0,0,3.4-5.2Zm4.4,10.6a13.113,13.113,0,0,0,.486-1.959c.141-.784.278-1.62.417-2.51a24.125,24.125,0,0,0,.261-2.58c.039-.831.047-1.556.025-2.168-.033-.952-.248-1.389-.648-1.3q-.8.172-1.852,1.89a35.84,35.84,0,0,0-2.165,4.269q-1.128,2.558-2.226,5.624t-1.964,5.875q-.859,2.81-1.381,5.087a14.366,14.366,0,0,0-.494,3.3c.016.478.128.694.328.651a8.508,8.508,0,0,0,2.1-2.042q1.692-1.956,3.474-4.448t3.21-4.75A8,8,0,0,0,582.5,345.1a2.946,2.946,0,0,1-.724-.516,1.2,1.2,0,0,1-.434-.884,1.768,1.768,0,0,1,.178-.654m-10.694-3.085q.375-.8,1.081-2.237c.472-.96.959-1.9,1.465-2.837s.966-1.75,1.377-2.454.686-1.073.816-1.1l-1.782,2.284a24.476,24.476,0,0,0-1.869,2.765,19.742,19.742,0,0,0-1.457,3.093,10.029,10.029,0,0,0-.645,3.175,7.64,7.64,0,0,0,.464-1.182c.242-.705.429-1.205.551-1.507m28.147-2.276a26.226,26.226,0,0,1,1.8-1.926,3.276,3.276,0,0,1,1.329-.9q.5-.106.518.4a10.094,10.094,0,0,1-.593,1.773q-.6,1.574-1.526,3.93t-2.189,5.2q-1.258,2.841-2.525,5.532t-2.554,4.868a19.927,19.927,0,0,1-2.354,3.334,5.931,5.931,0,0,1-1.376,1.015,5.279,5.279,0,0,1-1.295.478,5.343,5.343,0,0,1-1.808.077l-.41-.12a4.414,4.414,0,0,1-3.182-1.639A8.828,8.828,0,0,1,581.164,356a45.228,45.228,0,0,1-4.155,5.158,12.264,12.264,0,0,1-5.119,3.508,4.535,4.535,0,0,1-3.236-.341,6.565,6.565,0,0,1-2.239-2.047,8.942,8.942,0,0,1-1.312-2.863,12.534,12.534,0,0,1-.445-2.686,35.933,35.933,0,0,1,1.031-9.437,46.367,46.367,0,0,1,3.3-9.458,32.481,32.481,0,0,1,4.928-7.587,11.069,11.069,0,0,1,5.813-3.812,7.628,7.628,0,0,1,2.721-.063,6.526,6.526,0,0,1,2.605.991,7.414,7.414,0,0,1,2.091,2.132,8.913,8.913,0,0,1,1.276,3.332,7.648,7.648,0,0,1,3.016,1.265,3.275,3.275,0,0,1,1.658,2.686,3.776,3.776,0,0,1-.165,1.065,62.325,62.325,0,0,0-3.057,9.2,31.465,31.465,0,0,0-1.056,8.672,24.812,24.812,0,0,0,2.926-4.229q1.376-2.454,2.546-5.021t2.348-4.929a23.289,23.289,0,0,1,2.335-3.845" transform="translate(-555.562 -2352.996)" fill="#ffd100"/>
    <path id="Path_26536" data-name="Path 26536" d="M665.987,317.647a10.91,10.91,0,0,0-.486,3.4,6.645,6.645,0,0,0,1.129,3.468,16.5,16.5,0,0,1-.463-3.1q-.114-1.723-.181-3.77m-14.832,8.3a53.8,53.8,0,0,1,4.24-14.291,27.809,27.809,0,0,0-4.24,14.291m22.427-18.88a2.447,2.447,0,0,1,1.073,1.835,6.091,6.091,0,0,1-.664,2.666q-.7,1.541-1.54,3.52a35.392,35.392,0,0,0-1.51,4.441,18.686,18.686,0,0,0-.562,5.527c.015.409.044.815.094,1.214s.112.837.194,1.3a1.537,1.537,0,0,1-1.349,1.73,2.9,2.9,0,0,1-3.39-1.8,16.638,16.638,0,0,1-1.35-6.871c-.011-.34-.024-.7-.036-1.075a7.493,7.493,0,0,1,.06-1.2q-3.3,6.674-5.992,13.221a55.078,55.078,0,0,0-3.6,12.3,1.89,1.89,0,0,1-1.554,1.671q-3.1.659-4.385-1.436a11.893,11.893,0,0,1-1.41-5.779,43.214,43.214,0,0,1,.618-8.32q.743-4.637,1.8-8.878t2.115-7.351a21.408,21.408,0,0,1,1.531-3.828,2.487,2.487,0,0,1,1.778-1,5.888,5.888,0,0,1,1.863-.088,7.375,7.375,0,0,1,1.83.437,4.25,4.25,0,0,1,1.441.876,1.908,1.908,0,0,1,.6,1.366,1.982,1.982,0,0,1-.074.736q-1.281,3.88-3.013,8.984a51.872,51.872,0,0,0-2.377,9.879,29.407,29.407,0,0,1,1.04-3.366q.781-2.169,1.9-4.828t2.533-5.382a51.98,51.98,0,0,1,3-5.066,26.339,26.339,0,0,1,3.236-3.985,6.937,6.937,0,0,1,3.356-2,3.379,3.379,0,0,1,2.744.547" transform="translate(-607.22 -2340.646)" fill="#ffd100"/>
    <path id="Path_26537" data-name="Path 26537" d="M718.819,311.18q.191-.349.662-1.171t1.048-1.82q.569-.991,1.142-1.941a16.075,16.075,0,0,1,1.054-1.563,18.886,18.886,0,0,0-2.032,2.39,12,12,0,0,0-1.338,2.136,4.31,4.31,0,0,0-.536,1.968m-2.258,1.715c.121-.368.241-.722.367-1.057s.213-.573.275-.725a16.156,16.156,0,0,1,1.171-2.568q.895-1.68,1.852-3.279t1.769-2.8a6.981,6.981,0,0,1,.912-1.224l-.875.909a28.844,28.844,0,0,0-4.4,6.753,13.165,13.165,0,0,0-1.531,5.219c.066-.014.13-.1.194-.247q.09-.326.269-.985m22.2-5.027q2.424-2.679,3.129-2.83c.2-.041.3.075.313.346a3.248,3.248,0,0,1-.31,1.3c-.216.527-.48,1.2-.785,2.02l-1.12,2.506q-1.4,3.285-3.044,6.671a50.269,50.269,0,0,1-3.613,6.279,26.177,26.177,0,0,1-4.361,4.992,11.741,11.741,0,0,1-5.4,2.745,11.387,11.387,0,0,1-4.684.121,9.445,9.445,0,0,1-3.634-1.545,7.743,7.743,0,0,1-2.414-2.785,8.118,8.118,0,0,1-.932-3.509,26.733,26.733,0,0,1,1.276-8.256,47.345,47.345,0,0,1,3.81-9.254,36.742,36.742,0,0,1,5.573-7.829,12.864,12.864,0,0,1,6.562-4.072,6.146,6.146,0,0,1,4.46.751,4.1,4.1,0,0,1,2.243,3.592,10.338,10.338,0,0,1-.514,2.632,24.587,24.587,0,0,1-1.522,3.979,21.79,21.79,0,0,1-2.288,3.785,4.837,4.837,0,0,1-2.7,2.017c-.8.17-1.215-.121-1.241-.873a2.157,2.157,0,0,1,.271-.983,43.562,43.562,0,0,0,1.665-4.214,9.414,9.414,0,0,0,.606-2.962c-.028-.818-.311-1.17-.844-1.056q-.9.189-2.1,1.886a36.825,36.825,0,0,0-2.433,4.02q-1.23,2.325-2.251,4.753a29.7,29.7,0,0,0-1.467,4.175,17.688,17.688,0,0,0-.728,5.2,5.863,5.863,0,0,0,1.136,3.623q1.048,1.272,3.353.782a9.015,9.015,0,0,0,4.885-3.049,32.691,32.691,0,0,0,3.889-5.461q1.711-2.99,3.026-5.741a18.561,18.561,0,0,1,2.188-3.76" transform="translate(-647.218 -2333.302)" fill="#ffd100"/>
    <path id="Path_26538" data-name="Path 26538" d="M797.54,278.3a4.826,4.826,0,0,1,1.591.742,7.826,7.826,0,0,1,1.557,1.371,13.815,13.815,0,0,1,1.216,1.594,3.029,3.029,0,0,1,.559,1.531c.068.124.142.243.214.366s.107.148.1.079a4.771,4.771,0,0,0-.461-1.7,8.972,8.972,0,0,0-1.125-1.872,6.415,6.415,0,0,0-1.665-1.5,3.635,3.635,0,0,0-1.99-.609m-2.407,23.378a25.727,25.727,0,0,0,1.2-3.038q.64-1.883,1.168-4.057t.856-4.406a22.923,22.923,0,0,0,.261-4.074,7.658,7.658,0,0,0-1.048-4.053q-.958-1.387-3.159-.923a5.439,5.439,0,0,0-2.67,1.444,9.46,9.46,0,0,0-1.972,2.788,15.225,15.225,0,0,0-1.183,3.6,16.724,16.724,0,0,0-.318,3.88,15.043,15.043,0,0,0,.467,3.3A8.461,8.461,0,0,0,790,298.914a6.773,6.773,0,0,0,2.135,1.965,6.128,6.128,0,0,0,3,.8m-7.318,7.014a2.984,2.984,0,0,0,.906-.09,8.739,8.739,0,0,0,4.237-2.757,10.8,10.8,0,0,1-4.306-2.072,15.144,15.144,0,0,1-3.463-3.9,15.6,15.6,0,0,0-.463,4.014,6.366,6.366,0,0,0,.867,3.216,3.414,3.414,0,0,0,2.222,1.586m-7.625-13.419a1.225,1.225,0,0,1,.036-.367,1.3,1.3,0,0,0,.038-.368.5.5,0,0,1,.089-.329c-.134.028-.289.3-.475.823a16.059,16.059,0,0,0-.535,1.967c-.175.793-.33,1.686-.463,2.673a17.33,17.33,0,0,0-.149,2.916,19.166,19.166,0,0,0,.364,3.219,7.287,7.287,0,0,0,.944,2.479,15.612,15.612,0,0,1-.776-4.884,30.077,30.077,0,0,1,.19-4.626,16.062,16.062,0,0,1,.737-3.5m29.618-6.295q.97-1.131,1.8-1.927a3.247,3.247,0,0,1,1.329-.9c.333-.072.5.032.513.3a7.853,7.853,0,0,1-.723,2.316,64.335,64.335,0,0,1-5.551,9.986,15.782,15.782,0,0,1-7,5.764,26.982,26.982,0,0,1-5.222,6.363,13.926,13.926,0,0,1-6.338,3.3,9.856,9.856,0,0,1-5.042-.061,7.972,7.972,0,0,1-3.556-2.231,10.4,10.4,0,0,1-2.146-3.715,15.716,15.716,0,0,1-.813-4.515c-.016-.477.021-1.375.1-2.7a34.648,34.648,0,0,1,.517-4.022,24.706,24.706,0,0,1,.98-3.711c.4-1.116.864-1.728,1.4-1.843a4.6,4.6,0,0,1,1.662.008,4.546,4.546,0,0,1,1.792.7,2.811,2.811,0,0,1-.131-.746c-.008-.237-.016-.459-.022-.662a13.7,13.7,0,0,1,.734-4.9,16.121,16.121,0,0,1,2.316-4.461,16.348,16.348,0,0,1,3.455-3.462,10.762,10.762,0,0,1,4.167-1.916,8.634,8.634,0,0,1,4.9.2,8.324,8.324,0,0,1,3.461,2.407,10.782,10.782,0,0,1,2.047,3.838,17.11,17.11,0,0,1,.763,4.473,27.087,27.087,0,0,1-.5,5.979A34.456,34.456,0,0,1,802.9,299a12.235,12.235,0,0,0,1.74-2.07q.767-1.138,1.528-2.434t1.621-2.66q.861-1.366,2.017-2.852" transform="translate(-687.766 -2321.52)" fill="#ffd100"/>
    <path id="Path_26539" data-name="Path 26539" d="M461.752,338.591a17.474,17.474,0,0,1-1.134-6.511q-.333-9.522,3.04-28.365-4.078,18.876-3.768,27.691.177,5.053,1.863,7.184m-2.472-47.682a7.594,7.594,0,0,0,.519-1.059,2.78,2.78,0,0,1,.327-.664q-.5.109-1.729,2.38t-2.871,5.825q-1.643,3.547-3.353,7.939t-3.071,8.706q-1.371,4.083-2.1,6.251t-1.145,3.265c-.28.73-.447,1.2-.508,1.41a1.838,1.838,0,0,0-.083.434,5.974,5.974,0,0,0,.836-2.072q1.914-5.739,3.567-10.412t3.279-8.575q1.624-3.9,3.177-7.19t3.159-6.237M443.2,289.233c.309-.7.561-1.248.748-1.638a6.761,6.761,0,0,1,.472-.873c.126-.263.152-.426.083-.489a23.641,23.641,0,0,0-1.521,2.631q-1.421,2.613-3.151,6.415t-3.345,8.114a37.422,37.422,0,0,0-2.1,7.733q2.3-6.178,4.52-11.978a106.444,106.444,0,0,1,4.293-9.914m-12.777,29.721a20.879,20.879,0,0,0,1.114-2.842q1.008-2.818,2.3-6.41t2.476-7.042q1.187-3.448,1.751-4.637.465-1.163,1.435-3.678t2.042-5q1.074-2.473,2.066-4.405c.662-1.284,1.191-1.971,1.591-2.056q-.6.127-1.918,2.775t-3,6.56q-1.678,3.915-3.387,8.422t-3.18,8.493q-1.475,3.986-2.387,6.726a20.173,20.173,0,0,0-.9,3.092m-9.632,12.829q1.945-16.407,8.947-44.073-4.243,14.292-6.48,25.247a112.85,112.85,0,0,0-2.467,18.825m-6.744-22.074a10.968,10.968,0,0,1-.5-3.776,30,30,0,0,1,1.856-8.782q-2.471,5.725-2.564,9a4.5,4.5,0,0,0,1.2,3.554m50.283-4.237q-1.195,6.294-2.107,13.3a79.472,79.472,0,0,0-.7,13c.03.863.1,1.758.193,2.683a14.812,14.812,0,0,0,.494,2.56,4.733,4.733,0,0,0,1.01,1.871c.456.5,1.709.494,2.25.617a2.531,2.531,0,0,1,.969.327,1.086,1.086,0,0,1,.486.9,2.351,2.351,0,0,1-1.2,1.853,13.543,13.543,0,0,1-3.971,1.691,8.68,8.68,0,0,1-3.123.072,5.577,5.577,0,0,1-2.975-1.5,9.278,9.278,0,0,1-2.244-3.611,19.565,19.565,0,0,1-1.02-6.122,88.575,88.575,0,0,1,.218-9.579,102.227,102.227,0,0,1,1.3-10.347q.928-5.229,2.255-10.489a86.623,86.623,0,0,1,3.178-10.032l-1.042,1.88q-1.807,3.223-3.623,7.4t-3.479,8.675q-1.654,4.5-3.208,9.212t-2.912,8.908l-.275.771-.6.127q-3.217.328-4.355-2.034a15.046,15.046,0,0,1-1.268-6.01,55.234,55.234,0,0,1,.237-7.629q.376-3.637,1.064-7.039t1.583-6.672q.892-3.271,1.783-6.659-2.424,5.73-4.717,12.137t-4.536,13.046c-1.49,4.424-3.167,8.751-4.325,13.18-1.389,5.31-2.162,10.283-3.288,15.532a11.438,11.438,0,0,1-.741,2.544,1.143,1.143,0,0,1-.786.524,3.045,3.045,0,0,1-2.779-.835,9.39,9.39,0,0,1-1.7-2.426,23.2,23.2,0,0,1-1.205-4.119,32.557,32.557,0,0,1-.48-5.189,66.675,66.675,0,0,1,.352-9.285q.578-4.979,1.555-10.222t2.018-10.082q1.039-4.84,1.836-8.089.887-3.389,1.586-6.5t1.505-6q.8-2.9,1.81-5.9a55.586,55.586,0,0,1,2.506-6.158,34.994,34.994,0,0,0-6.117,6.688,72.088,72.088,0,0,0-5.391,8.728,57.709,57.709,0,0,0-3.82,8.924,21.547,21.547,0,0,0-1.315,7.149,4.545,4.545,0,0,0,1.021,3.219,1.086,1.086,0,0,1-.225.759,1.289,1.289,0,0,1-1.039.428,14.236,14.236,0,0,1-4.122-.928,9.61,9.61,0,0,1-2.942-1.981,5.29,5.29,0,0,1-1.443-3.779q-.123-3.531,2.458-8.992a66.927,66.927,0,0,1,6.528-10.864,58.327,58.327,0,0,1,8.688-9.547q4.744-4.144,8.847-5.021a13.344,13.344,0,0,1,2.16-.22,18.318,18.318,0,0,1,2.226-.047,7.63,7.63,0,0,1,1.89.315q.913.281.935.869a13.78,13.78,0,0,1-.444,1.693c-.182.554-.449,1.221-.787,2s-.812,1.77-1.41,2.962-1.094,2.683-1.916,4.607l1.134-2.135a74.542,74.542,0,0,0,3.44-6.892,9.039,9.039,0,0,1,.793-1.826,4.271,4.271,0,0,1,.319.465,2.412,2.412,0,0,1,.448,1.267,5.282,5.282,0,0,1-.209,1.227q-.224.88-.587,1.962c-.245.726-.4,1.18-.639,1.942s-.882,2.4-1.131,2.926c-.864,2.088-1.341,3.315-2.006,5.351s-1.333,4.193-2,6.464-1.446,4.661-2.015,7.241a76.7,76.7,0,0,0-1.3,8.443c.492-1.123.664-1.764,1.232-3.241.248-.649.7-1.748.716-1.771.5-1.053.683-1.586,1.48-3.592q1.2-3.037,2.643-6.545t3.024-7.217q1.586-3.71,3.142-6.767a37.477,37.477,0,0,1,3.047-5.092,5.307,5.307,0,0,1,2.694-2.289,3.317,3.317,0,0,1,1.874.251,4.743,4.743,0,0,1,1.441.782,6.807,6.807,0,0,1,1.725,1.765,4.24,4.24,0,0,1,.731,2.214,2.776,2.776,0,0,1-.159,1.218q-1,3.176-1.8,6.012t-1.52,5.593q-.713,2.757-1.416,5.69a42.774,42.774,0,0,0-.924,6.693q2.778-6.991,5.649-12.812t6.2-11.5a1.243,1.243,0,0,1,.885-.662,4.16,4.16,0,0,1,2.326.216,8.7,8.7,0,0,1,2.259,1.24,7.121,7.121,0,0,1,1.73,1.882,4.3,4.3,0,0,1,.727,2.154,4.762,4.762,0,0,1-.164.985,93.066,93.066,0,0,0-2.963,10.46q-1.036,4.841-2.147,10.645" transform="translate(-457.114 -2318.13)" fill="#ffd100"/>
    <path id="Path_26540" data-name="Path 26540" d="M636.828,551.08c-.019.028-.027.047-.024.06.024,0,.077-.073.164-.2a5.49,5.49,0,0,0,.436-.751c.134-.285.256-.571.367-.862a8.842,8.842,0,0,0,.275-.851c.077-.279.137-.513.186-.711-.049.071-.076.105-.084.1s-.025.04-.055.134a.091.091,0,0,0-.024.069.059.059,0,0,1-.01.047l-.014.022c-.115.36-.22.681-.321.964s-.19.532-.277.749-.176.412-.264.585a5.3,5.3,0,0,1-.306.519.213.213,0,0,0-.05.124m1.54-2.61a.147.147,0,0,0,0-.093,4.316,4.316,0,0,1-.152.489c-.077.209-.167.439-.271.691s-.219.507-.34.77-.244.5-.37.711a4.387,4.387,0,0,1-.357.53.632.632,0,0,1-.315.239,2.168,2.168,0,0,0,.645-.623,5.94,5.94,0,0,0,.5-.87,7.226,7.226,0,0,0,.38-.945q.156-.482.276-.9m-2.285-5.069c.019-.03.027-.051.024-.062.036-.008-.006.068-.13.222s-.263.344-.416.569a5.881,5.881,0,0,0-.407.7,1,1,0,0,0-.131.618,1.115,1.115,0,0,1,.123-.278c.093-.187.2-.4.327-.645s.245-.473.364-.69.2-.36.247-.432m-1.366,2.368a5.657,5.657,0,0,1,.247-.716q.153-.354.317-.69c.112-.222.225-.43.341-.622s.222-.357.32-.5a.093.093,0,0,0-.066.049,2.274,2.274,0,0,0-.261.277,1.846,1.846,0,0,0-.2.319,2.145,2.145,0,0,0-.156.423c-.036.071-.083.186-.146.348s-.12.328-.179.5-.114.319-.162.453-.077.21-.084.224a.017.017,0,0,0,.012-.023Zm-.659.5c0-.024-.014-.011-.03.035a1.313,1.313,0,0,0-.042.261c-.062.376-.113.722-.157,1.035s-.08.592-.115.829-.058.428-.074.568-.022.217-.02.229c.011.047.044.066.105.054.033-.006.05-.055.044-.148s0-.266.01-.517a3.148,3.148,0,0,1,.058-.408c.039-.206.082-.437.123-.689s.077-.5.1-.731a2.114,2.114,0,0,0,0-.517m-.81,1.529c.012-.129.027-.271.046-.431s.039-.336.063-.529c.014-.116.036-.26.061-.432s.058-.345.088-.507.052-.309.071-.445a1.154,1.154,0,0,0,.012-.255l-.076.277c-.124,1-.236,1.817-.333,2.448a4.96,4.96,0,0,0-.1,1.183.066.066,0,0,0,.086.058c.023,0,.044-.143.058-.415s.024-.588.025-.952m-2.362,1.532a1.413,1.413,0,0,1-.456-.832,3.7,3.7,0,0,1,.11-1.6,3.267,3.267,0,0,0-.271,1.63,1.057,1.057,0,0,0,.617.8m8.7-6.262a2.542,2.542,0,0,1,.161.532,7.35,7.35,0,0,1,.1,1.51,12.873,12.873,0,0,1-.2,1.914,14.131,14.131,0,0,1-.537,2.077,10.449,10.449,0,0,1-.928,2.009,8.636,8.636,0,0,1-1.353,1.729,5.555,5.555,0,0,1-1.825,1.2.5.5,0,0,1-.17.073c-.06.012-.12.022-.178.035a1.232,1.232,0,0,1-.646-.035,1.427,1.427,0,0,1-.5-.3,1.587,1.587,0,0,1-.351-.466,2.187,2.187,0,0,1-.189-.546,1.087,1.087,0,0,1,.269-.98,3.171,3.171,0,0,1,.934-.7,7.145,7.145,0,0,1,1.1-.439q.543-.163.755-.2l.088-.017c.179-.036.283.026.313.183a.265.265,0,0,1-.023.173.242.242,0,0,1-.141.122,4.663,4.663,0,0,0-1.208.573,5.535,5.535,0,0,0-.813.666,2.983,2.983,0,0,0-.459.578.861.861,0,0,0-.135.308q.016.071.194.038a2.188,2.188,0,0,0,.373-.119,3.385,3.385,0,0,0,.56-.308A4.367,4.367,0,0,0,636,551.569a8.37,8.37,0,0,0,.919-1.531,11.079,11.079,0,0,0,.648-1.75,14.144,14.144,0,0,0,.381-1.782,12.352,12.352,0,0,0,.134-1.63,6.355,6.355,0,0,0-.1-1.285,1.481,1.481,0,0,0-.313-.755.5.5,0,0,0-.474-.16,1.268,1.268,0,0,0-.643.443,5.213,5.213,0,0,0-.666,1,10,10,0,0,0-.6,1.382,13.393,13.393,0,0,0-.451,1.616,11.472,11.472,0,0,0-.225,1.679,6.98,6.98,0,0,0,.079,1.578.285.285,0,0,1,.039.105.388.388,0,0,1,0,.17c-.017.052-.071.088-.165.107a.667.667,0,0,1-.091.006c-.036,0-.066,0-.09.009a.28.28,0,0,1-.132-.011.187.187,0,0,1-.06-.025.032.032,0,0,0-.03.043,1.506,1.506,0,0,1-.323-.041.107.107,0,0,0-.075-.013.033.033,0,0,0-.024.024c0,.012-.016.021-.041.027a.722.722,0,0,1-.381-.009.621.621,0,0,1-.244-.161.688.688,0,0,1-.14-.242c-.03-.1-.054-.186-.071-.269a6.249,6.249,0,0,1-.055-1.556q.066-.942.218-1.918t.338-1.859c.126-.587.234-1.051.327-1.4a3.269,3.269,0,0,0-.9.991,7.866,7.866,0,0,0-.717,1.473,8.512,8.512,0,0,0-.428,1.594,3.808,3.808,0,0,0-.03,1.318.966.966,0,0,0,.242.526.58.58,0,0,1,.187.255.515.515,0,0,0-.039.074.063.063,0,0,1-.049.038.1.1,0,0,1-.038,0,.075.075,0,0,0-.038,0c-.023,0-.034.013-.031.024s-.008.022-.033.027a.335.335,0,0,1-.2-.016.039.039,0,0,0-.026.014c0,.008-.012.011-.025.015a1.044,1.044,0,0,1-.512-.022,1.469,1.469,0,0,1-.44-.214,1.29,1.29,0,0,1-.324-.34,1.136,1.136,0,0,1-.172-.4,2.759,2.759,0,0,1,.03-1.029,6.939,6.939,0,0,1,.368-1.235,8.953,8.953,0,0,1,.629-1.268,9.862,9.862,0,0,1,.811-1.154,5.428,5.428,0,0,1,.9-.879,2.2,2.2,0,0,1,.911-.44.709.709,0,0,1,.3,0,1.023,1.023,0,0,0,.3.016c.037,0,.082.009.132.011.1.006.153.033.163.08a1.789,1.789,0,0,1-.073.578.759.759,0,0,0-.068.22c-.027.118-.058.239-.094.365s-.076.25-.114.369a.613.613,0,0,1-.105.227c-.018.03,0-.044.069-.22s.137-.373.217-.594.153-.43.219-.626.089-.288.066-.283c0,.011.027.031.076.06a.387.387,0,0,1,.135.179,2.157,2.157,0,0,1-.058.977c-.093.364-.178.714-.245,1.053a9.205,9.205,0,0,1,1.351-2.3,3.1,3.1,0,0,1,1.617-1.133.457.457,0,0,1,.146-.011,1.347,1.347,0,0,1,.5.146,2.754,2.754,0,0,1,.527.338,3.566,3.566,0,0,1,.458.445,1.97,1.97,0,0,1,.3.466" transform="translate(-596.294 -2487.058)" fill="#ffd100"/>
    <path id="Path_26541" data-name="Path 26541" d="M658.612,546.208a.087.087,0,0,1,0,.038.1.1,0,0,0,0,.057c.059-.012.093-.065.1-.16a.544.544,0,0,1,.012-.124c.012,0,.033-.049.066-.143s.06-.2.086-.308.051-.216.07-.313a.7.7,0,0,0,.02-.182c-.025,0-.057.063-.1.168s-.083.232-.123.372-.075.269-.1.385a.758.758,0,0,0-.033.212m.776.77a.2.2,0,0,1-.132.082.567.567,0,0,1-.231-.013,1.25,1.25,0,0,1-.277-.085.92.92,0,0,1-.232-.154.372.372,0,0,1-.124-.2,2.029,2.029,0,0,1,0-.413,4.748,4.748,0,0,1,.091-.628,3.022,3.022,0,0,1,.175-.578c.072-.17.15-.263.231-.28a.824.824,0,0,1,.327.024,2.255,2.255,0,0,1,.4.127,1.922,1.922,0,0,1,.349.186.359.359,0,0,1,.169.192.073.073,0,0,1-.008.057,5.821,5.821,0,0,0-.366.738c-.1.239-.224.552-.381.946m-.919,5.466a3.627,3.627,0,0,1,.033-.682c.039-.319.08-.64.129-.963s.094-.6.142-.853.073-.363.088-.354c-.072.014-.14.143-.2.385s-.12.529-.168.85-.082.644-.1.966a3.133,3.133,0,0,0,.021.719c.02.12.039.179.05.178s.016-.085.009-.247m1.891-2.541c.1-.119.192-.227.278-.326a.446.446,0,0,1,.217-.163.082.082,0,0,1,.109.073,1.841,1.841,0,0,1-.066.423c-.055.236-.129.514-.229.834s-.217.659-.355,1.024a10.6,10.6,0,0,1-.457,1.026,4.727,4.727,0,0,1-.519.813.97.97,0,0,1-.535.385.927.927,0,0,1-.95-.287,2.071,2.071,0,0,1-.456-.98,6.844,6.844,0,0,1,0-2.225q.184-1.3.5-2.694c.019-.1.109-.172.277-.2a1.036,1.036,0,0,1,.349,0,1.436,1.436,0,0,1,.362.108,1.041,1.041,0,0,1,.312.222.62.62,0,0,1,.173.321.738.738,0,0,1-.023.362,17.266,17.266,0,0,0-.588,2.486,5.92,5.92,0,0,0-.035,2.024,2.649,2.649,0,0,0,.518-.708c.148-.287.285-.584.409-.9s.242-.614.352-.9a3.8,3.8,0,0,1,.351-.716" transform="translate(-613.239 -2488.941)" fill="#ffd100"/>
    <path id="Path_26542" data-name="Path 26542" d="M669.847,553.079c-.013,0-.019.039-.022.116s0,.17-.006.283,0,.23.008.346a2.055,2.055,0,0,0,.034.3c.009.047.019.1.03.143a.706.706,0,0,0,.052.16,1.021,1.021,0,0,0,.059.193c.011,0,.009-.067,0-.2s-.032-.276-.054-.441-.042-.321-.059-.477a1.2,1.2,0,0,1-.013-.325l-.024-.107Zm-.073,1.8a1.011,1.011,0,0,0-.054-.129,1.165,1.165,0,0,1-.083-.274,3.007,3.007,0,0,1-.054-.526c-.01-.217-.011-.441-.01-.666,0-.25,0-.529.015-.831-.038.3-.062.548-.076.749s-.025.407-.031.609a2.052,2.052,0,0,0,.025.483c0,.013.012.05.031.116s.046.132.071.2a1.47,1.47,0,0,0,.085.187c.03.057.057.082.08.077m2.318-3.487a2.177,2.177,0,0,1,.264-.335.52.52,0,0,1,.226-.161c.047-.01.078.017.09.078a1.861,1.861,0,0,1-.057.394c-.046.23-.115.5-.209.826s-.213.669-.349,1.048a8.951,8.951,0,0,1-.458,1.052,4.176,4.176,0,0,1-.568.842,1.23,1.23,0,0,1-.653.426.88.88,0,0,1-.718-.2,1.462,1.462,0,0,1-.492-.9,4.65,4.65,0,0,1-.077-1.141c.017-.423.052-.824.1-1.207s.107-.718.17-1.01.1-.5.118-.6a4.717,4.717,0,0,0-.348.645q-.26.534-.568,1.294c-.2.505-.4,1.057-.585,1.652a11.394,11.394,0,0,0-.4,1.727.213.213,0,0,1-.194.228.651.651,0,0,1-.514-.193,1.689,1.689,0,0,1-.452-.979,7.827,7.827,0,0,1-.063-1.924,16.993,16.993,0,0,1,.6-3.189.268.268,0,0,1,.233-.215.889.889,0,0,1,.516.08,2.463,2.463,0,0,1,.524.286l-.066.126c-.024.067-.068.2-.134.385s-.131.393-.191.612-.11.436-.154.643a1.3,1.3,0,0,0-.027.5.271.271,0,0,0,.039.1,3.19,3.19,0,0,1,.072-.6c.049-.261.107-.521.172-.779s.131-.483.194-.676a1.288,1.288,0,0,1,.116-.3.6.6,0,0,1,.213.315.744.744,0,0,1-.033.289c-.036.132-.077.272-.127.419s-.1.3-.156.456-.095.287-.123.392c.143-.329.288-.648.442-.955a6.93,6.93,0,0,1,.469-.822,3.507,3.507,0,0,1,.5-.6,1.121,1.121,0,0,1,.524-.3,1,1,0,0,1,.719.123.824.824,0,0,1,.421.565,2.536,2.536,0,0,1-.078.776q-.118.6-.263,1.334c-.1.489-.178.979-.244,1.47a4.234,4.234,0,0,0-.015,1.226,2.567,2.567,0,0,0,.506-.725c.145-.294.277-.593.4-.9s.239-.6.346-.888a3.649,3.649,0,0,1,.344-.711" transform="translate(-618.855 -2491.683)" fill="#ffd100"/>
    <path id="Path_26543" data-name="Path 26543" d="M692.76,539.425q-.177.6-.332,1.1c-.106.334-.21.654-.317.961a10.668,10.668,0,0,0,.725-2.33Zm.492-1.029c-.232.864-.471,1.654-.723,2.37s-.516,1.38-.791,1.986a13.2,13.2,0,0,0,1.513-4.355m-3.472,7.058a7.292,7.292,0,0,1,2.124-.974,2.919,2.919,0,0,0-.3.061c-.094.027-.189.052-.283.077a2.973,2.973,0,0,0-1.54.836m-.519-7.8a4.007,4.007,0,0,0,.116.848c.123.461.341.716.653.757a1.587,1.587,0,0,1-.655-1.043c-.023-.083-.047-.171-.072-.267a1.134,1.134,0,0,1-.043-.294m4.04,5.454a3.8,3.8,0,0,1,.311.46,2.144,2.144,0,0,1,.238.536c.032.12.02.186-.038.2a1.52,1.52,0,0,1-.445.024,2.244,2.244,0,0,0-.672.086,9.469,9.469,0,0,0-1.367.5c-.5.224-1,.471-1.49.743l-.047.031-.069-.038a1.841,1.841,0,0,1-.541-.408,1.471,1.471,0,0,1-.334-.615,1.092,1.092,0,0,1-.039-.219l.08-.194a1.46,1.46,0,0,0,.639-.447,8.222,8.222,0,0,0,.708-.9,11.841,11.841,0,0,0,.7-1.161c.224-.425.433-.844.619-1.264a12.667,12.667,0,0,0,.467-1.193,6.061,6.061,0,0,0,.249-.963,2.9,2.9,0,0,0-.033-1.1.8.8,0,0,0-.335-.519.675.675,0,0,0-.513-.052,1.175,1.175,0,0,0-.41.215,1.408,1.408,0,0,0-.338.385,1.6,1.6,0,0,0-.194.5,1.15,1.15,0,0,0,.019.557,1.434,1.434,0,0,0,.137.336,1.311,1.311,0,0,0,.267.337l.176.165a1.552,1.552,0,0,1-.616.356.835.835,0,0,1-.749-.132,1.35,1.35,0,0,1-.469-.762,2.928,2.928,0,0,1-.074-1.144,3.337,3.337,0,0,1,.319-1.048,2.733,2.733,0,0,1,.618-.815,2.011,2.011,0,0,1,.834-.462,2.032,2.032,0,0,1,.942-.054,1.7,1.7,0,0,1,.715.321,2.113,2.113,0,0,1,.5.565,2.494,2.494,0,0,1,.291.664,4.74,4.74,0,0,1,.138,1.7,9.056,9.056,0,0,1-.332,1.731,12.893,12.893,0,0,1-.609,1.643q-.362.791-.678,1.432a1.008,1.008,0,0,0,.139-.047c.045-.019.091-.033.136-.047a2.643,2.643,0,0,1,.577-.088,1.021,1.021,0,0,1,.521.118Z" transform="translate(-632.843 -2482.924)" fill="#ffd100"/>
    <path id="Path_26544" data-name="Path 26544" d="M707.139,539.45a5.844,5.844,0,0,0,.477-1.547,6.152,6.152,0,0,0-.05-1.917,7.91,7.91,0,0,1-.049,1.85,11.8,11.8,0,0,1-.377,1.613m-1.112.393a.683.683,0,0,0,.379-.011,1.222,1.222,0,0,0,.683-.929,7.334,7.334,0,0,0,.245-1.809,13.907,13.907,0,0,0-.115-2.138,9.888,9.888,0,0,0-.414-1.921,3.052,3.052,0,0,0-.535-1.053.6.6,0,0,0-.683-.187.945.945,0,0,0-.531.5,3.529,3.529,0,0,0-.319.962,7.284,7.284,0,0,0-.13,1.266,13.9,13.9,0,0,0,.044,1.414q.059.717.181,1.4a8.246,8.246,0,0,0,.305,1.218,3.664,3.664,0,0,0,.409.884.925.925,0,0,0,.482.411m-2.527-4.689a7.091,7.091,0,0,1,.942-3.579,4.6,4.6,0,0,0-.942,3.579m2.121-4.342a1.821,1.821,0,0,1,1.545.647,5.073,5.073,0,0,1,1.026,1.831,9.505,9.505,0,0,1,.445,2.239,9.973,9.973,0,0,1-.069,2.306,5.842,5.842,0,0,1-.617,1.926,2.123,2.123,0,0,1-1.186,1.078,1.645,1.645,0,0,1-1.012.038,2.213,2.213,0,0,1-.88-.511,3.8,3.8,0,0,1-.722-.932,6.739,6.739,0,0,1-.548-1.227,9.678,9.678,0,0,1-.445-2.182,9.022,9.022,0,0,1,.063-2.212,5.346,5.346,0,0,1,.617-1.839,2.221,2.221,0,0,1,1.243-1.057,1.867,1.867,0,0,1,.265-.069,2.3,2.3,0,0,1,.276-.035" transform="translate(-641.751 -2480.293)" fill="#ffd100"/>
    <path id="Path_26545" data-name="Path 26545" d="M722.776,533.4a5.768,5.768,0,0,0,.332-1.586,6.088,6.088,0,0,0-.227-1.9,7.85,7.85,0,0,1,.123,1.848,11.564,11.564,0,0,1-.229,1.64m-1.071.491a.7.7,0,0,0,.379-.043,1.234,1.234,0,0,0,.595-.989,7.4,7.4,0,0,0,.075-1.824,14.208,14.208,0,0,0-.312-2.119,9.967,9.967,0,0,0-.588-1.872,3.08,3.08,0,0,0-.631-1,.6.6,0,0,0-.7-.125.967.967,0,0,0-.483.546,3.5,3.5,0,0,0-.228.987,7.385,7.385,0,0,0-.013,1.273,13.326,13.326,0,0,0,.175,1.4,13.97,13.97,0,0,0,.307,1.374,9.016,9.016,0,0,0,.416,1.186,3.753,3.753,0,0,0,.491.842.914.914,0,0,0,.516.362m-2.949-4.432a7.105,7.105,0,0,1,.61-3.651,4.6,4.6,0,0,0-.61,3.651m1.712-4.52a1.822,1.822,0,0,1,1.6.5,5.072,5.072,0,0,1,1.191,1.729,9.538,9.538,0,0,1,.65,2.19,10,10,0,0,1,.145,2.3,5.9,5.9,0,0,1-.439,1.973,2.116,2.116,0,0,1-1.083,1.183,1.624,1.624,0,0,1-1,.131,2.2,2.2,0,0,1-.922-.428,3.769,3.769,0,0,1-.807-.861,6.758,6.758,0,0,1-.656-1.171,9.471,9.471,0,0,1-.645-2.13,9.224,9.224,0,0,1-.145-2.212,5.447,5.447,0,0,1,.447-1.886,2.225,2.225,0,0,1,1.141-1.169,2,2,0,0,1,.256-.091,2.2,2.2,0,0,1,.271-.06" transform="translate(-651.223 -2476.621)" fill="#ffd100"/>
    <path id="Path_26546" data-name="Path 26546" d="M734.936,525.828a3.376,3.376,0,0,0,.79-2.168,5.275,5.275,0,0,1-.79,2.168m-.487.426a4.879,4.879,0,0,0,1.19-3.329,6.938,6.938,0,0,1-1.19,3.329m-1.137-8.575a2.644,2.644,0,0,1,1.646-.156,1.274,1.274,0,0,0-.8-.17,2.478,2.478,0,0,0-.848.326m1.809-.121a.937.937,0,0,1,.134.2,1.1,1.1,0,0,1,.105.292,3.023,3.023,0,0,1,.069.4,1.7,1.7,0,0,1,0,.37.27.27,0,0,1-.112.223c-.055.03-.119-.025-.2-.163a.362.362,0,0,0-.418-.186,1.877,1.877,0,0,0-.566.219,3.9,3.9,0,0,0-.359.226,1.7,1.7,0,0,0-.266.214l.325,2.1a6.779,6.779,0,0,1,.639-.269,2.175,2.175,0,0,1,.738-.134,1.6,1.6,0,0,1,.719.162,1.4,1.4,0,0,1,.592.595,2.713,2.713,0,0,1,.325,1.268,7.085,7.085,0,0,1-.111,1.484,8.255,8.255,0,0,1-.384,1.4,6.528,6.528,0,0,1-.459,1,4.054,4.054,0,0,1-.406.518,2.047,2.047,0,0,1-.491.4,1.253,1.253,0,0,1-.953.142,1.689,1.689,0,0,1-.946-.9l.116-.236a.593.593,0,0,0,.426-.094,2.345,2.345,0,0,0,.71-.787,9.322,9.322,0,0,0,.678-1.3,7.268,7.268,0,0,0,.434-1.342,1.37,1.37,0,0,0-.019-.911c-.067-.118-.2-.14-.4-.068a3.852,3.852,0,0,0-.586.272c-.115.066-.212.125-.3.179s-.132.086-.151.1l-.073.021a4.221,4.221,0,0,1-.64-.059,1.191,1.191,0,0,1-.595-.276l-.052-.055a2.59,2.59,0,0,1-.181-.626c-.066-.325-.131-.672-.19-1.048s-.114-.732-.161-1.065-.078-.559-.1-.672c-.011-.066-.019-.126-.028-.177s-.019-.11-.026-.176a.437.437,0,0,1,.1-.234,2.474,2.474,0,0,1,.285-.343,5.585,5.585,0,0,1,.423-.39,3.68,3.68,0,0,1,.524-.364,2.325,2.325,0,0,1,.972-.31.961.961,0,0,1,.859.411" transform="translate(-659.702 -2471.789)" fill="#ffd100"/>
    <path id="Path_26547" data-name="Path 26547" d="M546.668,466.638a32.519,32.519,0,0,1-3.768,6.575l-.469.565c.3-.427.387-.552.747-1.146.455-.75.939-1.633,1.473-2.63s1.056-2.037,1.566-3.1a18.723,18.723,0,0,0,1.021-2.437c.055-.145.138-.374.247-.693s.222-.628.335-.979c.117-.42.258-.724.478-1.5a21.527,21.527,0,0,1-1.63,5.342m-92.42,42.83c-.7.332-1.465.7-2.309,1.092s-1.257.593-2.063,1-1.4.738-2.41,1.335a12.669,12.669,0,0,1,2.765-1.783c1.269-.658,1.433-.766,2.418-1.187a18.1,18.1,0,0,1,3.085-1.142c-.3.132-.788.36-1.485.689M392.824,561.2a109.3,109.3,0,0,1,10.993-15.742c4.848-5.667,11.109-11.5,18.2-18.465a239.311,239.311,0,0,0-29.2,34.207m156.9-110.558c-.733-5.368-6.412.622-5.514.142.59-.315.735.743.826,2.047.922,13.268-7.195,24.717-17.824,31.768-12.2,8.095-26.9,10.51-40.943,13.215-13.3,2.561-26.211,6.018-38.489,11.923a139.225,139.225,0,0,0-31.445,20.784,145.072,145.072,0,0,0-27.352,32.823c-3.392,5.473,10.327,2.449,14.437-3.315,14.75-20.693,25.287-36.175,47.029-47.548,12.349-6.46,23.591-9.9,37.185-12.505,14.022-2.693,31.672-5.521,43.7-13.782,11.383-7.816,20.529-19.9,18.389-35.55" transform="translate(-445.9 -2429.002)" fill="#ffd100"/>
  </g>
</svg>
