<svg xmlns="http://www.w3.org/2000/svg" width="44.322" height="44.403" viewBox="0 0 44.322 44.403">
  <g id="olives" transform="translate(-4.594 -4.492)">
    <path id="Path_26984" data-name="Path 26984" d="M48.179,9.9a1.775,1.775,0,0,0-1.339-.461,57.51,57.51,0,0,0-9.825,1.836,4.161,4.161,0,0,0,.3-.588c.987-2.437-.612-5.284-.68-5.4a.649.649,0,0,0-.743-.3,8.041,8.041,0,0,0-3.518,2.206,6.451,6.451,0,0,0-1.454-1.325c-3.265-2.119-7.9-.575-8.095-.508a.649.649,0,0,0-.438.674c.019.206.5,5.061,3.764,7.18a6.653,6.653,0,0,0,2.191.894c-8.413,3.234-17.17,8.07-23.112,14.377a1.765,1.765,0,1,0,2.56,2.43,47.018,47.018,0,0,1,10.534-8.05,28.6,28.6,0,0,0-.49,6.075,7.138,7.138,0,0,0-2.619,2.85,13.189,13.189,0,0,0-1.341,7.3c.462,5.445,3.735,9.665,7.4,9.665.134,0,.269-.006.4-.017A6.087,6.087,0,0,0,26.4,45.2a11.789,11.789,0,0,0,1.236-3.873c3.111-.392,5.306-4.368,4.915-8.978-.338-3.922-2.411-7.121-5.017-7.867a21.635,21.635,0,0,1,.811-6.511c7.059-2.867,14.047-4.639,18.8-5.026A1.763,1.763,0,0,0,48.179,9.9ZM32.971,8.6a5.539,5.539,0,0,1,2.771-2.188,5.219,5.219,0,0,1,.367,3.787,4.022,4.022,0,0,1-1.629,1.8q-.68.205-1.37.426a7.133,7.133,0,0,1-.412-1.411.239.239,0,0,0-.005-.039,3.828,3.828,0,0,1,.155-2.11,1.872,1.872,0,0,1,.124-.26Zm-6.114,3.517c-2.164-1.4-2.892-4.454-3.1-5.681,1.206-.311,4.282-.894,6.455.516a5.473,5.473,0,0,1,1.437,1.411c0,.006-.006.011-.008.017a5.071,5.071,0,0,0-.234,2.776.3.3,0,0,0,.005.04,8.338,8.338,0,0,0,.463,1.63l-.392.135A7.272,7.272,0,0,1,26.858,12.113Zm-7.039,9.9q.542-.3,1.091-.588a28.267,28.267,0,0,0-.854,6.829c-.04,0-.079,0-.12.006a4.89,4.89,0,0,0-.817.142,28.448,28.448,0,0,1,.7-6.389Zm4.2,3.045a6.7,6.7,0,0,0-2.46,3.344c-.068-.017-.136-.037-.2-.051a27.489,27.489,0,0,1,1.1-7.723q.939-.468,1.888-.912a23.1,23.1,0,0,0-.325,5.343Zm1.231,19.531a4.846,4.846,0,0,1-3.689,2.847c-3.1.266-5.978-3.533-6.4-8.463A11.879,11.879,0,0,1,16.357,32.4a4.846,4.846,0,0,1,3.689-2.847c.1-.009.2-.013.306-.013,2.989,0,5.686,3.708,6.089,8.475a11.879,11.879,0,0,1-1.187,6.574Zm6-12.121c.317,3.75-1.218,6.989-3.482,7.523a15.227,15.227,0,0,0-.033-2.083c-.356-4.2-2.379-7.661-4.965-9.032a5.266,5.266,0,0,1,2.236-2.9,2.855,2.855,0,0,1,1.121-.339,2.814,2.814,0,0,1,.679.024C29.038,26,30.948,28.932,31.253,32.464Zm-5.028-8.132c-.067,0-.133,0-.2,0a4.065,4.065,0,0,0-.73.134,23.016,23.016,0,0,1,.5-5.412c.351-.156.7-.307,1.054-.458a22.658,22.658,0,0,0-.62,5.729ZM47.031,11.653c-8.647.7-29.312,6.813-40.187,18.36a.46.46,0,0,1-.642.025.455.455,0,0,1-.155-.348.464.464,0,0,1,.128-.323c10.2-10.827,30.231-17.782,40.77-18.637h.039a.464.464,0,0,1,.047.925Z" transform="translate(0 0)" fill="#ffd101" stroke="#ffd101" stroke-width="0.3"/>
    <path id="Path_26985" data-name="Path 26985" d="M56.981,99.17a.647.647,0,0,0-.713.58,9.286,9.286,0,0,1-.491,2.209.649.649,0,0,0,.39.832.639.639,0,0,0,.221.039A.65.65,0,0,0,57,102.4a10.606,10.606,0,0,0,.562-2.517A.65.65,0,0,0,56.981,99.17Z" transform="translate(-32.059 -59.363)" fill="#ffd101" stroke="#ffd101" stroke-width="0.3"/>
  </g>
</svg>
