<svg xmlns="http://www.w3.org/2000/svg" width="73.15" height="47.478" viewBox="0 0 73.15 47.478">
  <g id="Group_3517" data-name="Group 3517" transform="translate(-68.527 -157.375)">
    <g id="Group_2268" data-name="Group 2268" transform="translate(69 157.877)">
      <path id="Path_24440" data-name="Path 24440" d="M54.358,267.163c.343-.944.61-1.922.91-2.88a.356.356,0,0,0-.185-.453,2.6,2.6,0,0,0-3.695,3.025,124.965,124.965,0,0,1-12.406-2.085c-3.172-.7-6.319-1.505-9.446-2.382.8-.894.37-2.354-.517-3.2a8.179,8.179,0,0,0-4.813-2.005,3.743,3.743,0,0,0,1.846-3.077c-.05-1.928-1.994-3.141-3.737-3.323-3.969-.418-7.415,3.769-6.6,7.557a15.11,15.11,0,0,1-6.079-3.53.358.358,0,0,0,.251-.282.4.4,0,0,0,.075-.038A87.27,87.27,0,0,0,22.908,241.95c2.263-2.709,5.4-6.156,6.289-9.908a63.52,63.52,0,0,0,13.3,16.706.161.161,0,0,0-.039.084c-.018.5-.842.659-.983,1.147-.152.525.34.9.7,1.2,1.1.9,2.61,1.781,4.034,1.091a.364.364,0,0,0,.171-.17q1.342,1.091,2.725,2.135a6.4,6.4,0,0,0-3.8,1.3.462.462,0,0,0-.11-.144c-1.814-1.605-7.067-5.869-9.079-2.2-1.778,3.24,3.684,5.2,5.928,5.271a.259.259,0,0,0,.067-.514,11.086,11.086,0,0,1-3.691-1.363,3.209,3.209,0,0,1-1.276-1.2,1.836,1.836,0,0,1,1.207-2.624c2.169-.37,4.729,2.035,6.294,3.333a5.757,5.757,0,0,0-.661.739c-.174.235.143.588.375.376a6.12,6.12,0,0,1,5.056-1.891c2.827.355,3.357,3.505,1.889,5.565a8.081,8.081,0,0,1-4.733,2.718,10.419,10.419,0,0,1-2.129.374q-3.3.506-3.155-3.417a9.179,9.179,0,0,1,1.218-1.179.405.405,0,0,0-.494-.641c-2.14,1.533-3.014,4.34-.157,5.743,2.835,1.392,7.656-.3,9.7-2.508a5.369,5.369,0,0,0,1.25-5.053c2.992,2.062,6.086,3.98,9.219,5.782a.33.33,0,0,0-.176.2c-.236.735-.417,1.49-.6,2.241q-.909-.4-1.821-.785c.3-.774.623-1.541.93-2.315a.289.289,0,0,0-.533-.224c-.415.864-.807,1.738-1.235,2.594a.386.386,0,0,0,.2.5c.854.4,1.717.789,2.577,1.182a.413.413,0,0,0,.541-.22c.251-.914.533-1.83.726-2.759a.357.357,0,0,0,0-.069c2.657,1.513,5.338,2.946,8.01,4.3a101.177,101.177,0,0,1-16.272-.174m-.7-.073q-.9-.086-1.8-.187a2.088,2.088,0,0,1,2.659-2.561c-.3.9-.613,1.806-.857,2.724,0,.009,0,.015,0,.023m-31.311-8.863c.3-.134.607-.286.917-.455a9.705,9.705,0,0,1,3,.76c1.147.513,4,2.113,2.272,3.576-1.693-.484-3.383-.981-5.064-1.5-2.077-.646-4.615-1.216-7.049-2.017a.339.339,0,0,0,.014-.1,6.248,6.248,0,0,1,4.071-6.445c1.307-.411,3.247-.281,4.138.946,1.524,2.1-1.137,3.6-2.639,4.432-.481.265-.184,1.043.341.806m38.223,10.5c-3.014-.045-6.024-.222-9.025-.5a160.149,160.149,0,0,1-17.908-2.809c-5.926-1.241-11.795-2.738-17.642-4.306-4.342-1.163-18.511-3.861-13.945-10.121a4.931,4.931,0,0,1,6.987,3.37.206.206,0,0,0-.157.292c1.613,3.462,6.351,4.22,9.618,5.3,5.417,1.792,10.889,3.431,16.429,4.795a114.229,114.229,0,0,0,33.858,3.6c-2.646.675-5.755.414-8.215.377M4.331,248.746c3.332-2.584,6.45-5.007,9.032-8.394,2.7-3.537,4.168-7.384,5.919-11.418.854-1.969,1.073-2.6,2.134-2.587a3.647,3.647,0,0,1,3.864-.789,4.329,4.329,0,0,1,1.879,1.6q1.652.852,1.014,3.773-.348,1.175-.7,2.35c-1.2,2.918-3.53,5.522-5.527,7.926A112.859,112.859,0,0,1,9.737,253.647,5.278,5.278,0,0,0,2.6,250.321a13.394,13.394,0,0,1,1.726-1.575m38.555.361q1.425,1.29,2.913,2.518a2.57,2.57,0,0,1-1.934-.193,4.609,4.609,0,0,1-1.617-1.065c-.336-.47.274-.619.5-.949a.792.792,0,0,0,.135-.312m28.495,18.156a.462.462,0,0,0-.191-.644c-16.772-8.512-31.8-19.268-41.829-35.454a7.949,7.949,0,0,0,.026-2.129c-.374-2.887-2.789-5.783-5.916-5.489-3.8.357-5,4.756-6.193,7.713a35.444,35.444,0,0,1-11.7,15.2c-2.54,1.9-6.3,4.134-5.454,7.9,1.031,4.593,7.016,5.448,10.735,6.467,6.441,1.764,12.895,3.494,19.411,4.958a160.006,160.006,0,0,0,24.42,3.778c5.128.341,12.677,1.556,17.222-1.394.539-.349.011-1.094-.53-.9" transform="translate(0 -223.525)" fill="#ffd101" stroke="#ffd101" stroke-width="1"/>
      <path id="Path_24441" data-name="Path 24441" d="M187.375,418.978a.388.388,0,0,0-.1.076,12.167,12.167,0,0,1-1.321-2,4.215,4.215,0,0,1,3.344,1.033c-.648.283-1.3.568-1.924.888m2.789-.986a5.047,5.047,0,0,0-4.771-1.535.343.343,0,0,0-.265.468,8.151,8.151,0,0,0,2.17,2.851.217.217,0,0,0,.336-.119.151.151,0,0,0,.025-.006c.8-.346,1.586-.747,2.367-1.139a.343.343,0,0,0,.137-.52" transform="translate(-152.548 -382.437)" fill="#ffd101" stroke="#ffd101" stroke-width="1"/>
      <path id="Path_24442" data-name="Path 24442" d="M155.514,391.846c-.424-.21-.837-.437-1.243-.676.115-.959.379-2.382,1.6-2.175,1.089.184.117,1.972-.36,2.852m.517-3.507c-1.6-.28-2.125,1.273-2.207,2.577-.4-.193-.81.322-.425.612a8.016,8.016,0,0,0,2.127,1.123.364.364,0,0,0,.466-.191c.443-1.026,2.153-3.752.039-4.121" transform="translate(-126.298 -359.33)" fill="#ffd101" stroke="#ffd101" stroke-width="1"/>
      <path id="Path_24443" data-name="Path 24443" d="M132.844,346.658c-.977.168-2-1.336-2.695-2.224.3-.225.587-.465.87-.71q.6.578,1.211,1.155c.415.395,1.919,1.554.615,1.78m1.259-.993a5.314,5.314,0,0,0-1.144-1.191q-.842-.8-1.685-1.6a.4.4,0,0,0-.484,0c-.451.391-.911.767-1.323,1.2-.232.242.021.551.294.558.816,1.284,2.265,3.626,3.861,2.573a1.185,1.185,0,0,0,.481-1.54" transform="translate(-106.626 -321.821)" fill="#ffd101" stroke="#ffd101" stroke-width="1"/>
      <path id="Path_24444" data-name="Path 24444" d="M160.4,318.116a9.046,9.046,0,0,1-1.21,1.7l-1.514-1.07c.524-.685,1.059-1.375,1.531-2.1a10.212,10.212,0,0,0,.823.606l.475.327a.347.347,0,0,1-.1.534m-.893-2.237a.384.384,0,0,0-.14-.041.127.127,0,0,0-.05,0,.354.354,0,0,0-.309.247c-.775.783-1.463,1.667-2.165,2.511a.382.382,0,0,0,.067.529l2.112,1.581a.42.42,0,0,0,.58-.073c.437-.577.874-1.153,1.3-1.736.261-.353.682-.768.646-1.248-.061-.8-1.427-1.456-2.045-1.772" transform="translate(-129.194 -299.603)" fill="#ffd101" stroke="#ffd101" stroke-width="1"/>
      <path id="Path_24445" data-name="Path 24445" d="M195.663,345.9a2.019,2.019,0,0,1-.58-2.427l.008.005a10.374,10.374,0,0,0,1.494.369,10.7,10.7,0,0,0-.922,2.052m1.647-2.764c-.573-.114-1.158-.262-1.742-.331.02-.018.033-.04.053-.057.209-.166.008-.555-.244-.418a2.6,2.6,0,0,0,.36,4.541.411.411,0,0,0,.533-.218,10.959,10.959,0,0,1,1.318-2.842.427.427,0,0,0-.279-.675" transform="translate(-160.052 -321.417)" fill="#ffd101" stroke="#ffd101" stroke-width="1"/>
      <path id="Path_24446" data-name="Path 24446" d="M25.824,385.183a4.482,4.482,0,0,0-4.315-1.863c-.18.028-.192.318,0,.33a5.464,5.464,0,0,1,3.842,1.9.3.3,0,0,0,.472-.363" transform="translate(-17.611 -355.182)" fill="#ffd101" stroke="#ffd101" stroke-width="1"/>
      <path id="Path_24447" data-name="Path 24447" d="M29.266,394.039a3.714,3.714,0,0,0-2.591-2.06c-.228-.049-.32.311-.106.393a3.882,3.882,0,0,1,2.112,1.915c.19.354.752.135.586-.248" transform="translate(-21.798 -362.353)" fill="#ffd101" stroke="#ffd101" stroke-width="1"/>
      <path id="Path_24448" data-name="Path 24448" d="M141.149,246.306a3.317,3.317,0,0,0-1.587-2.064c-.26-.147-.485.268-.259.442a3.118,3.118,0,0,1,1.209,1.9,5.643,5.643,0,0,1-.232,2,.3.3,0,0,0,.536.223,2.779,2.779,0,0,0,.333-2.5" transform="translate(-114.73 -240.573)" fill="#ffd101" stroke="#ffd101" stroke-width="1"/>
      <path id="Path_24449" data-name="Path 24449" d="M134.822,256.1a4.546,4.546,0,0,0-1.239-2.524.244.244,0,0,0-.387.3,5.845,5.845,0,0,1,.924,2.326.355.355,0,0,0,.7-.1" transform="translate(-109.731 -248.22)" fill="#ffd101" stroke="#ffd101" stroke-width="1"/>
      <path id="Path_24450" data-name="Path 24450" d="M243.713,439.355a3.584,3.584,0,0,1-3.43.238c-.213-.091-.407.222-.208.357a3.6,3.6,0,0,0,4.074-.029c.382-.271-.053-.8-.436-.566" transform="translate(-197.791 -401.354)" fill="#ffd101" stroke="#ffd101" stroke-width="1"/>
    </g>
  </g>
</svg>
