<svg xmlns="http://www.w3.org/2000/svg" width="29.555" height="47.049" viewBox="0 0 29.555 47.049">
  <path id="Subtraction_4" data-name="Subtraction 4" d="M15.552,47.049a21.961,21.961,0,0,1-6.347-1,14.1,14.1,0,0,1-2.3-.934,13.346,13.346,0,0,1-2.036-1.289,12.258,12.258,0,0,1-1.712-1.6A11.023,11.023,0,0,1,1.828,40.38l-.063.023-.006,0L1.1,38.894l.009,0,.012,0c-.012-.032-.024-.064-.035-.1s-.019-.055-.03-.082l-.015-.04c-.028-.077-.057-.157-.084-.236-.036-.1-.07-.211-.1-.3l-.007-.023c-.027-.086-.056-.175-.082-.263S.723,37.673.7,37.588l-.012-.044-.021-.077v0c-.019-.069-.038-.14-.056-.211S.575,37.1.558,37.027l-.019-.082-.022-.1C.5,36.785.488,36.72.474,36.657c-.021-.1-.04-.2-.058-.3L.4,36.287c-.028-.153-.055-.309-.082-.478l-.016-.1c-.012-.077-.025-.157-.036-.235s-.019-.144-.028-.214l-.01-.077c-.014-.106-.027-.21-.039-.316C.184,34.8.177,34.721.17,34.649l-.007-.073-.006-.055c-.009-.085-.018-.173-.025-.259s-.016-.194-.024-.288l0-.04h0c-.007-.09-.014-.184-.02-.276s-.011-.184-.017-.274v-.007c-.007-.123-.012-.224-.017-.32s-.009-.184-.012-.273-.006-.163-.009-.242l0-.082c0-.071,0-.144-.007-.214h0V32.2c0-.11,0-.22-.007-.327v-.007c0-.08,0-.162-.005-.244q0-.08,0-.159v-.008q0-.092,0-.184,0-.057,0-.113v0c0-.033,0-.066,0-.1,0-.093,0-.185,0-.275v0q0-.061,0-.121V30.5c0-.18,0-.36,0-.535L.007,3.754a1.079,1.079,0,0,1,.009-.136.043.043,0,0,1,0,0s0,0,0,0a.915.915,0,0,1,.205-.47c.028-.033.052-.059.076-.083S.335,3.019.354,3h0l0,0h0l.006,0a2.066,2.066,0,0,1,.472-.3L.873,2.67.9,2.659h0l.033-.016a19.421,19.421,0,0,1,3.461-.988l.15-.034.016,0L4.641,1.6l.034-.007h0L4.7,1.586l.11-.024.021,0,.088-.019.019,0,.012,0h0L5.2,1.479l.046-.01h0l.023,0,.092-.019h.006l.087-.018.037-.008.029-.006.15-.031h0l.022,0,.054-.011.039-.008h0l.03-.006.172-.036.032-.007h0L6.061,1.3l.081-.017h0l.133-.027.075-.015L6.5,1.21l.06-.012.029-.005.189-.038.045-.009h0l.054-.011.044-.008h0l.054-.01.1-.021.04-.008h0l.062-.012.068-.013h.008l.1-.018.064-.012L7.5,1.016h0l.051-.01L7.579,1,7.808.958l.013,0,.013,0,.08-.015h0L7.953.93,8.227.88,8.22.783,9.793.524v0L9.8.611A47.346,47.346,0,0,1,17.177,0a34.353,34.353,0,0,1,11.1,1.766.79.79,0,0,1,.385.282.845.845,0,0,1,.164.46c.071,1.33.15,2.686.227,4v.022c.243,4.147.495,8.435.5,12.653v.053a65.312,65.312,0,0,1-.971,9.716v.007l-.08.527c-.124.818-.224,1.662-.33,2.555l-.011.089v0c-.415,3.5-.886,7.476-2.9,10.452A9.509,9.509,0,0,1,21,46.042,13.964,13.964,0,0,1,15.552,47.049ZM1.5,5.43A8,8,0,0,0,1.55,6.623c.023.259.044.5.044.709q0,.772,0,1.543,0,.624,0,1.247,0,1.763,0,3.526t0,3.524c0,5.124,0,9.069,0,12.791,0,2.943,0,6.278,1.319,9.028.065.138.135.27.195.383a11.034,11.034,0,0,0,6.551,5.09,20.128,20.128,0,0,0,5.865.96h0c3.735,0,6.814-1.384,8.447-3.8,1.785-2.638,2.21-6.23,2.621-9.7l.006-.047c.11-.922.213-1.794.342-2.65l.08-.529a63.074,63.074,0,0,0,.953-9.466V19.18c0-4.164-.251-8.423-.492-12.541l0-.031c-.015-.254-.012-.516-.008-.793a6.818,6.818,0,0,0-.072-1.364c-3.936,1.859-8.264,2.268-11.979,2.424-1.077.045-2.039.067-2.943.067a43.715,43.715,0,0,1-5.34-.3A30.35,30.35,0,0,1,1.5,5.43ZM17.164,1.655A46.811,46.811,0,0,0,9.2,2.383l-.043.008h0l-.027,0-.057.01A44.767,44.767,0,0,0,2.623,4.05a34.864,34.864,0,0,0,9.852,1.236c.885,0,1.825-.021,2.875-.066a30.065,30.065,0,0,0,11.1-2.145A6.034,6.034,0,0,0,24.5,2.427l-.008,0-.2-.042A33.1,33.1,0,0,0,19.6,1.735C18.808,1.682,17.988,1.655,17.164,1.655Zm-2.416,42.39a13.9,13.9,0,0,1-4.534-.719A10.591,10.591,0,0,1,4.7,39.1a16.541,16.541,0,0,1-2.066-7.7,73.408,73.408,0,0,1-.112-9.635,82.916,82.916,0,0,1,.9-8.491c.02-.125.035-.319.051-.523l0-.024v0a4.486,4.486,0,0,1,.452-2,1.954,1.954,0,0,1,1.6-.785c.092-.009.191-.02.287-.035C7.207,9.687,8.485,9.52,9.721,9.4c1.607-.158,3.164-.238,4.63-.238a34.8,34.8,0,0,1,5.73.451,26.8,26.8,0,0,1,5.077,1.36,1.7,1.7,0,0,1,.785.522,1.842,1.842,0,0,1,.345.92,56.4,56.4,0,0,1-2.619,25.6,9.391,9.391,0,0,1-2.246,4.114,7.908,7.908,0,0,1-4.5,1.785A18.181,18.181,0,0,1,14.748,44.046Zm-9.684-31.3c0,.021,0,.041,0,.061s0,.037,0,.054c-.021.27-.039.492-.069.681a81.383,81.383,0,0,0-.88,8.314,71.816,71.816,0,0,0,.109,9.409,15.07,15.07,0,0,0,1.807,6.919,8.988,8.988,0,0,0,4.69,3.572,12.374,12.374,0,0,0,4.036.636,16.547,16.547,0,0,0,1.995-.125,6.227,6.227,0,0,0,3.623-1.374,8.012,8.012,0,0,0,1.8-3.417,55.138,55.138,0,0,0,2.653-24.082,15.8,15.8,0,0,1-7.327,1.764c-.138,0-.283,0-.43,0a43.49,43.49,0,0,1-7.416-.821,10.664,10.664,0,0,1-4.585-1.593Zm9.276-1.929c-1.413,0-2.917.077-4.47.23-1.166.114-2.379.271-3.706.48a9.862,9.862,0,0,0,3.742,1.18,42.293,42.293,0,0,0,7.165.8c.132,0,.265,0,.395,0A14.687,14.687,0,0,0,23.6,12.172,29.315,29.315,0,0,0,14.34,10.817Z" fill="#000000"/>
</svg>
