<svg xmlns="http://www.w3.org/2000/svg" width="50.993" height="50.454" viewBox="0 0 50.993 50.454">
  <g id="burger" transform="translate(0 0)">
    <path id="Path_26576" data-name="Path 26576" d="M287.044,46.053a21.627,21.627,0,0,1,8.773,3.327,13.674,13.674,0,0,1,5.077,5.853,1,1,0,1,0,1.836-.774,15.65,15.65,0,0,0-5.8-6.729,23.627,23.627,0,0,0-9.585-3.646,1,1,0,0,0-.3,1.969Zm0,0" transform="translate(-257.697 -39.683)" fill="#000000"/>
    <path id="Path_26577" data-name="Path 26577" d="M99.707,126.581a1,1,0,1,0,.343-1.193A1.019,1.019,0,0,0,99.707,126.581Zm0,0" transform="translate(-89.713 -112.74)" fill="#000000"/>
    <path id="Path_26578" data-name="Path 26578" d="M147.878,89.337a1,1,0,1,0,.337-1.189A1.017,1.017,0,0,0,147.878,89.337Zm0,0" transform="translate(-133.086 -79.204)" fill="#000000"/>
    <path id="Path_26579" data-name="Path 26579" d="M199.645,126.581a1,1,0,1,0,.343-1.193A1.019,1.019,0,0,0,199.645,126.581Zm0,0" transform="translate(-179.697 -112.74)" fill="#000000"/>
    <path id="Path_26580" data-name="Path 26580" d="M50.993,31.566a5.046,5.046,0,0,0-3.369-4.753V24.321a4.277,4.277,0,0,0,.9-.461,3.933,3.933,0,0,0,1.785-3.3,3.891,3.891,0,0,0-.738-2.292,3.214,3.214,0,0,0,.2-1.844A18.585,18.585,0,0,0,41.526,4.666,28.823,28.823,0,0,0,25.5,0,28.823,28.823,0,0,0,9.468,4.666,18.584,18.584,0,0,0,1.222,16.423a3.212,3.212,0,0,0,.416,2.268,3.874,3.874,0,0,0-.472,1.867,3.932,3.932,0,0,0,1.785,3.3,4.335,4.335,0,0,0,.419.247v2.706A5.046,5.046,0,0,0,0,31.566v.2a5.025,5.025,0,0,0,1.606,3.683A3.927,3.927,0,0,0,2.183,39.9V43.49a6.971,6.971,0,0,0,6.963,6.963h32.7a6.971,6.971,0,0,0,6.963-6.963V40.348a3.933,3.933,0,0,0,.884-5.208,5.017,5.017,0,0,0,1.3-3.372Zm-1.992,0v.2a3.051,3.051,0,0,1-3.046,3.046H30.511l6.351-6.295h9.092A3.05,3.05,0,0,1,49,31.566ZM15.1,28.519l.158.158L16.276,29.7l-2.139,2.139-3.319-3.319Zm9.4,6.586L18.389,29h0l-.475-.475H34.029L27.373,35.1v0l0,0-1.435,1.435ZM3.179,16.789A16.619,16.619,0,0,1,10.584,6.315,26.815,26.815,0,0,1,25.5,1.992,26.815,26.815,0,0,1,40.41,6.315a16.621,16.621,0,0,1,7.405,10.473A1.251,1.251,0,0,1,46.6,18.251H4.4a1.251,1.251,0,0,1-1.217-1.463Zm.052,3.238a3.243,3.243,0,0,0,1.165.217H46.6a3.249,3.249,0,0,0,1.582-.412,1.931,1.931,0,0,1,.142.727,1.969,1.969,0,0,1-.9,1.648,2.346,2.346,0,0,1-2.006.277c-.332-.105-.645-.24-.987-.314a5.384,5.384,0,0,0-1.128-.114,5.459,5.459,0,0,0-3.5,1.215,3.675,3.675,0,0,1-4.7,0,5.648,5.648,0,0,0-7,0,3.676,3.676,0,0,1-4.7,0,5.65,5.65,0,0,0-7,0,3.676,3.676,0,0,1-4.7,0,5.456,5.456,0,0,0-3.5-1.215,5.041,5.041,0,0,0-1.94.365,2.35,2.35,0,0,1-2.182-.213,1.969,1.969,0,0,1-.9-1.648,1.919,1.919,0,0,1,.073-.532Zm2.328,4.555a4.838,4.838,0,0,0,1.5-.342,3.431,3.431,0,0,1,1.528-.176,3.6,3.6,0,0,1,1.949.833,5.648,5.648,0,0,0,7,0,3.676,3.676,0,0,1,4.7,0,5.648,5.648,0,0,0,7,0,3.676,3.676,0,0,1,4.7,0,5.648,5.648,0,0,0,7,0,3.521,3.521,0,0,1,2.352-.85,3.225,3.225,0,0,1,1.186.217,4.613,4.613,0,0,0,1.151.3v1.968H5.361V24.587c.066,0,.132,0,.2-.005ZM1.993,31.566a3.05,3.05,0,0,1,3.046-3.046H8l5.431,5.431a1,1,0,0,0,1.408,0l2.843-2.843,3.706,3.706H5.039a3.05,3.05,0,0,1-3.046-3.046ZM3.322,36.5a5.053,5.053,0,0,0,1.716.3H23.383l1.847,1.847a1.006,1.006,0,0,0,1.405,0l1.867-1.85H45.955a5.067,5.067,0,0,0,1.653-.279,2.537,2.537,0,0,0,.33-.131c.034-.018.083-.056.123-.054.055,0,.07.074.089.119a1.928,1.928,0,0,1,.17.759A2.073,2.073,0,0,1,46.777,39.2a2.358,2.358,0,0,1-1.542-.085,5.031,5.031,0,0,0-1.939-.365,5.456,5.456,0,0,0-3.5,1.215,3.675,3.675,0,0,1-4.7,0,5.648,5.648,0,0,0-7,0,3.675,3.675,0,0,1-4.7,0,5.648,5.648,0,0,0-7,0,3.675,3.675,0,0,1-4.7,0,5.458,5.458,0,0,0-3.5-1.215,5.031,5.031,0,0,0-1.94.365A2.348,2.348,0,0,1,4.222,39,2.042,2.042,0,0,1,3.18,37.551a1.965,1.965,0,0,1-.005-.557c.007-.054.1-.507.147-.489Zm43.5,6.986a4.977,4.977,0,0,1-4.972,4.972H9.147A4.977,4.977,0,0,1,4.175,43.49V41.128a4.313,4.313,0,0,0,2.542-.064l.051-.017c.077-.027.153-.054.229-.086a3.082,3.082,0,0,1,1.187-.217,3.518,3.518,0,0,1,2.352.85,5.649,5.649,0,0,0,7,0,3.676,3.676,0,0,1,4.7,0,5.648,5.648,0,0,0,7,0,3.676,3.676,0,0,1,4.7,0,5.648,5.648,0,0,0,7,0,3.518,3.518,0,0,1,2.352-.85,3.287,3.287,0,0,1,.881.113c.273.076.53.2.8.273a4.3,4.3,0,0,0,1.839.1V43.49Zm0,0" transform="translate(-0.001 0)" fill="#000000"/>
    <path id="Path_26581" data-name="Path 26581" d="M225.257,89.336a1,1,0,1,0,.344-1.193A1.017,1.017,0,0,0,225.257,89.336Zm0,0" transform="translate(-202.758 -79.204)" fill="#000000"/>
    <path id="Path_26582" data-name="Path 26582" d="M270.376,133.421a1,1,0,1,0,.343-1.193,1.018,1.018,0,0,0-.343,1.193Zm0,0" transform="translate(-243.384 -118.899)" fill="#000000"/>
    <path id="Path_26583" data-name="Path 26583" d="M241.527,39.531a1,1,0,1,0-.377-1.181,1.017,1.017,0,0,0,.377,1.181Zm0,0" transform="translate(-217.077 -33.951)" fill="#000000"/>
  </g>
</svg>
