<svg xmlns="http://www.w3.org/2000/svg" width="44.851" height="47.445" viewBox="0 0 44.851 47.445">
  <path id="Path_24593" data-name="Path 24593" d="M7787.229,6530.665l0,.132h-.023c0,.035-.008.069-.013.1-.016.107-.037.216-.06.323a4.96,4.96,0,0,1-.156.583c-.023.07-.05.14-.078.218l-.013.027c-.006.015-.015.035-.02.044-.023.057-.051.114-.08.172a3.769,3.769,0,0,1-.283.488.509.509,0,0,1-.039.059l-.04.051-.063.08c-.058.065-.114.13-.177.194-.043.041-.085.08-.128.118l0,.005c-.022.017-.042.034-.063.053l-.076.057-.043.031a3.086,3.086,0,0,1-.269.16l-.043.021-.011,0c-.019.006-.04.016-.063.026l-.015.006a.6.6,0,0,1-.057.024,2.385,2.385,0,0,1-.262.076c-.038.01-.08.018-.112.024l-.025,0-.042,0h-.01c-.133.008-.259.014-.394.011l-.038,0h-.009c-.082-.009-.162-.022-.24-.039a2.989,2.989,0,0,1-1.15-.528,4.658,4.658,0,0,1-.71-.708c-.1-.117-.2-.235-.316-.356a5.4,5.4,0,0,0-1.8-1.237,3.351,3.351,0,0,0-2.247-.194,3.6,3.6,0,0,0-2,1.784c-.025.047-.05.093-.077.14-.091.165-.185.336-.289.5-.057.087-.118.176-.177.261-.033.048-.068.1-.1.145l-.052.069a6.953,6.953,0,0,1-1.018,1.042c-.009,0-.013.013-.025.02l-.016.014a.06.06,0,0,0-.017.012l-.041.03-.1.067c-.105.071-.208.137-.31.195-.079.045-.158.084-.239.125l-.036.017a.437.437,0,0,0-.048.023.144.144,0,0,0-.02.009c-.063.025-.126.046-.184.065a3.461,3.461,0,0,1-.345.09h-.008l-.037,0-.152.013c-.05,0-.1,0-.158,0l-.063,0-.01,0-.061-.007h-.015c-.027,0-.051-.006-.06-.007-.066-.013-.13-.027-.193-.043l-.018,0-.073-.014-.01-.007a.181.181,0,0,1-.034-.013.224.224,0,0,0-.03-.013l-.032-.014a2.627,2.627,0,0,1-.3-.148c-.028-.017-.058-.034-.094-.051l-.03-.021-.032-.023c-.053-.036-.109-.079-.162-.122a4.894,4.894,0,0,1-.39-.357l-.072-.075h0l-.016-.019c-.056-.06-.106-.125-.16-.193-.128-.164-.26-.342-.382-.533a8.733,8.733,0,0,1-.624-1.132l-.032-.065a5.591,5.591,0,0,0-1.485-2.19,3.575,3.575,0,0,0-2.075-.768,4.173,4.173,0,0,0-3.463,1.78,11.1,11.1,0,0,0-.919,1.543c-.053.1-.108.2-.162.307a10.625,10.625,0,0,1-.539.926c-.044.064-.089.127-.134.191l-.029.04-.017.021-.056.067s0,0,0,.006c-.05.059-.1.1-.153.157-.066.068-.131.145-.2.2-.011.011-.028.024-.043.038h0l-.012.01a.207.207,0,0,0-.025.021s0,0,0,0h0l-.008.005-.007,0a2.464,2.464,0,0,1-.215.14c-.061.037-.121.066-.187.1l-.025.011a.924.924,0,0,0-.092.032c-.026.011-.046.018-.063.024-.053.016-.111.034-.173.048l.019.074-.073.01-.066.011-.062.011-.011-.064s0-.007,0-.008c-.044,0-.089,0-.137.006h-.193l-.036-.005a3.23,3.23,0,0,1-.354-.069h-.022l-.01-.011c-.021,0-.045-.013-.074-.022h-.006c-.029-.012-.062-.025-.082-.032l-.092-.015.015-.021c-.065-.03-.128-.064-.193-.1l-.012-.006a.265.265,0,0,1-.03-.016l-.014-.007-.023-.021-.041-.031c-.035-.028-.07-.055-.1-.082s-.032-.03-.05-.044-.027-.026-.035-.033c-.022-.023-.033-.036-.04-.042l-.009-.009c-.02-.022-.038-.046-.055-.067a1.78,1.78,0,0,1-.28-.473,4.784,4.784,0,0,1-.232-.738c-.041-.162-.074-.327-.108-.473a4.909,4.909,0,0,0-.812-2.092,2.464,2.464,0,0,0-2.71-.956,3.544,3.544,0,0,0-2.06,2.356c-.07.194-.134.386-.185.553l-.023.071c-.048.161-.164.535-.213.682l-.078.216-.022.06a.1.1,0,0,0-.009.028l0,.009-.03.067-.033.079a4.212,4.212,0,0,1-.345.624,1.843,1.843,0,0,1-.763.677l-.013,0c-.023.006-.06.019-.1.034-.025.009-.051.019-.061.021l-.058.018c-.052.016-.1.029-.156.043-.116.034-.225.059-.326.081l-.032.008h-.008a.053.053,0,0,0-.016,0h-.01c-.055.011-.122.023-.155.027-.116.011-.23.018-.342.018h-.081l-.062,0-.045,0c-.064-.01-.124-.018-.186-.031s-.123-.032-.19-.049l-.055-.021a.493.493,0,0,1-.069-.029,1.874,1.874,0,0,1-.216-.111l-.083-.047,0-.008,0,0a.328.328,0,0,1-.034-.021,2.215,2.215,0,0,1-.2-.167.785.785,0,0,1-.063-.064l-.067-.07-.012-.018a3.376,3.376,0,0,1-.389-.579l-.024-.045c-.014-.031-.026-.055-.04-.085l0-.01,0-.01a.571.571,0,0,0-.126-.294l-.009-.018c-.026-.07-.053-.138-.076-.209a8.239,8.239,0,0,1-.27-.968l-.033-.175c-.018-.093-.034-.185-.051-.275-.028-.2-.058-.4-.078-.616-.052-.443-.083-.917-.1-1.447a.6.6,0,0,0-.03-.157l-.006-.017c0-.042,0-.083-.007-.123s0-.058,0-.088l0-.022a.257.257,0,0,0,.008-.055.755.755,0,0,1,.012-.088,1.48,1.48,0,0,1,.039-.149c0-.01.01-.03.017-.053l0-.006.041-.088a.249.249,0,0,1,.021-.041c.027-.049.056-.1.085-.146.014-.017.024-.035.036-.051l.016-.02a.113.113,0,0,0,.021-.027l.051-.06a2.769,2.769,0,0,1,.241-.235l.049-.042c.018-.014.035-.028.045-.037l.019-.013c.008-.008.017-.013.021-.018.086-.06.179-.123.277-.182a5.811,5.811,0,0,1,.533-.286c.075-.035.15-.072.234-.107l.088-.039c.293-.122.585-.251.87-.376l.316-.139,1.479-.645,1.484-.642,2.479-1.069.06-.025.028.057a5.6,5.6,0,0,0,1.016,1.449,7.4,7.4,0,0,0,5.934,1.87,8.644,8.644,0,0,0,4.451-1.68l.032-.026.037.02a11.724,11.724,0,0,0,1.435.616,10.577,10.577,0,0,0,3.829.573,18.364,18.364,0,0,0,3.85-.551c.375-.089.75-.2,1.115-.3a16.33,16.33,0,0,1,1.811-.447.437.437,0,0,0,.32-.254.477.477,0,0,0-.03-.472,3.193,3.193,0,0,0-.46-.471l-.064-.055c-.289-.26-.61-.524-.979-.812a18.915,18.915,0,0,0-2.919-1.9,10.029,10.029,0,0,0-1.683-.7,9.773,9.773,0,0,0-2.149-.336,11.241,11.241,0,0,0-1.484-.005l-.476.03.449-.159c.028-.009.056-.018.083-.029a9.811,9.811,0,0,0,4.3-3.394l.021-.024h.031a15.541,15.541,0,0,1,4.437.691c.117.037.232.076.348.114l.03.01a.017.017,0,0,1,.007,0c.034.013.072.026.108.038l.074.028c.23.083.461.173.683.267.446.186.893.4,1.32.623s.851.474,1.229.722c.044.03.077.051.1.064l.071.038,0,.008a.541.541,0,0,1,.046.033c.11.075.217.15.321.226.2.14.388.288.572.436.374.3.736.615,1.078.942.151.148.307.3.454.458.032.035.065.07.1.1l.1.109c.1.112.182.205.253.291a13.291,13.291,0,0,1,1.7,2.515,11.438,11.438,0,0,1,.959,2.727,8.685,8.685,0,0,1,.156,1.546c0,.176,0,.361-.017.563Zm-1.618,4.29c-.062.69-.121,1.392-.177,2.069h-.064l.064.005-.02.221c-.127,1.552-.248,3.083-.392,4.9q-.22,2.754-.431,5.508l-.022.26q-.223,2.856-.445,5.712c-.07.861-.138,1.723-.207,2.582l-.1,1.182-.016.193c-.006.084-.013.168-.02.252h.016l-.023.072a.061.061,0,0,1,0,.027.3.3,0,0,1-.008.062c-.007.057-.018.112-.029.167a3.064,3.064,0,0,1-.1.371.289.289,0,0,1-.013.038l0,.01c0,.017-.013.033-.016.044-.023.05-.044.1-.066.142-.054.1-.112.209-.174.307-.036.059-.076.116-.106.158-.007.01-.015.019-.021.028l-.013.017c-.087.1-.17.2-.262.283-.069.068-.147.136-.245.217l-.051.037c-.057.041-.119.083-.185.123-.095.058-.192.113-.292.164l-.056.027a.647.647,0,0,1-.062.03c-.051.022-.1.04-.145.058-.118.042-.236.078-.356.109-.055.015-.113.028-.17.04l-.044.008-.04.007a4.076,4.076,0,0,1-.561.039c-.072,0-.146,0-.219-.006-.223-.012-.45-.033-.67-.052h-.008c-.1-.01-.2-.019-.3-.026l-4.433-.362q-2.643-.214-5.278-.431l-5.625-.465-5.476-.458c-.854-.071-1.705-.143-2.559-.216l-1.19-.1-1.022-.087c-1.205-.1-2.5-.218-3.8-.336l-.244-.022c-.619-.058-1.262-.116-1.893-.187l-.056-.006,0-.056c0-.163-.011-.325-.017-.487-.009-.24-.02-.479-.028-.716l0-.07H7748c1.964.083,3.955.232,5.883.378l.239.018c2.983.225,5.9.469,9.125.74l2.126.182.056,0c2.2.187,4.472.378,6.706.559l.79.064c1.755.144,3.57.292,5.361.367a6.475,6.475,0,0,0,2.187-.163,1.7,1.7,0,0,0,.984-.684,2.749,2.749,0,0,0,.251-.688,14.6,14.6,0,0,0,.332-2.28c.084-.934.136-1.937.159-3.07.007-.39.007-.788.006-1.172v-.014c0-.667,0-1.354.037-2.028a2.092,2.092,0,0,0-.318-1.4,2.367,2.367,0,0,0-1.339-.8,6.9,6.9,0,0,0-.88-.18c-1.461-.2-2.96-.322-4.412-.437-.311-.023-.619-.048-.929-.073-3.13-.257-6.248-.481-8.617-.646-3.15-.222-6.358-.436-9.534-.634-2.378-.149-5.2-.321-8.054-.469l-.766-.04-.061,0-.091-1.795h.066c.659-.015,1.315,0,1.987.019,1.462.04,2.924.12,4.035.185,1.439.083,3,.188,4.888.328,1.556.112,3.227.242,5.257.4,1.759.14,3.539.288,5.212.426l.506.042c1.313.109,2.8.232,4.232.347,1.157.094,2.5.2,3.829.292l.142.012c.771.053,1.568.108,2.353.126a6.717,6.717,0,0,0,.9-.041,2.7,2.7,0,0,0,1.75-.727,2.6,2.6,0,0,0,.568-1.608c.013-.242.007-.485,0-.722,0-.171-.006-.345,0-.518.007-.458.031-.922.055-1.354.043-.708.09-1.428.135-2.124v-.021c.03-.453.063-.9.09-1.357.021-.335.038-.672.059-1.007l0-.087.084.029a3.778,3.778,0,0,0,2.1.159l.114-.025Zm-37.729,20.354c-.022-.537-.048-1.074-.072-1.61-.06-1.28-.126-2.68-.21-4.405-.069-1.456-.145-2.911-.216-4.366v-.073l.07,0c2.262.112,4.537.248,6.491.365,2.943.18,6.063.379,9.273.6,3.452.234,6.313.44,9,.649q.968.075,1.938.154l.907.075.761.063c.982.086,1.808.161,2.638.25l.216.021a12.047,12.047,0,0,1,1.224.171l.021,0a2.064,2.064,0,0,1,1.059.426,1.32,1.32,0,0,1,.185,1.048l-.008.106c-.05.651-.042,1.315-.034,1.958.006.4.012.8,0,1.21-.024,1.116-.078,2.1-.164,3.013a12.139,12.139,0,0,1-.323,2.039c-.021.074-.048.151-.071.218l0,.014a.085.085,0,0,0-.007.013.441.441,0,0,1-.037.085l-.008.014c0,.008-.008.015-.011.023s-.007.012-.009.018l-.007.017-.016.011a.993.993,0,0,1-.2.1,2.283,2.283,0,0,1-.7.151c-.187.019-.382.028-.589.028h-.1c-1.432-.021-2.889-.138-4.3-.252h-.009c-.312-.027-.621-.051-.933-.075-2.481-.194-5-.407-7.444-.616l-1.344-.113c-2.882-.244-5.861-.5-8.83-.73-2.78-.22-5.1-.4-7.5-.518-.189-.011-.374-.02-.561-.027l-.061,0Zm-.692-14.194-.049-1.018q-.092-1.788-.187-3.576l-.013-.279.105.064a3.182,3.182,0,0,0,.821.344,4.039,4.039,0,0,0,1.992-.071,3.262,3.262,0,0,0,1.543-.833,5.74,5.74,0,0,0,1.271-2.481l0-.017a7.143,7.143,0,0,1,.465-1.248c.05-.093.1-.185.155-.268.033-.051.069-.1.1-.152l.021-.029.016-.017a1.771,1.771,0,0,1,.493-.44,1.069,1.069,0,0,1,.514-.147h.034l-.006.066.015-.063a.408.408,0,0,0,.05.008c.019.005.038.007.056.011a.336.336,0,0,1,.044.014l.018.006.038.012h.01c.052.024.094.044.133.065a.31.31,0,0,1,.031.018l.018.012.054.037.008.006.026.017c.074.06.143.126.208.187l.027.027.015.021c.016.018.028.036.043.053s.043.054.064.082a2.832,2.832,0,0,1,.184.288l.019.034a.561.561,0,0,0,.03.055l.044.072-.009,0h0c.045.1.085.208.121.313.07.23.124.479.167.676.018.081.032.162.05.243a7.1,7.1,0,0,0,.324,1.207,3.119,3.119,0,0,0,2.315,1.948,3.378,3.378,0,0,0,2.749-.687,5.629,5.629,0,0,0,1.353-1.766c.094-.172.186-.35.276-.521l0-.008a11.934,11.934,0,0,1,.829-1.418l.029-.04a.261.261,0,0,1,.028-.042l.044-.054c.046-.055.09-.108.136-.161a4.308,4.308,0,0,1,.423-.4l.022-.02a.259.259,0,0,0,.034-.022l.023-.017c.054-.036.111-.075.169-.108.084-.05.171-.093.262-.137l.072-.038.049-.019c.014-.005.023-.01.037-.015.058-.021.118-.041.176-.06l.063-.021.009,0a1.511,1.511,0,0,1,.294-.077v0l.067,0h.06c.076-.007.156-.011.231-.013.05,0,.1,0,.148,0h.087c.011,0,.019,0,.028.007s.023,0,.031,0a3.142,3.142,0,0,1,.356.08l.008,0,.042.014c.044.015.086.028.1.036a2.036,2.036,0,0,1,.27.134l.035.02.042.025.006,0,.054.039c.048.036.094.069.14.107a2.506,2.506,0,0,1,.215.194c.013.013.023.025.037.037l.006.007a.52.52,0,0,0,.046.053l.006.008c.019.021.037.039.042.044a4.256,4.256,0,0,1,.631,1.062,12.747,12.747,0,0,0,.746,1.464,5.973,5.973,0,0,0,1.511,1.757,3.423,3.423,0,0,0,1.688.7,3.489,3.489,0,0,0,1.7-.243,6.276,6.276,0,0,0,2.575-2.149,8.1,8.1,0,0,0,.507-.8c.118-.207.239-.418.378-.622a2.452,2.452,0,0,1,.356-.43c.053-.05.106-.1.152-.137l.034-.028.045-.034c.052-.036.106-.071.161-.1l.083-.039.009,0c.023-.012.045-.021.061-.03l.01-.007c.059-.019.1-.035.141-.046l.122-.03.049-.014.015,0a.8.8,0,0,1,.137,0h.051a.56.56,0,0,1,.063,0h.105c.038,0,.077.013.117.021l.047.009c.068.015.138.031.209.049l.078.024.046.015a4.895,4.895,0,0,1,.45.2c.07.036.142.076.214.119l.1.057.052.034c.105.074.243.168.374.271a4.876,4.876,0,0,1,.432.383c.1.106.192.214.285.321a5.492,5.492,0,0,0,.8.8l.026.021v.035c-.045.854-.1,1.72-.163,2.559-.089,1.3-.186,2.634-.211,3.95-.006.175,0,.354,0,.527,0,.222.01.451,0,.674a1.4,1.4,0,0,1-.464,1.133,2.581,2.581,0,0,1-1.432.292h-.069c-.661,0-1.332-.045-1.979-.088l-.229-.016c-1.23-.081-2.45-.175-3.6-.267-1.55-.123-3.071-.25-4.538-.371l-.646-.053-4.461-.368c-2.045-.165-3.708-.3-5.233-.41-1.9-.143-3.468-.252-4.939-.345-1.7-.105-3.007-.173-4.224-.219-.65-.023-1.408-.049-2.187-.049q-.341,0-.647.006Zm8.126-19.228c0-.023,0-.047.006-.069v-.011c0-.012,0-.029.006-.045s0-.037.006-.045c.011-.09.027-.18.046-.268a4.441,4.441,0,0,1,.162-.59,5.652,5.652,0,0,1,1.182-1.88c.134-.141.276-.276.421-.407a4.132,4.132,0,0,1,.431-.339,6.556,6.556,0,0,1,1.12-.633,7.322,7.322,0,0,1,2.552-.585,6.9,6.9,0,0,1,2.274.2l0-.008.064.028.059.021.015,0,.075.027.163.071c.136.063.271.136.407.215.01.007.037.024.066.041l.12.081.082.053c.133.1.266.2.393.313a.965.965,0,0,1,.081.072l.024.022q.136.121.237.224c.042.042.082.083.126.129l.095.1.07.083c.057.064.109.135.169.208a6.6,6.6,0,0,1,.438.638c0,.008.012.019.017.028l.038.066c.022.034.041.066.058.1s.047.082.066.124c.006.01.021.036.029.055l0,.006c.085.174.152.334.214.489a4.988,4.988,0,0,1,.162.484c.011.03.019.061.027.092l.021.082a.322.322,0,0,1,.014.046c.011.046.021.093.033.139,0,.026.013.053.016.075.011.057.019.111.026.166.021.146.035.3.046.448l0,.035a4.215,4.215,0,0,1,0,.443v.017c0,.073-.006.149-.014.232v.008c0,.012,0,.023,0,.029l0,.036c-.007.039-.012.075-.018.113,0,.021-.007.042-.01.063l0,.033a4.55,4.55,0,0,1-.107.475c-.031.116-.062.221-.1.318l0,.013-.007.008a.5.5,0,0,0-.111.276v.014l0,.012c-.057.124-.121.253-.214.421-.015.03-.033.064-.053.1l-.007.011a1.892,1.892,0,0,1-.25.393h0l-.046.048a.26.26,0,0,0-.039.042c-.031.037-.061.072-.093.107-.068.081-.145.162-.227.244l-.013.014c-.121.121-.249.234-.358.329-.016.013-.036.028-.051.042l-.1.084h0l-.014.01-.013.007c-.042.033-.089.064-.13.1s-.067.044-.1.068l-.01,0c-.063.046-.131.089-.2.13a6.968,6.968,0,0,1-.613.341l-.057.033c-.023.016-.075.042-.118.066l-.014.007h-.019a.263.263,0,0,0-.048.016l-.086.036c-.066.026-.13.052-.2.077a8.58,8.58,0,0,1-1.376.389l-.132.023-.074.015c-.12.015-.252.034-.386.047-.236.025-.475.04-.709.043l-.164,0c-.188,0-.379-.007-.564-.02l-.053,0-.083-.01h-.012c-.019,0-.036,0-.059-.006-.126-.015-.252-.034-.374-.053-.234-.041-.471-.092-.7-.153-.094-.025-.185-.054-.283-.084l0,.009-.125-.037,0-.015c-.044-.018-.09-.034-.136-.053a6.321,6.321,0,0,1-.632-.294c-.095-.051-.19-.106-.283-.164l-.04-.024a.46.46,0,0,0-.063-.045l-.011-.007-.08-.057a4.817,4.817,0,0,1-.514-.429c-.041-.037-.079-.076-.119-.115a.479.479,0,0,0-.045-.042l-.048-.047h0a1.822,1.822,0,0,1-.132-.161.606.606,0,0,0-.044-.057,5.023,5.023,0,0,1-.4-.594c-.014-.028-.028-.054-.044-.081l0-.018a.088.088,0,0,1-.012-.026l0-.008c-.015-.025-.031-.056-.038-.071a.162.162,0,0,1-.015-.031l-.01-.021c-.046-.106-.088-.2-.12-.292a5.041,5.041,0,0,1-.224-.753.454.454,0,0,1-.016-.075l0-.021h0l-.01-.073c0-.033-.013-.066-.018-.1-.021-.145-.039-.3-.052-.45A6.646,6.646,0,0,1,7755.314,6521.886Zm18.626,3.169a.413.413,0,0,0-.331-.253l-5.523-1.022.019-.068a5.994,5.994,0,0,0,.176-.963l0-.054.055-.006a11,11,0,0,1,3.33.179,6.539,6.539,0,0,1,1.462.534,15.919,15.919,0,0,1,2.78,1.724c.326.244.638.494.929.741l.095.081-.119.032c-.208.056-.413.115-.614.173-.243.069-.5.141-.746.208a19.172,19.172,0,0,1-3.415.612c-.361.027-.706.042-1.037.042a9.171,9.171,0,0,1-2.557-.332,10.33,10.33,0,0,1-1.539-.588l-.079-.04.06-.065c.1-.117.2-.238.292-.358a5.291,5.291,0,0,0,.387-.583c.072-.129.14-.268.2-.4l.022-.047,5.6,1.038a.47.47,0,0,0,.438-.128A.446.446,0,0,0,7773.94,6525.055Zm-7.217-7.122c.076-.065.153-.126.231-.187a8.3,8.3,0,0,1,1.446-.905l.048-.021.02-.009.146-.062c.1-.039.207-.077.315-.112.2-.064.415-.121.65-.174a9.978,9.978,0,0,1,1.312-.205c.438-.042.9-.072,1.381-.083.268-.005.527-.007.776,0l.124,0-.07.1c-.048.069-.1.14-.143.21l-.009.009c-.094.136-.187.274-.283.407l-.013.018c-.341.479-.646.869-.954,1.224-.2.231-.4.442-.607.649a7.983,7.983,0,0,1-2.263,1.636,6.661,6.661,0,0,1-.648.251l-.064.021-.019-.067a5.6,5.6,0,0,0-.188-.572c-.03-.084-.064-.173-.1-.263l-.022-.051,2.745-1.659a.407.407,0,0,0,.2-.261.425.425,0,0,0-.08-.328.464.464,0,0,0-.633-.128l-2.637,1.593-.033-.056a7.517,7.517,0,0,0-.6-.848l-.072-.087Zm13.737.741a16.826,16.826,0,0,0-6.428-1.736l-.115-.008.123-.177c.109-.156.193-.276.285-.4l.123-.159c.031-.037.058-.07.087-.1a.484.484,0,0,0,.1-.479.517.517,0,0,0-.379-.323,2.69,2.69,0,0,0-.528-.059l-.132-.006c-.331-.02-.685-.027-1.074-.025a16.483,16.483,0,0,0-2.945.27,7.768,7.768,0,0,0-3.584,1.741l-.045.038-.042-.038a6.942,6.942,0,0,0-.893-.656,4.869,4.869,0,0,0-1.966-.668,10.407,10.407,0,0,0-1.367-.09,9.638,9.638,0,0,0-1.867.179,7.578,7.578,0,0,0-4.811,3.09,5.569,5.569,0,0,0-.979,2.41,6.569,6.569,0,0,0,.059,2.066c.023.12.049.239.076.357l.014.054-.049.022q-1.169.5-2.332,1c-1.048.452-2.173.938-3.291,1.426l-.7.305-.169.074-.1.044-.062.025a8.993,8.993,0,0,0-1.132.549,3.789,3.789,0,0,0-1.262,1.168,2.409,2.409,0,0,0-.328,1.7l0,.007a11.537,11.537,0,0,0,.751,4.132l.007.013.048.952q.081,1.488.154,2.976.108,2.09.214,4.177.122,2.374.239,4.745c.086,1.722.158,3.25.226,4.674.055,1.181.12,2.576.18,3.962.022.507.043,1.012.062,1.518.009.2.017.4.021.607l0,.03a.8.8,0,0,0,.106.462.721.721,0,0,0,.424.271,1.96,1.96,0,0,0,.313.046l.1.011c.3.034.611.065.927.095,1.039.1,2.087.195,3.157.288,1.345.12,2.77.243,4.615.4q2.66.226,5.322.449,2.842.238,5.682.471l5.548.456q2.461.2,4.926.4l2.078.169.206.018.021,0a6.765,6.765,0,0,0,.893.042,4.688,4.688,0,0,0,1.67-.387,4.162,4.162,0,0,0,2.234-2.306,4.9,4.9,0,0,0,.249-1.381l0-.045c.031-.391.064-.779.095-1.167.137-1.7.271-3.394.427-5.414q.139-1.711.27-3.42l.2-2.5c.136-1.769.287-3.651.435-5.517.12-1.494.229-2.845.348-4.208.03-.349.066-.76.105-1.181l0-.025.02-.016a4.275,4.275,0,0,0,.631-.729,6.778,6.778,0,0,0,.6-5.519A14.6,14.6,0,0,0,7780.461,6518.674Z" transform="translate(-7744.221 -6514.697)" fill="#000000" stroke="#000000" stroke-width="1"/>
</svg>
