<svg xmlns="http://www.w3.org/2000/svg" width="65.765" height="42.495" viewBox="0 0 65.765 42.495">
  <path id="Path_24898" data-name="Path 24898" d="M65.3,46.228a9.844,9.844,0,0,0-5.327-1.069c.563-1.45.729-3.225-.38-4.222-1.6-1.439-3.653-.8-5.411.059a13.918,13.918,0,0,1-1.586-3.833c-.148-.822-1.268-.82-1.656-.217A12.892,12.892,0,0,1,48.406,39.6c-1.118-1.465-2.813-3.206-4.656-2.394a3.279,3.279,0,0,0-.53.3c-2.205-3.145-5.212-3-7.927-.149-3.04-4.411-7.472-5.183-10.669-.489-3.864-2.736-8.138-2.079-7.267,3.271-2.268.106-4.083,2.329-5.183,4.151-1.249-1.343-3.141-2.822-4.866-2.251-1.881.623-2.413,2.469-2.438,4.268a14.178,14.178,0,0,1-3.967-.637c-.441-.185-.9.271-.9.689a6.468,6.468,0,0,0,1.012,4.29,3.464,3.464,0,0,0,2.365.948,3.435,3.435,0,0,0-.615.831c-.8,1.55-.214,3.326.676,4.692.585.9,2.027.069,1.444-.844-.984-1.538-1.234-3.913,1.134-4.188a2.6,2.6,0,0,1,2.281.87c.887.977.708,2.505.566,3.7A12.771,12.771,0,0,0,3.97,57.756a.287.287,0,0,0-.122.135c-.173-.274-.352-.537-.521-.818a.635.635,0,0,0-1.155.487c2.3,13.308,18.317,18.6,30,18.619,13.209.021,27.3-6.781,31.867-19.811.441-1.259-.938-1.923-1.887-1.464a1.557,1.557,0,0,0-1.153-.247c-.606.084-1.21.179-1.814.271A16.98,16.98,0,0,1,65.3,47.879.965.965,0,0,0,65.3,46.228ZM24.245,38.687a.851.851,0,0,0,1.319-.17c2.433-4.006,6.7-3.038,8.873.7a.87.87,0,0,0,1.48,0c3-1.965,5.08-2.106,6.258-.474-.7,1.478-.407,3.519-.017,5.031a.55.55,0,0,0,.356.41,7.288,7.288,0,0,0-1.1,1.191,11.444,11.444,0,0,1-1.263-2.686A.874.874,0,0,0,38.7,42.3c-1.215,1.558-2.693,2.636-3.717,4.254-1.293-1.146-3.123-2.53-4.727-1.815-2.114.942-1.533,3.395-.985,5.177a.408.408,0,0,0,.786-.217q-1.145-2.744,2.145-3.339a10.331,10.331,0,0,1,2.447,1.908.754.754,0,0,0,1.174-.151A14.187,14.187,0,0,1,39,44.533c.478,1.017,1.11,1.975,1.642,2.952a.863.863,0,0,0,1.48,0c.849-1.651,1.94-3.157,3.965-3.261,2.693-.139,2.439,3.381,2.108,5.083-5.632-2.225-14.572,1.345-12.258,9.213-.25.022-.5.034-.753.054-1.652-3.247-3.861-7.534-6.864-8.225a6.917,6.917,0,0,0-.745-5.416c-1.285-1.992-3.727-1.784-5.688-1.056-.664-1.758-1.632-3.29-3.519-3.666C18.424,36.924,22,36.623,24.245,38.687ZM17.881,57.608A51.022,51.022,0,0,0,10.5,56.66a6.8,6.8,0,0,0-.544-3.889c.009-.011.012-.029.021-.04a9.984,9.984,0,0,1,6.824-.984,6.59,6.59,0,0,1,3.325,2.167,4.828,4.828,0,0,0-2.277,3.26A.849.849,0,0,0,17.881,57.608Zm-7.7-5.627c.759-2.9,4.041-2.978,6.588-2.372a10.932,10.932,0,0,1,5.666,3.474,6.9,6.9,0,0,0-.869.2C18.858,49.856,13.992,50,10.178,51.981Zm9.245,5.628a3.45,3.45,0,0,1,1.862-2.318q.185.229.372.458c.469.571,1.2-.156.945-.728-.016-.036-.037-.067-.054-.1a7.988,7.988,0,0,1,2.813.233c.839,1.183,1.6,2.423,2.4,3.638-1.276-.035-2.556-.1-3.845-.22-1.433-.139-3-.41-4.619-.7A.851.851,0,0,0,19.422,57.609Zm7.431-2.225.054.006a.76.76,0,0,0,.381-1.406,6.811,6.811,0,0,0-1.781-.747c-.144-.2-.27-.406-.427-.6a5.24,5.24,0,0,1,1.208-.736c-.035.66.834.719,1.157.289a5.042,5.042,0,0,0,.348-.567c1.15.1,2.2.931,3.188,2.365a40.559,40.559,0,0,1,2.576,4.7q-2.494.15-5.015.112C27.975,57.656,27.449,56.5,26.853,55.384ZM5.885,50.442a4.349,4.349,0,0,0-.867.182l-.01,0c-.751-.218-1.518-.374-2.263-.611-1.132-.359-1.265-1.636-1.295-2.757a19.485,19.485,0,0,1,3.916.431.661.661,0,0,0,.826-.629c.161-1.361.31-3.876,2.291-3.5,1.407.269,2.509,1.651,3.452,2.616.637.651,1.485-.254,1.022-.943,2.27-3.415,6.5-5.562,7.632-.022a.831.831,0,0,0,1.026.582c2.06-.831,4.3-1.3,5.105,1.362a6.305,6.305,0,0,1-.169,3.22,6.437,6.437,0,0,0-2.756,1.62C20.042,47.719,9.81,45.068,9.3,51.774A3.805,3.805,0,0,0,5.885,50.442ZM60.63,57.527c-5.194,10.7-16.859,15.6-28.46,15.908-12.255.322-21.566-5.16-27.974-15,.023,0,.042.016.067.01,2.763-.64,6.973.731,9.668,1.154,3.732.586,7.458,1.2,11.21,1.638C37.175,62.645,48.825,59.189,60.63,57.527Zm-18.1-4.615c2.492-.281,4.341,1.836,5.06,3.98-2.631.453-5.26.877-7.9,1.212a.478.478,0,0,0,0-.126C39.3,55.76,39.939,53.2,42.525,52.911Zm14.484,2.161a.777.777,0,0,0-.027.2c-2.679.437-5.344.916-8.005,1.382a.641.641,0,0,0-.016-.14c-.945-2.932-3.563-5.641-6.911-4.986-3.3.646-4.179,3.78-3.111,6.656,0,0,0,0,0,.006-.64.077-1.28.158-1.922.223-.977-4.164,1.437-7.2,5.525-8.073,4.164-.889,7.193,1.4,8.455,5.181a.748.748,0,0,0,1.462-.2,6.315,6.315,0,0,0-2.721-5.193.708.708,0,0,0,.045-.093c1.516-5.785-2.824-8.684-6.434-6.478a.7.7,0,0,0,0-.118,8.727,8.727,0,0,1-.043-3.193.822.822,0,0,0,.811-1.173c-.045-.1-.095-.177-.141-.268,1.2-1.1,3.336,2.139,3.559,2.469a.86.86,0,0,0,1.326.171c.85-.731,1.692-1.4,2.451-2.173.465,1.184,1.134,2.335,1.673,3.418a.926.926,0,0,0,1.256.33c.8-.422,3.542-2.065,4.165-.4.314.841-.092,1.979-.313,2.979a6.711,6.711,0,0,0-1.81,1.029,8.147,8.147,0,0,0-2.849,8.786c.116.372.725.321.7-.095-.309-5.222,3.716-9.474,8.667-8.04A16.833,16.833,0,0,0,57.009,55.072Z" transform="translate(0.001 -33.686)" fill="#000000"/>
</svg>
