<svg xmlns="http://www.w3.org/2000/svg" width="60.557" height="55.826" viewBox="0 0 60.557 55.826">
  <g id="Group_3514" data-name="Group 3514" transform="translate(-279 -445.639)">
    <g id="basket" transform="translate(279 445.639)">
      <path id="Path_24942" data-name="Path 24942" d="M64.216,25.4a.8.8,0,0,0-.145-.179.807.807,0,0,0-.455-1.216,22.244,22.244,0,0,0-2.731-.763c2.809-1.9,4.183-6.248.921-8.334-.415-.266-2.986-1.152-2.943-1.554a4.419,4.419,0,0,0-.323-2.552c-.79-1.314-2.19-1.478-3.7-1.5-.82-3.49-4.114-5.869-8.43-4.023-2.286.977-4.055-.538-6.393.129-1.808.515-2.224,2.466-2.435,3.9,0-.643.01-1.287.007-1.93a.822.822,0,0,0-.653-.75,12.539,12.539,0,0,0-8.538.008c-.339.112-.692.384-.646.742.315,2.471.584,4.947.845,7.424-2.275-2.77-5.719-5.17-9.2-4.661C20,6.711,18.951.247,13.781.006,8.716-.229,9.752,5.75,10.841,8.754a36.668,36.668,0,0,0-3.926.15.663.663,0,0,0-.644.98,7.2,7.2,0,0,0,8.4,3.5,6.533,6.533,0,0,0-.513,4c.513,2.82,2.817,5.079,5.353,6.756a71.464,71.464,0,0,0-9.729.929.468.468,0,0,0-.505-.181c-4.745.886-4.972,5.317-3.931,8.761a1,1,0,0,0,.952.634q1.363.121,2.726.209a17.16,17.16,0,0,1,1.94,3.109,29.117,29.117,0,0,1,2.225,5.361,82.832,82.832,0,0,0,3.431,8.792.694.694,0,0,0,.281.292.521.521,0,0,0,.261.275c9.448,4.853,24.51,3.886,34.783,1.726a1.56,1.56,0,0,0,.43-.158A1.357,1.357,0,0,0,54,53.234c2.7-5.979,4.039-12.262,5.876-18.458C64.334,33.694,67.089,30.861,64.216,25.4ZM37.582,9.72a.443.443,0,0,0,.741-.073c.794-2.481,3.314-3.7,6.072-2.246a.83.83,0,0,0,.746,0c3.416-1.844,7.852-1.766,8.026,2.7a.87.87,0,0,0,.909.795c2.634.022,3.017,1.527,2.776,3.545a.841.841,0,0,0,.7.8c5.726.849,4.279,4.528,1.548,7.387a.757.757,0,0,0-.163.262,35.762,35.762,0,0,0-3.7-.35c2.007-1.372,3.33-3.677,2.219-5.869-1.155-2.281-3.663-2.6-5.949-1.739a4.709,4.709,0,0,0-3.024-3.153c-1.519-.446-2.951.679-4,1.772-.682-1.735-2.057-3.632-4.371-2.636a5.118,5.118,0,0,0-2.578,2.431Q37.568,11.531,37.582,9.72Zm-.159,7.721a.334.334,0,0,0,.265-.291,6.435,6.435,0,0,1,1.644-4.3c2.181-2.374,3.714.465,4.089,2.3a.8.8,0,0,0,1.258.29,9.586,9.586,0,0,1,2.366-2.063c1.967-1.15,2.824,2.144,3.049,2.895a.965.965,0,0,0,1.338.476c1.822-.9,3.775-1.049,4.434.988.6,1.839-1.358,3.282-2.87,4.149a.753.753,0,0,0-.421.609c-5.206.068-10.566.86-15.255,1.279a.6.6,0,0,0-.1.026C37.285,21.682,37.357,19.562,37.423,17.441Zm-7-9.838c7.654-2.585,5.218,6.332,5.06,9.8-.192,4.235-.324,8.471-.349,12.709a10.894,10.894,0,0,0-2.775-.31.928.928,0,0,0-.776.289c-.032-3.507-.227-7-.5-10.5C30.958,18.061,28.531,8.241,30.42,7.6ZM15.171,12.571a7.21,7.21,0,0,1-6.984-2.492,8.4,8.4,0,0,1,3.513.044c.451.138,1.019-.313.827-.723-.833-1.773-2.937-7.95,1.254-8.061,4.322-.115,4.16,6.523,4.226,8.76a.524.524,0,0,0,.162.352,7.285,7.285,0,0,0-1.866.983A5.16,5.16,0,0,0,15.171,12.571Zm2.213.128a5.271,5.271,0,0,1,5.388-.577c3.017,1.191,4.574,3.8,6.19,6.158.2,1.878.395,3.755.612,5.631-2.757.082-5.594.1-8.437.184a.386.386,0,0,0-.164-.248C17.538,21.432,13.345,16.265,17.384,12.7Zm34.552,39.22a1.618,1.618,0,0,0-.69-.064c-11.067,1.337-21.835,1.68-32.806-.348a.576.576,0,0,0-.031-.409c-1.692-3.591-2.279-7.551-3.882-11.2a15.042,15.042,0,0,0-2.364-4.058,5.033,5.033,0,0,0-1.63-1.252c14.083.791,28.118-.458,42.186.636a25.22,25.22,0,0,0,5.948-.2A164.082,164.082,0,0,0,51.936,51.918ZM56.6,33.367c-3.917.129-7.865-.528-11.757-.826-6.746-.515-13.785.412-20.558.519-3.961.063-7.925,0-11.882-.133-.829-.029-5.17.242-5.515-.831a5.2,5.2,0,0,1,1.786-5.708.63.63,0,0,0,.1.011c6.86-.469,14.3.772,21-.765.257,2.1.542,4.187.877,6.274.077.477.934.345.938-.111,0-.169,0-.336,0-.5a1.01,1.01,0,0,0,.768.327l3.466.45a.957.957,0,0,0,1.222-.814c.022-2.219.079-4.438.146-6.657a.61.61,0,0,0,.129.03c8.347.618,16.875.6,25.251.856a.767.767,0,0,0-.118.57C63.44,30.861,62.5,33.173,56.6,33.367Z" transform="translate(-4.834 0.001)" fill="#ffd101"/>
      <path id="Path_24943" data-name="Path 24943" d="M80.159,121.034c-1.119.885-2.248,1.82-3.387,2.762-1.248-.841-2.584-1.61-3.927-2.386-.721-.417-1.656.549-.953.983,1.251.772,2.484,1.565,3.678,2.392-1.5,1.23-3.043,2.457-4.657,3.6-.212-.145-.427-.289-.634-.435q-1.993-1.407-3.97-2.829c.324-.2.646-.41.976-.6.581-.342.056-1.115-.58-.79-.455.232-.891.483-1.331.73-1.347-.961-2.7-1.922-4.058-2.869-.622-.432-1.531.276-.913.727,1.278.931,2.543,1.874,3.806,2.817-1.735,1.047-3.383,2.178-5.02,3.319q-2.627-1.812-5.341-3.525c1.228-.753,2.485-1.478,3.822-2.133.488-.239.063-.769-.438-.6a22.394,22.394,0,0,0-4.377,2.1q-2.194-1.362-4.42-2.634a.73.73,0,0,0-.38-.219c-.2-.115-.4-.235-.6-.348-.419-.236-.955.315-.55.567.036.023.071.048.107.071a6.411,6.411,0,0,0-2.984,2.167c-.31.5.588.926.94.437a6.463,6.463,0,0,1,3.149-1.875q1.858,1.222,3.636,2.536c-1.6,1.079-3.093,2.284-4.554,3.486-.608-.423-1.219-.846-1.813-1.276-.279-.2-.668.107-.414.329.538.47,1.08.954,1.625,1.441l-.376.309c-.408.334.221.835.642.511.117-.09.237-.176.354-.266,1.426,1.27,2.9,2.541,4.482,3.687-.632.33-1.27.654-1.936.949-.362.16-.111.67.287.543a26.053,26.053,0,0,0,2.448-.925,24.533,24.533,0,0,0,2.622,1.569c.55.281,1.128-.347.684-.705-.633-.51-1.3-1-1.959-1.494a43.877,43.877,0,0,0,4.832-2.854c1.18.9,2.37,1.792,3.59,2.648-.715.24-1.441.461-2.192.639-.479.113-.277.66.2.588a23.268,23.268,0,0,0,2.872-.629,53.664,53.664,0,0,0,4.856,2.983c.671.359,1.385-.431.843-.87-1.165-.944-2.37-1.88-3.591-2.811a33.138,33.138,0,0,0,5.566-2.754c1.019.78,2.056,1.566,3.132,2.311-.221.23-.452.453-.65.7-.416.516.571.938,1.01.47.178-.19.367-.372.561-.55a24.4,24.4,0,0,0,3.365,1.863c.681.3,1.338-.4.819-.844a33.167,33.167,0,0,0-2.822-2.141,15.118,15.118,0,0,0,2.91-2.64c.375-.5-.559-1.1-1.03-.632-.9.9-1.934,1.722-2.911,2.574-1-.666-2.024-1.318-3.029-1.976a50.961,50.961,0,0,0,4.66-3.528c.9.664,1.777,1.346,2.6,2.073.543.48,1.572-.15,1.124-.69a15.481,15.481,0,0,0-2.555-2.411c1.1-.974,2.143-1.95,3.089-2.895C81.622,121.262,80.782,120.541,80.159,121.034Zm-27.181,11.48c-1.654-1.192-3.363-2.35-5.051-3.514,1.532-1.159,3.089-2.282,4.717-3.338,1.682,1.268,3.338,2.567,5,3.855C56.134,130.56,54.6,131.585,52.977,132.514Zm11.372-.352q-1.994-1.5-4.069-2.95c1.629-1.131,3.236-2.286,4.885-3.368q2,1.5,4,2.993c.168.126.337.255.507.383A34.1,34.1,0,0,1,64.349,132.162Z" transform="translate(-32.263 -84.729)" fill="#ffd101"/>
      <path id="Path_24944" data-name="Path 24944" d="M44.126,52.743c-.713,1.2-1.636,2.523-1.659,3.971-.007.429.625.417.658,0,.1-1.284,1.095-2.465,1.6-3.623C44.895,52.693,44.36,52.351,44.126,52.743Z" transform="translate(-29.522 -36.851)" fill="#ffd101"/>
      <path id="Path_24945" data-name="Path 24945" d="M50.425,59.516c-1.575.979-2.956,2.193-2.943,4.185a.458.458,0,0,0,.915,0c.1-1.521,1.334-2.566,2.482-3.409C51.334,59.957,50.927,59.2,50.425,59.516Z" transform="translate(-32.76 -41.668)" fill="#ffd101"/>
      <path id="Path_24946" data-name="Path 24946" d="M57.909,69.083a15.61,15.61,0,0,1-2.658,1.555c-.407.213-.05.8.356.61a8.508,8.508,0,0,0,2.767-1.7A.329.329,0,0,0,57.909,69.083Z" transform="translate(-37.74 -48.368)" fill="#ffd101"/>
    </g>
  </g>
</svg>
