<svg xmlns="http://www.w3.org/2000/svg" width="82.918" height="47.851" viewBox="0 0 82.918 47.851">
  <g id="Group_3512" data-name="Group 3512" transform="translate(-268 -156.998)">
    <g id="pasta_4_" data-name="pasta (4)" transform="translate(268.001 156.998)">
      <path id="Path_24930" data-name="Path 24930" d="M62.27,253.223a46.488,46.488,0,0,0,10.781,3.366.871.871,0,0,0,.354-1.705c-8.839-1.834-11.841-4.052-11.866-4.071a.871.871,0,0,0-1.4.7,7.518,7.518,0,0,0,2.241,4.941.871.871,0,1,0,1.282-1.179A7.477,7.477,0,0,1,62.27,253.223Z" transform="translate(-49.66 -224.508)" fill="#ffd101"/>
      <path id="Path_24931" data-name="Path 24931" d="M121.039,297.472c-1.087.057-2.195.086-3.293.086-9.4,0-18.389-2.032-24.049-5.436a.871.871,0,1,0-.9,1.493c5.919,3.56,15.245,5.685,24.947,5.685,1.129,0,2.268-.03,3.385-.089a.871.871,0,1,0-.092-1.739Z" transform="translate(-76.287 -258.671)" fill="#ffd101"/>
      <path id="Path_24932" data-name="Path 24932" d="M90.018,197.047a.871.871,0,0,0,.851-1.52,12.731,12.731,0,0,1-2.651-1.936c-.894-.867-1.053-1.383-1.006-1.552s.37-.318.587-.369a.871.871,0,0,0-.368-1.7,2.55,2.55,0,0,0-1.892,1.588c-.282.98.2,2.055,1.467,3.286A14.472,14.472,0,0,0,90.018,197.047Z" transform="translate(-70.575 -174.396)" fill="#ffd101"/>
      <path id="Path_24933" data-name="Path 24933" d="M110.391,278.194a.871.871,0,0,0,.422,1.157,47.418,47.418,0,0,0,16.715,3.913h.027a.871.871,0,0,0,.026-1.741,37.005,37.005,0,0,1-4.357-.4c-1.086-2.131-4.63-4.7-5.063-5.012a.871.871,0,1,0-1.012,1.418,25.076,25.076,0,0,1,3.632,3.156,47.428,47.428,0,0,1-9.232-2.913A.87.87,0,0,0,110.391,278.194Z" transform="translate(-91.096 -245.417)" fill="#ffd101"/>
      <path id="Path_24934" data-name="Path 24934" d="M101.932,241.877a.871.871,0,0,0,.306,1.193c.279.165,6.894,4.04,12.985,4.04,5.244,0,8.4,2.059,12.066,7.868a.871.871,0,0,0,1.473-.929c-3.38-5.359-6.824-8.68-13.539-8.68-5.608,0-12.033-3.76-12.1-3.8A.871.871,0,0,0,101.932,241.877Z" transform="translate(-84.077 -216.927)" fill="#ffd101"/>
      <path id="Path_24935" data-name="Path 24935" d="M257.193,228.561a.863.863,0,0,0,.49.152.874.874,0,0,0,.72-.376c.108-.155,2.706-3.783,8.967-2.428,6.171,1.337,9.441,1.3,11.55-.257a19.809,19.809,0,0,0,1.762-1.568A5.391,5.391,0,0,0,282,219.331a.871.871,0,1,0-1.715.306,3.775,3.775,0,0,1-.462,2.705,9.507,9.507,0,0,1-2.218,2.09c-1.477.881-4.073,1.029-9.865-.226-7.458-1.616-10.644,2.955-10.776,3.151A.869.869,0,0,0,257.193,228.561Z" transform="translate(-212.08 -198.067)" fill="#ffd101"/>
      <path id="Path_24936" data-name="Path 24936" d="M285.358,287.413c-5.339,3.31-12.589.206-12.662.175a.871.871,0,0,0-.7,1.595,20.421,20.421,0,0,0,4.78,1.3,18.251,18.251,0,0,0,2.675.2,12.818,12.818,0,0,0,6.824-1.791.871.871,0,0,0-.918-1.48Z" transform="translate(-224.19 -254.776)" fill="#ffd101"/>
      <path id="Path_24937" data-name="Path 24937" d="M302.77,267.28l.024-.01a.871.871,0,1,0-.67-1.608l-.024.01a7.008,7.008,0,0,1-2.107.693,12.4,12.4,0,0,1-2.733-.412c-.613-.125-1.376-.281-2.3-.459-3.7-.709-6.513-.461-7.915.7a2.313,2.313,0,0,0-.9,1.783,1.372,1.372,0,0,0,.48,1.035,5.585,5.585,0,0,0,3.32.716,24.6,24.6,0,0,0,2.867-.19.871.871,0,0,0-.212-1.729,14.318,14.318,0,0,1-4.663-.023.859.859,0,0,1,.217-.25c.745-.616,2.839-1.027,6.477-.33.914.175,1.671.33,2.279.454C300.136,268.319,300.3,268.308,302.77,267.28Z" transform="translate(-236.303 -236.456)" fill="#ffd101"/>
      <path id="Path_24938" data-name="Path 24938" d="M184.3,280.825a.872.872,0,0,0-1.077-.6c-.018.006-1.882.506-3.593-1.775a8.854,8.854,0,0,0-1.111-1.213.871.871,0,1,0-1.175,1.286,7.1,7.1,0,0,1,.893.972,5.576,5.576,0,0,0,4.51,2.515,3.727,3.727,0,0,0,.955-.11A.871.871,0,0,0,184.3,280.825Z" transform="translate(-146.217 -246.293)" fill="#ffd101"/>
      <path id="Path_24939" data-name="Path 24939" d="M196.653,236.872a.871.871,0,0,0-.871.871c0,4.8-5.665,9.3-14.785,11.736a16.928,16.928,0,0,1-1.806.328c-5.344.241-8.681-4.384-8.709-4.424a24.425,24.425,0,0,0-4.862-5.212c-2.391-1.674-11.989-3.945-13.075-4.2a.871.871,0,0,0-.4,1.7c2.861.668,10.68,2.675,12.472,3.93a23.11,23.11,0,0,1,4.431,4.78c.152.217,3.708,5.181,9.715,5.181q.249,0,.5-.012a16.879,16.879,0,0,0,2.177-.386,31.768,31.768,0,0,0,11.486-5.346c3-2.4,4.59-5.189,4.59-8.073A.87.87,0,0,0,196.653,236.872Z" transform="translate(-125.092 -212.385)" fill="#ffd101"/>
      <path id="Path_24940" data-name="Path 24940" d="M202.786,236.991a18.515,18.515,0,0,0,4.288.578,7.264,7.264,0,0,0,2.916-.509.871.871,0,0,0-.715-1.588c-1.666.75-4.921.137-6.034-.163a.871.871,0,1,0-.454,1.682Z" transform="translate(-166.933 -211.831)" fill="#ffd101"/>
      <path id="Path_24941" data-name="Path 24941" d="M70.568,110.063c-7.79-4.139-18.127-6.418-29.109-6.418-.573,0-1.157.009-1.743.021a5.645,5.645,0,0,0-3.8-2.983.871.871,0,0,0-1.057.749,8.945,8.945,0,0,0,.037,2.49c-9.385.8-18,3.332-24.354,7.163C3.745,115.186,0,120.511,0,126.08c0,6.1,4.386,11.784,12.35,16.015,7.79,4.139,18.128,6.418,29.109,6.418s21.319-2.279,29.109-6.418c7.964-4.231,12.35-9.919,12.35-16.015S78.532,114.294,70.568,110.063ZM57.6,115.935a9.436,9.436,0,0,1,.217,1.533,5,5,0,0,1-.09,1.193c-.1.018-.231.035-.328.048a2.354,2.354,0,0,0-1.318.453l-.115.1a2.969,2.969,0,0,1-.794.575,2.043,2.043,0,0,1-.57.118,5.328,5.328,0,0,0-.71.122,11.565,11.565,0,0,1-1.333.277,2.9,2.9,0,0,0-.992.379,1.771,1.771,0,0,1-.385.178,2.215,2.215,0,0,0-1.3.674c-.078.068-.188.163-.259.214a3.675,3.675,0,0,1-.591-.123,4.015,4.015,0,0,0-.817-.155c-.047,0-.071-.008-.073-.007a1.414,1.414,0,0,1-.1-.121,1.651,1.651,0,0,0-1.3-.759.685.685,0,0,0-.069,0,1.987,1.987,0,0,0-1.259.647c-.065.058-.156.139-.236.2-.059-.056-.121-.119-.172-.17a2.057,2.057,0,0,0-1.5-.813,2.372,2.372,0,0,0-1.167.454,2.239,2.239,0,0,1-.364.2,3.248,3.248,0,0,1-.587-.058,4.611,4.611,0,0,0-.975-.076,2.1,2.1,0,0,0-1.3.716c-.074.07-.176.166-.249.224-.088-.032-.22-.1-.315-.145a2.417,2.417,0,0,0-1.173-.34,2.742,2.742,0,0,1-.344-.2,2.132,2.132,0,0,0-1.3-.468,2.528,2.528,0,0,0-1.228.5,2.594,2.594,0,0,1-.311.185,4.849,4.849,0,0,1-.718-.034,4.988,4.988,0,0,0-.817-.033,1.923,1.923,0,0,0-1.459.757l0,0c-.087-.061-.2-.154-.276-.218a2.325,2.325,0,0,0-1.15-.618,1.549,1.549,0,0,1-.433-.232,2.744,2.744,0,0,0-.95-.447,2.129,2.129,0,0,0-1.609.525c-.086.058-.2.137-.288.187-.379-.117-.814-.26-1.171-.412a3.579,3.579,0,0,1-.14-.4,2.035,2.035,0,0,0-.7-1.185,2.452,2.452,0,0,0-1.379-.334l-.107,0c.011-.072.025-.146.035-.2a2.192,2.192,0,0,0,0-1.163,3.07,3.07,0,0,0-.544-.894c-.045-.057-.105-.133-.149-.193.041-.143.077-.284.113-.422a6.564,6.564,0,0,1,.219-.733,2.56,2.56,0,0,1,.322-.206,2.246,2.246,0,0,0,.935-.829,2.142,2.142,0,0,0,.046-1.55c-.01-.045-.022-.1-.034-.149l.188-.025a2.076,2.076,0,0,0,1.365-.536,2.23,2.23,0,0,0,.468-1.332c.011-.1.028-.249.047-.334.132-.113.258-.231.381-.345a4.97,4.97,0,0,1,.662-.554,11.76,11.76,0,0,1,1.288-.692,2.371,2.371,0,0,1,.409.06l.169.032a8.538,8.538,0,0,0-1.226,4.5.871.871,0,0,0,.87.824.857.857,0,0,0,.121-.009c.275-.038,4.794-.7,7.639-2.881A6.02,6.02,0,0,0,37.369,114a.87.87,0,0,0,.616.351.826.826,0,0,0,.085,0,.87.87,0,0,0,.588-.228,7.571,7.571,0,0,0,2.241-3.287,17.791,17.791,0,0,0,5.663,2.39,41.026,41.026,0,0,0,4.846.984.894.894,0,0,0,.112.007h0a.872.872,0,0,0,.808-1.195,27.663,27.663,0,0,0-1.111-2.974l.015.006a2.659,2.659,0,0,0,1.107.12,3.713,3.713,0,0,1,.417,0c.034.089.073.218.1.313a2.275,2.275,0,0,0,.74,1.283,2.622,2.622,0,0,0,1.06.4,2.327,2.327,0,0,1,.4.1,4.66,4.66,0,0,0,.656.518,2.319,2.319,0,0,1,.523.431c.093.136.2.276.307.42a4.758,4.758,0,0,1,.552.844A8.292,8.292,0,0,1,57.6,115.935Zm-18.638-7.565a1.768,1.768,0,0,1,.383.963,3.851,3.851,0,0,1-1.074,2.681A3.309,3.309,0,0,1,38.964,108.371Zm-3.737-1.591a1.877,1.877,0,0,1,1.62.811c-.293,2.729-4.7,4.227-7.345,4.785a6.606,6.606,0,0,1,3.321-4.809A5.047,5.047,0,0,1,35.227,106.78Zm15.009,5.485c-2.914-.523-7.775-1.751-9.226-3.687a1.619,1.619,0,0,1-.374-1.1,3.978,3.978,0,0,1,3.146-1.981,5.8,5.8,0,0,1,3.666,1.761A14.636,14.636,0,0,1,50.236,112.265ZM38.4,105.978a1.812,1.812,0,0,1-1.045-.6,4,4,0,0,1-.823-2.605A3.29,3.29,0,0,1,38.4,105.978Zm31.347,34.579c-7.543,4.007-17.59,6.214-28.291,6.214s-20.749-2.207-28.291-6.214C5.8,136.642,1.742,131.5,1.742,126.08c0-9.585,12.805-17.889,30.374-20.112-.053.029-.1.055-.157.085a8.781,8.781,0,0,0-1.646,1.208,1.9,1.9,0,0,0-.844.034,2.5,2.5,0,0,1-.388-.058,2.28,2.28,0,0,0-1.424.046,13.242,13.242,0,0,0-1.526.816,6.238,6.238,0,0,0-.929.758c-.138.128-.268.249-.393.353a1.989,1.989,0,0,0-.579,1.408c-.01.088-.023.2-.038.294-.087.015-.2.029-.281.04a2.011,2.011,0,0,0-1.519.686,1.263,1.263,0,0,0-.181.38c-2.219.182-7.86.919-9.522,3.772a3.455,3.455,0,0,0-.471,1.789,4.325,4.325,0,0,0-1.54,3.187,3.256,3.256,0,0,0,.055.389c-1.23.957-2.644,2.652-2,4.414a.871.871,0,0,0,1.637-.6c-.261-.719.465-1.59,1.126-2.178a10.66,10.66,0,0,0,3.564,2.806.871.871,0,1,0,.827-1.533c-2.15-1.16-3.381-2.373-3.467-3.416a1.623,1.623,0,0,1,.327-1.069c.013.025.023.049.036.075a.871.871,0,0,0,1.55-.794,2.191,2.191,0,0,1-.135-2.2c.591-1.015,2.328-1.877,4.892-2.426a27.2,27.2,0,0,1,2.922-.449,2.056,2.056,0,0,0-.93.941,7.423,7.423,0,0,0-.312,1c-.052.2-.1.389-.159.569a.876.876,0,0,0-.038.189,1.919,1.919,0,0,0,.555,1.379,2.4,2.4,0,0,1,.247.348c-.005.075-.031.213-.048.309a2,2,0,0,0,.272,1.756,1.851,1.851,0,0,0,1.462.507c.109,0,.272.008.38.023.029.08.063.188.088.269a2.054,2.054,0,0,0,1,1.435,14.68,14.68,0,0,0,1.643.582,1.875,1.875,0,0,0,1.593-.465c.1-.069.258-.175.361-.229.079.042.189.113.269.166a2.787,2.787,0,0,0,1.114.495,2.952,2.952,0,0,1,.309.237,2.363,2.363,0,0,0,1.309.664c.024,0,.045,0,.071,0a1.632,1.632,0,0,0,1.339-.664c.118-.139.118-.139.25-.148a3.7,3.7,0,0,1,.533.029,6.122,6.122,0,0,0,1.025.037,2.344,2.344,0,0,0,1.122-.462,3.326,3.326,0,0,1,.343-.206c.077.04.2.118.284.174a2.257,2.257,0,0,0,1.335.486,2.36,2.36,0,0,1,.357.157,2.43,2.43,0,0,0,1.241.344,2.1,2.1,0,0,0,1.3-.714,3.594,3.594,0,0,1,.277-.245,3.952,3.952,0,0,1,.537.06,4.572,4.572,0,0,0,.941.076,2.477,2.477,0,0,0,1.2-.47c.07-.044.163-.1.237-.143.084.073.19.181.263.254a1.953,1.953,0,0,0,1.4.768,2.292,2.292,0,0,0,1.4-.725l.107-.095a1.792,1.792,0,0,0,1.436.775,2.959,2.959,0,0,1,.466.1,4.378,4.378,0,0,0,1.129.185,2.026,2.026,0,0,0,1.307-.644,2.98,2.98,0,0,1,.319-.255,2.712,2.712,0,0,0,1.056-.383,1.769,1.769,0,0,1,.4-.184,13.1,13.1,0,0,0,1.526-.315,3.872,3.872,0,0,1,.487-.08,3.486,3.486,0,0,0,1.082-.262,4.593,4.593,0,0,0,1.234-.863l.059-.053a3.792,3.792,0,0,1,.434-.072,2.508,2.508,0,0,0,1.321-.447c.843-.191,2.459-.719,2.617-1.984a.871.871,0,0,0-1.721-.265.936.936,0,0,1-.281.2c.007-.2.006-.383,0-.546a11.27,11.27,0,0,0-.257-1.831c-.038-.171-.09-.355-.148-.545,2.516.658,4.239,1.573,4.817,2.587a1.706,1.706,0,0,1,.088,1.512c-.213.6-.993,1.529-3.5,2.6a.871.871,0,1,0,.683,1.6c2.153-.918,3.529-1.918,4.186-3.041a1.1,1.1,0,0,1,.549.874c-.008,1.01-1.9,2.979-4.087,3.837-1.328.52-3,.059-4.944-.475a25.766,25.766,0,0,0-4.769-.975c-4.551-.38-8.891,4.26-9.073,4.458a.871.871,0,0,0,1.279,1.182c.039-.042,3.944-4.207,7.649-3.9a24.03,24.03,0,0,1,4.452.919c2.146.591,4.173,1.149,6.041.418a11.32,11.32,0,0,0,3.279-2.075,5.07,5.07,0,0,0,1.915-3.371,2.921,2.921,0,0,0-1.79-2.621,3.346,3.346,0,0,0-.445-1.8c-1.177-2.066-4.512-3.162-7.241-3.727-.1-.145-.205-.286-.3-.418s-.184-.244-.265-.363a3.55,3.55,0,0,0-.964-.873,3.335,3.335,0,0,1-.415-.317,2.373,2.373,0,0,0-1.283-.578,3.311,3.311,0,0,1-.35-.084,3.549,3.549,0,0,1-.133-.391,2,2,0,0,0-.858-1.329,2.607,2.607,0,0,0-1.4-.223,2.517,2.517,0,0,1-.405,0,13.538,13.538,0,0,0-1.607-.54l-.025-.006a1.407,1.407,0,0,0-.185-.094,9.017,9.017,0,0,0-1.418-1.814l-.019-.018q-.156-.139-.311-.268A57.313,57.313,0,0,1,69.75,111.6c7.368,3.915,11.426,9.056,11.426,14.479S77.119,136.642,69.751,140.557Z" transform="translate(0 -100.662)" fill="#ffd101"/>
    </g>
  </g>
</svg>
