<svg xmlns="http://www.w3.org/2000/svg" width="68.85" height="36.855" viewBox="0 0 68.85 36.855">
  <g id="Group_2269" data-name="Group 2269" transform="translate(0.251 0.253)">
    <path id="Path_24474" data-name="Path 24474" d="M1327.259,910.567a.586.586,0,0,0-.031.251.383.383,0,0,0-.05.037c-.139.153-.28.317-.422.478a53.475,53.475,0,0,0-2.913-4.643,57.4,57.4,0,0,0-7.714-9.486c1.16-.814,2.408-.181,3.746,1.931a.62.62,0,0,0,.92.529,2.942,2.942,0,0,1,3.981,3.66.634.634,0,0,0,.288.706,5.449,5.449,0,0,1,2.2,6.537m-11.128,7.905q-5.228.153-10.458.235c-13.881.22-27.749-.048-41.626-.311a4.838,4.838,0,0,1-1.969-5.483c.689-2.442,2.828-3.966,4.534-5.682a2.338,2.338,0,0,0,.291.4,2.841,2.841,0,0,0-1.08,2.5c0,.736.177.7-.512,1.134-.26.166-.574.2-.84.38a2.554,2.554,0,0,0-1.031,1.346,2.237,2.237,0,0,0,.9,2.532.451.451,0,0,0,0,.059c1.336,6.94,14.423-8.479,15.782-9.784,4.446-4.27,8.861-9.623,14.245-12.741a13.336,13.336,0,0,1,3.516-1.421.676.676,0,0,0,.293-.07c6.3-1.391,12.151,2.608,16.946,7.1,3.639,3.408,9.052,8.848,10.294,13.886,1.815,7.365-4.856,5.792-9.285,5.921m-48.867-7.48c.041-.214-.154-.45-.14-.662.163-2.352,1.483-2.247,3-2,1.024.167,1.968.552,3.006.671a.519.519,0,0,0,.26-.96c-.263-.118-.553-.232-.852-.34-.127-1.131,1.752-2.1,2.515-2.477a2.7,2.7,0,0,1,3.261.218c-.509.493-1.021.984-1.529,1.479-.8.777-9.058,9.423-11.166,8.8a.335.335,0,0,0-.142-.418q-1.089-2.812.468-2.984a1.7,1.7,0,0,0,.271-.053c.2-.133.438-.131.637-.321a1.54,1.54,0,0,0,.411-.955m.773-6.394a3.363,3.363,0,0,1,2.632-.539c.425.049.664-.5.472-.823-.938-1.6.539-3.109,2.078-3.352a5.251,5.251,0,0,1,1.9.1,3.047,3.047,0,0,0,1.33,3.284c.261.186.635-.186.447-.448a3.278,3.278,0,0,1-.6-2.555l.215.054c.584.146,1.028-.759.428-1.017-.051-.021-.1-.039-.156-.06a2.448,2.448,0,0,1,2.27-.736c.369.045.617-.334.645-.645.361-3.87,4.329-4.817,7.056-2.562a.625.625,0,0,0,.883-.883,5.381,5.381,0,0,0-1.015-.947c-.527-2.679,2.327-5,4.63-2.758a.678.678,0,0,0,.932,0,4.547,4.547,0,0,1,2.527-1.312,3.117,3.117,0,0,1,1.847.717c0,.01-.008.018-.01.028a.29.29,0,0,0-.018.138c-4.487,1.62-8.07,5.374-11.418,8.6q-2.976,2.864-5.94,5.74c-1.12-1.6-3.583-1.065-5.075-.158-.776.474-2.482,1.795-2.5,2.936a7,7,0,0,0-4.017-.113,1.7,1.7,0,0,1,.468-2.689m9.023-9.623a40.809,40.809,0,0,1,3.136-2.7,4.184,4.184,0,0,0,.523,1.39,5.679,5.679,0,0,0-2.228,3.545,3.718,3.718,0,0,0-2.867,1.643,7.016,7.016,0,0,0-2.015-.239c1.17-1.194,2.246-2.477,3.451-3.642m7.309-5.678a.606.606,0,0,0,.666-.27,4.635,4.635,0,0,1,6.569-2.208.332.332,0,0,0,.412.207c.57.34,1.036-.353.775-.849a3.464,3.464,0,0,1,3.123-1.128,3.666,3.666,0,0,1,2.539,2.05,8.039,8.039,0,0,0-1.187,1.549,3.379,3.379,0,0,0-1.259-.584,5.191,5.191,0,0,0-4.3,1.349c-2.843-2.022-6.736.215-6.092,3.5a4.983,4.983,0,0,0-4.382.422,3.907,3.907,0,0,1-.127-1.764l.232-.18a.485.485,0,0,0,.045-.706,2.647,2.647,0,0,1,2.989-1.384m14.909-1.735a.614.614,0,0,0,.253-.207,4.132,4.132,0,0,1,5.452.065c.317.215.427.6.824.723a2.455,2.455,0,0,0,1.018.167,14.043,14.043,0,0,0,1.422-.283,2.836,2.836,0,0,1,3.171,2.141.6.6,0,0,0,.563.4.386.386,0,0,0,.375.22,3.457,3.457,0,0,1,3.421,2.371,3.417,3.417,0,0,1-.757,3c-4.748-4.327-10.447-7.513-16.231-6.491-.195.034-.383.083-.573.126a2.968,2.968,0,0,0-.349-.557,8.629,8.629,0,0,1,1.411-1.669M1328.32,906a12.859,12.859,0,0,0-1.594-2.274c-.546-.826-.3-.553-.369-1.655a4.01,4.01,0,0,0-5.427-3.773,3.26,3.26,0,0,0-4.121-2.393,4.621,4.621,0,0,0,.068-3.438,4.277,4.277,0,0,0-4.34-2.561,3.656,3.656,0,0,0-2.315-3.077,4.825,4.825,0,0,0-2.219-.262,3.945,3.945,0,0,1-2.821-.534,5.461,5.461,0,0,0-5.752.254c-1.181-2.961-5.477-3.028-7.271-.627-2.7-1.679-5.725-.344-7.7,1.838-.642.708-.208.432-1.336.655a3.864,3.864,0,0,0-2.325,1.46,3.335,3.335,0,0,0-.562,1.214,24.241,24.241,0,0,0-7.506,7.81c-.017.032-.006.06-.012.091a3.976,3.976,0,0,0-1.536.684,3.366,3.366,0,0,0-1.325,3.545,3.552,3.552,0,0,0-3.453,2,2.65,2.65,0,0,0-.158,1.147c-2.7,1.708-5.7,4.665-5.768,8.077-.045,2.1.93,4.32,2.831,5.08a.59.59,0,0,0,.533.37c16.707.873,33.481.82,50.2.356,3.157-.087,10.9,1.14,13.34-2.009,1.217-1.572.733-3.776-.255-5.9.177-.276.366-.544.548-.81a.593.593,0,0,0,.725-.384,6.681,6.681,0,0,0-.076-4.885" transform="translate(-1260.473 -883.949)" fill="#000000" stroke="#000000" stroke-width="0.5"/>
    <path id="Path_24475" data-name="Path 24475" d="M1319.522,1000.92a25.993,25.993,0,0,0-2.156,2.551c-.639.782-1.32,1.543-1.9,2.371-.153.223.177.449.361.279.812-.749,1.535-1.611,2.287-2.42a24.015,24.015,0,0,0,2.037-2.293c.273-.383-.311-.79-.633-.487" transform="translate(-1303.222 -974.854)" fill="#000000" stroke="#000000" stroke-width="0.5"/>
    <path id="Path_24476" data-name="Path 24476" d="M1334,1000.259a17.913,17.913,0,0,0-2.984,3.529c-.149.243.2.527.4.308a27.369,27.369,0,0,1,3.241-3.177c.461-.366-.216-1.081-.659-.66" transform="translate(-1315.315 -974.323)" fill="#000000" stroke="#000000" stroke-width="0.5"/>
    <path id="Path_24477" data-name="Path 24477" d="M1520.3,975.234a30.449,30.449,0,0,0-2.346-2.65,10.427,10.427,0,0,0-2.475-2.417c-.129-.066-.32.045-.265.2a9.242,9.242,0,0,0,1.855,2.53,32.4,32.4,0,0,0,2.487,2.906c.372.355,1.072-.123.744-.574" transform="translate(-1458.617 -951)" fill="#000000" stroke="#000000" stroke-width="0.5"/>
    <path id="Path_24478" data-name="Path 24478" d="M1517.716,984.909c-1.281-1.542-2.721-3.006-4.111-4.452-.339-.35-.807.159-.522.522,1.247,1.581,2.5,3.215,3.863,4.7.479.525,1.213-.24.771-.771" transform="translate(-1456.9 -958.928)" fill="#000000" stroke="#000000" stroke-width="0.5"/>
  </g>
</svg>
