<svg xmlns="http://www.w3.org/2000/svg" width="37.494" height="40.117" viewBox="0 0 37.494 40.117">
  <g id="_016---Gruyere" data-name="016---Gruyere" transform="translate(0.505 0.5)">
    <path id="Shape" d="M9.426,39.117c1.777,0-4.206-.036,14.023-.036a20.553,20.553,0,0,0,12.8-4.065.651.651,0,0,0,.188-.716L24.06.429A.651.651,0,0,0,23.448,0H13.027a.651.651,0,0,0-.612.428L.04,34.3a.651.651,0,0,0,.046.546c2.194,3.838,7.2,4.273,9.339,4.273Zm.937-1.339c-.062.008-5.661.473-8.437-2.605h8.918a18.133,18.133,0,0,0,4.939,2.605Zm24.686-3.485c-6.372,4.609-16.771,4.66-23.2,0l11.6-31.743ZM13.483,1.3h9.034L10.624,33.852c-.01.065.352.018-9.041.018Z" transform="translate(0 0)" fill="#999" stroke="#999" stroke-width="1"/>
    <path id="Shape-2" data-name="Shape" d="M6.409,44.026a.651.651,0,0,0,.847-.363l3.908-9.77a.652.652,0,0,0-1.21-.485l-3.908,9.77a.651.651,0,0,0,.363.847Z" transform="translate(-2.092 -11.506)" fill="#999" stroke="#999" stroke-width="1"/>
  </g>
</svg>
