<svg xmlns="http://www.w3.org/2000/svg" width="246.125" height="297.684" viewBox="0 0 246.125 297.684">
  <g id="Group_3240" data-name="Group 3240" transform="translate(-84 -103.269)">
    <path id="Path_26599" data-name="Path 26599" d="M207.65,581.457c-.041-.084-.084-.169-.126-.253-.514-1.027-1.032-2.039-1.539-3.018l-.2-1.428c.755,1.432,1.541,2.966,2.318,4.527.024.048.048.1.07.143Z" transform="translate(-43.278 -295.721)" fill="#9ad8ff"/>
    <path id="Path_26600" data-name="Path 26600" d="M176.513,211.577H267.36a3.163,3.163,0,0,1,3.179,3.232c-1.819,56.547-51.181,101.963-109.049,97.208A101.162,101.162,0,0,1,69.37,219.9c-4.845-58.967,42.4-109.1,100.438-109.1a100.793,100.793,0,0,1,61.233,20.736,3.165,3.165,0,0,1,.493,4.51l-57.483,70.344a3.18,3.18,0,0,0,2.462,5.192Z" transform="translate(41.306 -7.527)" fill="#ffd101"/>
    <path id="Path_26601" data-name="Path 26601" d="M391.1,223.206l57.6-70.233a3.2,3.2,0,0,1,4.591-.343,100.778,100.778,0,0,1,34.277,72.44,3.2,3.2,0,0,1-3.178,3.33H393.559a3.179,3.179,0,0,1-2.459-5.195Z" transform="translate(-157.443 -32.899)" fill="#ffd101"/>
    <path id="Path_26602" data-name="Path 26602" d="M280.471,237.348c0,46.56-38.326,84.886-84.885,84.886-46.576,0-84.885-38.326-84.885-84.886s38.31-84.885,84.885-84.885a84.911,84.911,0,0,1,53.9,19.313l-23.32,28.359-18.6,22.636-7.711,9.379a3.179,3.179,0,0,0,2.456,5.2h78.155Z" transform="translate(15.532 -33.297)" fill="#fff"/>
    <path id="Path_26603" data-name="Path 26603" d="M471.752,246.269H393.6a3.179,3.179,0,0,1-2.456-5.2l49.644-60.358a84.837,84.837,0,0,1,30.966,65.556Z" transform="translate(-157.467 -50.77)" fill="#fff"/>
    <path id="Path_26604" data-name="Path 26604" d="M237.944,242.8a14.7,14.7,0,1,1-14.7-14.7A14.7,14.7,0,0,1,237.944,242.8Z" transform="translate(-44.984 -80.078)" fill="#e3051b"/>
    <path id="Path_26605" data-name="Path 26605" d="M351.486,188.069a14.7,14.7,0,1,1-14.7-14.7A14.7,14.7,0,0,1,351.486,188.069Z" transform="translate(-115.209 -46.229)" fill="#e3051b"/>
    <path id="Path_26606" data-name="Path 26606" d="M172.039,351.132a14.7,14.7,0,1,1-14.7-14.7,14.7,14.7,0,0,1,14.7,14.7Z" transform="translate(-4.223 -147.082)" fill="#e3051b"/>
    <path id="Path_26607" data-name="Path 26607" d="M210.568,460.97a14.7,14.7,0,1,1-14.7-14.7A14.7,14.7,0,0,1,210.568,460.97Z" transform="translate(-28.053 -215.016)" fill="#e3051b"/>
    <path id="Path_26608" data-name="Path 26608" d="M458.765,399.512a14.7,14.7,0,1,1-14.7-14.7A14.7,14.7,0,0,1,458.765,399.512Z" transform="translate(-181.561 -177.004)" fill="#e3051b"/>
    <path id="Path_26609" data-name="Path 26609" d="M404.236,488.053a14.7,14.7,0,1,1-14.7-14.7A14.7,14.7,0,0,1,404.236,488.053Z" transform="translate(-147.834 -231.766)" fill="#e3051b"/>
    <path id="Path_26610" data-name="Path 26610" d="M334.665,411.624a14.7,14.7,0,1,1-14.7-14.7A14.7,14.7,0,0,1,334.665,411.624Z" transform="translate(-104.805 -184.495)" fill="#e3051b"/>
    <path id="Path_26611" data-name="Path 26611" d="M300.457,508.5a14.7,14.7,0,1,1-14.7-14.7A14.7,14.7,0,0,1,300.457,508.5Z" transform="translate(-83.647 -244.412)" fill="#e3051b"/>
    <path id="Path_26612" data-name="Path 26612" d="M508.035,242.812a14.7,14.7,0,1,1-14.7-14.7A14.7,14.7,0,0,1,508.035,242.812Z" transform="translate(-212.035 -80.086)" fill="#e3051b"/>
    <path id="Path_26613" data-name="Path 26613" d="M458.759,322.458a13.171,13.171,0,0,1-.206,2.384H429.573a13.168,13.168,0,0,1-.206-2.384,14.7,14.7,0,1,1,29.392,0Z" transform="translate(-181.561 -129.344)" fill="#e3051b"/>
    <path id="Path_26614" data-name="Path 26614" d="M280.64,334.57a14.7,14.7,0,1,1-14.7-14.7A14.7,14.7,0,0,1,280.64,334.57Z" transform="translate(-71.392 -136.838)" fill="#e3051b"/>
    <path id="Path_26615" data-name="Path 26615" d="M373.01,270.746l-18.6,22.636a14.695,14.695,0,1,1,18.6-22.636Z" transform="translate(-131.308 -103.908)" fill="#e3051b"/>
    <path id="Path_26616" data-name="Path 26616" d="M295.75,468.411s-1.667-43.29-2.462-51.108-11.321-8.59-12.544,4.268-2.086,38.659-2.086,38.659-5.539-7.136-13.856,3.16c-7.228-9.36-14.335.835-14.229,2.976-7.028-6.94-13.7-1.869-13.548,7.721s-.515,51.5,11.25,71.448l.881-.014-1.939,39.693H294.9l-1.42-41.874c3.54-5.356,15.573-24.585,16.823-40.378C311.775,484.422,295.75,468.411,295.75,468.411Z" transform="translate(-62.597 -193.589)" fill="#232323"/>
    <path id="Path_26617" data-name="Path 26617" d="M43.738,816.981H50.15v-1.589H43.738" transform="translate(56.948 -443.314)" fill="#ffd101"/>
    <path id="Path_26618" data-name="Path 26618" d="M94.221,816.981h6.414v-1.589H94.221" transform="translate(25.725 -443.314)" fill="#ffd101"/>
    <path id="Path_26619" data-name="Path 26619" d="M52.117,793.337l4.537,4.534,1.124-1.124-4.535-4.533" transform="translate(51.766 -428.978)" fill="#ffd101"/>
    <path id="Path_26620" data-name="Path 26620" d="M87.817,829.032l4.535,4.535,1.124-1.124-4.535-4.535" transform="translate(29.686 -451.055)" fill="#ffd101"/>
    <path id="Path_26621" data-name="Path 26621" d="M75.3,783.829v6.412h1.59v-6.412" transform="translate(37.427 -423.792)" fill="#ffd101"/>
    <path id="Path_26622" data-name="Path 26622" d="M75.3,834.313v6.412h1.59v-6.412" transform="translate(37.427 -455.017)" fill="#ffd101"/>
    <path id="Path_26623" data-name="Path 26623" d="M92.352,792.213l-4.535,4.533,1.124,1.124,4.535-4.534" transform="translate(29.686 -428.978)" fill="#ffd101"/>
    <path id="Path_26624" data-name="Path 26624" d="M56.654,827.908l-4.537,4.534,1.125,1.125,4.535-4.535" transform="translate(51.766 -451.055)" fill="#ffd101"/>
    <path id="Path_26625" data-name="Path 26625" d="M24.913,502.487v.795a2.3,2.3,0,1,1-2.3,2.3,2.3,2.3,0,0,1,2.3-2.3v-1.589a3.889,3.889,0,1,0,3.89,3.888,3.888,3.888,0,0,0-3.89-3.888Z" transform="translate(70.996 -249.293)" fill="#ffd101"/>
    <path id="Path_26626" data-name="Path 26626" d="M606.807,171.312v.795a2.3,2.3,0,1,1-2.3,2.3,2.3,2.3,0,0,1,2.3-2.3v-1.589a3.89,3.89,0,1,0,3.89,3.89,3.89,3.89,0,0,0-3.89-3.89Z" transform="translate(-288.9 -44.464)" fill="#ffd101"/>
    <path id="Path_26627" data-name="Path 26627" d="M597.311,841.72v.8a2.3,2.3,0,1,1-2.3,2.3,2.3,2.3,0,0,1,2.3-2.3v-1.59a3.89,3.89,0,1,0,3.89,3.89,3.89,3.89,0,0,0-3.89-3.89Z" transform="translate(-283.027 -459.106)" fill="#ffd101"/>
    <path id="Path_26628" data-name="Path 26628" d="M124.975,877.577H134.9v-1.59h-9.926" transform="translate(6.704 -480.792)" fill="#ffd101"/>
    <path id="Path_26629" data-name="Path 26629" d="M135.9,865.063v9.925h1.59v-9.925" transform="translate(-0.053 -474.035)" fill="#ffd101"/>
    <path id="Path_26630" data-name="Path 26630" d="M623.071,752.05l7.02,7.018,1.124-1.125-7.02-7.018" transform="translate(-301.365 -403.442)" fill="#ffd101"/>
    <path id="Path_26631" data-name="Path 26631" d="M630.091,750.925l-7.02,7.018,1.124,1.125,7.02-7.018" transform="translate(-301.365 -403.442)" fill="#ffd101"/>
    <path id="Path_26632" data-name="Path 26632" d="M0,425.907l7.02,7.018L8.144,431.8l-7.02-7.018" transform="translate(84 -201.725)" fill="#ffd101"/>
    <path id="Path_26633" data-name="Path 26633" d="M7.02,424.783,0,431.8l1.124,1.124,7.02-7.018" transform="translate(84 -201.725)" fill="#ffd101"/>
  </g>
</svg>
