<svg xmlns="http://www.w3.org/2000/svg" width="241.197" height="319.608" viewBox="0 0 241.197 319.608">
  <g id="Group_3237" data-name="Group 3237" transform="translate(-86.699 -42)">
    <path id="Path_26671" data-name="Path 26671" d="M2173.614,752.862c0,2.559-43.754,4.637-97.726,4.637s-97.728-2.078-97.728-4.637,43.753-4.637,97.728-4.637S2173.614,750.3,2173.614,752.862Z" transform="translate(-1857.346 -420.771)"/>
    <path id="Path_26672" data-name="Path 26672" d="M2358.859,663.539a23.243,23.243,0,1,1-23.243-23.243A23.243,23.243,0,0,1,2358.859,663.539Z" transform="translate(-2064.056 -354.019)" fill="#636363"/>
    <path id="Path_26673" data-name="Path 26673" d="M2365.624,681.187a12.357,12.357,0,1,1-12.358-12.358A12.358,12.358,0,0,1,2365.624,681.187Z" transform="translate(-2081.705 -371.666)" fill="#232323"/>
    <path id="Path_26674" data-name="Path 26674" d="M2155.5,503.085v15.356a14.733,14.733,0,0,1-14.72,14.737h-1a26.34,26.34,0,1,0-52.68,0h-53.411a26.348,26.348,0,0,0-52.7,0h-13.1a14.737,14.737,0,0,1-14.738-14.737V474.759a44.5,44.5,0,0,1,44.493-44.509c29.837,0,69.371-4.849,94.9,10.571l50.931,40.964a24.985,24.985,0,0,1,12.017,21.3Z" transform="translate(-1841.881 -223.659)" fill="#ffd101"/>
    <path id="Path_26675" data-name="Path 26675" d="M2080.742,663.539A23.242,23.242,0,1,1,2057.5,640.3,23.242,23.242,0,0,1,2080.742,663.539Z" transform="translate(-1892.043 -354.019)" fill="#636363"/>
    <path id="Path_26676" data-name="Path 26676" d="M2087.5,681.187a12.358,12.358,0,1,1-12.358-12.358A12.358,12.358,0,0,1,2087.5,681.187Z" transform="translate(-1909.688 -371.666)" fill="#232323"/>
    <path id="Path_26677" data-name="Path 26677" d="M2262.8,497.009s-26.76-25.229-32.923-28.082c-14.306-6.624-35.235-4.769-35.235-4.769v32.851Z" transform="translate(-1991.242 -244.931)" fill="#232323"/>
    <path id="Path_26678" data-name="Path 26678" d="M2445.725,601.206v3.577H2427.54a5.142,5.142,0,0,1-5.135-5.134V593.29a5.129,5.129,0,0,1,5.135-5.119h14.481A24.719,24.719,0,0,1,2445.725,601.206Z" transform="translate(-2132.109 -321.779)" fill="#fff"/>
    <path id="Path_26679" data-name="Path 26679" d="M2186.358,156.46a36.45,36.45,0,1,1-22.317,10.754,3.974,3.974,0,0,0-5.678-5.562,44.4,44.4,0,1,0,27.184-13.1,3.974,3.974,0,1,0,.811,7.907Z" transform="translate(-1960.959 -49.735)" fill="#ffd101"/>
    <path id="Path_26680" data-name="Path 26680" d="M2259.071,225.633l11.973-21.315a3.974,3.974,0,1,0-6.931-3.891l-11.971,21.315a3.973,3.973,0,1,0,6.929,3.891Z" transform="translate(-2026.487 -80.708)" fill="#ffd101"/>
    <path id="Path_26681" data-name="Path 26681" d="M2259.584,132.372v-12.29a3.974,3.974,0,0,0-7.948,0v12.29a3.974,3.974,0,0,0,7.948,0Z" transform="translate(-2026.49 -29.812)" fill="#ffd101"/>
    <path id="Path_26682" data-name="Path 26682" d="M2236.208,113.119h14.8a3.974,3.974,0,0,0,0-7.948h-14.8a3.974,3.974,0,0,0,0,7.948Z" transform="translate(-2014.49 -23.047)" fill="#ffd101"/>
    <path id="Path_26683" data-name="Path 26683" d="M2079.994,116.108h-52.181a3.974,3.974,0,0,0,0,7.948h52.181a3.974,3.974,0,0,0,0-7.948Z" transform="translate(-1885.599 -29.812)" fill="#ffd101"/>
    <path id="Path_26684" data-name="Path 26684" d="M1993.194,188.854h-68.885a3.974,3.974,0,0,0,0,7.948h68.885a3.974,3.974,0,0,0,0-7.948Z" transform="translate(-1821.583 -74.805)" fill="#ffd101"/>
    <path id="Path_26685" data-name="Path 26685" d="M2060.918,269.4h-17.16a3.974,3.974,0,1,0,0,7.948h17.16a3.974,3.974,0,1,0,0-7.948Z" transform="translate(-1895.46 -124.625)" fill="#ffd101"/>
    <path id="Path_26686" data-name="Path 26686" d="M2032.9,338.85h-54.422a3.974,3.974,0,1,0,0,7.948H2032.9a3.974,3.974,0,1,0,0-7.948Z" transform="translate(-1855.085 -167.576)" fill="#ffd101"/>
    <path id="Path_26687" data-name="Path 26687" d="M1944.51,40.965h6.413v-1.59h-6.413" transform="translate(-1836.535 17.647)" fill="#ffd101"/>
    <path id="Path_26688" data-name="Path 26688" d="M1995,40.965h6.412v-1.59H1995" transform="translate(-1867.763 17.647)" fill="#ffd101"/>
    <path id="Path_26689" data-name="Path 26689" d="M1952.89,17.32l4.535,4.535,1.124-1.125-4.533-4.533" transform="translate(-1841.718 31.983)" fill="#ffd101"/>
    <path id="Path_26690" data-name="Path 26690" d="M1988.59,53.016l4.533,4.533,1.124-1.124-4.533-4.533" transform="translate(-1863.798 9.905)" fill="#ffd101"/>
    <path id="Path_26691" data-name="Path 26691" d="M1976.08,7.813v6.412h1.59V7.813" transform="translate(-1856.061 37.167)" fill="#ffd101"/>
    <path id="Path_26692" data-name="Path 26692" d="M1976.08,58.3v6.412h1.59V58.3" transform="translate(-1856.061 5.944)" fill="#ffd101"/>
    <path id="Path_26693" data-name="Path 26693" d="M1993.13,16.2l-4.533,4.533,1.124,1.125,4.533-4.535" transform="translate(-1863.802 31.983)" fill="#ffd101"/>
    <path id="Path_26694" data-name="Path 26694" d="M1957.428,51.892l-4.535,4.533,1.125,1.124,4.533-4.533" transform="translate(-1841.72 9.905)" fill="#ffd101"/>
    <path id="Path_26695" data-name="Path 26695" d="M2424.188.795v.8a4.6,4.6,0,1,1-4.6,4.6,4.6,4.6,0,0,1,4.6-4.6V0a6.187,6.187,0,1,0,6.187,6.187A6.189,6.189,0,0,0,2424.188,0Z" transform="translate(-2129.384 42)" fill="#ffd101"/>
    <path id="Path_26696" data-name="Path 26696" d="M2105,23.657v.795a2.3,2.3,0,1,1-2.3,2.3,2.3,2.3,0,0,1,2.3-2.3v-1.59a3.889,3.889,0,1,0,3.888,3.888A3.889,3.889,0,0,0,2105,22.862Z" transform="translate(-1933.394 27.86)" fill="#ffd101"/>
    <path id="Path_26697" data-name="Path 26697" d="M2504.464,467.949v.795a2.3,2.3,0,1,1-2.3,2.3,2.3,2.3,0,0,1,2.3-2.3v-1.59a3.89,3.89,0,1,0,3.888,3.89,3.89,3.89,0,0,0-3.888-3.89Z" transform="translate(-2180.457 -246.931)" fill="#ffd101"/>
    <path id="Path_26698" data-name="Path 26698" d="M1946.607,799.116v.8a2.3,2.3,0,1,1-2.3,2.3,2.306,2.306,0,0,1,2.3-2.3v-1.59a3.89,3.89,0,1,0,3.892,3.89,3.889,3.889,0,0,0-3.892-3.89Z" transform="translate(-1835.427 -451.755)" fill="#ffd101"/>
    <path id="Path_26699" data-name="Path 26699" d="M2367.944,6.82v.8a2.3,2.3,0,1,1-2.3,2.3,2.3,2.3,0,0,1,2.3-2.3V6.025a3.889,3.889,0,1,0,3.89,3.888,3.888,3.888,0,0,0-3.89-3.888Z" transform="translate(-2096.02 38.273)" fill="#ffd101"/>
    <path id="Path_26700" data-name="Path 26700" d="M2237.447,807.228v.795a2.3,2.3,0,1,1-2.3,2.3,2.3,2.3,0,0,1,2.3-2.3v-1.59a3.89,3.89,0,1,0,3.89,3.89,3.888,3.888,0,0,0-3.89-3.89Z" transform="translate(-2015.31 -456.772)" fill="#ffd101"/>
    <path id="Path_26701" data-name="Path 26701" d="M2158.03,824.244h9.926v-1.59h-9.926" transform="translate(-1968.595 -466.806)" fill="#ffd101"/>
    <path id="Path_26702" data-name="Path 26702" d="M2168.95,811.733v9.926h1.59v-9.926" transform="translate(-1975.349 -460.051)" fill="#ffd101"/>
    <path id="Path_26703" data-name="Path 26703" d="M1888.74,622.166l7.02,7.018,1.123-1.124-7.019-7.018" transform="translate(-1802.041 -342.109)" fill="#ffd101"/>
    <path id="Path_26704" data-name="Path 26704" d="M1895.76,621.042l-7.02,7.018,1.124,1.124,7.019-7.018" transform="translate(-1802.041 -342.109)" fill="#ffd101"/>
    <path id="Path_26705" data-name="Path 26705" d="M2423.55,815.195l7.02,7.018,1.124-1.124-7.019-7.018" transform="translate(-2132.817 -461.497)" fill="#ffd101"/>
    <path id="Path_26706" data-name="Path 26706" d="M2430.57,814.071l-7.02,7.018,1.125,1.124,7.019-7.018" transform="translate(-2132.817 -461.497)" fill="#ffd101"/>
    <path id="Path_26707" data-name="Path 26707" d="M2449.15,143.887l7.018,7.02,1.124-1.125-7.018-7.018" transform="translate(-2148.65 -46.298)" fill="#ffd101"/>
    <path id="Path_26708" data-name="Path 26708" d="M2456.172,142.763l-7.018,7.018,1.124,1.125,7.018-7.02" transform="translate(-2148.653 -46.298)" fill="#ffd101"/>
    <g id="Group_3236" data-name="Group 3236" transform="translate(124.82 222.073)">
      <path id="Path_26522" data-name="Path 26522" d="M393.662,553.524q-.048.7-.076,1.392a6.047,6.047,0,0,0,.014.974,1.144,1.144,0,0,1,.01.349q-.022.01-.078-.239a5.291,5.291,0,0,1-.08-1.014q-.007-.69.041-1.391t.134-1.24q.085-.538.212-.592a1.721,1.721,0,0,0-.078.522q-.05.539-.1,1.239m-.746,3.638c-.043-.09-.084-.176-.125-.259a3,3,0,0,1-.3-1.614,4.078,4.078,0,0,0,.193,1q.166.521.389,1.124a1.424,1.424,0,0,1-.157-.252m3.431-6.017q-.028-.125-.134-.08a.68.68,0,0,0-.247.281c-.094.158-.2.333-.307.523a6.386,6.386,0,0,0-.362,1.092q-.163.654-.349,1.357t-.417,1.359a4.511,4.511,0,0,1-.563,1.121,9.977,9.977,0,0,1-.122-2.875,30.742,30.742,0,0,1,.506-3.655,1.216,1.216,0,0,0,0-.515.82.82,0,0,0-.234-.42,1.059,1.059,0,0,0-.389-.244,1.325,1.325,0,0,0-.443-.073,1.1,1.1,0,0,0-.42.081c-.2.082-.3.2-.313.349q-.272,2.047-.386,3.931a11.4,11.4,0,0,0,.174,3.152,2.8,2.8,0,0,0,.626,1.288.939.939,0,0,0,1.16.193,1.43,1.43,0,0,0,.61-.664,8.47,8.47,0,0,0,.553-1.267q.259-.734.465-1.555t.344-1.532q.137-.711.2-1.228a2.894,2.894,0,0,0,.044-.617" transform="translate(-366.335 -518.959)" fill="#232323"/>
      <path id="Path_26523" data-name="Path 26523" d="M401.544,508.362a.812.812,0,0,1-.06-.2c-.011-.069-.022-.134-.033-.2a1.9,1.9,0,0,1,.169-1.163,2.591,2.591,0,0,0-.1.722q0,.385.024.836m.977-1.255a2.553,2.553,0,0,0-.106.432.184.184,0,0,1-.152.186.2.2,0,0,1,0-.079.145.145,0,0,0,.006-.053,1.368,1.368,0,0,1,.061-.3c.044-.168.1-.353.162-.552s.125-.377.186-.533.1-.238.134-.246a1.188,1.188,0,0,1-.043.26c-.032.138-.07.289-.115.448s-.091.308-.138.441m.434-1.331a1.913,1.913,0,0,0-.434-.185,2.441,2.441,0,0,0-.493-.093.862.862,0,0,0-.393.043c-.1.041-.183.191-.256.446a5.462,5.462,0,0,0-.162.859,8.644,8.644,0,0,0-.059.909,3.087,3.087,0,0,0,.029.587.468.468,0,0,0,.163.257.847.847,0,0,0,.29.164,1.2,1.2,0,0,0,.336.063.643.643,0,0,0,.28-.036.274.274,0,0,0,.151-.144q.237-.888.38-1.425a9.941,9.941,0,0,1,.378-1.124.128.128,0,0,0,0-.084.414.414,0,0,0-.214-.236" transform="translate(-374.481 -479.665)" fill="#232323"/>
      <path id="Path_26524" data-name="Path 26524" d="M427.538,531.159q.515-.166.959-.291a3.945,3.945,0,0,1,.853-.147,2.949,2.949,0,0,0-1.375.23l-.221.093a1.361,1.361,0,0,0-.216.116m2.323-.827a5.04,5.04,0,0,0-2.525.442l-.41.172a2.761,2.761,0,0,0-.421.226,12.731,12.731,0,0,1,3.357-.84m-2.548-6.154a5.134,5.134,0,0,0,.811-.489,3.968,3.968,0,0,1-.527.27l-.536.225c-.182.077-.38.156-.592.236s-.374.145-.486.192l.1.055a1.924,1.924,0,0,0,.4-.069q.231-.1.826-.421m1.945-1.832a.607.607,0,0,1,.658.11,1.053,1.053,0,0,1,.421.63.573.573,0,0,1-.05.393q-.354.67-.857,1.552t-1.026,1.821l-1.04,1.865q-.515.924-.913,1.712.336-.141.817-.306t1.022-.318q.54-.154,1.076-.281a6.269,6.269,0,0,1,.99-.157,2.441,2.441,0,0,1,.746.042.408.408,0,0,1,.343.3,1.626,1.626,0,0,1,.021.494,2.888,2.888,0,0,1-.1.559,2.623,2.623,0,0,1-.182.469.515.515,0,0,1-.229.256.107.107,0,0,1-.095-.01,3.775,3.775,0,0,0-.886-.1,7.07,7.07,0,0,0-1.109.083,12.087,12.087,0,0,0-1.19.239,7.866,7.866,0,0,0-1.1.365,2.971,2.971,0,0,0-.574.315,2.627,2.627,0,0,1-.489.279.314.314,0,0,1-.279-.006.83.83,0,0,1-.24-.2,1.17,1.17,0,0,1-.185-.305,2.075,2.075,0,0,1-.111-.337.708.708,0,0,1-.025-.312,7.308,7.308,0,0,1,.507-1.424q.356-.767.792-1.582t.9-1.653q.466-.839.869-1.6a2.109,2.109,0,0,1,.143-.234c.063-.092.091-.153.085-.185a.773.773,0,0,1-.163.094l-.421.177q-.3.124-.645.259l-.656.251c-.205.078-.386.142-.544.191a.781.781,0,0,1-.262.061q-.1.485-.256,1.209t-.34,1.392q-.182.67-.355,1.175t-.321.568a.178.178,0,0,1-.225-.029.457.457,0,0,1-.1-.2,1.788,1.788,0,0,1,.04-.586c.051-.285.12-.619.211-1s.182-.786.278-1.206.171-.822.222-1.206q-.325-.012-.443-.531a2.517,2.517,0,0,1,.036-1.265,1.089,1.089,0,0,1,.515-.773.829.829,0,0,1,.635,0,.609.609,0,0,1,.412.446.122.122,0,0,1,0,.049.167.167,0,0,0,.005.072,8.767,8.767,0,0,0,1.917-.583,7.079,7.079,0,0,0,1.757-1.036" transform="translate(-394.8 -494.827)" fill="#232323"/>
      <path id="Path_26525" data-name="Path 26525" d="M481.631,492.446a2.654,2.654,0,0,1,.433-.2l.419-.15a5.041,5.041,0,0,1,2.545-.3,12.69,12.69,0,0,0-3.4.658m2.006-.2q-.45.1-.974.239a1.259,1.259,0,0,1,.222-.1l.226-.081a2.964,2.964,0,0,1,1.387-.156,4.07,4.07,0,0,0-.86.1M483,485.566a7.813,7.813,0,0,1-1.164.406,2.047,2.047,0,0,1-.562.03.21.21,0,0,1-.121-.093c.148-.046.415-.148.692-.224s.483-.11.722-.185l.706-.221a4.709,4.709,0,0,0,.7-.285,5.583,5.583,0,0,1-.974.572m3.644,5.681a.409.409,0,0,0-.327-.315,2.465,2.465,0,0,0-.743-.082,6.138,6.138,0,0,0-1,.1q-.542.1-1.09.221t-1.038.263q-.488.14-.832.262.438-.764,1.005-1.659l1.138-1.806q.574-.911,1.124-1.763t.939-1.5a.564.564,0,0,0,.071-.39,1.052,1.052,0,0,0-.385-.652q-.317-.263-.489-.2a8.346,8.346,0,0,1-1.973,1,8.759,8.759,0,0,1-1.946.478.791.791,0,0,0-.009-.2.679.679,0,0,0-.442-.484.892.892,0,0,0-1.223.793,3.448,3.448,0,0,0-.006,1.264q.089.525.413.554a5.77,5.77,0,0,1-.286,1.193c-.11.381-.214.742-.316,1.092a.225.225,0,0,0,.373.138,5.055,5.055,0,0,0,.839-1.532,4.691,4.691,0,0,0,.293-.958c.064-.009.119-.02.219-.043.161-.037.345-.095.554-.162l.669-.215q.356-.115.657-.223l.429-.153a.771.771,0,0,0,.168-.085c.005.031-.026.091-.1.179a2.266,2.266,0,0,0-.155.225q-.444.74-.955,1.552t-.992,1.6q-.479.789-.877,1.536a7.356,7.356,0,0,0-.583,1.4.714.714,0,0,0,.008.312,2.117,2.117,0,0,0,.092.342,1.165,1.165,0,0,0,.168.315.8.8,0,0,0,.229.209.311.311,0,0,0,.277.022,2.576,2.576,0,0,0,.5-.253,3.01,3.01,0,0,1,.589-.283,7.868,7.868,0,0,1,1.121-.3,11.773,11.773,0,0,1,1.2-.175,7.119,7.119,0,0,1,1.113-.022,3.743,3.743,0,0,1,.88.146.107.107,0,0,0,.094.015.513.513,0,0,0,.244-.243,2.691,2.691,0,0,0,.206-.458,2.9,2.9,0,0,0,.134-.553,1.637,1.637,0,0,0,.006-.495" transform="translate(-444.973 -460)" fill="#232323"/>
      <path id="Path_26526" data-name="Path 26526" d="M552.636,473.339a3.535,3.535,0,0,0,.988-2.557,5.268,5.268,0,0,1-.988,2.557m.71-3.257a.161.161,0,0,0-.141-.023c-.144.051-.3.248-.459.588a9.659,9.659,0,0,0-.445,1.128q-.2.618-.337,1.163a3.861,3.861,0,0,0-.134.689.352.352,0,0,0,.155-.031,1.358,1.358,0,0,0,.674-.592,4.8,4.8,0,0,0,.472-.98,5.654,5.654,0,0,0,.257-1.025,2.592,2.592,0,0,0,.031-.75.374.374,0,0,0-.073-.168m-2,2.169a1.955,1.955,0,0,0,.181-.344q.159-.335.328-.747c.114-.274.258-.645.438-1.113a1.563,1.563,0,0,0-.18.282q-.158.275-.335.641t-.32.732a1.14,1.14,0,0,0-.112.548m-.6.287c.038-.127.113-.319.221-.576l.325-.77c.107-.257.2-.484.282-.681a1.283,1.283,0,0,0,.112-.344,7.345,7.345,0,0,0-.915,1.915,3.353,3.353,0,0,0-.2,1.173c.029-.01.051-.106.065-.289a1.014,1.014,0,0,1,.109-.427m4.816-1.359a2.169,2.169,0,0,1,.61-.7c.042-.015.07.007.08.068a2.007,2.007,0,0,1-.123.746l-.176.572q-.231.785-.49,1.6a11.009,11.009,0,0,1-.615,1.54,5.813,5.813,0,0,1-.833,1.266,2.7,2.7,0,0,1-1.142.784,2.518,2.518,0,0,1-.986.159,2.164,2.164,0,0,1-.844-.207,1.763,1.763,0,0,1-.62-.493,1.571,1.571,0,0,1-.317-.723,6.275,6.275,0,0,1,.03-1.961,11.058,11.058,0,0,1,.577-2.229,8.743,8.743,0,0,1,1-1.944,2.775,2.775,0,0,1,1.283-1.1,1.282,1.282,0,0,1,1.109.064,1.156,1.156,0,0,1,.6.852,3.025,3.025,0,0,1-.11,1.311,6.67,6.67,0,0,1-.591,1.435,6.357,6.357,0,0,1-.89,1.238,2.579,2.579,0,0,1-.979.714.848.848,0,0,1-.358.056,2.8,2.8,0,0,0-.01.343,2.616,2.616,0,0,0,.033.327,1.217,1.217,0,0,0,.35.71q.271.256.851.048a1.875,1.875,0,0,0,.912-.8,8.9,8.9,0,0,0,.705-1.342q.308-.729.538-1.392a4.826,4.826,0,0,1,.408-.945" transform="translate(-508.903 -446.233)" fill="#232323"/>
      <path id="Path_26527" data-name="Path 26527" d="M609.115,448.141a2.5,2.5,0,0,0,0,.776,1.523,1.523,0,0,0,.355.745,3.874,3.874,0,0,1-.2-.68q-.077-.385-.155-.841m-3.027,2.293a12.293,12.293,0,0,1,.5-3.329,6.345,6.345,0,0,0-.5,3.329m4.385-4.886a.556.556,0,0,1,.292.38,1.39,1.39,0,0,1-.066.617q-.108.365-.234.834a8.05,8.05,0,0,0-.2,1.041,4.269,4.269,0,0,0,.043,1.256c.015.091.034.181.058.27s.05.185.082.285a.345.345,0,0,1-.246.427.647.647,0,0,1-.8-.306,3.821,3.821,0,0,1-.507-1.5l-.04-.24a1.627,1.627,0,0,1-.023-.27q-.526,1.594-.924,3.14a12.614,12.614,0,0,0-.423,2.864.423.423,0,0,1-.293.42.825.825,0,0,1-1.013-.195,2.722,2.722,0,0,1-.487-1.255,9.9,9.9,0,0,1-.116-1.884q.024-1.063.129-2.045t.244-1.71a4.878,4.878,0,0,1,.222-.9.55.55,0,0,1,.363-.275,1.279,1.279,0,0,1,.409-.074,1.632,1.632,0,0,1,.417.045.938.938,0,0,1,.345.154.5.5,0,0,1,.181.457q-.163.908-.393,2.1a11.985,11.985,0,0,0-.225,2.285,6.839,6.839,0,0,1,.128-.785c.071-.34.163-.72.274-1.139s.243-.845.4-1.281a11.7,11.7,0,0,1,.509-1.223,5.858,5.858,0,0,1,.595-.988,1.532,1.532,0,0,1,.682-.546.741.741,0,0,1,.623.044" transform="translate(-559.039 -425.459)" fill="#232323"/>
      <path id="Path_26528" data-name="Path 26528" d="M661.271,398.906a.128.128,0,0,1,0,.05.164.164,0,0,0,0,.072c.071-.025.112-.1.122-.225a.635.635,0,0,1,.017-.164.569.569,0,0,0,.081-.2q.058-.191.111-.415c.034-.149.064-.289.087-.419a1.059,1.059,0,0,0,.028-.24c-.029.01-.069.089-.119.236s-.1.314-.154.5-.094.361-.128.518a1.227,1.227,0,0,0-.043.282m.921.858a.294.294,0,0,1-.16.13.717.717,0,0,1-.281.027,1.272,1.272,0,0,1-.329-.063.821.821,0,0,1-.277-.156.4.4,0,0,1-.144-.24,2.54,2.54,0,0,1,.012-.536,7.272,7.272,0,0,1,.12-.831,4.788,4.788,0,0,1,.22-.781c.089-.233.184-.368.284-.4a.947.947,0,0,1,.394-.032,2.381,2.381,0,0,1,.482.094,1.858,1.858,0,0,1,.419.177c.118.071.184.145.2.221a.113.113,0,0,1-.01.076,9.014,9.014,0,0,0-.452,1.022q-.18.487-.474,1.3m-1.2,7.26a5.235,5.235,0,0,1,.053-.891c.049-.421.107-.845.17-1.272s.125-.8.183-1.131a1.571,1.571,0,0,1,.113-.476q-.129.046-.25.538t-.217,1.131q-.1.64-.136,1.272a4.463,4.463,0,0,0,.01.929q.039.228.061.22a.962.962,0,0,0,.013-.32m2.32-3.64q.183-.258.34-.472a.706.706,0,0,1,.265-.252c.072-.026.114,0,.127.075a2.465,2.465,0,0,1-.087.564q-.1.472-.287,1.12t-.446,1.394q-.26.747-.568,1.415a7.9,7.9,0,0,1-.635,1.148,1.471,1.471,0,0,1-.651.6.966.966,0,0,1-1.139-.2,2.338,2.338,0,0,1-.533-1.191,9.6,9.6,0,0,1,.043-2.886q.242-1.721.654-3.588c.022-.137.133-.241.334-.313a1.211,1.211,0,0,1,.421-.066,1.385,1.385,0,0,1,.434.076,1,1,0,0,1,.37.23.692.692,0,0,1,.2.388,1.026,1.026,0,0,1-.034.472,26.787,26.787,0,0,0-.752,3.334,8.4,8.4,0,0,0-.076,2.63,4.337,4.337,0,0,0,.636-1.015q.276-.594.507-1.235t.439-1.235a5.87,5.87,0,0,1,.435-.991" transform="translate(-607.826 -381.594)" fill="#232323"/>
      <path id="Path_26529" data-name="Path 26529" d="M702.914,423.037a9.4,9.4,0,0,1,2.723-2.209,6.288,6.288,0,0,0-2.723,2.209m-2.884-1.683c0,.032.015-.021.031-.156s.032-.3.052-.491.034-.376.044-.549a2.088,2.088,0,0,0,0-.327q-.107.038-.163.579t-.081,1.192q-.026.651-.021,1.218c0,.378.01.59.018.636q.015-.442.039-.838c.007-.228.017-.457.031-.688s.031-.423.051-.576m-1.025.27a.665.665,0,0,1-.175-.095.274.274,0,0,1-.123-.186,2.537,2.537,0,0,1,0-.35c.006-.188.016-.4.03-.628s.02-.463.018-.7a3.72,3.72,0,0,0-.042-.578c-.036-.213-.1-.3-.183-.274-.115.041-.232.2-.352.477a8.178,8.178,0,0,0-.349,1.022q-.17.6-.323,1.314t-.256,1.364q-.106.656-.152,1.181a3.238,3.238,0,0,0-.008.753c.02.122.052.176.095.161.085-.031.223-.206.412-.523s.383-.67.583-1.056.379-.761.537-1.124a6.118,6.118,0,0,0,.292-.759m-1.643-2.561a.223.223,0,0,0,.024-.057.244.244,0,0,1,.025-.057l.017-.031a.717.717,0,0,0-.291.3,4.8,4.8,0,0,0-.3.557,4.2,4.2,0,0,0-.227.6,1.111,1.111,0,0,0-.06.457q.177-.3.349-.633a6.381,6.381,0,0,0,.468-1.136m-1.118,1.731c.041-.111.1-.278.177-.5s.155-.443.239-.668.163-.421.24-.594.13-.264.158-.274a2.478,2.478,0,0,0-.481.718,4.652,4.652,0,0,0-.292.831,6.17,6.17,0,0,0-.138.728,2.123,2.123,0,0,0-.025.384c.014-.005.026-.066.037-.183a2.8,2.8,0,0,1,.084-.443m8.993-.576a2.291,2.291,0,0,1,1.18.038.779.779,0,0,1,.552.627.681.681,0,0,1-.129.446.747.747,0,0,1-.375.34c-.115.041-.181.009-.2-.1a1.144,1.144,0,0,1-.013-.274,1,1,0,0,0-.009-.251q-.047-.274-.347-.167a6.445,6.445,0,0,0-1.933,1.429,16.426,16.426,0,0,0-1.421,1.756q-.6.87-1.035,1.545a1.893,1.893,0,0,1-.8.806.676.676,0,0,1-.6-.051,1.45,1.45,0,0,1-.482-.494,3.913,3.913,0,0,1-.351-.722,4.133,4.133,0,0,1-.206-.737c-.008-.046-.016-.1-.025-.149a.522.522,0,0,1,0-.156,10.167,10.167,0,0,1-.762,1.278,2.709,2.709,0,0,1-1.026.935.992.992,0,0,1-.726.018,1.481,1.481,0,0,1-.557-.394,2.043,2.043,0,0,1-.376-.6,2.858,2.858,0,0,1-.181-.59,8.146,8.146,0,0,1-.055-2.123,10.918,10.918,0,0,1,.44-2.228,7.248,7.248,0,0,1,.857-1.857,2.451,2.451,0,0,1,1.17-1.023,1.661,1.661,0,0,1,.6-.093,1.426,1.426,0,0,1,.606.147,1.668,1.668,0,0,1,.527.417,2.055,2.055,0,0,1,.383.711,1.715,1.715,0,0,1,.706.2.744.744,0,0,1,.447.554.887.887,0,0,1,0,.243q-.079.343-.165.907c-.057.376-.106.776-.147,1.2s-.07.86-.086,1.3a7.2,7.2,0,0,0,.04,1.173,10.32,10.32,0,0,1,.785-1.213,11.453,11.453,0,0,1,.977-1.149,8.151,8.151,0,0,1,1.1-.951,4.777,4.777,0,0,1,1.159-.62q.107-.038.238-.073a2.392,2.392,0,0,1,.242-.051" transform="translate(-640.065 -400.15)" fill="#232323"/>
      <path id="Path_26530" data-name="Path 26530" d="M841.069,241.182a.839.839,0,0,0,.245-.132.882.882,0,0,0,.17-.183.423.423,0,0,0,.072-.268.031.031,0,0,0-.019-.027.163.163,0,0,0-.086,0c-.028.007-.065.017-.111.033a1.826,1.826,0,0,0-.17.071Zm.383.327a.175.175,0,0,0,.056.116.778.778,0,0,0,.24.166.166.166,0,0,0,.073.02.6.6,0,0,1-.326.255.31.31,0,0,1-.219-.028.591.591,0,0,1-.173-.136.787.787,0,0,1-.153-.225l-.134.56a.4.4,0,0,1-.135.073.136.136,0,0,1-.111-.016.232.232,0,0,1-.072-.077.254.254,0,0,1-.046-.123l.308-1.43a.194.194,0,0,1-.126-.079.247.247,0,0,1-.034-.117.323.323,0,0,1,.013-.091.4.4,0,0,1,.016-.047.673.673,0,0,0,.162,0c.051-.007.1-.018.161-.03l.341-.072a1.218,1.218,0,0,1,.188-.022.4.4,0,0,1,.19.039.353.353,0,0,1,.146.155.724.724,0,0,1,.067.315.7.7,0,0,1-.061.323,1.245,1.245,0,0,1-.372.478m.659.276a2.39,2.39,0,0,0,.232-.576,1.788,1.788,0,0,0,.056-.468,1.145,1.145,0,0,0-.13-.527,1.865,1.865,0,0,0-.233-.335c-.138-.019-.277-.03-.42-.035a1.706,1.706,0,0,0-.417.036,1.406,1.406,0,0,0-.488.211,1.467,1.467,0,0,0-.427.48,2.418,2.418,0,0,0-.286.61,1.638,1.638,0,0,0-.068.484,1.177,1.177,0,0,0,.059.342,1.66,1.66,0,0,0,.12.267,1.283,1.283,0,0,0,.14.2,1.034,1.034,0,0,1,.107.146c.091.01.2.021.33.031a1.4,1.4,0,0,0,.414-.03,1.477,1.477,0,0,0,.517-.234,1.739,1.739,0,0,0,.5-.6m.032-2.044a2,2,0,0,1,.276.34,2.967,2.967,0,0,1,.192.389,1.408,1.408,0,0,1,.1.5,1.509,1.509,0,0,1-.093.525,2.232,2.232,0,0,1-.295.572,2.374,2.374,0,0,1-.468.494,1.457,1.457,0,0,1-.612.289,1.624,1.624,0,0,1-.591.02,1.215,1.215,0,0,1-.514-.206,1.193,1.193,0,0,1-.368-.426,1.469,1.469,0,0,1-.155-.646,1.694,1.694,0,0,1,.04-.42,2.339,2.339,0,0,1,.167-.474,1.86,1.86,0,0,1,.274-.435,1.8,1.8,0,0,1,.33-.3,1.708,1.708,0,0,1,.355-.191,2.466,2.466,0,0,1,.358-.107c.079-.017.155-.03.229-.039s.144-.016.212-.019a.949.949,0,0,1,.2.012c.057.011.117.027.181.046a.8.8,0,0,1,.182.081" transform="translate(-770.35 -239.6)" fill="#232323"/>
      <path id="Path_26531" data-name="Path 26531" d="M273.172,520.284a8.666,8.666,0,0,0,2.745-4.312,14.05,14.05,0,0,1-2.745,4.312m2.552-4.893a6.716,6.716,0,0,0,.2-1.533,8.9,8.9,0,0,0-.135-1.549,1.809,1.809,0,0,0-.1-.358c-.041-.1-.1-.141-.173-.115a.69.69,0,0,0-.311.314c-.1.173-.173.292-.208.359a11.87,11.87,0,0,0-.767,1.71q-.353.965-.663,2.037T273,518.45q-.256,1.121-.463,2.115.96-1.129,1.87-2.415a8.832,8.832,0,0,0,1.316-2.759m-5.287,9.12q.072-1.65.223-3.519t.353-4a32.339,32.339,0,0,0-.576,7.517m-2.7-2.337a1.738,1.738,0,0,1-.532-1.055,7.063,7.063,0,0,1,.1-2.42,5.685,5.685,0,0,0-.335,2.448,1.284,1.284,0,0,0,.762,1.027m9.926-9.777a1.787,1.787,0,0,1,.114.393c.024.137.047.272.07.409a7.82,7.82,0,0,1,.107,1.384,9.029,9.029,0,0,1-.124,1.411,5.357,5.357,0,0,1-.721,1.774,14.9,14.9,0,0,1-1.387,1.931,17.762,17.762,0,0,1-1.77,1.824,15.876,15.876,0,0,1-1.869,1.453q-.031,1.339.019,2.526c.033.792.268,2.325.378,2.971q.048.281.116.541c.045.174.082.345.112.515q.039.229-.138.293a1.006,1.006,0,0,1-.649-.079,6.116,6.116,0,0,1-.842-.39.92.92,0,0,1-.415-.5,4.458,4.458,0,0,1-.259-.964,25.177,25.177,0,0,1-.332-2.974q-.016-1.266.072-2.68t.228-2.87q.139-1.458.311-2.725c.115-.843.223-1.592.323-2.241s.187-1.132.259-1.447a5.5,5.5,0,0,0-1.127,1.595,14.359,14.359,0,0,0-.908,2.261,15.557,15.557,0,0,0-.538,2.359,6.331,6.331,0,0,0-.037,1.922,1.251,1.251,0,0,0,.308.7.772.772,0,0,1,.247.345c.021.119-.066.213-.258.282a1.806,1.806,0,0,1-.665.1,1.722,1.722,0,0,1-.659-.143,1.532,1.532,0,0,1-.539-.4,1.353,1.353,0,0,1-.3-.676,4.534,4.534,0,0,1,.031-1.406,11.174,11.174,0,0,1,.434-1.794,19,19,0,0,1,.743-1.917,13.531,13.531,0,0,1,.955-1.777A9.386,9.386,0,0,1,270.037,513a3.043,3.043,0,0,1,1.145-.8,1.289,1.289,0,0,1,.445-.078,1.77,1.77,0,0,0,.246-.006.53.53,0,0,0,.1-.049.582.582,0,0,1,.1-.048c-.015.005.028,0,.128-.005a.351.351,0,0,1,.2.021,1.954,1.954,0,0,1,.017.306,2.912,2.912,0,0,1-.064.524c-.006.056-.03.172-.07.349s-.079.363-.117.556-.083.455-.137.78a17.771,17.771,0,0,0,.41-1.866,3.119,3.119,0,0,1,.093-.561c0,.017.049.036.139.059s.151.127.183.314a.951.951,0,0,1,.011.131.814.814,0,0,0,.011.132q-.049.829-.174,1.809t-.228,2.316q.259-.959.6-1.976a17.911,17.911,0,0,1,.75-1.88,8.659,8.659,0,0,1,.874-1.491,2.225,2.225,0,0,1,.979-.81.985.985,0,0,1,.691-.016,1.456,1.456,0,0,1,.559.382,2.682,2.682,0,0,1,.423.621c.118.237.221.467.305.689" transform="translate(-253.124 -484.32)" fill="#232323"/>
      <path id="Path_26532" data-name="Path 26532" d="M134.878,363.238a16.892,16.892,0,0,0,1.548-1.463,6.071,6.071,0,0,1-1.548,1.463m-6.437-1.558a17.781,17.781,0,0,1,8.127-5.649,23.932,23.932,0,0,0-8.127,5.649m7.49,7.285a9.552,9.552,0,0,1-6.585,5.294,10.944,10.944,0,0,0,6.585-5.294m4-12.709a2.087,2.087,0,0,0-.286-.4,1.569,1.569,0,0,0-1.546-.44,17.879,17.879,0,0,0-2.886.893,18.291,18.291,0,0,0-2.892,1.464,16.063,16.063,0,0,0-2.588,2,10.376,10.376,0,0,0-1.95,2.485,4.655,4.655,0,0,0-.433.969,2.9,2.9,0,0,0-.147.986,1.648,1.648,0,0,0,.359.986,3.831,3.831,0,0,0,.818.769,5.516,5.516,0,0,0,1.045.574q.566.238,1.039.4.446.171,1.037.351c.393.121.769.248,1.128.384a5.5,5.5,0,0,1,.909.43q.372.226.381.49a5.308,5.308,0,0,1-2.039,2.517,9.071,9.071,0,0,1-3.018,1.212,2.468,2.468,0,0,1-.452.051.939.939,0,0,1-.457-.1,1.557,1.557,0,0,1,.267-.176q.19-.106.394-.2t.37-.185a1.093,1.093,0,0,1,.242-.1,30.765,30.765,0,0,1,2.944-1.1.807.807,0,0,0,.389-.361.937.937,0,0,0,.176-.528c-.007-.193-.122-.266-.345-.218q-.8.222-1.822.546a13.5,13.5,0,0,0-1.918.765,6.323,6.323,0,0,0-1.508,1.01,1.6,1.6,0,0,0-.592,1.252,1.089,1.089,0,0,0,.419.865,2.861,2.861,0,0,0,.937.476,4.092,4.092,0,0,0,1.1.178,4.015,4.015,0,0,0,.919-.063,7.491,7.491,0,0,0,2.1-.817,10.492,10.492,0,0,0,1.973-1.426,9.152,9.152,0,0,0,1.556-1.854,5.88,5.88,0,0,0,.847-2.1,1.091,1.091,0,0,0,.041-.327,1.425,1.425,0,0,0-.355-.878,3.852,3.852,0,0,0-.8-.717,7.616,7.616,0,0,0-.966-.549q-.5-.238-.844-.4l-.973-.4q-.552-.226-1.041-.468a3.9,3.9,0,0,1-.823-.527.85.85,0,0,1-.345-.6.5.5,0,0,1,.1-.206,12.785,12.785,0,0,1,1.471-1.7,22.072,22.072,0,0,1,1.925-1.694,16.722,16.722,0,0,1,2.078-1.4,8.663,8.663,0,0,1,1.93-.834,7.456,7.456,0,0,1-.618,1.257,4.723,4.723,0,0,1-.883,1.075,1.868,1.868,0,0,1-.21-.074.348.348,0,0,0-.208-.021q-.077.016-.3.328c-.149.209-.3.449-.468.722s-.331.552-.5.836-.306.515-.4.695a1.19,1.19,0,0,0-.185.648.909.909,0,0,0,.269.645.615.615,0,0,0,.59.18.574.574,0,0,0,.305-.171,15.325,15.325,0,0,0,1.426-1.495q.673-.806,1.318-1.632.248-.318.632-.837t.715-1.053a11.239,11.239,0,0,0,.574-1.036,1.9,1.9,0,0,0,.229-.844,1.065,1.065,0,0,0-.134-.488" transform="translate(-126.552 -344.121)" fill="#232323"/>
      <path id="Path_26533" data-name="Path 26533" d="M243.879,418.183q.133-.545.23-1.005a3.176,3.176,0,0,0,.092-.614c0-.017,0-.026.013-.028s.012-.011.011-.028v-.026c-.017,0-.045.032-.085.083a.749.749,0,0,0-.1.293q-.194.972-.344,1.752-.128.675-.236,1.226a2.251,2.251,0,0,0-.08.6c.042-.232.119-.571.229-1.017s.2-.857.273-1.233m-2.584-3.067a1.754,1.754,0,0,0-.342.357,6.358,6.358,0,0,0-.483.646.709.709,0,0,1-.082.172q-.084.147-.167.319c-.055.115-.105.22-.153.316s-.063.143-.046.139q-.075.016.323-.521a15.025,15.025,0,0,0,.852-1.3l.1-.124Zm1.1,2.658a3.205,3.205,0,0,0,.122-.491c.035-.2.069-.406.1-.629a6.447,6.447,0,0,0,.065-.646c.009-.209.012-.39.007-.544-.009-.238-.064-.348-.163-.327-.134.028-.289.187-.464.473a9.06,9.06,0,0,0-.543,1.071q-.282.641-.558,1.41t-.492,1.474q-.216.7-.347,1.275a3.644,3.644,0,0,0-.123.827c0,.12.032.174.082.163a2.1,2.1,0,0,0,.525-.512q.426-.49.871-1.115t.806-1.192a1.99,1.99,0,0,0,.353-.721.747.747,0,0,1-.181-.129.3.3,0,0,1-.108-.222.445.445,0,0,1,.045-.164M239.717,417c.063-.133.152-.32.271-.561s.24-.478.367-.711.241-.439.345-.616.171-.269.205-.276l-.448.573a6.118,6.118,0,0,0-.469.693,5.023,5.023,0,0,0-.365.775,2.527,2.527,0,0,0-.162.8,1.94,1.94,0,0,0,.116-.3c.061-.176.107-.3.139-.378m7.058-.57a6.589,6.589,0,0,1,.451-.483.818.818,0,0,1,.333-.226c.084-.017.128.016.13.1a2.617,2.617,0,0,1-.149.445q-.15.394-.382.986t-.549,1.3q-.316.713-.634,1.387t-.64,1.221a5.016,5.016,0,0,1-.59.836,1.457,1.457,0,0,1-.345.254,1.327,1.327,0,0,1-.324.121,1.375,1.375,0,0,1-.455.019l-.1-.03a1.106,1.106,0,0,1-.8-.411,2.205,2.205,0,0,1-.412-.933,11.492,11.492,0,0,1-1.042,1.293,3.076,3.076,0,0,1-1.284.88,1.138,1.138,0,0,1-.812-.086,1.65,1.65,0,0,1-.561-.514,2.219,2.219,0,0,1-.328-.718,3.1,3.1,0,0,1-.112-.673,8.97,8.97,0,0,1,.259-2.367,11.6,11.6,0,0,1,.827-2.371,8.133,8.133,0,0,1,1.235-1.9,2.78,2.78,0,0,1,1.459-.956,1.9,1.9,0,0,1,.682-.015,1.613,1.613,0,0,1,.654.248,1.873,1.873,0,0,1,.524.534,2.223,2.223,0,0,1,.319.836,1.922,1.922,0,0,1,.757.317.819.819,0,0,1,.416.673.962.962,0,0,1-.041.267,15.609,15.609,0,0,0-.767,2.307,7.9,7.9,0,0,0-.265,2.174,6.338,6.338,0,0,0,.735-1.06q.344-.616.637-1.26t.589-1.236a5.773,5.773,0,0,1,.585-.964" transform="translate(-227.323 -396.669)" fill="#232323"/>
      <path id="Path_26534" data-name="Path 26534" d="M326.329,394.4a7.568,7.568,0,0,0,2.208-3.362,10.769,10.769,0,0,1-2.208,3.362m-2.308-1.679a.107.107,0,0,1,.01-.067.059.059,0,0,0,.012-.041v-.026q-.182.633-.279,1.066c-.066.29-.127.578-.185.866a3.124,3.124,0,0,0-.076.688,2.165,2.165,0,0,0,.1.561c.056.186.1.276.136.268a1.457,1.457,0,0,0-.044-.184,1.679,1.679,0,0,1-.052-.389,3.79,3.79,0,0,1,.041-.667q.05-.36.114-.735t.126-.724c.043-.233.077-.438.105-.616m4.36-3.277a.789.789,0,0,1,.6.416,2.039,2.039,0,0,1,.236.958,4.437,4.437,0,0,1-.419,1.78,11.568,11.568,0,0,1-1.166,2.108,10.121,10.121,0,0,1-1.654,1.862,4.179,4.179,0,0,1-1.86,1.016.967.967,0,0,1-1.051-.409,2.715,2.715,0,0,1-.351-1.359,9.426,9.426,0,0,1,.138-1.837q.166-1.018.411-1.961t.472-1.7c.151-.506.265-.861.342-1.067l.047-.113a9.363,9.363,0,0,0-.626.907q-.48.748-1.074,1.83t-1.181,2.369a20.175,20.175,0,0,0-.95,2.475.37.37,0,0,1-.318.326.75.75,0,0,1-.654-.274,2.074,2.074,0,0,1-.39-1.39,11.632,11.632,0,0,1,.359-2.737,28.366,28.366,0,0,1,1.56-4.542.47.47,0,0,1,.369-.311,1.105,1.105,0,0,1,.687.113,2.643,2.643,0,0,1,.646.4l-.12.181-.272.548q-.2.405-.4.873t-.359.916a2.018,2.018,0,0,0-.153.7.343.343,0,0,0,.031.149,5.239,5.239,0,0,1,.223-.848q.183-.555.417-1.109c.155-.369.3-.691.421-.968s.2-.418.238-.425a.673.673,0,0,1,.218.445,1.069,1.069,0,0,1-.112.4c-.078.18-.168.381-.27.6s-.2.439-.305.659-.185.405-.247.556c.254-.467.52-.92.8-1.358a11.977,11.977,0,0,1,.844-1.174,7.2,7.2,0,0,1,.817-.858,1.751,1.751,0,0,1,.769-.422,1.2,1.2,0,0,1,.954.172.944.944,0,0,1,.445.8,3.25,3.25,0,0,1-.135.468q-.138.416-.343,1.054t-.468,1.456q-.262.817-.486,1.64t-.4,1.608a11.04,11.04,0,0,0-.23,1.366,11.221,11.221,0,0,0,2.352-2.127,9.869,9.869,0,0,0,1.695-2.866.961.961,0,0,0,.043-.216.148.148,0,0,0-.144-.15,2.182,2.182,0,0,0-.317-.023c-.118,0-.224,0-.317-.01a.133.133,0,0,1-.144-.138.651.651,0,0,1,.275-.459,1.175,1.175,0,0,1,.508-.3" transform="translate(-300.24 -372.81)" fill="#232323"/>
      <path id="Path_26535" data-name="Path 26535" d="M570.5,331.012q.136-.558.236-1.031a3.288,3.288,0,0,0,.095-.629c0-.017,0-.027.012-.029s.012-.012.012-.029v-.026c-.017,0-.047.033-.087.085a.754.754,0,0,0-.106.3q-.2,1-.353,1.8-.131.691-.242,1.257a2.374,2.374,0,0,0-.083.614q.066-.358.236-1.043t.28-1.266m-2.652-3.146a1.8,1.8,0,0,0-.35.366,6.56,6.56,0,0,0-.5.662.673.673,0,0,1-.085.177c-.057.1-.113.21-.17.328s-.108.226-.157.324-.064.146-.046.143q-.078.016.331-.534a15.52,15.52,0,0,0,.874-1.338Zm1.133,2.728a3.384,3.384,0,0,0,.125-.5c.036-.2.072-.417.107-.646a6.218,6.218,0,0,0,.067-.664c.01-.214.012-.4.006-.558-.008-.245-.064-.357-.167-.336q-.206.044-.476.486a9.222,9.222,0,0,0-.557,1.1q-.29.658-.573,1.447t-.505,1.511q-.221.723-.355,1.309a3.7,3.7,0,0,0-.127.848c0,.123.033.178.084.168a2.188,2.188,0,0,0,.539-.525q.435-.5.894-1.144t.826-1.222a2.059,2.059,0,0,0,.364-.74.757.757,0,0,1-.186-.133.308.308,0,0,1-.112-.228.456.456,0,0,1,.046-.168m-2.751-.794q.1-.205.278-.576c.121-.247.247-.489.377-.73s.248-.45.354-.631.176-.276.21-.283l-.459.588a6.293,6.293,0,0,0-.481.711,5.075,5.075,0,0,0-.375.8,2.579,2.579,0,0,0-.166.817,1.962,1.962,0,0,0,.119-.3c.062-.181.111-.31.142-.388m7.241-.586a6.73,6.73,0,0,1,.463-.5.844.844,0,0,1,.342-.232q.128-.027.133.1a2.6,2.6,0,0,1-.153.456q-.154.4-.393,1.011T573.3,331.4q-.324.731-.65,1.423t-.657,1.252a5.132,5.132,0,0,1-.606.858,1.528,1.528,0,0,1-.354.261,1.36,1.36,0,0,1-.333.123,1.375,1.375,0,0,1-.465.02l-.106-.031a1.135,1.135,0,0,1-.818-.422,2.27,2.27,0,0,1-.423-.957,11.625,11.625,0,0,1-1.069,1.327,3.155,3.155,0,0,1-1.317.9,1.167,1.167,0,0,1-.833-.088,1.689,1.689,0,0,1-.576-.527,2.3,2.3,0,0,1-.338-.737,3.226,3.226,0,0,1-.115-.691,9.245,9.245,0,0,1,.265-2.428,11.934,11.934,0,0,1,.849-2.433,8.355,8.355,0,0,1,1.268-1.952,2.848,2.848,0,0,1,1.5-.981,1.962,1.962,0,0,1,.7-.016,1.679,1.679,0,0,1,.67.255,1.908,1.908,0,0,1,.538.548,2.3,2.3,0,0,1,.328.857,1.967,1.967,0,0,1,.776.325.842.842,0,0,1,.427.691.971.971,0,0,1-.042.274,16.031,16.031,0,0,0-.787,2.366,8.1,8.1,0,0,0-.272,2.231,6.38,6.38,0,0,0,.753-1.088q.354-.631.655-1.292t.6-1.268a5.992,5.992,0,0,1,.6-.989" transform="translate(-522.083 -317.859)" fill="#232323"/>
      <path id="Path_26536" data-name="Path 26536" d="M652.358,309.319a2.808,2.808,0,0,0-.125.874,1.709,1.709,0,0,0,.291.892,4.244,4.244,0,0,1-.119-.8q-.029-.443-.047-.97m-3.816,2.135a13.842,13.842,0,0,1,1.091-3.676,7.155,7.155,0,0,0-1.091,3.676m5.769-4.857a.63.63,0,0,1,.276.472,1.568,1.568,0,0,1-.171.686q-.18.4-.4.905a9.092,9.092,0,0,0-.389,1.143,4.806,4.806,0,0,0-.145,1.422c0,.105.011.21.024.312s.029.215.05.334a.4.4,0,0,1-.347.445.747.747,0,0,1-.872-.464,4.28,4.28,0,0,1-.347-1.768c0-.087-.006-.18-.009-.276A1.927,1.927,0,0,1,652,309.5q-.848,1.717-1.541,3.4a14.169,14.169,0,0,0-.927,3.164.486.486,0,0,1-.4.43.956.956,0,0,1-1.128-.37,3.058,3.058,0,0,1-.363-1.487,11.115,11.115,0,0,1,.159-2.14q.191-1.193.464-2.284t.544-1.891a5.5,5.5,0,0,1,.394-.985.64.64,0,0,1,.457-.256,1.515,1.515,0,0,1,.479-.023,1.9,1.9,0,0,1,.471.112,1.094,1.094,0,0,1,.371.226.491.491,0,0,1,.155.351.507.507,0,0,1-.019.189q-.329,1-.775,2.311a13.343,13.343,0,0,0-.612,2.542,7.572,7.572,0,0,1,.268-.866q.2-.558.489-1.242t.652-1.385a13.352,13.352,0,0,1,.772-1.3,6.78,6.78,0,0,1,.832-1.025,1.785,1.785,0,0,1,.863-.514.87.87,0,0,1,.706.141" transform="translate(-597.019 -299.942)" fill="#232323"/>
      <path id="Path_26537" data-name="Path 26537" d="M713.683,298.891q.049-.09.17-.3t.27-.468q.146-.255.294-.5a4.131,4.131,0,0,1,.271-.4,4.856,4.856,0,0,0-.523.615,3.082,3.082,0,0,0-.344.55,1.109,1.109,0,0,0-.138.506m-.581.441c.031-.095.062-.186.094-.272s.055-.147.071-.187a4.157,4.157,0,0,1,.3-.661q.23-.432.477-.843t.455-.719a1.8,1.8,0,0,1,.235-.315l-.225.234a7.419,7.419,0,0,0-1.133,1.737,3.387,3.387,0,0,0-.394,1.343c.017,0,.034-.025.05-.064l.069-.253m5.712-1.293a2.809,2.809,0,0,1,.805-.728c.051-.011.078.019.08.089a.835.835,0,0,1-.08.335c-.056.136-.123.309-.2.52l-.288.645q-.359.845-.783,1.716a12.926,12.926,0,0,1-.929,1.615,6.737,6.737,0,0,1-1.122,1.284,3.02,3.02,0,0,1-1.388.706,2.928,2.928,0,0,1-1.205.031,2.429,2.429,0,0,1-.935-.4,1.991,1.991,0,0,1-.621-.716,2.088,2.088,0,0,1-.24-.9,6.877,6.877,0,0,1,.328-2.124,12.178,12.178,0,0,1,.98-2.381,9.451,9.451,0,0,1,1.434-2.014,3.309,3.309,0,0,1,1.688-1.048,1.581,1.581,0,0,1,1.147.193,1.056,1.056,0,0,1,.577.924,2.657,2.657,0,0,1-.132.677,6.316,6.316,0,0,1-.392,1.024,5.6,5.6,0,0,1-.589.974,1.244,1.244,0,0,1-.695.519c-.206.044-.313-.031-.319-.225a.555.555,0,0,1,.07-.253,11.249,11.249,0,0,0,.428-1.084,2.419,2.419,0,0,0,.156-.762c-.007-.211-.08-.3-.217-.272q-.232.049-.541.485a9.472,9.472,0,0,0-.626,1.034q-.316.6-.579,1.223a7.649,7.649,0,0,0-.377,1.074,4.551,4.551,0,0,0-.187,1.337,1.509,1.509,0,0,0,.292.932.818.818,0,0,0,.863.2,2.319,2.319,0,0,0,1.257-.784,8.416,8.416,0,0,0,1-1.4q.44-.769.778-1.477a4.773,4.773,0,0,1,.563-.967" transform="translate(-655.042 -289.289)" fill="#232323"/>
      <path id="Path_26538" data-name="Path 26538" d="M782.322,276.373a1.242,1.242,0,0,1,.409.191,2.016,2.016,0,0,1,.4.353,3.556,3.556,0,0,1,.313.41.778.778,0,0,1,.144.394c.017.032.036.063.055.094s.028.038.027.02a1.231,1.231,0,0,0-.119-.438,2.309,2.309,0,0,0-.289-.482,1.65,1.65,0,0,0-.428-.386.935.935,0,0,0-.512-.157m-.619,6.014a6.634,6.634,0,0,0,.31-.782q.165-.484.3-1.044t.22-1.133a5.907,5.907,0,0,0,.067-1.048,1.971,1.971,0,0,0-.27-1.043.718.718,0,0,0-.813-.238,1.4,1.4,0,0,0-.687.372,2.434,2.434,0,0,0-.507.717,3.917,3.917,0,0,0-.3.926,4.3,4.3,0,0,0-.082,1,3.869,3.869,0,0,0,.12.849,2.176,2.176,0,0,0,.323.713,1.742,1.742,0,0,0,.549.506,1.577,1.577,0,0,0,.772.207m-1.883,1.8a.767.767,0,0,0,.233-.023,2.248,2.248,0,0,0,1.09-.709,2.778,2.778,0,0,1-1.108-.533,3.9,3.9,0,0,1-.891-1,4.015,4.015,0,0,0-.119,1.033,1.638,1.638,0,0,0,.223.827.878.878,0,0,0,.571.408m-1.961-3.452a.316.316,0,0,1,.009-.094.333.333,0,0,0,.01-.095.128.128,0,0,1,.023-.085c-.034.007-.074.078-.122.212a4.128,4.128,0,0,0-.138.506c-.045.2-.085.434-.119.688a4.457,4.457,0,0,0-.038.75,4.921,4.921,0,0,0,.094.828,1.874,1.874,0,0,0,.243.638,4.014,4.014,0,0,1-.2-1.256,7.738,7.738,0,0,1,.049-1.19,4.137,4.137,0,0,1,.19-.9m7.619-1.619q.25-.291.463-.5a.835.835,0,0,1,.342-.232c.086-.019.129.008.132.078a2.019,2.019,0,0,1-.186.6,16.552,16.552,0,0,1-1.428,2.569,4.06,4.06,0,0,1-1.8,1.483,6.939,6.939,0,0,1-1.343,1.637,3.583,3.583,0,0,1-1.63.85,2.535,2.535,0,0,1-1.3-.016,2.05,2.05,0,0,1-.915-.574,2.676,2.676,0,0,1-.552-.956,4.044,4.044,0,0,1-.209-1.162c0-.123.005-.354.027-.695a8.919,8.919,0,0,1,.133-1.035,6.354,6.354,0,0,1,.252-.955c.1-.287.222-.444.36-.474a1.183,1.183,0,0,1,.427,0,1.169,1.169,0,0,1,.461.18.717.717,0,0,1-.034-.192c0-.061,0-.118-.006-.17a3.525,3.525,0,0,1,.189-1.26,4.146,4.146,0,0,1,.6-1.147,4.2,4.2,0,0,1,.889-.891,2.769,2.769,0,0,1,1.072-.493,2.221,2.221,0,0,1,1.26.05,2.142,2.142,0,0,1,.89.619,2.773,2.773,0,0,1,.526.987,4.4,4.4,0,0,1,.2,1.151,6.963,6.963,0,0,1-.128,1.538,8.857,8.857,0,0,1-.463,1.582,3.149,3.149,0,0,0,.448-.533q.2-.293.393-.626t.417-.684q.222-.351.519-.734" transform="translate(-713.862 -272.197)" fill="#232323"/>
      <path id="Path_26539" data-name="Path 26539" d="M420.686,287.837a4.5,4.5,0,0,1-.292-1.675,37.9,37.9,0,0,1,.782-7.3,32.514,32.514,0,0,0-.969,7.124,3.215,3.215,0,0,0,.479,1.848m-.636-12.266a1.951,1.951,0,0,0,.134-.272.715.715,0,0,1,.084-.171q-.129.028-.445.612t-.739,1.5q-.423.913-.863,2.042t-.79,2.24q-.353,1.05-.541,1.608t-.295.84c-.072.188-.115.309-.131.363a.472.472,0,0,0-.021.112,1.537,1.537,0,0,0,.215-.533q.492-1.476.917-2.679t.844-2.206q.418-1,.817-1.85t.813-1.6m-4.138-.431c.079-.18.144-.321.192-.421a1.736,1.736,0,0,1,.121-.225c.032-.068.039-.11.021-.126a6.071,6.071,0,0,0-.391.677q-.366.672-.811,1.65t-.86,2.087a9.62,9.62,0,0,0-.54,1.989q.591-1.589,1.163-3.081a27.382,27.382,0,0,1,1.1-2.55m-3.287,7.646a5.361,5.361,0,0,0,.287-.731l.59-1.649q.33-.923.637-1.812t.451-1.193q.12-.3.369-.946t.525-1.286q.276-.636.531-1.133c.17-.33.306-.507.409-.529q-.154.033-.493.714t-.771,1.687q-.432,1.007-.871,2.167t-.818,2.185q-.379,1.025-.614,1.73a5.2,5.2,0,0,0-.232.8m-2.478,3.3a94.159,94.159,0,0,1,2.3-11.338q-1.091,3.677-1.667,6.5a29.024,29.024,0,0,0-.635,4.843m-1.735-5.679a2.82,2.82,0,0,1-.127-.971,7.718,7.718,0,0,1,.478-2.259,6.853,6.853,0,0,0-.66,2.316,1.158,1.158,0,0,0,.31.914m12.935-1.09q-.307,1.619-.542,3.421a20.451,20.451,0,0,0-.181,3.345c.008.222.025.452.05.69a3.811,3.811,0,0,0,.127.659,1.218,1.218,0,0,0,.26.481c.117.128.44.127.579.159a.651.651,0,0,1,.249.084.279.279,0,0,1,.125.232.605.605,0,0,1-.308.477,3.485,3.485,0,0,1-1.022.435,2.233,2.233,0,0,1-.8.019,1.434,1.434,0,0,1-.765-.386,2.387,2.387,0,0,1-.577-.929,5.034,5.034,0,0,1-.262-1.575,22.783,22.783,0,0,1,.056-2.464,26.283,26.283,0,0,1,.335-2.662q.239-1.345.58-2.7a22.277,22.277,0,0,1,.818-2.581l-.268.484q-.465.829-.932,1.9t-.895,2.232q-.426,1.157-.825,2.37t-.749,2.292l-.071.2-.155.033a1,1,0,0,1-1.12-.523,3.87,3.87,0,0,1-.326-1.546,14.2,14.2,0,0,1,.061-1.963q.1-.936.274-1.811t.407-1.716q.229-.842.459-1.713-.624,1.474-1.214,3.122t-1.167,3.356c-.383,1.138-.815,2.251-1.113,3.391-.357,1.366-.556,2.645-.846,4a2.945,2.945,0,0,1-.191.655.294.294,0,0,1-.2.135.783.783,0,0,1-.715-.215,2.414,2.414,0,0,1-.436-.624,5.962,5.962,0,0,1-.31-1.06,8.378,8.378,0,0,1-.123-1.335,17.15,17.15,0,0,1,.091-2.389q.149-1.281.4-2.63t.519-2.594q.267-1.245.472-2.081.228-.872.408-1.672t.387-1.545q.207-.745.465-1.517a14.3,14.3,0,0,1,.645-1.584,9,9,0,0,0-1.574,1.721,18.545,18.545,0,0,0-1.387,2.245,14.85,14.85,0,0,0-.983,2.3,5.542,5.542,0,0,0-.338,1.839,1.169,1.169,0,0,0,.263.828.279.279,0,0,1-.058.2.332.332,0,0,1-.267.11,3.663,3.663,0,0,1-1.06-.239,2.471,2.471,0,0,1-.757-.51,1.361,1.361,0,0,1-.371-.972,5.3,5.3,0,0,1,.632-2.313,17.213,17.213,0,0,1,1.679-2.795,15,15,0,0,1,2.235-2.456,5.288,5.288,0,0,1,2.276-1.292,3.429,3.429,0,0,1,.556-.057,4.717,4.717,0,0,1,.573-.012,1.964,1.964,0,0,1,.486.081q.235.072.24.223a3.533,3.533,0,0,1-.114.435c-.047.143-.115.314-.2.516s-.209.455-.363.762-.281.69-.493,1.185l.292-.549a19.176,19.176,0,0,0,.885-1.773,2.328,2.328,0,0,1,.2-.47,1.1,1.1,0,0,1,.082.12.62.62,0,0,1,.115.326,1.358,1.358,0,0,1-.054.316q-.058.226-.151.5c-.063.187-.1.3-.164.5s-.227.617-.291.753c-.222.537-.345.853-.516,1.377s-.343,1.079-.513,1.663-.372,1.2-.518,1.863a19.73,19.73,0,0,0-.334,2.172c.127-.289.171-.454.317-.834.064-.167.181-.45.184-.456.129-.271.176-.408.381-.924s.433-1.083.68-1.684.506-1.22.778-1.857.541-1.217.808-1.741a9.635,9.635,0,0,1,.784-1.31,1.365,1.365,0,0,1,.693-.589.854.854,0,0,1,.482.065,1.219,1.219,0,0,1,.371.2,1.751,1.751,0,0,1,.444.454,1.091,1.091,0,0,1,.188.57.714.714,0,0,1-.041.313q-.257.817-.464,1.547t-.391,1.439q-.183.709-.364,1.464a11,11,0,0,0-.238,1.722q.715-1.8,1.453-3.3t1.6-2.96a.32.32,0,0,1,.228-.17,1.07,1.07,0,0,1,.6.056,2.238,2.238,0,0,1,.581.319,1.832,1.832,0,0,1,.445.484,1.107,1.107,0,0,1,.187.554,1.225,1.225,0,0,1-.042.253,23.947,23.947,0,0,0-.762,2.691q-.267,1.245-.552,2.738" transform="translate(-379.272 -267.28)" fill="#232323"/>
      <path id="Path_26540" data-name="Path 26540" d="M631.819,544.093c0,.007-.007.012-.006.015s.02-.019.042-.051a1.4,1.4,0,0,0,.112-.193c.034-.073.066-.147.094-.222a2.275,2.275,0,0,0,.071-.219c.02-.072.035-.132.048-.183-.013.018-.019.027-.022.026s-.007.01-.014.034a.023.023,0,0,0-.006.018.016.016,0,0,1,0,.012l0,.006c-.03.093-.057.175-.083.248s-.049.137-.071.193-.045.106-.068.151a1.384,1.384,0,0,1-.079.133.054.054,0,0,0-.013.032m.4-.671a.038.038,0,0,0,0-.024,1.1,1.1,0,0,1-.039.126c-.02.054-.043.113-.07.178s-.056.13-.087.2-.063.128-.1.183a1.131,1.131,0,0,1-.092.136.162.162,0,0,1-.081.062.557.557,0,0,0,.166-.16,1.516,1.516,0,0,0,.13-.224,1.86,1.86,0,0,0,.1-.243q.04-.124.071-.231m-.588-1.3c0-.008.007-.013.006-.016s0,.017-.034.057-.068.089-.107.146a1.515,1.515,0,0,0-.1.18.257.257,0,0,0-.034.159.287.287,0,0,1,.032-.072c.024-.048.052-.1.084-.166s.063-.122.094-.178.051-.093.063-.111m-.351.609a1.441,1.441,0,0,1,.064-.184q.039-.091.082-.177c.029-.057.058-.111.088-.16s.057-.092.082-.129a.024.024,0,0,0-.017.013.588.588,0,0,0-.067.071.475.475,0,0,0-.05.082.547.547,0,0,0-.04.109c-.009.018-.021.048-.038.09l-.046.128-.042.117c-.012.034-.02.054-.021.058a0,0,0,0,0,0-.006Zm-.17.13c0-.006,0,0-.008.009a.336.336,0,0,0-.011.067c-.016.1-.029.186-.041.266s-.021.152-.029.213-.015.11-.019.146-.006.056-.005.059.011.017.027.014.013-.014.011-.038,0-.068,0-.133a.809.809,0,0,1,.015-.1c.01-.053.021-.113.031-.177s.02-.127.026-.188a.546.546,0,0,0,0-.133m-.208.393c0-.033.007-.07.012-.111s.01-.086.016-.136c0-.03.009-.067.016-.111s.015-.089.023-.13.013-.079.018-.115a.294.294,0,0,0,0-.066l-.019.071c-.032.257-.061.468-.086.63a1.28,1.28,0,0,0-.026.3.017.017,0,0,0,.022.015c.006,0,.011-.037.015-.107s.006-.151.007-.245m-.608.394a.363.363,0,0,1-.117-.214.95.95,0,0,1,.028-.411.84.84,0,0,0-.07.419.272.272,0,0,0,.159.206m2.237-1.611a.656.656,0,0,1,.041.137,1.887,1.887,0,0,1,.026.389,3.306,3.306,0,0,1-.051.492,3.627,3.627,0,0,1-.138.534,2.68,2.68,0,0,1-.239.517,2.221,2.221,0,0,1-.348.445,1.43,1.43,0,0,1-.469.309.129.129,0,0,1-.044.019l-.046.009a.316.316,0,0,1-.166-.009.366.366,0,0,1-.129-.076.408.408,0,0,1-.09-.12.568.568,0,0,1-.049-.14.279.279,0,0,1,.069-.252.816.816,0,0,1,.24-.18,1.837,1.837,0,0,1,.282-.113q.14-.042.194-.052l.023,0c.046-.009.073.007.081.047a.068.068,0,0,1-.006.044.062.062,0,0,1-.036.031,1.2,1.2,0,0,0-.311.147,1.422,1.422,0,0,0-.209.171.771.771,0,0,0-.118.149.222.222,0,0,0-.035.079q0,.018.05.01a.56.56,0,0,0,.1-.031.863.863,0,0,0,.144-.079,1.12,1.12,0,0,0,.315-.286,2.152,2.152,0,0,0,.236-.394,2.844,2.844,0,0,0,.167-.45,3.634,3.634,0,0,0,.1-.458,3.182,3.182,0,0,0,.034-.419,1.628,1.628,0,0,0-.025-.331.381.381,0,0,0-.081-.194.129.129,0,0,0-.122-.041.326.326,0,0,0-.166.114,1.343,1.343,0,0,0-.171.256,2.579,2.579,0,0,0-.154.356,3.46,3.46,0,0,0-.116.416,2.953,2.953,0,0,0-.058.432,1.8,1.8,0,0,0,.02.406.074.074,0,0,1,.01.027.1.1,0,0,1,0,.044c0,.013-.018.023-.042.028l-.023,0-.023,0a.072.072,0,0,1-.034,0,.047.047,0,0,1-.015-.006.008.008,0,0,0-.008.011.385.385,0,0,1-.083-.01.028.028,0,0,0-.019,0,.008.008,0,0,0-.006.006s0,.005-.01.007a.186.186,0,0,1-.1,0,.159.159,0,0,1-.063-.041.177.177,0,0,1-.036-.062.707.707,0,0,1-.018-.069,1.61,1.61,0,0,1-.014-.4q.017-.242.056-.493t.087-.478c.032-.151.06-.27.084-.359a.839.839,0,0,0-.231.255,2.022,2.022,0,0,0-.185.379,2.2,2.2,0,0,0-.11.41.979.979,0,0,0-.008.339.248.248,0,0,0,.062.135.148.148,0,0,1,.048.066.129.129,0,0,0-.01.019.016.016,0,0,1-.013.01h-.019c-.006,0-.009,0-.008.006s0,.006-.008.007a.086.086,0,0,1-.053,0,.01.01,0,0,0-.007,0,.009.009,0,0,1-.006,0,.269.269,0,0,1-.132-.006.378.378,0,0,1-.113-.055.333.333,0,0,1-.083-.087.29.29,0,0,1-.044-.1.71.71,0,0,1,.008-.265,1.776,1.776,0,0,1,.095-.318,2.289,2.289,0,0,1,.162-.326,2.524,2.524,0,0,1,.208-.3,1.393,1.393,0,0,1,.232-.226.567.567,0,0,1,.234-.113.181.181,0,0,1,.076,0,.266.266,0,0,0,.077,0l.034,0c.025,0,.039.008.042.021a.46.46,0,0,1-.019.149.193.193,0,0,0-.017.057c-.007.03-.015.062-.024.094s-.019.064-.029.1a.157.157,0,0,1-.027.058c0,.008,0-.011.018-.057s.035-.1.056-.153.039-.11.056-.161.023-.074.017-.073.007.008.019.015a.1.1,0,0,1,.035.046.556.556,0,0,1-.015.251c-.024.094-.046.184-.063.271a2.368,2.368,0,0,1,.348-.591.8.8,0,0,1,.416-.291.118.118,0,0,1,.038,0,.346.346,0,0,1,.129.038.708.708,0,0,1,.136.087.908.908,0,0,1,.118.115.5.5,0,0,1,.077.12" transform="translate(-581.17 -512.33)" fill="#232323"/>
      <path id="Path_26541" data-name="Path 26541" d="M657.644,545.088a.023.023,0,0,1,0,.01.025.025,0,0,0,0,.015c.015,0,.024-.017.025-.041a.142.142,0,0,1,0-.032s.009-.013.017-.037.015-.05.022-.079.013-.055.018-.081a.179.179,0,0,0,.005-.047c-.006,0-.015.016-.025.043s-.021.06-.031.1-.019.069-.026.1a.2.2,0,0,0-.009.055m.2.2a.05.05,0,0,1-.034.021.146.146,0,0,1-.059,0,.324.324,0,0,1-.071-.022.235.235,0,0,1-.06-.04.1.1,0,0,1-.032-.052.519.519,0,0,1,0-.106,1.214,1.214,0,0,1,.023-.161.779.779,0,0,1,.045-.149c.018-.044.038-.067.059-.072a.211.211,0,0,1,.084.006.586.586,0,0,1,.1.033.491.491,0,0,1,.09.048.092.092,0,0,1,.043.049.018.018,0,0,1,0,.015,1.5,1.5,0,0,0-.094.19l-.1.243m-.236,1.406a.937.937,0,0,1,.009-.175c.01-.082.021-.165.033-.248s.024-.155.036-.219.019-.093.023-.091c-.019,0-.036.037-.053.1s-.031.136-.043.219-.021.166-.025.249a.8.8,0,0,0,.005.185c.005.031.01.046.013.046s0-.022,0-.064m.487-.654.072-.084a.115.115,0,0,1,.056-.042.021.021,0,0,1,.028.019.474.474,0,0,1-.017.109c-.014.061-.033.132-.059.215s-.056.169-.091.263a2.758,2.758,0,0,1-.117.264,1.214,1.214,0,0,1-.134.209.25.25,0,0,1-.138.1.238.238,0,0,1-.245-.074.532.532,0,0,1-.117-.252,1.758,1.758,0,0,1,0-.572q.047-.335.129-.693c0-.027.028-.044.071-.052a.264.264,0,0,1,.09,0,.372.372,0,0,1,.093.028.269.269,0,0,1,.08.057.159.159,0,0,1,.044.083.189.189,0,0,1-.006.093,4.44,4.44,0,0,0-.151.64,1.525,1.525,0,0,0-.009.521.68.68,0,0,0,.133-.182c.038-.074.073-.15.105-.23s.062-.158.091-.232a.984.984,0,0,1,.09-.184" transform="translate(-605.751 -515.063)" fill="#232323"/>
      <path id="Path_26542" data-name="Path 26542" d="M667.237,550.126s0,.01-.006.03,0,.044,0,.073,0,.059,0,.089a.541.541,0,0,0,.009.078c0,.012,0,.025.008.037a.18.18,0,0,0,.013.041.265.265,0,0,0,.015.05s0-.017,0-.05-.008-.071-.014-.113-.011-.083-.015-.123a.3.3,0,0,1,0-.084l-.006-.027Zm-.019.463a.272.272,0,0,0-.014-.033.3.3,0,0,1-.021-.07.775.775,0,0,1-.014-.135c0-.056,0-.113,0-.171s0-.136,0-.214c-.01.077-.016.141-.019.193s-.006.1-.008.157a.526.526,0,0,0,.006.124s0,.013.008.03.012.034.018.052a.383.383,0,0,0,.022.048c.008.015.015.021.021.02m.6-.9a.557.557,0,0,1,.068-.086.134.134,0,0,1,.058-.041c.012,0,.02,0,.023.02a.476.476,0,0,1-.015.1c-.012.059-.03.13-.054.213s-.055.172-.09.27a2.3,2.3,0,0,1-.118.271,1.079,1.079,0,0,1-.146.217.317.317,0,0,1-.168.11.226.226,0,0,1-.185-.052.376.376,0,0,1-.127-.233,1.2,1.2,0,0,1-.02-.294c0-.109.013-.212.027-.31s.027-.185.044-.26.026-.128.03-.154a1.2,1.2,0,0,0-.089.166q-.067.137-.146.333c-.052.13-.1.272-.151.425a2.925,2.925,0,0,0-.1.444.055.055,0,0,1-.05.059.167.167,0,0,1-.132-.05.434.434,0,0,1-.116-.252,2.014,2.014,0,0,1-.016-.5,4.376,4.376,0,0,1,.155-.82.069.069,0,0,1,.06-.055.228.228,0,0,1,.133.021.629.629,0,0,1,.135.074l-.017.032-.034.1c-.017.049-.034.1-.049.157s-.028.112-.04.166a.334.334,0,0,0-.007.128.07.07,0,0,0,.01.027.819.819,0,0,1,.019-.154c.013-.067.028-.134.044-.2s.034-.124.05-.174a.338.338,0,0,1,.03-.077.155.155,0,0,1,.055.081.192.192,0,0,1-.009.074c-.009.034-.02.07-.033.108l-.04.117c-.014.04-.024.074-.031.1.037-.085.074-.167.114-.246a1.785,1.785,0,0,1,.121-.211.9.9,0,0,1,.127-.155.287.287,0,0,1,.135-.076.258.258,0,0,1,.185.032.212.212,0,0,1,.108.145.649.649,0,0,1-.02.2l-.068.343c-.025.126-.046.252-.063.378a1.088,1.088,0,0,0,0,.315.661.661,0,0,0,.13-.187c.037-.076.071-.153.1-.232s.062-.155.089-.228a.937.937,0,0,1,.088-.183" transform="translate(-613.897 -519.038)" fill="#232323"/>
      <path id="Path_26543" data-name="Path 26543" d="M689.824,536.162q-.046.155-.085.283c-.027.086-.054.168-.081.247a2.744,2.744,0,0,0,.187-.6Zm.127-.265q-.089.333-.186.61c-.065.184-.133.355-.2.511a3.4,3.4,0,0,0,.389-1.12m-.893,1.816a1.877,1.877,0,0,1,.546-.251.734.734,0,0,0-.077.016l-.073.02a.765.765,0,0,0-.4.215m-.134-2.006a1.029,1.029,0,0,0,.03.218c.032.119.088.184.168.195a.408.408,0,0,1-.168-.268l-.019-.069a.3.3,0,0,1-.011-.076m1.039,1.4a.977.977,0,0,1,.08.118.551.551,0,0,1,.061.138c.008.031.005.048-.01.052a.392.392,0,0,1-.115.006.578.578,0,0,0-.173.022,2.454,2.454,0,0,0-.352.129c-.129.058-.257.121-.383.191l-.012.008-.018-.01a.474.474,0,0,1-.139-.1.377.377,0,0,1-.086-.158.285.285,0,0,1-.01-.056l.021-.05a.376.376,0,0,0,.164-.115,2.124,2.124,0,0,0,.182-.231,3.048,3.048,0,0,0,.18-.3c.058-.109.111-.217.159-.325a3.289,3.289,0,0,0,.12-.307,1.559,1.559,0,0,0,.064-.248.748.748,0,0,0-.009-.283.2.2,0,0,0-.086-.133.173.173,0,0,0-.132-.013.3.3,0,0,0-.106.055.364.364,0,0,0-.087.1.411.411,0,0,0-.05.129.3.3,0,0,0,0,.143.363.363,0,0,0,.035.086.338.338,0,0,0,.069.087l.045.042a.4.4,0,0,1-.159.092.214.214,0,0,1-.193-.034.347.347,0,0,1-.121-.2.754.754,0,0,1-.019-.294.857.857,0,0,1,.082-.27.7.7,0,0,1,.159-.21.517.517,0,0,1,.214-.119.523.523,0,0,1,.242-.014.437.437,0,0,1,.184.083.544.544,0,0,1,.128.145.642.642,0,0,1,.075.171,1.218,1.218,0,0,1,.035.436,2.333,2.333,0,0,1-.085.445,3.324,3.324,0,0,1-.157.423q-.093.2-.174.368l.036-.012.035-.012a.68.68,0,0,1,.149-.023.263.263,0,0,1,.134.03Z" transform="translate(-634.189 -506.334)" fill="#232323"/>
      <path id="Path_26544" data-name="Path 26544" d="M704.153,533.031a1.5,1.5,0,0,0,.123-.4,1.581,1.581,0,0,0-.013-.493,2.031,2.031,0,0,1-.013.476,3.037,3.037,0,0,1-.1.415m-.286.1a.175.175,0,0,0,.1,0,.314.314,0,0,0,.176-.239,1.885,1.885,0,0,0,.063-.465,3.572,3.572,0,0,0-.029-.55,2.549,2.549,0,0,0-.107-.494.782.782,0,0,0-.138-.271.154.154,0,0,0-.176-.048.243.243,0,0,0-.137.128.908.908,0,0,0-.082.247,1.886,1.886,0,0,0-.034.326,3.59,3.59,0,0,0,.011.364q.015.184.047.359a2.114,2.114,0,0,0,.078.313.946.946,0,0,0,.105.227.237.237,0,0,0,.124.106m-.65-1.206a1.824,1.824,0,0,1,.242-.921,1.182,1.182,0,0,0-.242.921m.546-1.117a.468.468,0,0,1,.4.166,1.307,1.307,0,0,1,.264.471,2.445,2.445,0,0,1,.115.576,2.564,2.564,0,0,1-.018.593,1.5,1.5,0,0,1-.159.5.547.547,0,0,1-.305.277.424.424,0,0,1-.26.01.569.569,0,0,1-.226-.132.974.974,0,0,1-.186-.24,1.727,1.727,0,0,1-.141-.316,2.5,2.5,0,0,1-.115-.561,2.324,2.324,0,0,1,.016-.569,1.375,1.375,0,0,1,.159-.473.572.572,0,0,1,.32-.272.508.508,0,0,1,.068-.018.61.61,0,0,1,.071-.009" transform="translate(-647.111 -502.519)" fill="#232323"/>
      <path id="Path_26545" data-name="Path 26545" d="M719.48,527.091a1.482,1.482,0,0,0,.085-.408,1.568,1.568,0,0,0-.058-.489,2.025,2.025,0,0,1,.032.476,2.983,2.983,0,0,1-.059.422m-.276.126a.179.179,0,0,0,.1-.011.318.318,0,0,0,.153-.255,1.9,1.9,0,0,0,.019-.469,3.643,3.643,0,0,0-.08-.545,2.561,2.561,0,0,0-.151-.482.791.791,0,0,0-.162-.257.155.155,0,0,0-.18-.032.248.248,0,0,0-.124.14.9.9,0,0,0-.059.254,1.907,1.907,0,0,0,0,.327,3.4,3.4,0,0,0,.045.361,3.579,3.579,0,0,0,.079.354,2.3,2.3,0,0,0,.107.305.96.96,0,0,0,.126.217.234.234,0,0,0,.133.093m-.759-1.14a1.826,1.826,0,0,1,.157-.939,1.182,1.182,0,0,0-.157.939m.44-1.163a.469.469,0,0,1,.411.129,1.306,1.306,0,0,1,.306.445,2.462,2.462,0,0,1,.167.563,2.574,2.574,0,0,1,.037.592,1.517,1.517,0,0,1-.113.508.544.544,0,0,1-.279.3.418.418,0,0,1-.258.034.564.564,0,0,1-.237-.11.966.966,0,0,1-.208-.221,1.733,1.733,0,0,1-.169-.3,2.435,2.435,0,0,1-.166-.548,2.374,2.374,0,0,1-.037-.569,1.4,1.4,0,0,1,.115-.485.573.573,0,0,1,.293-.3.518.518,0,0,1,.066-.023.564.564,0,0,1,.07-.015" transform="translate(-660.852 -497.192)" fill="#232323"/>
      <path id="Path_26546" data-name="Path 26546" d="M732.727,519.378a.868.868,0,0,0,.2-.558,1.358,1.358,0,0,1-.2.558m-.125.11a1.255,1.255,0,0,0,.306-.857,1.786,1.786,0,0,1-.306.857m-.293-2.206a.68.68,0,0,1,.423-.04.328.328,0,0,0-.205-.044.639.639,0,0,0-.218.084m.465-.031a.235.235,0,0,1,.034.051.282.282,0,0,1,.027.075.779.779,0,0,1,.018.1.431.431,0,0,1,0,.1.07.07,0,0,1-.029.057c-.014.008-.031-.006-.051-.042a.093.093,0,0,0-.108-.048.481.481,0,0,0-.146.056,1,1,0,0,0-.092.058.429.429,0,0,0-.068.055l.084.541a1.746,1.746,0,0,1,.164-.069.559.559,0,0,1,.19-.034.412.412,0,0,1,.185.042.361.361,0,0,1,.152.153.7.7,0,0,1,.084.326,1.82,1.82,0,0,1-.029.382,2.12,2.12,0,0,1-.1.359,1.681,1.681,0,0,1-.118.258,1.035,1.035,0,0,1-.1.133.526.526,0,0,1-.126.1.322.322,0,0,1-.245.036.435.435,0,0,1-.243-.232l.03-.061a.152.152,0,0,0,.11-.024.6.6,0,0,0,.183-.2,2.392,2.392,0,0,0,.174-.334,1.87,1.87,0,0,0,.112-.345.353.353,0,0,0,0-.234c-.017-.03-.052-.036-.1-.017a.986.986,0,0,0-.151.07l-.076.046-.039.025-.019.005a1.08,1.08,0,0,1-.165-.015.307.307,0,0,1-.153-.071l-.013-.014a.664.664,0,0,1-.047-.161c-.017-.083-.034-.173-.049-.27s-.029-.188-.041-.274-.02-.144-.026-.173,0-.032-.007-.045,0-.028-.007-.045a.112.112,0,0,1,.025-.06.629.629,0,0,1,.073-.088,1.456,1.456,0,0,1,.109-.1.942.942,0,0,1,.135-.094.6.6,0,0,1,.25-.08.247.247,0,0,1,.221.106" transform="translate(-673.152 -490.183)" fill="#232323"/>
      <path id="Path_26547" data-name="Path 26547" d="M429.149,453.088a8.367,8.367,0,0,1-.969,1.692l-.121.145c.077-.11.1-.142.192-.295.117-.193.242-.42.379-.677s.272-.524.4-.8a4.814,4.814,0,0,0,.263-.627c.014-.037.036-.1.064-.178s.057-.161.086-.252c.03-.108.066-.186.123-.385a5.536,5.536,0,0,1-.419,1.374m-23.776,11.018c-.179.085-.377.179-.594.281s-.324.153-.531.256-.361.19-.62.343a3.259,3.259,0,0,1,.711-.459c.327-.169.369-.2.622-.305a4.657,4.657,0,0,1,.794-.294c-.076.034-.2.093-.382.177m-15.8,13.309a28.12,28.12,0,0,1,2.828-4.05c1.247-1.458,2.858-2.959,4.683-4.75a61.566,61.566,0,0,0-7.511,8.8m40.363-28.442c-.189-1.381-1.65.16-1.419.036.152-.081.189.191.212.527.237,3.413-1.851,6.359-4.585,8.172-3.139,2.082-6.92,2.7-10.533,3.4a40,40,0,0,0-9.9,3.067,35.813,35.813,0,0,0-8.089,5.347,37.32,37.32,0,0,0-7.036,8.444c-.873,1.408,2.657.63,3.714-.853,3.794-5.323,6.505-9.306,12.1-12.232a32.815,32.815,0,0,1,9.566-3.217c3.607-.693,8.148-1.42,11.242-3.546,2.928-2.011,5.281-5.119,4.731-9.145" transform="translate(-363.005 -428.113)" fill="#232323"/>
    </g>
  </g>
</svg>
