<svg xmlns="http://www.w3.org/2000/svg" width="36.781" height="44.311" viewBox="0 0 36.781 44.311">
  <g id="fried-egg" transform="translate(-43.5)">
    <path id="Path_26994" data-name="Path 26994" d="M79.552,14.167a10.207,10.207,0,0,0-2.231-3.128,5.213,5.213,0,0,0-2.09-1.3,6.669,6.669,0,0,0-2.122-.291c-.434,0-2.508.087-2.508.087a6.285,6.285,0,0,1-3.525-.925A12.571,12.571,0,0,1,63.315,4.98c-.227-.321-.734-1.075-.772-1.133A12.066,12.066,0,0,0,60.8,1.658,5.317,5.317,0,0,0,58.082.3,17.238,17.238,0,0,0,54.95,0H54.93a11.736,11.736,0,0,0-3.965.644,8.691,8.691,0,0,0-3.215,2,9.221,9.221,0,0,0-2.138,3.379,14.266,14.266,0,0,0-.825,4.662c-.094,3.96-.456,7.233-.776,10.121a63.032,63.032,0,0,0-.512,6.6,16.18,16.18,0,0,0,.42,3.9,12.033,12.033,0,0,0,1.547,3.638,17.2,17.2,0,0,0,3.013,3.508,37.165,37.165,0,0,0,4.788,3.622,14.367,14.367,0,0,0,3.553,1.7,11.56,11.56,0,0,0,3.445.537h.009a11.559,11.559,0,0,0,4.053-.748A14.154,14.154,0,0,0,67.86,41.6a18.014,18.014,0,0,0,2.916-2.77A20.1,20.1,0,0,0,73,35.614c1.846-3.329,3.313-6.042,4.472-8.471a.866.866,0,0,0-.408-1.154.851.851,0,0,0-.371-.085.871.871,0,0,0-.782.493h0c-1.139,2.389-2.592,5.075-4.423,8.375a17.524,17.524,0,0,1-4.663,5.445,10.831,10.831,0,0,1-6.547,2.362,11.085,11.085,0,0,1-6.061-1.96c-3.619-2.357-5.934-4.455-7.283-6.6a11.679,11.679,0,0,1-1.7-6.615,59.194,59.194,0,0,1,.492-6.3c.325-2.947.695-6.287.8-10.374.076-3.013.9-5.318,2.449-6.852A8.193,8.193,0,0,1,54.95,1.731a15.469,15.469,0,0,1,2.816.275,3.537,3.537,0,0,1,1.86.924,11.577,11.577,0,0,1,1.6,2.059c.229.34.466.691.728,1.062a15.945,15.945,0,0,0,1.691,2.03,13.728,13.728,0,0,0,2.516,2,7.459,7.459,0,0,0,2.287.96,9.077,9.077,0,0,0,2.113.228c.009,0,.919-.036,1.657-.062.4-.014.9-.025.9-.025a5.109,5.109,0,0,1,1.586.206,3.458,3.458,0,0,1,1.405.881,8.514,8.514,0,0,1,1.866,2.6,6.951,6.951,0,0,1,.581,2.859,10.191,10.191,0,0,1-.133,1.587.866.866,0,0,0,1.71.272,11.953,11.953,0,0,0,.154-1.859,8.7,8.7,0,0,0-.729-3.561Z" transform="translate(0)" fill="#ffd101"/>
    <path id="Path_26995" data-name="Path 26995" d="M105.531,41.731a11.851,11.851,0,0,1,2.162.215.892.892,0,0,0,.158.015.866.866,0,0,0,.158-1.717,13.681,13.681,0,0,0-2.48-.244h0a8,8,0,0,0-3.065.544l0,0a4.988,4.988,0,0,0-2.028,1.505l0,0a6.042,6.042,0,0,0-.947,1.7,11.028,11.028,0,0,0-.609,3.547.866.866,0,0,0,.844.886h.022a.866.866,0,0,0,.865-.845,9.224,9.224,0,0,1,.5-2.984,4.372,4.372,0,0,1,.672-1.222,3.235,3.235,0,0,1,1.357-1h0a6.267,6.267,0,0,1,2.391-.408h.011Z" transform="translate(-50.576 -36.538)" fill="#ffd101"/>
    <path id="Path_26996" data-name="Path 26996" d="M361.951,151.838a6.181,6.181,0,0,0-.556-.983,3.291,3.291,0,0,0-1.582-1.268,2.652,2.652,0,0,0-.35-.079,8.07,8.07,0,0,0-.987-.058c-.087,0-1.049.035-1.355.046a.865.865,0,1,0,.057,1.73c.373-.013,1.244-.045,1.3-.045.167,0,.371.008.534.02.079.005.243.026.252.027a1.661,1.661,0,0,1,.719.626,5.246,5.246,0,0,1,.49.915,3.269,3.269,0,0,1,.272,1.077.866.866,0,0,0,.861.792.72.72,0,0,0,.074,0,.866.866,0,0,0,.789-.936,5.025,5.025,0,0,0-.286-1.312C362.145,152.283,361.983,151.906,361.951,151.838Z" transform="translate(-285.716 -136.516)" fill="#ffd101"/>
    <path id="Path_26997" data-name="Path 26997" d="M151.363,262.953a8.246,8.246,0,0,0,5.809,2.377h0a8.242,8.242,0,0,0,5.807-2.377,8.085,8.085,0,0,0,1.765-2.585,8.075,8.075,0,0,0,0-6.336,8.084,8.084,0,0,0-1.765-2.585,8.242,8.242,0,0,0-5.809-2.377h0a8.246,8.246,0,0,0-5.809,2.377,8.1,8.1,0,0,0-1.764,2.585,8.066,8.066,0,0,0,0,6.336A8.1,8.1,0,0,0,151.363,262.953Zm1.216-10.275a6.557,6.557,0,0,1,9.188,0,6.337,6.337,0,0,1,0,9.043,6.557,6.557,0,0,1-9.188,0,6.337,6.337,0,0,1,0-9.043Z" transform="translate(-96.325 -227.513)" fill="#ffd101"/>
    <circle id="Ellipse_101" data-name="Ellipse 101" cx="0.865" cy="0.865" r="0.865" transform="translate(77.364 22.331)" fill="#ffd101"/>
  </g>
</svg>
