<svg xmlns="http://www.w3.org/2000/svg" width="47.499" height="35.259" viewBox="0 0 47.499 35.259">
  <g id="cheese_1_" data-name="cheese (1)" transform="translate(0.25 -66.42)">
    <g id="Group_3443" data-name="Group 3443" transform="translate(0 66.67)">
      <path id="Path_27000" data-name="Path 27000" d="M47,146.924a.693.693,0,0,0-.389-.611L33.72,140.1a.688.688,0,0,0-.6,1.24l10.174,4.9H23.572a4.026,4.026,0,0,0-7.933,0H1.393a14.059,14.059,0,0,1,2.4-7.22.688.688,0,1,0-1.141-.771A15.446,15.446,0,0,0,0,146.932v18.545a.688.688,0,0,0,.688.688H6.834a.688.688,0,1,0,0-1.377H1.377V147.621H15.638a4.026,4.026,0,0,0,7.933,0H45.622v7.36a2.912,2.912,0,0,0-1.631-.5h-.027a2.932,2.932,0,0,0-2.128.944,3.2,3.2,0,0,0,.04,4.385,2.932,2.932,0,0,0,2.118.905h.027a2.909,2.909,0,0,0,1.6-.5v4.574H40a5.325,5.325,0,0,0-10.561,0H25.055a4.026,4.026,0,0,0-7.933,0H10.056a.688.688,0,1,0,0,1.377H30.083a.688.688,0,0,0,.688-.688,3.948,3.948,0,0,1,7.9,0,.688.688,0,0,0,.688.688h6.954a.688.688,0,0,0,.688-.688V146.932s0-.006,0-.009ZM19.6,149.582a2.653,2.653,0,0,1-2.65-2.646s0,0,0,0,0,0,0,0a2.65,2.65,0,1,1,2.65,2.653Zm24.4,9.755h-.014a1.568,1.568,0,0,1-1.131-.488,1.825,1.825,0,0,1-.022-2.485,1.567,1.567,0,0,1,1.136-.508h.014a1.745,1.745,0,0,1,.018,3.481Zm-22.919,3.491a2.654,2.654,0,0,1,2.559,1.961H18.53A2.654,2.654,0,0,1,21.088,162.828Z" transform="translate(0 -131.407)" fill="#999" stroke="#999" stroke-width="0.5"/>
      <path id="Path_27001" data-name="Path 27001" d="M51.394,71.944a14.087,14.087,0,0,1,9.6-3.9l4.2,2.024a4.4,4.4,0,0,0,4.21,5.672,4.426,4.426,0,0,0,3.619-1.9l2.823,1.36a.689.689,0,1,0,.6-1.241l-3.394-1.636a.688.688,0,0,0-.92.323,3.021,3.021,0,0,1-5.746-1.3,2.988,2.988,0,0,1,.3-1.317.689.689,0,0,0-.32-.921l-4.915-2.369a.688.688,0,0,0-.3-.068,15.459,15.459,0,0,0-10.7,4.276.688.688,0,1,0,.949,1Z" transform="translate(-45.62 -66.67)" fill="#999" stroke="#999" stroke-width="0.5"/>
      <path id="Path_27002" data-name="Path 27002" d="M100.277,111.872a3.231,3.231,0,0,0-.594,4.523,3.117,3.117,0,0,0,2.454,1.162,3.346,3.346,0,0,0,2.088-.736,3.167,3.167,0,1,0-3.948-4.949Zm3.089,3.873a1.792,1.792,0,1,1-2.23-2.8,1.976,1.976,0,0,1,1.231-.437,1.742,1.742,0,0,1,1.376.645A1.853,1.853,0,0,1,103.366,115.744Z" transform="translate(-89.924 -107.053)" fill="#999" stroke="#999" stroke-width="0.5"/>
      <path id="Path_27003" data-name="Path 27003" d="M294.115,276.039a4.123,4.123,0,1,0-8.239,0,4.149,4.149,0,0,0,8.239,0Zm-6.862,0a2.748,2.748,0,1,1,5.485,0,2.79,2.79,0,0,1-5.485,0Z" transform="translate(-259.634 -252.91)" fill="#999" stroke="#999" stroke-width="0.5"/>
      <path id="Path_27004" data-name="Path 27004" d="M63.262,303.036a3.468,3.468,0,0,0-2.7-.993,4.328,4.328,0,0,0-3.985,3.985,3.417,3.417,0,0,0,3.468,3.7A4.209,4.209,0,0,0,63,308.469,3.859,3.859,0,0,0,63.262,303.036Zm-1.236,4.458a2.488,2.488,0,0,1-3.485.262,2.113,2.113,0,0,1-.592-1.648,2.953,2.953,0,0,1,2.692-2.691q.074,0,.147,0a2.088,2.088,0,0,1,1.5.6A2.488,2.488,0,0,1,62.026,307.495Z" transform="translate(-51.375 -280.431)" fill="#999" stroke="#999" stroke-width="0.5"/>
    </g>
  </g>
</svg>
