<svg xmlns="http://www.w3.org/2000/svg" width="26.775" height="17.065" viewBox="0 0 26.775 17.065">
  <g id="view" transform="translate(0 -92.835)">
    <g id="Group_3496" data-name="Group 3496" transform="translate(0 92.835)">
      <g id="Group_3495" data-name="Group 3495">
        <path id="Path_27055" data-name="Path 27055" d="M26.6,100.847c-.239-.327-5.938-8.012-13.217-8.012S.409,100.52.17,100.846a.884.884,0,0,0,0,1.042c.239.327,5.938,8.012,13.217,8.012s12.978-7.685,13.217-8.012A.882.882,0,0,0,26.6,100.847Zm-13.217,7.288c-5.362,0-10.005-5.1-11.38-6.768C3.38,99.7,8.014,94.6,13.387,94.6s10,5.1,11.38,6.768C23.394,103.037,18.76,108.135,13.387,108.135Z" transform="translate(0 -92.835)" fill="#fff"/>
      </g>
    </g>
    <g id="Group_3498" data-name="Group 3498" transform="translate(8.091 96.072)">
      <g id="Group_3497" data-name="Group 3497" transform="translate(0 0)">
        <path id="Path_27056" data-name="Path 27056" d="M160.018,154.725a5.3,5.3,0,1,0,5.3,5.3A5.3,5.3,0,0,0,160.018,154.725Zm0,8.827a3.531,3.531,0,1,1,3.531-3.531A3.535,3.535,0,0,1,160.018,163.552Z" transform="translate(-154.722 -154.725)" fill="#fff"/>
      </g>
    </g>
  </g>
</svg>
