<svg xmlns="http://www.w3.org/2000/svg" width="46.082" height="46.216" viewBox="0 0 46.082 46.216">
  <g id="penne" transform="translate(-0.741 0)">
    <path id="Path_26253" data-name="Path 26253" d="M308.528,417.485l-1.14,1.914" transform="translate(-278.995 -379.838)" fill="#999"/>
    <path id="Path_26254" data-name="Path 26254" d="M249.8,107.557a4.885,4.885,0,0,0-7.328-4.227c-4.5,2.6-4.73,2.632-5.438,3.446-.284.237.541-1.072-12.366,20.6a4.9,4.9,0,0,0-.686,2.368l-.131,4.854a4.884,4.884,0,0,0,7.208,4.428l4.339-2.348a5,5,0,0,0,2.024-2.052c12.732-21.38,11.993-20.068,12.067-20.413C249.9,113.123,249.8,112.826,249.8,107.557Zm-15.775,26.586-4.339,2.348a2,2,0,0,1-2.95-1.813l.131-4.854c.02-.74-.464.282,8.835-15.334a4.883,4.883,0,0,0,7.2,4.648l.569-.308C234.014,134.711,234.717,133.769,234.024,134.143Zm11.845-19.89-4.339,2.348a2,2,0,0,1-2.95-1.813l.131-4.854a2.013,2.013,0,0,1,1-1.678l4.205-2.428a2,2,0,0,1,3,1.73l0,4.934A2,2,0,0,1,245.869,114.253Z" transform="translate(-202.989 -93.409)" fill="#999"/>
    <path id="Path_26255" data-name="Path 26255" d="M319.572,310.8a1.443,1.443,0,0,0-1.978.5l-1.14,1.914a1.443,1.443,0,1,0,2.479,1.476l1.14-1.914A1.443,1.443,0,0,0,319.572,310.8Z" transform="translate(-287.057 -282.589)" fill="#999"/>
    <path id="Path_26256" data-name="Path 26256" d="M294.688,401.685a1.443,1.443,0,0,0-1.978.5l-1.14,1.914a1.443,1.443,0,1,0,2.479,1.476l1.14-1.914A1.443,1.443,0,0,0,294.688,401.685Z" transform="translate(-264.417 -365.278)" fill="#999"/>
    <path id="Path_26257" data-name="Path 26257" d="M22.268,25.881,22.153,22.3c1.234-.668,1.788-.84,2.489-2.019,7.886-13.242,7.32-12.236,7.393-12.541.277-.768.21-1.041.208-4.2a3.534,3.534,0,0,0-5.3-3.059c-2.7,1.561-2.918,1.619-3.417,2.178-.244.216.272-.592-6.2,10.281C11.286,2.918,11.738,3.6,11.476,3.381,10.868,2.7,10.642,2.65,7.036.592a4.208,4.208,0,0,0-6.3,3.674C.759,8.458.675,8.752,1.027,9.69c.072.31-.1-.019,9.809,16.425a4.292,4.292,0,0,0,1.744,1.744c3.621,1.935,4.132,2.373,5.484,2.373a4.215,4.215,0,0,0,4.2-4.35Zm6.116-22.9a.648.648,0,0,1,.974.562l0,3a.649.649,0,0,1-.34.571L26.383,8.536a.648.648,0,0,1-.958-.588L25.5,5a.653.653,0,0,1,.324-.545Zm-5.566,6.37a3.551,3.551,0,0,0,3.709,2.126s-4.389,7.348-4.43,7.433c-.117.241-.253.277-.826.587l-2.26-3.752ZM5.605,3.1,8.994,5.032a1.332,1.332,0,0,1,.667,1.107l.125,3.9a1.323,1.323,0,0,1-1.947,1.21l-3.5-1.869a1.322,1.322,0,0,1-.7-1.161L3.626,4.253A1.322,1.322,0,0,1,5.605,3.1ZM17.437,27.183l-3.5-1.869c-.457-.244.106.538-7.04-11.325a4.207,4.207,0,0,0,5.721-3.259c7.023,11.659,6.621,10.853,6.636,11.345l.125,3.9a1.323,1.323,0,0,1-1.947,1.209Z" transform="translate(0 0)" fill="#999"/>
    <path id="Path_26258" data-name="Path 26258" d="M120.091,184.688a1.443,1.443,0,0,0-2.472,1.489l.924,1.534a1.443,1.443,0,1,0,2.472-1.489Z" transform="translate(-106.151 -167.398)" fill="#999"/>
  </g>
</svg>
