<svg xmlns="http://www.w3.org/2000/svg" width="44.725" height="43.5" viewBox="0 0 44.725 43.5">
  <g id="jam" transform="translate(-0.001 -7.014)">
    <g id="Group_3445" data-name="Group 3445" transform="translate(6.21 25.17)">
      <g id="Group_3444" data-name="Group 3444" transform="translate(0 0)">
        <path id="Path_27005" data-name="Path 27005" d="M103.16,215.116a.877.877,0,0,0-.621-.258h0l-30.575.015a.877.877,0,0,0-.877.875,24.145,24.145,0,0,0,.362,4.771,34.828,34.828,0,0,0,8.569,15.3.877.877,0,0,0,.626.263H93.837a.876.876,0,0,0,.626-.263,34.819,34.819,0,0,0,8.568-15.3,23.41,23.41,0,0,0,.385-4.781A.877.877,0,0,0,103.16,215.116Zm-1.838,5.008a32.959,32.959,0,0,1-7.858,14.2H81.016a32.969,32.969,0,0,1-7.858-14.2,18.383,18.383,0,0,1-.311-3.5l28.8-.014A18.944,18.944,0,0,1,101.322,220.124Z" transform="translate(-71.087 -214.858)" fill="#999"/>
      </g>
    </g>
    <g id="Group_3447" data-name="Group 3447" transform="translate(0.001 7.014)">
      <g id="Group_3446" data-name="Group 3446" transform="translate(0 0)">
        <path id="Path_27006" data-name="Path 27006" d="M43.454,16.254l-3.943-3.613V7.891a.877.877,0,0,0-.877-.877H6.093a.877.877,0,0,0-.877.877v4.75L1.273,16.254a3.933,3.933,0,0,0,.548,6.21,38.519,38.519,0,0,0,.4,8.834A39.934,39.934,0,0,0,13.335,50.281a.877.877,0,0,0,.595.233H30.8a.877.877,0,0,0,.595-.233A39.937,39.937,0,0,0,42.511,31.3a40.14,40.14,0,0,0,.437-8.861,3.934,3.934,0,0,0,.507-6.183ZM6.97,8.768H37.757V12.15H6.97ZM40.8,30.9A38.118,38.118,0,0,1,30.45,48.76H14.276A38.119,38.119,0,0,1,3.925,30.9a35.463,35.463,0,0,1-.373-7.885l.078.006c.094.005.181.006.239.006a4.572,4.572,0,0,0,3.7-1.886,4.569,4.569,0,0,0,7.4,0,4.57,4.57,0,0,0,7.4,0,4.57,4.57,0,0,0,7.4,0,4.569,4.569,0,0,0,7.4,0,4.573,4.573,0,0,0,3.7,1.886c.058,0,.145,0,.235-.006l.121-.009A36.815,36.815,0,0,1,40.8,30.9Zm2.137-11.388A2.035,2.035,0,0,1,41,21.272c-.047,0-.094,0-.142,0a2.825,2.825,0,0,1-2.822-2.821.877.877,0,1,0-1.754,0,2.822,2.822,0,0,1-5.643,0,.877.877,0,0,0-1.754,0,2.822,2.822,0,0,1-5.644,0,.877.877,0,0,0-1.754,0,2.822,2.822,0,0,1-5.644,0,.877.877,0,0,0-1.754,0,2.822,2.822,0,0,1-5.643,0,.877.877,0,0,0-1.754,0,2.825,2.825,0,0,1-2.822,2.821c-.048,0-.095,0-.146,0a2.114,2.114,0,0,1-.67-.142h0l0,0a2.088,2.088,0,0,1-1.257-1.592,2.125,2.125,0,0,1,.666-1.989L6.434,13.9H38.293l3.977,3.644A2.125,2.125,0,0,1,42.939,19.515Z" transform="translate(-0.001 -7.014)" fill="#999"/>
      </g>
    </g>
    <g id="Group_3449" data-name="Group 3449" transform="translate(24.439 29.259)">
      <g id="Group_3448" data-name="Group 3448">
        <path id="Path_27007" data-name="Path 27007" d="M286.632,261.662h-6a.877.877,0,0,0,0,1.754h6a.877.877,0,0,0,0-1.754Z" transform="translate(-279.757 -261.662)" fill="#999"/>
      </g>
    </g>
    <g id="Group_3451" data-name="Group 3451" transform="translate(33.127 29.205)">
      <g id="Group_3450" data-name="Group 3450">
        <path id="Path_27008" data-name="Path 27008" d="M380.063,261.047a.878.878,0,0,0,0,1.754A.878.878,0,0,0,380.063,261.047Z" transform="translate(-379.216 -261.047)" fill="#999"/>
      </g>
    </g>
  </g>
</svg>
