<svg xmlns="http://www.w3.org/2000/svg" width="51.2" height="45" viewBox="0 0 51.2 45">
  <g id="phone_4_" data-name="phone (4)" transform="translate(0 -31)">
    <path id="Path_26728" data-name="Path 26728" d="M203.5,31h-12A10.5,10.5,0,0,0,190,51.893V56.5a1.5,1.5,0,0,0,2.561,1.061L198.121,52H203.5a10.5,10.5,0,1,0,0-21Zm-12,12a1.5,1.5,0,1,1,1.5-1.5A1.5,1.5,0,0,1,191.5,43Zm6,0a1.5,1.5,0,1,1,1.5-1.5A1.5,1.5,0,0,1,197.5,43Zm6,0a1.5,1.5,0,1,1,1.5-1.5A1.5,1.5,0,0,1,203.5,43Z" transform="translate(-162.9)" fill="#ffd101"/>
    <path id="Path_26729" data-name="Path 26729" d="M33.7,138.1a4.5,4.5,0,0,0,4.5-4.5v-6a1.5,1.5,0,0,0-1.025-1.422l-8.979-3a1.5,1.5,0,0,0-1.307.174L23.072,125.9A26.4,26.4,0,0,1,12.3,115.128l2.544-3.817A1.5,1.5,0,0,0,15.022,110l-3-8.979A1.5,1.5,0,0,0,10.6,100H4.5A4.487,4.487,0,0,0,0,104.479C0,121.761,16.418,138.1,33.7,138.1Z" transform="translate(0 -62.1)" fill="#ffd101"/>
  </g>
</svg>
