<svg xmlns="http://www.w3.org/2000/svg" width="59.953" height="59.953" viewBox="0 0 59.953 59.953">
  <g id="corn_1_" data-name="corn (1)" transform="translate(-44.571 -83.54) rotate(45)">
    <g id="Group_3461" data-name="Group 3461" transform="translate(118.142 0.001)">
      <path id="Path_27024" data-name="Path 27024" d="M147.813,34.32a2.179,2.179,0,0,0-3.193-1.885c-.223.082-.98.508-1.163.612a59.75,59.75,0,0,0,.36-6.582c0-8.657-1.839-16.757-4.92-21.669a.807.807,0,0,0-1.368.858,20.621,20.621,0,0,1,1.248,2.331H135.1A37.887,37.887,0,0,0,133.4,1.845a5.8,5.8,0,0,1,1.856,1.091A.807.807,0,0,0,136.3,1.7,6.4,6.4,0,0,0,132.009.007c-3.231.045-6.207,2.882-8.387,8-2.564,6.023-3.411,13.564-3.24,20.081A.807.807,0,0,0,122,28.049c0-.129-.006-.254-.009-.377h5.336q-.019,2.1.014,4.409h-5.1c-.01-.106-.022-.21-.031-.316a.807.807,0,0,0-1.608.146,51.473,51.473,0,0,0,1.155,7.21l-2.33.805.263.763-.264-.763a1.886,1.886,0,0,0-1.191,2.391,21.405,21.405,0,0,0,2.681,5.7,2.371,2.371,0,0,0,1.689.8,24.155,24.155,0,0,0,9.19,6.242.829.829,0,0,0,.582,0A24.1,24.1,0,0,0,145.615,42.8a.807.807,0,1,0-1.461-.687,22.5,22.5,0,0,1-11.242,10.984A22.444,22.444,0,0,1,145.18,33.95a1.007,1.007,0,0,1,.781-.048.789.789,0,0,1,.239.542,22.405,22.405,0,0,1-.77,4.251.807.807,0,1,0,1.554.44,24.009,24.009,0,0,0,.832-4.649A.822.822,0,0,0,147.813,34.32Zm-12.633-8.263h-6.219q.045-2.343.148-4.409h5.923Q135.134,23.725,135.179,26.057Zm-.237-6.024H129.2c.1-1.6.219-3.069.355-4.409h5.031Q134.792,17.657,134.942,20.034Zm-.536-6.024H129.73c.2-1.655.412-3.087.628-4.309l.018-.1h3.381C133.988,10.894,134.209,12.359,134.406,14.01ZM132.069,2.886a37.934,37.934,0,0,1,1.378,5.1h-2.76A37.893,37.893,0,0,1,132.069,2.886Zm-1.345-1.02a37.992,37.992,0,0,0-1.685,6.12H125.4C126.911,4.7,128.785,2.558,130.723,1.866Zm-6,7.735h4.016c-.219,1.259-.436,2.724-.632,4.409h-4.74A35.9,35.9,0,0,1,124.721,9.6Zm-1.715,6.024h4.925q-.2,2.018-.35,4.409h-5.258C122.492,18.513,122.72,17.038,123.006,15.625Zm-1.03,10.433c.01-1.5.075-2.969.192-4.409h5.325q-.1,2.071-.147,4.409Zm5.393,7.638h0q.049,2.118.148,4.409c-.244,0-.538,0-.59,0l-.176-.2h0a.81.81,0,0,0-.86-.21l-2.6.9a48.24,48.24,0,0,1-.869-4.9h4.947ZM122.11,46.92a21.638,21.638,0,0,1-2.329-5.08c-.071-.3.095-.36.175-.388l5.278-1.824a23.735,23.735,0,0,1-2.017,7.053C122.773,47.345,122.512,47.3,122.11,46.92Zm2.037,1.181a3.662,3.662,0,0,0,.79-1.306,25.667,25.667,0,0,0,1.816-6.352,22.386,22.386,0,0,1,4.511,12.651A22.578,22.578,0,0,1,124.147,48.1Zm10.689-6.732a23.982,23.982,0,0,0-2.747,6.375,23.631,23.631,0,0,0-2.794-6.456q-.046-.794-.085-1.568h5.716Q134.884,40.533,134.836,41.368ZM135,38.1h-5.87q-.1-2.292-.15-4.409h6.17Q135.1,35.816,135,38.1Zm.182-6.024h-6.233q-.035-2.312-.015-4.409H135.2Q135.22,29.775,135.186,32.081ZM135.4,9.6h4.056a35.776,35.776,0,0,1,1.353,4.409h-4.777C135.835,12.325,135.618,10.86,135.4,9.6Zm.806,6.024h4.959c.285,1.411.514,2.886.684,4.409h-5.293Q136.41,17.639,136.205,15.625ZM141.7,34.147a24.12,24.12,0,0,0-4.447,3.957h-.63q.1-2.291.148-4.409h4.986C141.734,33.846,141.716,34,141.7,34.147Zm.238-2.066H136.8q.035-2.31.014-4.409h5.376C142.158,29.162,142.073,30.636,141.934,32.081Zm-5.144-6.024q-.044-2.34-.147-4.409h5.362c.118,1.44.184,2.914.194,4.409Z" transform="translate(-118.142 -0.001)" fill="#999"/>
    </g>
  </g>
</svg>
