<svg id="headset" xmlns="http://www.w3.org/2000/svg" width="49.832" height="53.5" viewBox="0 0 49.832 53.5">
  <path id="Path_27069" data-name="Path 27069" d="M49.64,48.245a4.179,4.179,0,1,0,.014,2.1c5.245-.347,9.631-4.6,10.8-9.729a7.306,7.306,0,0,0,5.065-4.195l1.256-2.873A7.323,7.323,0,0,0,63,23.914l-2.246-.982v-.884A20.181,20.181,0,0,0,56.625,9.864L58.211,8.6a1.045,1.045,0,0,0,.122-1.517,21.826,21.826,0,0,0-2.81-2.6,1.045,1.045,0,0,0-1.28,1.652,19.7,19.7,0,0,1,1.771,1.55l-3.292,2.634a15.031,15.031,0,0,0-20.51,0L28.919,7.677a19.237,19.237,0,0,1,17.25-5.229A1.045,1.045,0,1,0,46.571.4,21.338,21.338,0,0,0,26.6,7.078,1.045,1.045,0,0,0,26.721,8.6l1.585,1.268A20.18,20.18,0,0,0,24.18,22.048v.884l-2.246.982a7.323,7.323,0,0,0-3.772,9.632l1.256,2.872A7.311,7.311,0,0,0,29.05,40.19l2.872-1.256a1.045,1.045,0,0,0,.539-1.376L26.27,23.4V22.048a18,18,0,0,1,3.668-10.879l1.693,1.354a1.045,1.045,0,0,0,1.409-.095,12.954,12.954,0,0,1,18.854,0,1.045,1.045,0,0,0,1.409.095l1.693-1.354a18,18,0,0,1,3.668,10.879V23.4L52.471,37.558a1.045,1.045,0,0,0,.539,1.376l2.873,1.256a7.278,7.278,0,0,0,2.368.589,10.254,10.254,0,0,1-8.611,7.466ZM45.6,51.41a2.09,2.09,0,1,1,2.09-2.09A2.092,2.092,0,0,1,45.6,51.41ZM30.128,37.438l-1.915.837a5.222,5.222,0,0,1-6.88-2.694l-1.256-2.872a5.231,5.231,0,0,1,2.694-6.88l1.915-.837Zm26.592.837L54.8,37.438l5.442-12.447,1.915.837a5.231,5.231,0,0,1,2.694,6.88L63.6,35.581a5.23,5.23,0,0,1-6.88,2.694Z" transform="translate(-17.55 0)" fill="#999999"/>
  <ellipse id="Ellipse_116" data-name="Ellipse 116" cx="1.045" cy="1.045" rx="1.045" ry="1.045" transform="translate(32.231 1.881)" fill="#999"/>
</svg>
