<svg xmlns="http://www.w3.org/2000/svg" width="30" height="348" viewBox="0 0 30 348">
  <g id="Group_3521" data-name="Group 3521" transform="translate(-37 -536)">
    <rect id="Rectangle_1586" data-name="Rectangle 1586" width="5" height="319" transform="translate(50 536)" fill="#ffd101"/>
    <g id="Group_3519" data-name="Group 3519" transform="translate(0 189)">
      <circle id="Ellipse_107" data-name="Ellipse 107" cx="15" cy="15" r="15" transform="translate(37 566)" fill="#ffd101"/>
      <g id="check" transform="translate(43 518.873)">
        <g id="Group_3506" data-name="Group 3506" transform="translate(0 56.35)">
          <path id="Path_27061" data-name="Path 27061" d="M18.636,56.678a1.074,1.074,0,0,0-1.519-.026l-.026.026L7.508,67.008,1.821,61.321A1.074,1.074,0,0,0,.3,62.841l6.447,6.447a1.074,1.074,0,0,0,1.519,0L18.609,58.2A1.075,1.075,0,0,0,18.636,56.678Z" transform="translate(0 -56.35)"/>
        </g>
      </g>
    </g>
    <g id="Group_3518" data-name="Group 3518" transform="translate(0 98)">
      <circle id="Ellipse_107-2" data-name="Ellipse 107" cx="15" cy="15" r="15" transform="translate(37 566)" fill="#ffd101"/>
      <g id="check-2" data-name="check" transform="translate(43 518.873)">
        <g id="Group_3506-2" data-name="Group 3506" transform="translate(0 56.35)">
          <path id="Path_27061-2" data-name="Path 27061" d="M18.636,56.678a1.074,1.074,0,0,0-1.519-.026l-.026.026L7.508,67.008,1.821,61.321A1.074,1.074,0,0,0,.3,62.841l6.447,6.447a1.074,1.074,0,0,0,1.519,0L18.609,58.2A1.075,1.075,0,0,0,18.636,56.678Z" transform="translate(0 -56.35)"/>
        </g>
      </g>
    </g>
    <g id="Group_3512" data-name="Group 3512" transform="translate(0 2)">
      <circle id="Ellipse_107-3" data-name="Ellipse 107" cx="15" cy="15" r="15" transform="translate(37 566)" fill="#ffd101"/>
      <g id="check-3" data-name="check" transform="translate(43 518.873)">
        <g id="Group_3506-3" data-name="Group 3506" transform="translate(0 56.35)">
          <path id="Path_27061-3" data-name="Path 27061" d="M18.636,56.678a1.074,1.074,0,0,0-1.519-.026l-.026.026L7.508,67.008,1.821,61.321A1.074,1.074,0,0,0,.3,62.841l6.447,6.447a1.074,1.074,0,0,0,1.519,0L18.609,58.2A1.075,1.075,0,0,0,18.636,56.678Z" transform="translate(0 -56.35)"/>
        </g>
      </g>
    </g>
    <g id="Group_3520" data-name="Group 3520" transform="translate(0 288)">
      <circle id="Ellipse_107-4" data-name="Ellipse 107" cx="15" cy="15" r="15" transform="translate(37 566)" fill="#ffd101"/>
      <g id="check-4" data-name="check" transform="translate(43 518.873)">
        <g id="Group_3506-4" data-name="Group 3506" transform="translate(0 56.35)">
          <path id="Path_27061-4" data-name="Path 27061" d="M18.636,56.678a1.074,1.074,0,0,0-1.519-.026l-.026.026L7.508,67.008,1.821,61.321A1.074,1.074,0,0,0,.3,62.841l6.447,6.447a1.074,1.074,0,0,0,1.519,0L18.609,58.2A1.075,1.075,0,0,0,18.636,56.678Z" transform="translate(0 -56.35)"/>
        </g>
      </g>
    </g>
  </g>
</svg>
