<svg xmlns="http://www.w3.org/2000/svg" width="72.744" height="68.356" viewBox="0 0 72.744 68.356">
  <g id="meat_1_" data-name="meat (1)" transform="translate(40.741 129.868) rotate(-120)">
    <path id="Path_27023" data-name="Path 27023" d="M119.232,34.545c-.19-3.064-2.106-5.305-5.855-6.853-4.3-1.777-9.514-1.2-15.066,1.661A33,33,0,0,0,95.339,31.1v0c-.056.035-.109.072-.161.11A47.493,47.493,0,0,0,83.66,42.363,55.534,55.534,0,0,0,74.128,62.84a14.116,14.116,0,0,0,4.5,14.262.957.957,0,0,0,1.291-1.413A13.558,13.558,0,0,1,76.6,71.208a6.2,6.2,0,0,0,3.156.807,10.6,10.6,0,0,0,3.9-.837c3.775-1.506,8.224-5.158,11.611-9.53a26.674,26.674,0,0,0,3.664-6.131c.079-.2.151-.39.22-.581,3.058,9.605,5.929,20.193,2.769,24.82a6.155,6.155,0,0,1-5.073,2.489l-.276-.026a32.773,32.773,0,0,1-13.877-4.441.957.957,0,1,0-1.019,1.62,34.712,34.712,0,0,0,14.7,4.726,38.592,38.592,0,0,0,3.892.2,27.234,27.234,0,0,0,10.22-1.756c4.19-1.75,6.931-4.355,8.145-7.745,1.541-4.3.618-9.7-2.743-16.044-2.775-5.238-.753-10.5,1.2-15.593C118.275,40.1,119.4,37.179,119.232,34.545ZM93.747,60.475c-3.19,4.118-7.331,7.538-10.807,8.925a8.587,8.587,0,0,1-3.142.695q-.1,0-.2,0A4.178,4.178,0,0,1,75.642,65.6a14.838,14.838,0,0,1,.352-2.327,53.605,53.605,0,0,1,9.2-19.764,47.567,47.567,0,0,1,8.595-8.935c-.107,3.512,1.7,9.109,3.948,16.02C98.387,52.628,96.82,56.508,93.747,60.475Zm20.448-.8c3.055,5.767,3.965,10.781,2.632,14.5-1.025,2.862-3.408,5.091-7.08,6.624a23.512,23.512,0,0,1-7.661,1.563,7.083,7.083,0,0,0,1.409-1.526c4.138-6.06-.092-19.043-3.825-30.5-1.472-4.516-2.862-8.782-3.537-12.061-.825-4-.275-5.182.172-5.524a31.286,31.286,0,0,1,2.885-1.7c5.036-2.6,9.69-3.149,13.458-1.593,2.079.858,4.49,2.225,4.675,5.2.138,2.218-.91,4.946-2.02,7.833C113.291,47.731,111.011,53.664,114.194,59.672Z" transform="translate(-11.472 -11.441)" fill="#999"/>
  </g>
</svg>
