<svg xmlns="http://www.w3.org/2000/svg" width="43.845" height="43.845" viewBox="0 0 43.845 43.845">
  <g id="chicken" transform="translate(0.149 0.149)">
    <g id="Group_3422" data-name="Group 3422" transform="translate(0.001 7.984)">
      <g id="Group_3421" data-name="Group 3421" transform="translate(0)">
        <path id="Path_26988" data-name="Path 26988" d="M6.207,93.985a.723.723,0,0,0-.685-.061L.442,96.1a.726.726,0,0,0,0,1.334l5.08,2.177a.726.726,0,0,0,1.012-.667V94.591A.726.726,0,0,0,6.207,93.985Zm-1.125,3.86L2.57,96.768l2.512-1.077Z" transform="translate(-0.002 -93.865)" fill="#999" stroke="#999" stroke-width="0.3"/>
      </g>
    </g>
    <g id="Group_3424" data-name="Group 3424" transform="translate(8.71 0.001)">
      <g id="Group_3423" data-name="Group 3423">
        <path id="Path_26989" data-name="Path 26989" d="M111.11,0h-3.629a5.086,5.086,0,0,0-5.08,5.08.726.726,0,0,0,.726.726h3.629a5.086,5.086,0,0,0,5.08-5.08A.726.726,0,0,0,111.11,0Zm-4.355,4.355h-2.83a3.635,3.635,0,0,1,3.555-2.9h2.83A3.634,3.634,0,0,1,106.756,4.356Z" transform="translate(-102.401 -0.001)" fill="#999" stroke="#999" stroke-width="0.3"/>
      </g>
    </g>
    <g id="Group_3426" data-name="Group 3426" transform="translate(8.71 7.984)">
      <g id="Group_3425" data-name="Group 3425">
        <path id="Path_26990" data-name="Path 26990" d="M104.578,93.867a2.177,2.177,0,1,0,2.177,2.177A2.18,2.18,0,0,0,104.578,93.867Zm0,2.9a.726.726,0,1,1,.726-.726A.727.727,0,0,1,104.578,96.77Z" transform="translate(-102.401 -93.867)" fill="#999" stroke="#999" stroke-width="0.3"/>
      </g>
    </g>
    <g id="Group_3428" data-name="Group 3428" transform="translate(18.87 37.014)">
      <g id="Group_3427" data-name="Group 3427">
        <rect id="Rectangle_1505" data-name="Rectangle 1505" width="1.452" height="5.806" fill="#999" stroke="#999" stroke-width="0.3"/>
      </g>
    </g>
    <g id="Group_3430" data-name="Group 3430" transform="translate(15.967 42.095)">
      <g id="Group_3429" data-name="Group 3429">
        <rect id="Rectangle_1506" data-name="Rectangle 1506" width="11.612" height="1.452" fill="#999" stroke="#999" stroke-width="0.3"/>
      </g>
    </g>
    <g id="Group_3432" data-name="Group 3432" transform="translate(23.225 37.014)">
      <g id="Group_3431" data-name="Group 3431">
        <rect id="Rectangle_1507" data-name="Rectangle 1507" width="1.452" height="5.806" fill="#999" stroke="#999" stroke-width="0.3"/>
      </g>
    </g>
    <g id="Group_3434" data-name="Group 3434" transform="translate(19.596 39.192)">
      <g id="Group_3433" data-name="Group 3433">
        <rect id="Rectangle_1508" data-name="Rectangle 1508" width="2.177" height="1.452" fill="#999" stroke="#999" stroke-width="0.3"/>
      </g>
    </g>
    <g id="Group_3436" data-name="Group 3436" transform="translate(23.951 39.192)">
      <g id="Group_3435" data-name="Group 3435">
        <rect id="Rectangle_1509" data-name="Rectangle 1509" width="2.177" height="1.452" fill="#999" stroke="#999" stroke-width="0.3"/>
      </g>
    </g>
    <g id="Group_3438" data-name="Group 3438" transform="translate(0.001 12.339)">
      <g id="Group_3437" data-name="Group 3437">
        <path id="Path_26991" data-name="Path 26991" d="M6.171,145.166a.725.725,0,0,0-.725,0l-3.805,2.178A3.3,3.3,0,0,0,0,150.148v.335a3.266,3.266,0,0,0,3.244,3.293h.022a3.269,3.269,0,0,0,3.266-3.266v-4.717A.727.727,0,0,0,6.171,145.166Zm-1.09,5.345a1.816,1.816,0,0,1-1.814,1.814v.726l-.015-.726a1.814,1.814,0,0,1-1.8-1.835v-.332a1.836,1.836,0,0,1,.912-1.557l2.716-1.555Z" transform="translate(-0.001 -145.068)" fill="#999" stroke="#999" stroke-width="0.3"/>
      </g>
    </g>
    <g id="Group_3440" data-name="Group 3440" transform="translate(5.081 4.344)">
      <g id="Group_3439" data-name="Group 3439">
        <path id="Path_26992" data-name="Path 26992" d="M98.2,51.808v-.726H91.666A13.43,13.43,0,0,0,79.6,58.7l-3.17,6.658L71.362,54.729a6.268,6.268,0,0,0-5.18-3.646,6.067,6.067,0,0,0-6.434,5.675c-.009.13-.012.261-.012.391V68.138A16.359,16.359,0,0,0,76.064,84.466c8.747,0,15.847-7.8,16.306-14.553A6.541,6.541,0,0,0,98.2,63.42v-.726H95.769a6.523,6.523,0,0,0,2.431-5.08v-.726H95.769A6.524,6.524,0,0,0,98.2,51.808Zm-1.5,6.532a5.088,5.088,0,0,1-5.029,4.355v1.452H96.7A5.088,5.088,0,0,1,91.668,68.5h-.726v.726c0,6.207-6.866,13.789-14.878,13.789A14.905,14.905,0,0,1,61.187,68.137V57.149c0-.1,0-.2.009-.3a4.618,4.618,0,0,1,4.592-4.328q.143,0,.287.009a4.816,4.816,0,0,1,3.971,2.812l6.382,13.394,4.48-9.409a11.971,11.971,0,0,1,10.758-6.793H96.7a5.088,5.088,0,0,1-5.029,4.355v1.452H96.7Z" transform="translate(-59.735 -51.071)" fill="#999" stroke="#999" stroke-width="0.3"/>
      </g>
    </g>
    <g id="Group_3442" data-name="Group 3442" transform="translate(10.887 21.774)">
      <g id="Group_3441" data-name="Group 3441">
        <path id="Path_26993" data-name="Path 26993" d="M141.064,256v1.452h8.529a5.212,5.212,0,0,1-4.938,3.629l-.014,1.452h2.049a5.211,5.211,0,0,1-4.945,3.629h-2.859a9.446,9.446,0,0,1-9.435-9.435V256H128v.726a10.9,10.9,0,0,0,10.886,10.886h2.859a6.663,6.663,0,0,0,6.568-5.7l.076-.542a6.643,6.643,0,0,0,2.827-4.538l.117-.827h-10.27Z" transform="translate(-128 -256.001)" fill="#999" stroke="#999" stroke-width="0.3"/>
      </g>
    </g>
  </g>
</svg>
