<svg xmlns="http://www.w3.org/2000/svg" width="114.725" height="115.667" viewBox="0 0 114.725 115.667">
  <g id="purse" transform="translate(294.861 -140)">
    <path id="Path_26157" data-name="Path 26157" d="M114.817,87.393c-.567-6.872-2.6-22.312-9.8-37.117l.444-.225a9.215,9.215,0,0,0,4.676-5.792,9.11,9.11,0,0,0-1.124-7.273c-.63-.982-1.281-1.95-1.936-2.878a17.918,17.918,0,0,0-8.76-6.585l-.491-.17A1.665,1.665,0,1,0,96.754,30.5l.47.162a14.6,14.6,0,0,1,7.138,5.363c.625.886,1.249,1.813,1.853,2.754a5.7,5.7,0,0,1,.71,4.61,5.877,5.877,0,0,1-2.981,3.694l-.439.223a72.014,72.014,0,0,0-4.587-7.432,7.954,7.954,0,0,0-3.9-2.919A113.423,113.423,0,0,0,58.5,31.273a113.486,113.486,0,0,0-36.518,5.686,7.957,7.957,0,0,0-3.9,2.919A72.012,72.012,0,0,0,13.5,47.311l-.437-.222A5.875,5.875,0,0,1,10.078,43.4a5.7,5.7,0,0,1,.711-4.612c.606-.944,1.229-1.87,1.852-2.753a14.59,14.59,0,0,1,7.139-5.364A120.526,120.526,0,0,1,58.5,24.606a126.931,126.931,0,0,1,31.987,4.019,1.665,1.665,0,1,0,.849-3.22A125.823,125.823,0,0,0,72.6,22.018,12.3,12.3,0,0,0,65.071,0,12.174,12.174,0,0,0,58.5,1.9,12.3,12.3,0,0,0,44.4,22.016a116.6,116.6,0,0,0-25.717,5.507,17.9,17.9,0,0,0-8.758,6.586c-.652.924-1.3,1.891-1.935,2.875A9.111,9.111,0,0,0,6.863,44.26a9.212,9.212,0,0,0,4.679,5.791l.442.224c-7.195,14.806-9.23,30.246-9.8,37.118A12.286,12.286,0,0,0,4.53,95.7a29.87,29.87,0,0,0,8.539,7.519,1.665,1.665,0,0,0,1.742-2.838,26.586,26.586,0,0,1-7.6-6.657A8.957,8.957,0,0,1,5.5,87.667c.68-8.244,3.533-29.216,15.3-45.867a4.647,4.647,0,0,1,2.279-1.7A110.021,110.021,0,0,1,58.5,34.6a109.963,109.963,0,0,1,35.415,5.5A4.643,4.643,0,0,1,96.2,41.8c11.768,16.65,14.621,37.623,15.3,45.867a8.957,8.957,0,0,1-1.705,6.053c-3.821,5.182-11.181,9.5-21.284,12.5A108.718,108.718,0,0,1,58.5,110.337c-13.784,0-27.985-2.619-37.987-7.006a1.665,1.665,0,0,0-1.338,3.05c10.4,4.563,25.1,7.287,39.325,7.287,20.268,0,44.817-5.557,53.972-17.972a12.287,12.287,0,0,0,2.344-8.3ZM74.043,12.3A8.979,8.979,0,0,1,61.188,20.4a12.267,12.267,0,0,0,0-16.186A8.979,8.979,0,0,1,74.043,12.3Zm-31.082,0a8.973,8.973,0,1,1,8.973,8.973A8.983,8.983,0,0,1,42.96,12.3Z" transform="translate(-296 141)" fill="#ffd100" stroke="#ffd100" stroke-width="2"/>
  </g>
</svg>
