<svg xmlns="http://www.w3.org/2000/svg" width="55.601" height="56.048" viewBox="0 0 55.601 56.048">
  <g id="purse" transform="translate(1.003 1)">
    <path id="Path_26157" data-name="Path 26157" d="M55.72,41.555a51.92,51.92,0,0,0-4.658-17.649l.211-.107A4.382,4.382,0,0,0,53.5,21.045a4.332,4.332,0,0,0-.534-3.458c-.3-.467-.609-.927-.921-1.368a8.52,8.52,0,0,0-4.165-3.131l-.233-.081a.792.792,0,0,0-.512,1.5l.223.077a6.943,6.943,0,0,1,3.394,2.55c.3.421.594.862.881,1.31a2.709,2.709,0,0,1,.338,2.192,2.8,2.8,0,0,1-1.418,1.756l-.209.106a34.241,34.241,0,0,0-2.181-3.534A3.782,3.782,0,0,0,46.3,17.574a53.932,53.932,0,0,0-17.364-2.7,53.962,53.962,0,0,0-17.364,2.7,3.783,3.783,0,0,0-1.853,1.388A34.241,34.241,0,0,0,7.543,22.5l-.208-.106a2.794,2.794,0,0,1-1.418-1.756,2.71,2.71,0,0,1,.338-2.193c.288-.449.584-.889.881-1.309a6.938,6.938,0,0,1,3.394-2.551A57.31,57.31,0,0,1,28.941,11.7a60.355,60.355,0,0,1,15.21,1.911.792.792,0,1,0,.4-1.531,59.828,59.828,0,0,0-8.906-1.61A5.846,5.846,0,0,0,32.066,0a5.789,5.789,0,0,0-3.126.905,5.846,5.846,0,0,0-6.7,9.563,55.442,55.442,0,0,0-12.228,2.619,8.512,8.512,0,0,0-4.164,3.131c-.31.439-.62.9-.92,1.367a4.332,4.332,0,0,0-.534,3.46A4.38,4.38,0,0,0,6.612,23.8l.21.107a51.923,51.923,0,0,0-4.658,17.65A5.842,5.842,0,0,0,3.278,45.5a14.2,14.2,0,0,0,4.06,3.575.792.792,0,0,0,.828-1.35,12.641,12.641,0,0,1-3.614-3.165,4.259,4.259,0,0,1-.811-2.878c.323-3.92,1.68-13.892,7.275-21.809a2.21,2.21,0,0,1,1.084-.808,52.314,52.314,0,0,1,16.84-2.615,52.287,52.287,0,0,1,16.84,2.615,2.208,2.208,0,0,1,1.084.807c5.6,7.917,6.952,17.889,7.275,21.809a4.259,4.259,0,0,1-.811,2.878c-1.817,2.464-5.317,4.519-10.12,5.942a51.7,51.7,0,0,1-14.269,1.96,47.591,47.591,0,0,1-18.063-3.332.792.792,0,0,0-.636,1.45,49.241,49.241,0,0,0,18.7,3.465c9.637,0,21.31-2.642,25.664-8.546a5.842,5.842,0,0,0,1.114-3.947ZM36.331,5.85A4.269,4.269,0,0,1,30.219,9.7a5.833,5.833,0,0,0,0-7.7A4.269,4.269,0,0,1,36.331,5.85Zm-14.78,0a4.267,4.267,0,1,1,4.267,4.267A4.271,4.271,0,0,1,21.552,5.85Z" transform="translate(-2.144 0)" fill="#ffd100" stroke="#ffd100" stroke-width="2"/>
  </g>
</svg>
