<svg xmlns="http://www.w3.org/2000/svg" width="127.167" height="127.167" viewBox="0 0 127.167 127.167">
  <g id="qr-code" transform="translate(2.02 2.02)">
    <path id="Path_351" data-name="Path 351" d="M5.68,5.432H28.033V-2.02H-2.02v29.8h7.7Zm0,0" transform="translate(0 0)" fill="#000"/>
    <path id="Path_352" data-name="Path 352" d="M761.652-2.02V5.431h22.354V27.785h7.7V-2.02Zm0,0" transform="translate(-666.558)" fill="#000"/>
    <path id="Path_353" data-name="Path 353" d="M784.006,782.052H761.653V790h30.053V759.7h-7.7Zm0,0" transform="translate(-666.559 -664.854)" fill="#000"/>
    <path id="Path_354" data-name="Path 354" d="M5.68,759.7h-7.7V790H28.033v-7.948H5.68Zm0,0" transform="translate(0 -664.854)" fill="#000"/>
    <path id="Path_355" data-name="Path 355" d="M117.121,115.168v37.256h37.256V130.07h7.451v-7.451h-7.451v-7.451Zm22.353,22.353h-7.451V130.07h7.451Zm0,0" transform="translate(-103.99 -102.285)" fill="#000"/>
    <path id="Path_356" data-name="Path 356" d="M571.984,570.031V532.775h-14.9v-7.451h-7.451v7.451H527.277v7.451h7.451v7.451h-7.451v7.451h7.451v14.9Zm-22.353-22.353h7.451v7.451h-7.451Zm0,0" transform="translate(-461.988 -460.283)" fill="#000"/>
    <path id="Path_357" data-name="Path 357" d="M139.475,474.181h14.9V466.73H117.121v7.451h14.9v7.451h-7.451v7.451h7.451v14.9h-7.451v7.451h7.451v7.451h37.256v-7.451h-7.451v-7.451h-7.451v7.451h-14.9v-7.451h7.451v-7.451h-7.451Zm0,0" transform="translate(-103.99 -409.141)" fill="#000"/>
    <path id="Path_358" data-name="Path 358" d="M608.224,159.874v-7.451h14.9V115.167H585.871v37.256h14.9v7.451Zm-7.451-29.8h7.451v7.451h-7.451Zm0,0" transform="translate(-513.131 -102.285)" fill="#000"/>
    <path id="Path_359" data-name="Path 359" d="M776.554,474.181V466.73h-14.9v7.451Zm0,0" transform="translate(-666.558 -409.141)" fill="#000"/>
    <path id="Path_360" data-name="Path 360" d="M468.684,642.512h7.451v7.451h-7.451Zm0,0" transform="translate(-410.846 -562.569)" fill="#000"/>
    <path id="Path_361" data-name="Path 361" d="M351.5,591.369v7.451h7.451v-14.9H351.5Zm0,0" transform="translate(-308.56 -511.426)" fill="#000"/>
    <path id="Path_362" data-name="Path 362" d="M410.09,525.324h7.451v7.451H410.09Zm0,0" transform="translate(-359.703 -460.283)" fill="#000"/>
    <path id="Path_363" data-name="Path 363" d="M117.121,642.512v14.9h7.451v-14.9Zm0,0" transform="translate(-103.99 -562.569)" fill="#000"/>
    <path id="Path_364" data-name="Path 364" d="M117.121,818.293h7.451v7.451h-7.451Zm0,0" transform="translate(-103.99 -715.996)" fill="#000"/>
    <path id="Path_365" data-name="Path 365" d="M468.684,115.168h7.451v7.451h-7.451Zm0,0" transform="translate(-410.846 -102.285)" fill="#000"/>
    <path id="Path_366" data-name="Path 366" d="M476.134,247.257v-14.9h-7.451v14.9Zm0,0" transform="translate(-410.845 -204.57)" fill="#000"/>
    <path id="Path_367" data-name="Path 367" d="M476.134,415.587v-7.451h-7.451v14.9h29.8v-7.451Zm0,0" transform="translate(-410.845 -357.998)" fill="#000"/>
  </g>
</svg>
