<svg id="parsley" xmlns="http://www.w3.org/2000/svg" width="44.751" height="44.311" viewBox="0 0 44.751 44.311">
  <g id="Group_3382" data-name="Group 3382" transform="translate(11.676 0)">
    <g id="Group_3381" data-name="Group 3381">
      <path id="Path_26962" data-name="Path 26962" d="M154.808,18.666a2.738,2.738,0,0,0-1.991-1.678,2.806,2.806,0,0,0-2.566.733l-1.545,1.516a.222.222,0,0,1-.3-.006.124.124,0,0,1-.037-.093.132.132,0,0,1,.05-.094l3.912-3.414a2.305,2.305,0,0,0,.7-2.378,2.358,2.358,0,0,0-1.512-1.558,2.438,2.438,0,0,0-2.219.337l-.783.572a.225.225,0,0,1-.2.031.176.176,0,0,1-.119-.1.123.123,0,0,1,.038-.138l2.452-2.264a2.2,2.2,0,0,0,.073-3.179,2.337,2.337,0,0,0-3.2-.1l.064-.832a3.2,3.2,0,0,0-1.353-2.864,3.422,3.422,0,0,0-3.99,0,3.2,3.2,0,0,0-1.353,2.864l.064.832a2.337,2.337,0,0,0-3.2.1,2.2,2.2,0,0,0,.073,3.179l2.452,2.263a.124.124,0,0,1,.038.138.176.176,0,0,1-.119.1.225.225,0,0,1-.2-.031l-.783-.572a2.438,2.438,0,0,0-2.219-.337,2.358,2.358,0,0,0-1.512,1.558,2.305,2.305,0,0,0,.7,2.378l3.913,3.414a.133.133,0,0,1,.05.094.124.124,0,0,1-.037.093.222.222,0,0,1-.3.006l-1.545-1.516a2.806,2.806,0,0,0-2.566-.733,2.738,2.738,0,0,0-1.991,1.678,2.67,2.67,0,0,0,1.083,3.21l1.275.806a2.527,2.527,0,0,0-.932,1.429l-.011.047a2.488,2.488,0,0,0,1.848,2.958l1.55.386a6.247,6.247,0,0,1,4.845,5.988V45.963a.865.865,0,1,0,1.731,0V33.516a6.654,6.654,0,0,1,5.166-6.094l1.229-.306a2.488,2.488,0,0,0,1.848-2.959l-.011-.046a2.527,2.527,0,0,0-.932-1.43l1.275-.806A2.671,2.671,0,0,0,154.808,18.666ZM152.8,20.413l-3.337,2.108a.865.865,0,0,0,.843,1.509l.129-.063a.921.921,0,0,1,.8-.006.819.819,0,0,1,.459.551l.011.046a.744.744,0,0,1-.582.879l-1.229.306a8.631,8.631,0,0,0-4.549,2.815c-.068.081-.134.163-.2.246v-13.4a.865.865,0,0,0-1.731,0V28.627a8.22,8.22,0,0,0-4.426-2.8l-1.55-.386a.744.744,0,0,1-.582-.879l.011-.047a.819.819,0,0,1,.459-.551.922.922,0,0,1,.8.006l.129.063a.865.865,0,0,0,.843-1.509l-3.337-2.108a.925.925,0,0,1-.393-1.121,1,1,0,0,1,.742-.613,1.081,1.081,0,0,1,.989.277l1.545,1.516a1.953,1.953,0,0,0,2.783-.062,1.853,1.853,0,0,0-.142-2.67l-3.913-3.414a.563.563,0,0,1-.181-.586.627.627,0,0,1,.407-.407.7.7,0,0,1,.643.095l.783.572a1.94,1.94,0,0,0,1.7.3,1.891,1.891,0,0,0,1.246-1.133,1.847,1.847,0,0,0-.477-2.037l-2.452-2.263a.482.482,0,0,1-.16-.343.476.476,0,0,1,.143-.347A.594.594,0,0,1,139.5,8a.576.576,0,0,1,.424.222l1.473,1.962a.865.865,0,0,0,1.555-.586l-.286-3.711a1.486,1.486,0,0,1,.636-1.324,1.714,1.714,0,0,1,1.973,0,1.486,1.486,0,0,1,.636,1.324L145.62,9.6a.865.865,0,0,0,1.555.586l1.473-1.962A.575.575,0,0,1,149.072,8a.594.594,0,0,1,.463.169.469.469,0,0,1-.017.69l-2.452,2.263a1.847,1.847,0,0,0-.477,2.037,1.892,1.892,0,0,0,1.246,1.133,1.941,1.941,0,0,0,1.7-.3l.783-.572a.7.7,0,0,1,.643-.095.626.626,0,0,1,.407.407.563.563,0,0,1-.181.586l-3.912,3.414a1.853,1.853,0,0,0-.142,2.67,1.953,1.953,0,0,0,2.783.062l1.545-1.516a1.081,1.081,0,0,1,.989-.277,1,1,0,0,1,.742.613A.926.926,0,0,1,152.8,20.413Z" transform="translate(-133.585 -2.518)" fill="#ffd101"/>
    </g>
  </g>
  <g id="Group_3384" data-name="Group 3384" transform="translate(9.336 23.483)">
    <g id="Group_3383" data-name="Group 3383">
      <path id="Path_26963" data-name="Path 26963" d="M108.288,271.442a.865.865,0,1,0,.254.612A.874.874,0,0,0,108.288,271.442Z" transform="translate(-106.811 -271.188)" fill="#ffd101"/>
    </g>
  </g>
  <g id="Group_3386" data-name="Group 3386" transform="translate(23.978 11.11)">
    <g id="Group_3385" data-name="Group 3385">
      <path id="Path_26964" data-name="Path 26964" d="M295.029,139.474a2.5,2.5,0,0,0-2.7-1.84l-.222.024.824-.9a4.206,4.206,0,0,0,.781-4.491,4.458,4.458,0,0,0-4.675-2.607,4.369,4.369,0,0,0-3.609,2.873l-.82,2.341a.865.865,0,0,0,1.634.572l.82-2.341a2.683,2.683,0,0,1,2.2-1.728,2.72,2.72,0,0,1,2.863,1.572,2.441,2.441,0,0,1-.465,2.639l-1.7,1.852a1.224,1.224,0,0,0-.195,1.39,1.252,1.252,0,0,0,1.263.683l1.489-.159a.762.762,0,0,1,.834.54.647.647,0,0,1-.077.5.754.754,0,0,1-.478.339l-2.981.707a1.869,1.869,0,0,0-1.421,1.489,1.813,1.813,0,0,0,.48,1.574,1.924,1.924,0,0,0,1.623.577l.277-.034a1.36,1.36,0,0,1,1.148.392,1.172,1.172,0,0,1,.336,1,1.215,1.215,0,0,1-.49.806,1.376,1.376,0,0,1-1.039.251l-2.761-.428a2,2,0,0,0-2.275,1.541,1.944,1.944,0,0,0,1.085,2.151l1.71.813a.393.393,0,0,1,.229.471.476.476,0,0,1-.6.281L285.1,151.4a8.06,8.06,0,0,0-4.88.077l3.414-5.142a.865.865,0,0,0-1.442-.957l-3.662,5.515a7.334,7.334,0,0,0-1.213-3.089.865.865,0,1,0-1.429.976,5.5,5.5,0,0,1,.443,5.513q-.136.244-.263.492v0a.854.854,0,0,0-.052.1,15.685,15.685,0,0,0-1.683,7.066.865.865,0,0,0,1.731,0,13.962,13.962,0,0,1,1.521-6.329,6.2,6.2,0,0,1,7.016-2.57l3.024.915a2.2,2.2,0,0,0,2.75-1.423A2.115,2.115,0,0,0,289.232,150l-1.71-.813a.217.217,0,0,1-.135-.234.27.27,0,0,1,.316-.185l2.761.428a3.1,3.1,0,0,0,2.335-.571,2.933,2.933,0,0,0,1.173-1.953,2.9,2.9,0,0,0-.814-2.454,3.078,3.078,0,0,0-2.595-.9l-.277.034a.181.181,0,0,1-.158-.052.091.091,0,0,1-.03-.085.145.145,0,0,1,.116-.1l2.981-.707a2.472,2.472,0,0,0,1.558-1.124A2.363,2.363,0,0,0,295.029,139.474Z" transform="translate(-274.328 -129.625)" fill="#ffd101"/>
    </g>
  </g>
  <g id="Group_3388" data-name="Group 3388" transform="translate(0 11.11)">
    <g id="Group_3387" data-name="Group 3387">
      <path id="Path_26965" data-name="Path 26965" d="M19.089,154.9a.9.9,0,0,0-.052-.1v0q-.123-.239-.254-.475a5.566,5.566,0,0,1,.505-5.633.865.865,0,0,0-1.407-1.007,7.3,7.3,0,0,0-1.3,3.239l-3.772-5.681a.865.865,0,1,0-1.442.957l3.514,5.292a8.06,8.06,0,0,0-4.88-.077l-3.024.915a.476.476,0,0,1-.6-.281.393.393,0,0,1,.229-.471l1.71-.813A1.944,1.944,0,0,0,9.407,148.6a2,2,0,0,0-2.275-1.54l-2.761.428a1.376,1.376,0,0,1-1.039-.251,1.215,1.215,0,0,1-.49-.806,1.172,1.172,0,0,1,.336-1,1.361,1.361,0,0,1,1.148-.392l.278.034a1.923,1.923,0,0,0,1.623-.577,1.814,1.814,0,0,0,.48-1.574,1.869,1.869,0,0,0-1.421-1.489l-2.981-.707a.755.755,0,0,1-.478-.339.647.647,0,0,1-.077-.5.761.761,0,0,1,.834-.54l1.489.159a1.251,1.251,0,0,0,1.263-.683,1.224,1.224,0,0,0-.195-1.39l-1.7-1.852a2.441,2.441,0,0,1-.465-2.639,2.721,2.721,0,0,1,2.863-1.572,2.683,2.683,0,0,1,2.2,1.728l.82,2.341a.865.865,0,0,0,1.634-.572l-.82-2.341a4.369,4.369,0,0,0-3.609-2.873,4.458,4.458,0,0,0-4.675,2.607,4.206,4.206,0,0,0,.781,4.491l.824.9-.222-.024a2.5,2.5,0,0,0-2.7,1.84,2.364,2.364,0,0,0,.277,1.816,2.472,2.472,0,0,0,1.558,1.124l2.981.707a.145.145,0,0,1,.116.1.091.091,0,0,1-.03.085.182.182,0,0,1-.158.052l-.278-.034a3.079,3.079,0,0,0-2.595.9,2.9,2.9,0,0,0-.814,2.454A2.933,2.933,0,0,0,2.3,148.632a3.094,3.094,0,0,0,2.335.571l2.761-.428a.27.27,0,0,1,.316.184.216.216,0,0,1-.135.234l-1.71.813a2.115,2.115,0,0,0-1.138,2.548,2.2,2.2,0,0,0,2.75,1.423l3.024-.915a6.2,6.2,0,0,1,7.016,2.57,13.962,13.962,0,0,1,1.521,6.329.865.865,0,1,0,1.731,0A15.685,15.685,0,0,0,19.089,154.9Z" transform="translate(0.001 -129.627)" fill="#ffd101"/>
    </g>
  </g>
  <g id="Group_3390" data-name="Group 3390" transform="translate(33.684 23.483)">
    <g id="Group_3389" data-name="Group 3389">
      <path id="Path_26966" data-name="Path 26966" d="M386.853,271.442a.865.865,0,1,0,.254.612A.871.871,0,0,0,386.853,271.442Z" transform="translate(-385.376 -271.188)" fill="#ffd101"/>
    </g>
  </g>
</svg>
