<svg xmlns="http://www.w3.org/2000/svg" width="149.059" height="149.06" viewBox="0 0 149.059 149.06">
  <g id="sad" transform="translate(0 22)">
    <path id="Path_26712" data-name="Path 26712" d="M21.805,21.8a74.563,74.563,0,1,0,105.451.008A74.65,74.65,0,0,0,21.805,21.8Zm97.315,97.319a63.063,63.063,0,1,1,0-89.182A63.138,63.138,0,0,1,119.121,119.119Zm-43.1-35.677c14.172,0,26.821,8.07,32.224,20.56a4.216,4.216,0,1,1-7.738,3.348c-4.066-9.4-13.675-15.477-24.484-15.477-11.058,0-20.726,6.071-24.626,15.467a4.216,4.216,0,1,1-7.788-3.233C48.818,91.552,61.541,83.442,76.019,83.442Zm-33.792-36.4a2.811,2.811,0,0,1,.368-5.609c.122.008,12.2.7,16.739-5.563a2.811,2.811,0,1,1,4.551,3.3c-5.224,7.2-16.023,7.915-20.086,7.915C42.905,47.087,42.339,47.053,42.226,47.043ZM64.148,57.156a8.679,8.679,0,0,1-1.56,4.971,8.7,8.7,0,0,0-14.2.148,8.711,8.711,0,1,1,15.756-5.119ZM86.517,39.119a2.811,2.811,0,1,1,4.551-3.3c4.541,6.263,16.616,5.571,16.739,5.563a2.811,2.811,0,0,1,.368,5.609c-.112.008-.677.042-1.573.042C102.541,47.035,91.741,46.322,86.517,39.119Zm8.451,9.269a8.706,8.706,0,0,1,7.043,13.835,8.7,8.7,0,0,0-14.2-.148,8.713,8.713,0,0,1,7.154-13.688ZM46.655,84.034c-5.06,0-5.06-5.613-5.06-5.613,0-4.829,6.4-10.59,6.4-10.59a16.288,16.288,0,0,0,2.136,6.105,9.734,9.734,0,0,1,1.712,4.93C51.845,84.082,46.655,84.034,46.655,84.034Z" transform="translate(0 -22)" fill="#ffd101"/>
  </g>
</svg>
