<svg xmlns="http://www.w3.org/2000/svg" width="25.316" height="40.272" viewBox="0 0 25.316 40.272">
  <g id="salami" transform="translate(0.5 0.5)">
    <path id="Path_26224" data-name="Path 26224" d="M43.814,11.773c-6.042,0-12.158,1.408-12.158,4.1V33.736a12.179,12.179,0,0,0,9.107,11.77,4.934,4.934,0,0,0-2.371,1.917,2.428,2.428,0,0,0-.058,2.172,2.372,2.372,0,0,0,1.712,1.353,3.578,3.578,0,0,0,.8.088,4.285,4.285,0,0,0,2.718-.984.4.4,0,0,1,.492,0,4.217,4.217,0,0,0,3.521.9A2.372,2.372,0,0,0,49.293,49.6a2.428,2.428,0,0,0-.058-2.172,4.959,4.959,0,0,0-2.371-1.917,12.179,12.179,0,0,0,9.107-11.774V15.871c0-2.69-6.116-4.1-12.158-4.1Zm0,1.316c7.118,0,10.843,1.811,10.843,2.782s-3.724,2.782-10.843,2.782S32.972,16.841,32.972,15.87,36.7,13.089,43.814,13.089Zm4.261,34.954a1.112,1.112,0,0,1,.01,1.03,1.065,1.065,0,0,1-.8.594,2.92,2.92,0,0,1-2.368-.614,1.745,1.745,0,0,0-2.2,0,2.922,2.922,0,0,1-2.368.614,1.065,1.065,0,0,1-.8-.594,1.112,1.112,0,0,1,.009-1.03c.632-1.183,3.184-1.919,4.262-2.137,1.027.21,3.631.959,4.261,2.137ZM43.814,44.58A10.855,10.855,0,0,1,32.972,33.736v-15.9c2.122,1.408,6.5,2.134,10.843,2.134s8.721-.727,10.843-2.134v15.9A10.855,10.855,0,0,1,43.814,44.58Z" transform="translate(-31.656 -11.773)" fill="#ffd101" stroke="#ffd101" stroke-width="1"/>
    <path id="Path_26225" data-name="Path 26225" d="M57.288,19.826c.548,0,1.689,0,1.689-.83s-1.141-.83-1.689-.83-1.689,0-1.689.83S56.74,19.826,57.288,19.826Z" transform="translate(-46.599 -15.763)" fill="#ffd101" stroke="#ffd101" stroke-width="1"/>
    <path id="Path_26226" data-name="Path 26226" d="M73.059,22.585c1.025,0,2.246-.181,2.246-1.045s-1.221-1.045-2.246-1.045-2.246.181-2.246,1.045S72.034,22.585,73.059,22.585Z" transform="translate(-56.094 -17.216)" fill="#ffd101" stroke="#ffd101" stroke-width="1"/>
    <path id="Path_26227" data-name="Path 26227" d="M45.16,23.3c1.044,0,1.2-.489,1.2-.777s-.156-.777-1.2-.777-1.2.489-1.2.777S44.116,23.3,45.16,23.3Z" transform="translate(-39.335 -17.995)" fill="#ffd101" stroke="#ffd101" stroke-width="1"/>
    <path id="Path_26228" data-name="Path 26228" d="M76.179,72.937a.659.659,0,0,0-.794.484A9.769,9.769,0,0,1,70.3,79.43a.658.658,0,0,0,.547,1.2,10.923,10.923,0,0,0,5.817-6.9A.657.657,0,0,0,76.179,72.937Z" transform="translate(-55.534 -49.934)" fill="#ffd101" stroke="#ffd101" stroke-width="1"/>
  </g>
</svg>
