<svg xmlns="http://www.w3.org/2000/svg" width="59.504" height="34.758" viewBox="0 0 59.504 34.758">
  <g id="salami" transform="translate(0.254 -107.105)">
    <g id="Group_3454" data-name="Group 3454" transform="translate(0 107.355)">
      <g id="Group_3453" data-name="Group 3453" transform="translate(0 0)">
        <path id="Path_27017" data-name="Path 27017" d="M46.629,107.355c-.238,0-.471.031-.706.05a.913.913,0,0,0-.245-.05H25.693A17.145,17.145,0,0,0,8.848,121.467c-1.7-.414-4.563-1.415-5.09-2.994a.952.952,0,0,0-1.847.419l.855,6.839-2.115.7a.952.952,0,0,0-.293,1.646l4.038,3.23-2.3,3.069a.952.952,0,0,0,1.265,1.378l6.746-4.216a17.14,17.14,0,0,0,15.588,10.07H45.678a.918.918,0,0,0,.245-.05c.235.019.468.05.706.05,6.822,0,12.371-7.684,12.371-17.129S53.451,107.355,46.629,107.355ZM6.6,131.491A.953.953,0,0,0,6.3,130.4l-3.392-2.714,1.2-.4a.952.952,0,0,0,.643-1.021l-.578-4.627a14.6,14.6,0,0,0,4.449,1.73c-.024.369-.056.737-.056,1.112A17.05,17.05,0,0,0,9.4,129.74Zm19.1,8.219a15.226,15.226,0,0,1,0-30.452H40.988c-3.99,2.846-6.729,8.6-6.729,15.226s2.74,12.38,6.729,15.226Zm20.936,0c-5.772,0-10.468-6.83-10.468-15.226s4.7-15.226,10.468-15.226S57.1,116.089,57.1,124.484,52.4,139.71,46.629,139.71Z" transform="translate(0 -107.355)" fill="#ffd101" stroke="#ffd101" stroke-width="0.5"/>
      </g>
    </g>
    <g id="Group_3456" data-name="Group 3456" transform="translate(41.871 113.065)">
      <g id="Group_3455" data-name="Group 3455">
        <path id="Path_27018" data-name="Path 27018" d="M366.21,156.9a2.855,2.855,0,1,0,2.855,2.855A2.858,2.858,0,0,0,366.21,156.9Zm0,3.806a.952.952,0,1,1,.952-.952A.953.953,0,0,1,366.21,160.709Z" transform="translate(-363.355 -156.903)" fill="#ffd101" stroke="#ffd101" stroke-width="0.5"/>
      </g>
    </g>
    <g id="Group_3458" data-name="Group 3458" transform="translate(47.581 121.629)">
      <g id="Group_3457" data-name="Group 3457" transform="translate(0 0)">
        <path id="Path_27019" data-name="Path 27019" d="M415.758,231.226a2.855,2.855,0,1,0,2.855,2.855A2.858,2.858,0,0,0,415.758,231.226Zm0,3.806a.952.952,0,1,1,.952-.952A.953.953,0,0,1,415.758,235.032Z" transform="translate(-412.903 -231.226)" fill="#ffd101" stroke="#ffd101" stroke-width="0.5"/>
      </g>
    </g>
    <g id="Group_3460" data-name="Group 3460" transform="translate(39.968 127.339)">
      <g id="Group_3459" data-name="Group 3459">
        <path id="Path_27020" data-name="Path 27020" d="M349.694,280.774a2.855,2.855,0,1,0,2.855,2.855A2.858,2.858,0,0,0,349.694,280.774Zm0,3.806a.952.952,0,1,1,.952-.952A.953.953,0,0,1,349.694,284.58Z" transform="translate(-346.839 -280.774)" fill="#ffd101" stroke="#ffd101" stroke-width="0.5"/>
      </g>
    </g>
  </g>
</svg>
