<svg xmlns="http://www.w3.org/2000/svg" width="55.026" height="46.772" viewBox="0 0 55.026 46.772">
  <g id="van_1_" data-name="van (1)" transform="translate(0 0)">
    <path id="Path_27062" data-name="Path 27062" d="M93.268,38.886A26.461,26.461,0,0,0,78.7,34.117a1.778,1.778,0,0,0-1.33.51,1.86,1.86,0,0,0-.568,1.334v22A1.813,1.813,0,0,0,78.049,59.7a1.894,1.894,0,0,0,.6.1,1.8,1.8,0,0,0,1.435-.716L82.3,56.22v2.66a2.751,2.751,0,0,0,5.5,0V57.793a2.717,2.717,0,0,0,.917.169,2.765,2.765,0,0,0,2.751-2.751V44.383l.413-.532s.01-.007.013-.011L93.633,41.5a1.864,1.864,0,0,0,.367-1.4,1.807,1.807,0,0,0-.732-1.222ZM78.634,42.371a1.834,1.834,0,0,1,0,3.668Zm11,12.84a.894.894,0,0,1-.28.653.876.876,0,0,1-.636.264.917.917,0,0,1-.917-.917v-.889a.917.917,0,1,0-1.834,0v4.557a.917.917,0,0,1-1.834,0V53.662a.9.9,0,0,0-.353-.705c-.022-.02-.033-.048-.057-.066a.917.917,0,0,0-1.284.162l-3.809,4.909V47.874a3.668,3.668,0,0,0,0-7.337v-.9a20.848,20.848,0,0,1,11.228,3.832l-.03.039a.9.9,0,0,0-.178.562h-.015Zm1.324-13.187a22.641,22.641,0,0,0-12.329-4.2V35.952a24.373,24.373,0,0,1,13.547,4.442Zm0,0" transform="translate(-68.546 -30.449)" fill="#ffd101"/>
    <path id="Path_27063" data-name="Path 27063" d="M112.768,180.128a.917.917,0,1,1-.917-.917A.917.917,0,0,1,112.768,180.128Zm0,0" transform="translate(-99.011 -159.95)" fill="#ffd101"/>
    <path id="Path_27064" data-name="Path 27064" d="M138.37,111.859a.917.917,0,1,1-.917-.917A.917.917,0,0,1,138.37,111.859Zm0,0" transform="translate(-121.862 -99.019)" fill="#ffd101"/>
    <path id="Path_27065" data-name="Path 27065" d="M1.834,419.967a.917.917,0,1,0,0-1.834H.917a.917.917,0,1,0,0,1.834Zm0,0" transform="translate(0 -373.195)" fill="#ffd101"/>
    <path id="Path_27066" data-name="Path 27066" d="M274.9,419.967a.917.917,0,1,0,0-1.834h-.917a.917.917,0,1,0,0,1.834Zm0,0" transform="translate(-243.719 -373.195)" fill="#ffd101"/>
    <path id="Path_27067" data-name="Path 27067" d="M54.108,28.43H44.641L39.83,16.4a2.741,2.741,0,0,0-2.556-1.73H32.1V5.466a2.752,2.752,0,0,0-1.032-2.147L27.662.6A2.808,2.808,0,0,0,25.953,0H2.75A2.751,2.751,0,0,0,0,2.752V37.611a1.808,1.808,0,0,0,1.336,1.764l2.88.917a.927.927,0,0,0,.275.043l2.934.013a5.4,5.4,0,0,0,1.324,4.577H5.5a.917.917,0,0,0,0,1.835h7.337a5.47,5.47,0,0,0,5.422-6.406h18.5A5.4,5.4,0,0,0,38.1,44.924H34.848a.917.917,0,0,0,0,1.835h7.337a5.474,5.474,0,0,0,5.421-6.415h2.9a.915.915,0,0,0,.275-.044l2.751-.881A1.848,1.848,0,0,0,55.025,37.6V29.347a.917.917,0,0,0-.917-.917Zm-.917,1.834L53.184,32.1H51.356V30.265ZM32.1,20.176h7.266l3.3,8.254H32.1Zm6.03-3.091.5,1.257H32.1V16.508h5.177a.916.916,0,0,1,.853.578ZM1.833,28.43l1.834,1.375V31.64L1.833,33.016ZM12.838,44.924a3.668,3.668,0,1,1,3.668-3.668,3.668,3.668,0,0,1-3.668,3.668Zm0-9.171a5.5,5.5,0,0,0-4.769,2.765L4.634,38.5l-2.8-.893v-2.3l2.935-2.2A1.842,1.842,0,0,0,5.5,31.64V29.806a1.842,1.842,0,0,0-.733-1.467l-2.935-2.2V2.752a.917.917,0,0,1,.917-.917h23.2a.953.953,0,0,1,.573.2L29.92,4.749a.918.918,0,0,1,.344.717V29.347a.9.9,0,0,0,.044.275l1.641,5.116a.921.921,0,0,0,.053.13.922.922,0,0,1,.092.408v3.241H17.607a5.5,5.5,0,0,0-4.769-2.765Zm29.347,9.171a3.668,3.668,0,1,1,3.668-3.668A3.668,3.668,0,0,1,42.186,44.924ZM53.03,37.655l-2.67.855H46.946a5.49,5.49,0,0,0-9.53.009H33.932V35.282a2.761,2.761,0,0,0-.257-1.158l-1.237-3.859H49.522V32.1a1.834,1.834,0,0,0,1.834,1.834h1.822l-.012,3.688a.83.83,0,0,0-.136.033Zm0,0" transform="translate(0.001 0)" fill="#ffd101"/>
    <path id="Path_27068" data-name="Path 27068" d="M139.286,136.535a2.751,2.751,0,1,0,2.751,2.751A2.751,2.751,0,0,0,139.286,136.535Zm0,3.668a.917.917,0,1,1,.917-.917A.917.917,0,0,1,139.286,140.2Zm0,0" transform="translate(-121.861 -121.861)" fill="#ffd101"/>
  </g>
</svg>
