<svg xmlns="http://www.w3.org/2000/svg" width="55.823" height="39.837" viewBox="0 0 55.823 39.837">
  <g id="oven" transform="translate(0 0)">
    <g id="Group_2837" data-name="Group 2837" transform="translate(0 0)">
      <g id="Group_2836" data-name="Group 2836">
        <path id="Path_26127" data-name="Path 26127" d="M53.2,105.419h-.022c0-2.6-.017-5.2-.017-7.8,0-9.653-6.622-18.614-15.386-22.3a25.57,25.57,0,0,0-19.407-.181,25.094,25.094,0,0,0-6.019,3.5.818.818,0,0,0,1.01,1.286,23.482,23.482,0,0,1,4.967-2.992l2.2,3.89a19.427,19.427,0,0,0-8.143,6.441L8.822,84.606a24.034,24.034,0,0,1,2.2-2.591.818.818,0,0,0-1.168-1.144,25.528,25.528,0,0,0-2.83,3.441l-.009.012A25.469,25.469,0,0,0,2.646,98.543v6.876H2.624A2.627,2.627,0,0,0,0,108.043v2.481a2.627,2.627,0,0,0,2.624,2.624H42.45a.818.818,0,0,0,0-1.635H2.624a.99.99,0,0,1-.989-.989v-2.481a.99.99,0,0,1,.989-.989H53.2a.99.99,0,0,1,.989.989v2.481a.99.99,0,0,1-.989.989H45.72a.818.818,0,0,0,0,1.635H53.2a2.627,2.627,0,0,0,2.624-2.624v-2.481A2.627,2.627,0,0,0,53.2,105.419ZM44.621,81.833A24.005,24.005,0,0,1,47,84.606L43.44,87.26A19.427,19.427,0,0,0,35.3,80.82l2.2-3.89A23.535,23.535,0,0,1,44.621,81.833ZM19.855,76.314a23.85,23.85,0,0,1,16.113,0l-2.226,3.933a19.227,19.227,0,0,0-11.661,0Zm-11.144,29.1H4.281V98.592l4.43.656v6.171ZM4.334,96.947A23.462,23.462,0,0,1,7.9,85.959l3.576,2.665A19.082,19.082,0,0,0,8.734,97.6Zm36.957,8.472H14.374A6.222,6.222,0,0,1,16,100.257a11.758,11.758,0,0,1,1.879-1.392,12.472,12.472,0,0,0,2.237-1.7,4.427,4.427,0,0,0,1.051-1.647,13.142,13.142,0,0,0,.353-1.278,5.069,5.069,0,0,1,.8-2.019,8.438,8.438,0,0,1,2.631-2.228,11.525,11.525,0,0,1,5.984-1.564,9.534,9.534,0,0,0-.574,1.591A4.8,4.8,0,0,0,31.7,95.184a.819.819,0,0,0,1.348-.556,4.5,4.5,0,0,1,.525-1.638,2.677,2.677,0,0,1,2.014-1.417,8.164,8.164,0,0,0,.118,1.983,8.807,8.807,0,0,0,3.842,5.672C41.6,100.659,41.678,103.27,41.291,105.419Zm4.186,0H42.95c.55-3.423-.291-6.016-2.461-7.532-4.147-2.9-3.207-6.793-3.166-6.953a.818.818,0,0,0-.738-1.027c-.135-.009-.27-.013-.4-.013a4.459,4.459,0,0,0-4.269,2.742c-.591-1.977.984-4.414,1-4.443a.818.818,0,0,0-.543-1.258,10.446,10.446,0,0,0-1.765-.148,13.308,13.308,0,0,0-6.465,1.784,10.054,10.054,0,0,0-3.132,2.672,6.529,6.529,0,0,0-1.081,2.616c-.088.367-.178.746-.309,1.125a2.815,2.815,0,0,1-.673,1.036A11.066,11.066,0,0,1,17,97.491a13.171,13.171,0,0,0-2.135,1.6,7.721,7.721,0,0,0-2.125,6.331H10.346V98.542a17.47,17.47,0,0,1,2.908-9.67h0a17.744,17.744,0,0,1,8.726-6.863h0a17.574,17.574,0,0,1,11.863,0h0a17.744,17.744,0,0,1,8.726,6.863h0a17.47,17.47,0,0,1,2.908,9.67v6.876ZM44.347,88.624l3.576-2.665a23.461,23.461,0,0,1,3.566,10.988l-4.4.651A19.082,19.082,0,0,0,44.347,88.624Zm7.195,16.795h-4.43v-6.17l4.43-.656v6.826Z" transform="translate(0 -73.311)" fill="#ffd100"/>
      </g>
    </g>
  </g>
</svg>
