<svg xmlns="http://www.w3.org/2000/svg" width="63" height="43.282" viewBox="0 0 63 43.282">
  <g id="pasta_5_" data-name="pasta (5)" transform="translate(-34.133)">
    <g id="Group_2996" data-name="Group 2996" transform="translate(40.883 4.5)">
      <g id="Group_2995" data-name="Group 2995" transform="translate(0)">
        <rect id="Rectangle_1116" data-name="Rectangle 1116" width="9" height="2.25" fill="#ffd101"/>
      </g>
    </g>
    <g id="Group_2998" data-name="Group 2998" transform="translate(43.133 9)">
      <g id="Group_2997" data-name="Group 2997">
        <rect id="Rectangle_1117" data-name="Rectangle 1117" width="6.75" height="2.25" fill="#ffd101"/>
      </g>
    </g>
    <g id="Group_3000" data-name="Group 3000" transform="translate(34.133)">
      <g id="Group_2999" data-name="Group 2999">
        <path id="Path_26270" data-name="Path 26270" d="M38.406,24.192a6.83,6.83,0,0,1,0-6.758,9.091,9.091,0,0,0,0-8.992,6.83,6.83,0,0,1,0-6.758A1.125,1.125,0,0,0,37.429,0h-3.3V2.25h1.575a9.1,9.1,0,0,0,.745,7.308,6.83,6.83,0,0,1,0,6.758,9.091,9.091,0,0,0,0,8.992,6.83,6.83,0,0,1,0,6.758,9.036,9.036,0,0,0-.046,8.9,17.365,17.365,0,0,1,.866,2.314l2.158-.636a19.474,19.474,0,0,0-1.025-2.7,6.83,6.83,0,0,1,0-6.758A9.091,9.091,0,0,0,38.406,24.192Z" transform="translate(-34.133)" fill="#ffd101"/>
      </g>
    </g>
    <g id="Group_3002" data-name="Group 3002" transform="translate(39.921)">
      <g id="Group_3001" data-name="Group 3001">
        <path id="Path_26271" data-name="Path 26271" d="M135.243,8.2A6,6,0,0,0,129.1,2.4L96.323,3.36,94.607,1.645A5.587,5.587,0,0,0,90.634,0H80.2a1.125,1.125,0,0,0-.977.566,9.091,9.091,0,0,0,0,8.992,6.83,6.83,0,0,1,0,6.758,9.091,9.091,0,0,0,0,8.992,6.83,6.83,0,0,1,0,6.758,9.091,9.091,0,0,0,0,8.992,6.781,6.781,0,0,1,.4.839l2.088-.837a8.909,8.909,0,0,0-.54-1.118,6.83,6.83,0,0,1,0-6.758,9.091,9.091,0,0,0,0-8.992,6.83,6.83,0,0,1,0-6.758,8.962,8.962,0,0,0,.745-1.684h8.712A5.589,5.589,0,0,0,94.607,14.1l1.7-1.7,32.614,1.917c.117.007.28,0,.349.01a5.981,5.981,0,0,0,5.974-5.97Zm-5.973,3.878a1,1,0,0,0-.214-.006l-33.12-1.946a1.109,1.109,0,0,0-.862.327l-2.059,2.059a3.353,3.353,0,0,1-2.385.987H82.348a9.075,9.075,0,0,0-1.172-5.059,6.837,6.837,0,0,1-.289-6.191h9.746a3.35,3.35,0,0,1,2.384.988L95.075,5.3a1.1,1.1,0,0,0,.828.329l33.265-.98a3.718,3.718,0,1,1,.1,7.434Z" transform="translate(-78.033 0)" fill="#ffd101"/>
      </g>
    </g>
    <g id="Group_3004" data-name="Group 3004" transform="translate(44.419 14.434)">
      <g id="Group_3003" data-name="Group 3003" transform="translate(0)">
        <path id="Path_26272" data-name="Path 26272" d="M115.3,119.241a6.831,6.831,0,0,1,0-6.757,9.017,9.017,0,0,0,.978-2.505l-2.195-.5a6.79,6.79,0,0,1-.735,1.883,9.091,9.091,0,0,0,0,8.992,6.832,6.832,0,0,1,0,6.76,9.087,9.087,0,0,0-.307,8.4l2.031-.966a6.832,6.832,0,0,1,.231-6.316A9.091,9.091,0,0,0,115.3,119.241Z" transform="translate(-112.157 -109.483)" fill="#ffd101"/>
      </g>
    </g>
    <g id="Group_3006" data-name="Group 3006" transform="translate(34.133 4.5)">
      <g id="Group_3005" data-name="Group 3005">
        <rect id="Rectangle_1118" data-name="Rectangle 1118" width="2.25" height="2.25" fill="#ffd101"/>
      </g>
    </g>
    <g id="Group_3008" data-name="Group 3008" transform="translate(34.133 9)">
      <g id="Group_3007" data-name="Group 3007">
        <rect id="Rectangle_1119" data-name="Rectangle 1119" width="3.375" height="2.25" fill="#ffd101"/>
      </g>
    </g>
    <g id="Group_3010" data-name="Group 3010" transform="translate(34.133 13.5)">
      <g id="Group_3009" data-name="Group 3009">
        <rect id="Rectangle_1120" data-name="Rectangle 1120" width="4.5" height="2.25" fill="#ffd101"/>
      </g>
    </g>
  </g>
</svg>
