<svg id="salad" xmlns="http://www.w3.org/2000/svg" width="44.751" height="44.751" viewBox="0 0 44.751 44.751">
  <g id="Group_3314" data-name="Group 3314" transform="translate(0 0)">
    <g id="Group_3313" data-name="Group 3313">
      <path id="Path_26928" data-name="Path 26928" d="M42.829,16.758a4.432,4.432,0,0,1-1.191-2.186,5.438,5.438,0,0,1,.63-1.857c.934-2.038,2.345-5.118-1.384-8.847S34.075,1.55,32.037,2.484a5.438,5.438,0,0,1-1.857.63,4.431,4.431,0,0,1-2.186-1.191C26.551.806,24.574-.723,21.758.384c-2.705,1.063-3.441,3.321-4.152,5.5a11.716,11.716,0,0,1-2.714,5.1c-1.619,1.619-3.337,1.533-5.326,1.432-2.07-.1-4.416-.223-6.516,1.877A7.26,7.26,0,0,0,.88,19.886,26.2,26.2,0,0,0,2.144,26.1c.3,1.064.614,2.164.883,3.3a40.476,40.476,0,0,1,1.088,9.937L.268,43.192A.913.913,0,1,0,1.56,44.484l3.848-3.848a40.479,40.479,0,0,1,9.936,1.088c1.14.269,2.24.581,3.3.883a26.2,26.2,0,0,0,6.219,1.264l.239,0A7.216,7.216,0,0,0,30.458,41.7c2.1-2.1,1.982-4.447,1.877-6.516-.1-1.989-.188-3.706,1.432-5.326a11.716,11.716,0,0,1,5.1-2.714c2.183-.711,4.441-1.446,5.5-4.152C45.475,20.179,43.946,18.2,42.829,16.758Zm-.161,5.567c-.748,1.9-2.267,2.4-4.37,3.083a13.376,13.376,0,0,0-5.824,3.159c-2.193,2.193-2.072,4.593-1.964,6.71.1,1.935.182,3.605-1.345,5.132-2.559,2.559-5.688,1.67-10.019.441-1.083-.307-2.2-.625-3.383-.9A43.37,43.37,0,0,0,7.23,38.813l7.983-7.983,12.326-.052a.913.913,0,0,0,0-1.827h0L17.048,29l7.765-7.765,8.13-.035a.913.913,0,0,0,0-1.827h0l-6.288.027,6.541-6.541A.913.913,0,1,0,31.9,11.564L25.364,18.1l.027-6.272a.913.913,0,0,0-.909-.917h0a.913.913,0,0,0-.913.909l-.035,8.114L15.764,27.7l.044-10.468a.913.913,0,0,0-.909-.917h0a.913.913,0,0,0-.913.909l-.052,12.31L5.939,37.522a43.367,43.367,0,0,0-1.133-8.533c-.279-1.18-.6-2.3-.9-3.383-1.23-4.331-2.118-7.46.441-10.019,1.527-1.527,3.2-1.442,5.132-1.344,2.117.107,4.517.228,6.71-1.964a13.375,13.375,0,0,0,3.159-5.824c.685-2.1,1.179-3.622,3.083-4.37,1.85-.727,3.055.2,4.45,1.284a5.63,5.63,0,0,0,3.3,1.573,6.5,6.5,0,0,0,2.618-.8c1.949-.893,3.964-1.816,6.8,1.015s1.908,4.846,1.015,6.8a6.5,6.5,0,0,0-.8,2.618,5.629,5.629,0,0,0,1.573,3.3C42.464,19.271,43.4,20.476,42.669,22.326Z" transform="translate(-0.001 0)" fill="#999"/>
    </g>
  </g>
  <g id="Group_3316" data-name="Group 3316" transform="translate(5.194 18.835)">
    <g id="Group_3315" data-name="Group 3315">
      <path id="Path_26929" data-name="Path 26929" d="M62.906,225.231c-.221-.934-.472-1.819-.715-2.675-.655-2.307-1.22-4.3-.78-5.908a.913.913,0,1,0-1.762-.482c-.574,2.1.086,4.426.785,6.888.237.836.483,1.7.694,2.6a.913.913,0,1,0,1.778-.42Z" transform="translate(-59.43 -215.494)" fill="#999"/>
    </g>
  </g>
  <g id="Group_3318" data-name="Group 3318" transform="translate(6.689 16.631)">
    <g id="Group_3317" data-name="Group 3317">
      <path id="Path_26930" data-name="Path 26930" d="M78.087,190.533a.919.919,0,1,0-.006,1.312l.021-.021A.913.913,0,0,0,78.087,190.533Z" transform="translate(-76.53 -190.273)" fill="#999"/>
    </g>
  </g>
</svg>
