<svg xmlns="http://www.w3.org/2000/svg" width="55.672" height="44.231" viewBox="0 0 55.672 44.231">
  <g id="ham" transform="translate(0.25 -52.837)">
    <path id="Path_26986" data-name="Path 26986" d="M55.172,79.3V76.951A23.831,23.831,0,0,0,48.256,60.08a23.349,23.349,0,0,0-16.707-6.993H23.267A23.172,23.172,0,0,0,7.284,59.445.809.809,0,0,0,8.395,60.62,21.65,21.65,0,0,1,44.917,76.354v3.772a3.27,3.27,0,0,1-2.359-3.354A19.516,19.516,0,0,0,23.321,57.1h-.055A19.069,19.069,0,0,0,9.72,62.729,19.441,19.441,0,0,0,3.975,76.591a3.324,3.324,0,0,1-2.359,3.535V76.354A21.466,21.466,0,0,1,5.928,63.385a.809.809,0,0,0-1.294-.969A23.07,23.07,0,0,0,0,76.354v4.774a9.134,9.134,0,0,0,8.842,9.118,3.918,3.918,0,0,0,2.768,6.572H52.7c3.177,0,3.152-4.933,0-4.933H49.526c0-.717,0-1.832-.006-2.97A10.973,10.973,0,0,0,55.172,79.3Zm-7.284,7.179a2.332,2.332,0,0,1,.013.239l0,5.788a4.411,4.411,0,0,0,.936,2.69H42.379a3.912,3.912,0,0,0,.757-2.316V92.1a.809.809,0,0,0-1.616,0v.784a2.319,2.319,0,0,1-2.3,2.316h-.031a2.319,2.319,0,0,1-2.3-2.315l0-6.164a3.983,3.983,0,0,0-.789-2.38H42.3a3.986,3.986,0,0,0-.785,2.283c0,.007,0,.014,0,.021v1.669a.809.809,0,0,0,1.616,0V86.656c.085-2.882,4.466-3,4.751-.172ZM49.714,93.5H52.7a.85.85,0,0,1,0,1.7h-.891A2.638,2.638,0,0,1,49.714,93.5ZM30.5,86.656a2.383,2.383,0,0,1,4.765.066l0,6.163a3.911,3.911,0,0,0,.757,2.315H29.038A5.228,5.228,0,0,0,30.5,91.57Zm-13.493.169a2.333,2.333,0,0,1,2.068-2.483H29.669a3.986,3.986,0,0,0-.784,2.282q0,.01,0,.021V91.57a3.636,3.636,0,0,1-3.6,3.631,2.258,2.258,0,0,1-2.39-2.208,4.107,4.107,0,0,0-4.1-4.1H17.009V86.825Zm-5.121,3.681h6.9a2.489,2.489,0,0,1,2.486,2.486,3.8,3.8,0,0,0,.7,2.208H11.61c-3.072,0-2.68-4.694.277-4.694Zm33-8.733a7.459,7.459,0,0,1-.143.951H25.477c-.009-.021-.016-.043-.025-.064a13.161,13.161,0,0,0-1.534-2.68,7.415,7.415,0,0,0,1.744.213q.273,0,.544-.022a8.317,8.317,0,0,0,5.724-3.307c.125-.153.261-.324.409-.51,2.126-2.674,4.661-5.42,7.956-4.424a18.337,18.337,0,0,1,.648,4.84v.252a4.821,4.821,0,0,0,3.946,4.75ZM23.266,58.72h.05A17.727,17.727,0,0,1,39.711,70.158c-4.093-.526-7.107,3.265-8.638,5.191-1.75,2.2-4.047,3.777-6.964,3-3.072-.818-3.932-3.467-3.27-6.359,1.092-4.77-2.859-10.145-7.911-9.888A17.4,17.4,0,0,1,23.266,58.72ZM1.646,81.773a4.937,4.937,0,0,0,3.946-5.182A17.826,17.826,0,0,1,9.936,64.867c4.571-3.363,10.5,1.619,9.327,6.763-.93,4.063.61,5.927,2.241,7.9a15.815,15.815,0,0,1,2.2,3.193H19.018A3.96,3.96,0,0,0,15.392,86.8s0,.01,0,.015h0v1.819H9.125a7.517,7.517,0,0,1-7.479-6.864Zm47.872,5.245a4.112,4.112,0,0,0-3.144-4.2,35.571,35.571,0,0,0,.16-6.466A23.311,23.311,0,0,0,31.826,54.707,22.157,22.157,0,0,1,53.555,76.951V79.3a9.359,9.359,0,0,1-4.038,7.713Z" fill="#999" stroke="#999" stroke-width="0.5"/>
  </g>
</svg>
