<svg id="tomato" xmlns="http://www.w3.org/2000/svg" width="44.751" height="44.751" viewBox="0 0 44.751 44.751">
  <g id="Group_3346" data-name="Group 3346" transform="translate(11.107 35.019)">
    <g id="Group_3345" data-name="Group 3345">
      <path id="Path_26944" data-name="Path 26944" d="M128.581,400.869l-.01-.008a.916.916,0,1,0,.01.008Z" transform="translate(-127.078 -400.651)" fill="#999"/>
    </g>
  </g>
  <g id="Group_3348" data-name="Group 3348" transform="translate(4.935 23.282)">
    <g id="Group_3347" data-name="Group 3347">
      <path id="Path_26945" data-name="Path 26945" d="M62.3,276.584a14.24,14.24,0,0,1-4-9.3.913.913,0,1,0-1.827,0,16.075,16.075,0,0,0,4.483,10.532.913.913,0,0,0,1.348-1.233Z" transform="translate(-56.467 -266.371)" fill="#999"/>
    </g>
  </g>
  <g id="Group_3350" data-name="Group 3350" transform="translate(0 0)">
    <g id="Group_3349" data-name="Group 3349">
      <path id="Path_26946" data-name="Path 26946" d="M38.03,12.113a28.416,28.416,0,0,0-13.32-3.65A4.608,4.608,0,0,1,28.1,3.733a.913.913,0,0,0,.48-1.445L27.061.35A.914.914,0,0,0,26.1.032,8.075,8.075,0,0,0,23.328,1.47a7.6,7.6,0,0,0-2.849,6.973C15,8.677,10.273,9.933,6.722,12.113,2.324,14.812,0,18.79,0,23.617a18.211,18.211,0,0,0,1.771,7.565,24.238,24.238,0,0,0,11.877,11.67,21.008,21.008,0,0,0,17.455,0A24.238,24.238,0,0,0,42.98,31.183a18.211,18.211,0,0,0,1.771-7.565C44.751,18.79,42.427,14.812,38.03,12.113Zm-13.576-9.2a6.76,6.76,0,0,1,1.568-.922l.361.461a6.443,6.443,0,0,0-3.505,5.958c-.167,0-.334,0-.5,0h-.057A5.771,5.771,0,0,1,24.454,2.908Zm-9.128,8.043a.906.906,0,0,0,.281-.144,37.706,37.706,0,0,1,6.769-.578,37.594,37.594,0,0,1,6.884.6.909.909,0,0,0,.337.144,7.606,7.606,0,0,1,5.434,5.246,17.056,17.056,0,0,0-8.106-2.607.913.913,0,0,0-.548,1.644A9.234,9.234,0,0,1,29.5,20.04a19.773,19.773,0,0,0-6.854-4.109.914.914,0,0,0-.428-.042c-2.231.313-4.621,2.345-6.541,3.978l-.311.264a11.853,11.853,0,0,1,2.812-5.043.913.913,0,0,0-.655-1.591A31.246,31.246,0,0,0,9.834,14.89C11.517,12.156,15.28,10.965,15.326,10.951Zm21.582,25.7a20.638,20.638,0,0,1-14.532,6.27,20.639,20.639,0,0,1-14.532-6.27c-3.768-3.748-6.017-8.622-6.017-13.038,0-4.218,1.968-7.565,5.851-9.947q.628-.385,1.311-.728A7.389,7.389,0,0,0,7.3,16.531a.913.913,0,0,0,1.407.907c1.691-1.123,4.734-1.669,6.786-1.92a15.837,15.837,0,0,0-2.439,6.74.913.913,0,0,0,1.386.9,22.415,22.415,0,0,0,2.418-1.894c1.671-1.42,3.733-3.174,5.4-3.524,3.135,1.134,4.782,2.573,7.716,5.138.081.07.159.144.242.211a.913.913,0,0,0,1.49-.755,11.788,11.788,0,0,0-2.265-6.513A14.283,14.283,0,0,1,35.7,19.067a.913.913,0,0,0,1.558-.694A10.322,10.322,0,0,0,35.264,12.7a18.292,18.292,0,0,1,1.81.972c3.882,2.383,5.85,5.729,5.85,9.947C42.925,28.033,40.675,32.907,36.908,36.655Z" transform="translate(0 0)" fill="#999"/>
    </g>
  </g>
</svg>
