<svg xmlns="http://www.w3.org/2000/svg" width="50" height="41.59" viewBox="0 0 50 41.59">
  <g id="anchovy" transform="translate(0 -43.059)">
    <path id="Path_27013" data-name="Path 27013" d="M.8,55.659c3.084,2.32,7.742,3.58,13.859,3.751a9.347,9.347,0,0,0,7.024,3.43.733.733,0,0,0,.529-1.21L20.2,59.293q2.167-.141,4.474-.426c.814,1.01,3.132,3.667,5.311,4.091a.733.733,0,0,0,.692-.237c.029-.033,2.945-3.315,6.913-3.2a.733.733,0,0,0,.378-1.372l-2.337-1.3c.972-.237,1.881-.475,2.707-.707l10.139,2.639a1.24,1.24,0,0,0,1.444-1.672,7.817,7.817,0,0,0-2.879-3.745,7.821,7.821,0,0,0,2.733-3.853,1.24,1.24,0,0,0-1.51-1.614L38.219,50.831a50.346,50.346,0,0,0-12.162-2.28l.565-1.068A1.161,1.161,0,0,0,26.267,46L22.406,43.27a1.164,1.164,0,0,0-1.4.045,9.005,9.005,0,0,0-3.531,5.259c-8.16.579-14.9,2.662-16.7,4.094A1.832,1.832,0,0,0,.8,55.659Zm15.97,3.768q.776-.009,1.574-.038l1.523,1.765A8.542,8.542,0,0,1,16.77,59.427Zm31.461-9.995c-.52,1.252-1.531,2.966-3.207,3.143a.831.831,0,0,0,.031,1.655c1.68.113,2.755,1.782,3.323,3.013L41,55.324a15.188,15.188,0,0,0,1.793-.709,1.125,1.125,0,0,0-.041-2.026q-1.071-.488-2.181-.919ZM21.751,44.6,25.2,47.037l-.756,1.428c-1.766-.071-3.553-.069-5.453.02A7.837,7.837,0,0,1,21.751,44.6ZM41.44,53.608a68.886,68.886,0,0,1-10.115,2.7.732.732,0,0,0,.287,1.436q1-.2,1.942-.408c.108.117.037.063,1.692.983a12.035,12.035,0,0,0-5.353,3.1A10.5,10.5,0,0,1,26.4,58.635q1.141-.164,2.309-.361a.732.732,0,1,0-.244-1.444,72.751,72.751,0,0,1-13.677,1.118,6.514,6.514,0,0,0-3.34-7.163c9.79-1.7,20.766-1.169,29.994,2.822Zm-39.756.207c.87-.691,3.451-1.683,7.082-2.5A6.55,6.55,0,0,1,12.6,53.706a5.518,5.518,0,0,1,.719,4.181c-5.12-.3-9.025-1.436-11.633-3.4a.379.379,0,0,1,0-.674Z" transform="translate(-0.012)" fill="#ffd101"/>
    <ellipse id="Ellipse_102" data-name="Ellipse 102" cx="1.113" cy="1.115" rx="1.113" ry="1.115" transform="translate(5.133 52.55)" fill="#ffd101"/>
    <path id="Path_27014" data-name="Path 27014" d="M49.237,274.648c-1.115-.886-3.979-1.934-7.474-2.737a60.875,60.875,0,0,0-9.231-1.357A9.005,9.005,0,0,0,29,265.295a1.164,1.164,0,0,0-1.4-.045l-3.861,2.726a1.161,1.161,0,0,0-.356,1.488l.565,1.068a50.348,50.348,0,0,0-12.162,2.28L1.746,269.877a1.24,1.24,0,0,0-1.507,1.615,7.82,7.82,0,0,0,2.733,3.853,7.817,7.817,0,0,0-2.879,3.745A1.24,1.24,0,0,0,1.239,280.8c.26,0-.577.191,10.45-2.679.818.231,1.722.47,2.7.71l-2.337,1.3a.733.733,0,0,0,.378,1.372c3.955-.118,6.885,3.168,6.913,3.2a.733.733,0,0,0,.692.237c2.175-.423,4.489-3.072,5.307-4.086,1.47.181,2.969.326,4.477.423L27.8,283.61a.732.732,0,0,0-.117.772.824.824,0,0,0,.886.443c3.647,0,6.289-2.859,6.783-3.434a39.491,39.491,0,0,0,5.642-.536.732.732,0,1,0-.252-1.443,35.818,35.818,0,0,1-4.045.454,5.517,5.517,0,0,1,.719-4.18,6.551,6.551,0,0,1,3.829-2.389c3.631.815,6.211,1.807,7.082,2.5a.379.379,0,0,1,0,.674,15.072,15.072,0,0,1-4.817,2.3.732.732,0,1,0,.414,1.4,16.516,16.516,0,0,0,5.283-2.538,1.832,1.832,0,0,0,.026-2.991ZM28.26,266.581a7.836,7.836,0,0,1,2.758,3.884c-1.9-.089-3.685-.091-5.453-.02l-.756-1.428ZM1.632,279.224c.568-1.231,1.643-2.9,3.323-3.013a.831.831,0,0,0,.032-1.655c-1.677-.177-2.687-1.891-3.208-3.143l7.657,2.237q-1.109.431-2.181.919a1.125,1.125,0,0,0-.042,2.026,15.546,15.546,0,0,0,1.807.706ZM20.118,283.4a12.03,12.03,0,0,0-5.353-3.1c1.646-.915,1.581-.863,1.69-.98,2.175.483,4.6.943,7.153,1.308A10.459,10.459,0,0,1,20.118,283.4Zm10.023-.261,1.524-1.767q.791.029,1.58.038A8.478,8.478,0,0,1,30.141,283.137Zm5.083-3.208a84.428,84.428,0,0,1-26.656-4.34c9.21-3.983,20.19-4.524,30-2.823A6.514,6.514,0,0,0,35.224,279.929Z" transform="translate(0 -200.303)" fill="#ffd101"/>
    <ellipse id="Ellipse_103" data-name="Ellipse 103" cx="1.113" cy="1.115" rx="1.113" ry="1.115" transform="translate(42.64 74.227)" fill="#ffd101"/>
  </g>
</svg>
