<svg xmlns="http://www.w3.org/2000/svg" xmlns:xlink="http://www.w3.org/1999/xlink" width="85.403" height="74.91" viewBox="0 0 85.403 74.91">
  <defs>
    <clipPath id="clip-path">
      <rect width="85.403" height="74.91" fill="none"/>
    </clipPath>
  </defs>
  <g id="Group_3515" data-name="Group 3515" transform="translate(-313.597 -592.539)">
    <g id="Repeat_Grid_1" data-name="Repeat Grid 1" transform="translate(313.597 592.539)" clip-path="url(#clip-path)">
      <g id="Group_3514" data-name="Group 3514" transform="translate(-313.597 -592.539)">
        <g id="Group_3513" data-name="Group 3513">
          <g id="Group_2819" data-name="Group 2819" transform="translate(-1129.102 -973)">
            <g id="Group_2818" data-name="Group 2818" transform="translate(1402.102 1575.851)">
              <g id="Group_3512" data-name="Group 3512" transform="translate(0)">
                <path id="Path_26022" data-name="Path 26022" d="M5463.16,2569.86l27,37.455-27,37.455h85.253v-74.91Z" transform="translate(-5422.413 -2580.172)" fill="#ffd101"/>
                <path id="Path_26023" data-name="Path 26023" d="M5465.863,2569.86h-2.7l27,37.455-27,37.455h2.7l27-37.455Z" transform="translate(-5422.565 -2580.172)" fill="#e3051b"/>
              </g>
            </g>
            <path id="Path_26368" data-name="Path 26368" d="M2314.417,1208.148h-11.434c0-1.3,1.906-2.633,1.906-5.266,0-1.974-1.487-2.631-3.175-2.631-.557,0-1.57,2.385-1.788,2.856-.237.453-.476.906-.733,1.338a21.793,21.793,0,0,1-2.224,2.981c-1.27,1.5-2.679,3.353-4.783,3.353h-.636v13.163h.636c3.475,0,6.867,2.631,10.719,2.631,2.224,0,3.751-.967,3.751-3.434a7.2,7.2,0,0,0-.1-1.152,3.1,3.1,0,0,0,1.292-2.591,2.957,2.957,0,0,0-.358-1.42,3.319,3.319,0,0,0,1.053-2.447,3.8,3.8,0,0,0-.695-2.117h6.57a2.634,2.634,0,0,0,2.542-2.633,2.674,2.674,0,0,0-2.542-2.631Zm-26.679,13.162a1.317,1.317,0,1,0,1.27,1.315A1.3,1.3,0,0,0,2287.738,1221.31Zm26.679-5.264h-3.355a5.942,5.942,0,0,1-.734,2.446,6.739,6.739,0,0,1,.06.884,6.141,6.141,0,0,1-1.192,3.661c.039,3.887-2.521,6.17-6.193,6.17a18.045,18.045,0,0,1-6.392-1.42,15.758,15.758,0,0,0-4.427-1.213h-5.717a2.581,2.581,0,0,1-2.541-2.631v-13.163a2.581,2.581,0,0,1,2.541-2.631h5.717c.954,0,2.3-1.768,2.878-2.448a21.633,21.633,0,0,0,1.986-2.654c1.15-1.913,2-5.428,4.664-5.428,3.157,0,5.715,1.788,5.715,5.264a7.869,7.869,0,0,1-.436,2.633h7.424a5.268,5.268,0,0,1,0,10.53Z" transform="translate(-802.926 390.137)"/>
          </g>
        </g>
      </g>
    </g>
  </g>
</svg>
