<svg id="Group_2971" data-name="Group 2971" xmlns="http://www.w3.org/2000/svg" width="29.596" height="51.728" viewBox="0 0 29.596 51.728">
  <g id="vinegar_1_" data-name="vinegar (1)" transform="translate(0 0)">
    <g id="Group_2970" data-name="Group 2970" transform="translate(0)">
      <g id="Group_2969" data-name="Group 2969">
        <path id="Path_26245" data-name="Path 26245" d="M95,11.481a7.992,7.992,0,0,0-3.9,1.025A25.146,25.146,0,0,1,91.506,9.7a1.11,1.11,0,0,0-.78-1.29l-.411-.119L90.7,1.17A1.11,1.11,0,0,0,89.594,0H83.918a1.11,1.11,0,0,0-1.107,1.194L83.2,6.241l-1.938-.558a1.11,1.11,0,0,0-1.281,1.6L82.664,12.2a21.443,21.443,0,0,1-3.989,15.122,17.556,17.556,0,0,0-3.911,11.321c0,5.08,1.1,8.289,3.554,10.306a3.14,3.14,0,0,0,3.115,2.784H92.355a3.14,3.14,0,0,0,3.115-2.784c2.454-2.018,3.554-5.226,3.554-10.306a19.116,19.116,0,0,0-.716-5.194,9.829,9.829,0,0,0,4.2-3.827,12.923,12.923,0,0,0,1.853-6.788C104.36,16.572,100.159,11.481,95,11.481ZM88.422,2.22l-.3,5.442L85.473,6.9,85.116,2.22Zm.721,8.045a25.164,25.164,0,0,0,.187,9.579H84.453a24.942,24.942,0,0,0,.4-8.09,1.079,1.079,0,0,0-.131-.428L83.2,8.554ZM93.762,47.46a1.274,1.274,0,0,0-.5,1.249.916.916,0,0,1-.907.8H81.433a.916.916,0,0,1-.907-.8,1.278,1.278,0,0,0-.5-1.25c-2.1-1.534-3.041-4.254-3.041-8.822a15.4,15.4,0,0,1,3.208-9.669,20.618,20.618,0,0,0,3.663-6.9h6.073a20.614,20.614,0,0,0,3.668,6.9A15.4,15.4,0,0,1,96.8,38.638C96.8,43.205,95.866,45.926,93.762,47.46Zm2.294-18.907A14.292,14.292,0,0,0,95.1,27.3a18.768,18.768,0,0,1-2.559-4.572,21.741,21.741,0,0,1-1.169-4.036,4.139,4.139,0,0,1,3.206-1.716c2.526,0,4.582,2.67,4.582,5.951A6.117,6.117,0,0,1,96.056,28.553Zm1.514,2.787q-.186-.438-.393-.86a8.312,8.312,0,0,0,4.2-7.554c0-4.505-3.051-8.171-6.8-8.171A6.468,6.468,0,0,0,91,16.258c-.013-.229.01-.77,0-1,.02-.015.041-.028.06-.044A6.053,6.053,0,0,1,95,13.7c3.939,0,7.143,4.094,7.143,9.127C102.14,26.608,100.291,29.991,97.569,31.341Z" transform="translate(-74.764 0)" fill="#999"/>
      </g>
    </g>
  </g>
  <g id="grape" transform="translate(6.466 30.175)">
    <path id="Path_26252" data-name="Path 26252" d="M53.4,4.978a1.92,1.92,0,0,0-1.25-1.06,3.233,3.233,0,0,0-1.263-.085,6.636,6.636,0,0,1,1.3-.347c.068-.008.137-.014.205-.019a.647.647,0,0,0,.637-.637.639.639,0,0,0-.637-.637,6.849,6.849,0,0,0-2.157.533,8.768,8.768,0,0,0-2.039,1.158,7.282,7.282,0,0,0,.187-1.149,3.353,3.353,0,0,0-.1-1.113A2.762,2.762,0,0,0,47.7.56a3.284,3.284,0,0,0-.479-.445L47.2.091a.325.325,0,0,0-.45,0,1.652,1.652,0,0,0-.483.92,5.349,5.349,0,0,0-.117,1.067,4.217,4.217,0,0,0,.581,2.3q.046.076.1.149a2.374,2.374,0,0,0-.93.035q-.008-.084-.021-.167a2.375,2.375,0,1,0-4.066,2.021,2.373,2.373,0,0,0-.37,3.569A2.374,2.374,0,1,0,45.074,12.6a2.356,2.356,0,0,0,1.014.228A2.38,2.38,0,0,0,48.37,11.12a2.357,2.357,0,0,0,.993.218,2.375,2.375,0,1,0-.549-4.685,2.383,2.383,0,0,0-.42-1.147c.031-.026.062-.052.094-.078l.023-.017.07-.05c.053-.037.106-.073.161-.108a5.346,5.346,0,0,1,.716-.381l.06-.026.069-.028c.07-.028.14-.054.211-.08q.206-.074.418-.131t.425-.1c.065-.012.13-.023.2-.032l.043-.005L51,4.459a3.636,3.636,0,0,1,.414-.012c.064,0,.128.006.192.012l.044,0,.089.013a2.188,2.188,0,0,1,.365.1l.058.023.042.02a1.664,1.664,0,0,1,.165.092c.024.015.048.032.072.049l.011.008,0,0a1.5,1.5,0,0,1,.138.13c.02.021.04.044.059.067l.011.014,0,0a1.59,1.59,0,0,1,.107.17c.016.028.03.057.044.086l.016.035a1.668,1.668,0,0,1,.073.225c0,.017.007.034.01.051v.007a1.018,1.018,0,0,1,0,.122c0,.02,0,.04,0,.061h0a1.156,1.156,0,0,1-.031.133c-.005.017-.032.088-.032.09-.012.026-.025.052-.039.077s-.042.071-.064.1l-.012.017-.039.048a1.3,1.3,0,0,1-.153.148c.007-.007-.063.044-.079.054a1.237,1.237,0,0,1-.125.068l-.006,0-.05.018a1.108,1.108,0,0,1-.117.032l-.023,0-.033,0a1.012,1.012,0,0,1-.144,0l-.026,0-.034-.007a.981.981,0,0,1-.12-.034h0l-.027-.014c-.016-.008-.059-.038-.072-.046l-.033-.032c-.009-.009-.026-.029-.037-.043l-.027-.043c-.008-.013-.023-.047-.031-.065a.851.851,0,0,1-.028-.111c0-.008,0-.016,0-.024a.785.785,0,0,1,0-.094V6.019a.661.661,0,0,1,.02-.074l0-.009c.006-.012.013-.024.02-.036a.389.389,0,0,1,.027-.031l0,0,.027-.014.023-.006h.054l.033.005a.823.823,0,0,1,.084.024.32.32,0,0,0,.392-.222A.323.323,0,0,0,52,5.261a.807.807,0,0,0-.882.2,1.017,1.017,0,0,0-.188.879,1.051,1.051,0,0,0,.558.713A1.377,1.377,0,0,0,52.7,7.011a1.654,1.654,0,0,0,.773-.893,1.325,1.325,0,0,0,.081-.562A1.8,1.8,0,0,0,53.4,4.978ZM46.812,2.718V2.709c0-.031-.007-.062-.01-.093a5.352,5.352,0,0,1,.011-.964c0-.041.008-.082.012-.124,0-.021,0-.042.007-.062v0q.019-.133.047-.264c.017-.08.039-.159.063-.236.012-.038.025-.075.039-.111l0,0c.009-.019.018-.039.027-.058l.01-.018L47.049.8a2.849,2.849,0,0,1,.221.232l.045.055h0l.006.008c.027.036.053.074.078.112a2.35,2.35,0,0,1,.143.248c.014.029.028.058.041.088-.007-.015.028.073.035.091a2.414,2.414,0,0,1,.076.262c.01.041.018.082.025.123,0,.016.012.081.015.1.009.079.015.159.018.238a3.913,3.913,0,0,1-.02.539c0,.033-.007.065-.011.1,0-.009-.012.084-.015.1-.015.1-.033.193-.052.289-.06.3-.137.6-.218.9l-.008-.011c-.019-.025-.037-.051-.054-.077a3.374,3.374,0,0,1-.293-.526l-.016-.036-.019-.046c-.018-.046-.035-.092-.052-.138-.036-.1-.067-.2-.094-.3s-.046-.188-.064-.284C46.827,2.813,46.82,2.765,46.812,2.718Zm.347,3.163a1.218,1.218,0,0,1,.32,1.636l-.045.06-.043.062a1.222,1.222,0,0,1-.944.447A1.217,1.217,0,0,1,45.42,6.223l.045-.06.043-.062a1.222,1.222,0,0,1,.944-.447A1.207,1.207,0,0,1,47.159,5.881ZM42.186,7.649a1.221,1.221,0,0,1,.99-.507A1.217,1.217,0,0,1,44.2,9.006l-.045.06-.043.062a1.222,1.222,0,0,1-.944.447,1.217,1.217,0,0,1-.987-1.926Zm.36-3.581a1.221,1.221,0,0,1,.99-.507,1.217,1.217,0,0,1,1.029,1.864l-.045.06-.043.062a1.222,1.222,0,0,1-.944.447,1.217,1.217,0,0,1-.987-1.926Zm1.234,8.577a1.221,1.221,0,0,1-.99.507,1.217,1.217,0,0,1-.987-1.926,1.221,1.221,0,0,1,.99-.507,1.217,1.217,0,0,1,.987,1.926Zm3.3-1.485a1.221,1.221,0,0,1-.99.507A1.217,1.217,0,0,1,45.06,9.8l.045-.06.043-.062a1.222,1.222,0,0,1,.944-.447,1.217,1.217,0,0,1,.987,1.926Zm3-3.186a1.217,1.217,0,0,1,.279,1.7,1.221,1.221,0,0,1-.99.507,1.217,1.217,0,0,1-1.028-1.864l.045-.06.043-.062a1.222,1.222,0,0,1,.944-.447A1.208,1.208,0,0,1,50.074,7.974Z" transform="translate(-40.418 0)" fill="#999"/>
  </g>
</svg>
