<svg xmlns="http://www.w3.org/2000/svg" width="64.794" height="51.249" viewBox="0 0 64.794 51.249">
  <g id="Group_3515" data-name="Group 3515" transform="translate(-283 -454.264)">
    <path id="Path_27073" data-name="Path 27073" d="M44.692,4.8C36.611,4.8,30,9.6,30,15.516c0,.216,4.321,39.841,4.321,39.841a.75.75,0,0,0,.735.691H54.285a.75.75,0,0,0,.735-.691S59.341,15.6,59.341,15.516C59.384,9.6,52.772,4.8,44.692,4.8Zm0,1.512c7,0,12.747,3.846,13.136,8.642l-.778.259a2.466,2.466,0,0,0-1.6-1.469,2.226,2.226,0,0,0-.821-1.556,2.148,2.148,0,0,0-1.426-.519,2.6,2.6,0,0,0-.951-1.21,2.5,2.5,0,0,0-1.685-.346,2.892,2.892,0,0,0-1.34-1.253,2.637,2.637,0,0,0-1.988,0,2.781,2.781,0,0,0-1.815-.951,3,3,0,0,0-2.29.735,3.261,3.261,0,0,0-2.377-.432,3.343,3.343,0,0,0-2.2,1.685,2.9,2.9,0,0,0-1.945.6,3.277,3.277,0,0,0-1.253,2.161,3.192,3.192,0,0,0-1.772.562A3.436,3.436,0,0,0,32.2,15.214,3.65,3.65,0,0,0,31.469,15c.475-4.883,6.222-8.686,13.223-8.686Zm-1.34,15.081a4.451,4.451,0,0,0,.259-1.512,4.61,4.61,0,0,0-1.426-3.327,30.211,30.211,0,0,1-.389-3.975h1.08a25.864,25.864,0,0,0,2.161,9.679,2.608,2.608,0,0,0-.346.346C44.26,22.214,43.784,21.825,43.352,21.393Zm-1.3-1.08a30.086,30.086,0,0,0-4.71-3.025,3.064,3.064,0,0,1,4.235.907A3.281,3.281,0,0,1,42.056,20.313Zm5.617-.259a26.518,26.518,0,0,1-.907-6.352h1.08a19.87,19.87,0,0,0,.216,2.766,12.948,12.948,0,0,0-.173,3.414C47.846,19.924,47.76,19.967,47.674,20.054Zm1.685-1.21a7.641,7.641,0,0,1,.216-2.2c.173-.648.432-1.08.691-1.167s.907.389,1.642,1.858C51,17.85,50.18,18.325,49.359,18.844Zm3.889-2.117c-1.253-2.506-2.463-2.852-3.327-2.679a2.171,2.171,0,0,0-.562.216c-.043-.432-.043-.864-.043-1.3a.739.739,0,0,0-.735-.778l-2.593-.043a.716.716,0,0,0-.519.216.8.8,0,0,0-.216.519,30.531,30.531,0,0,0,1.123,8.167c-.086.043-.13.13-.173.173a23.045,23.045,0,0,1-1.815-9.334.767.767,0,0,0-.735-.778l-2.593-.043a.91.91,0,0,0-.562.216.8.8,0,0,0-.216.519,35.035,35.035,0,0,0,.216,3.716,4.451,4.451,0,0,0-1.512-.259,4.675,4.675,0,0,0-3.154,1.253c-.691-.3-1.426-.6-2.161-.907a1.912,1.912,0,0,1,.821-1.253,1.442,1.442,0,0,1,1.383-.216.734.734,0,0,0,.951-.778,1.985,1.985,0,0,1,.691-1.728,1.34,1.34,0,0,1,1.21-.216.725.725,0,0,0,.951-.475,1.849,1.849,0,0,1,1.34-1.3,1.719,1.719,0,0,1,1.6.475.853.853,0,0,0,.6.259.739.739,0,0,0,.562-.3A1.553,1.553,0,0,1,45.21,9.38a1.229,1.229,0,0,1,1.037.778.744.744,0,0,0,.994.389c.043-.043.13-.043.173-.086a1.062,1.062,0,0,1,1.167-.216,1.227,1.227,0,0,1,.735.864.74.74,0,0,0,.821.691.625.625,0,0,0,.3-.086.865.865,0,0,1,1.34.691.74.74,0,0,0,.691.821.548.548,0,0,0,.259-.043.891.891,0,0,1,.864.086,1.2,1.2,0,0,1,.3.994.78.78,0,0,0,.648.864c.648.043.864.216.994.6C54.8,16.035,54.026,16.337,53.248,16.726Zm-21.606-.173a29.143,29.143,0,0,1,11.97,7.26,25.009,25.009,0,0,0-4.8,8.21,27,27,0,0,0,2.2,22.47H35.747Zm11.149,37.94a25.5,25.5,0,0,1-2.549-21.951c3.543-9.679,11.8-14.087,17.5-15.988l-4.105,37.94Z" transform="translate(253 449.464)" fill="#000000"/>
    <g id="burger" transform="translate(319 476.801)">
      <path id="Path_26576" data-name="Path 26576" d="M286.677,45.191a12.212,12.212,0,0,1,4.954,1.879,7.721,7.721,0,0,1,2.867,3.305.562.562,0,1,0,1.036-.437,8.837,8.837,0,0,0-3.273-3.8,13.341,13.341,0,0,0-5.412-2.059.562.562,0,0,0-.172,1.112Zm0,0" transform="translate(-270.105 -41.594)" fill="#000000"/>
      <path id="Path_26577" data-name="Path 26577" d="M99.676,125.985a.562.562,0,1,0,.194-.674A.575.575,0,0,0,99.676,125.985Zm0,0" transform="translate(-94.032 -118.169)" fill="#000000"/>
      <path id="Path_26578" data-name="Path 26578" d="M147.847,88.74a.562.562,0,1,0,.19-.671A.574.574,0,0,0,147.847,88.74Zm0,0" transform="translate(-139.494 -83.018)" fill="#000000"/>
      <path id="Path_26579" data-name="Path 26579" d="M199.614,125.985a.562.562,0,1,0,.194-.674A.575.575,0,0,0,199.614,125.985Zm0,0" transform="translate(-188.35 -118.169)" fill="#000000"/>
      <path id="Path_26580" data-name="Path 26580" d="M28.8,17.825a2.85,2.85,0,0,0-1.9-2.684V13.734a2.415,2.415,0,0,0,.51-.26,2.221,2.221,0,0,0,1.008-1.864,2.2,2.2,0,0,0-.417-1.294,1.815,1.815,0,0,0,.112-1.041,10.5,10.5,0,0,0-4.657-6.639A16.276,16.276,0,0,0,14.4,0,16.276,16.276,0,0,0,5.347,2.635,10.494,10.494,0,0,0,.69,9.274a1.814,1.814,0,0,0,.235,1.281,2.188,2.188,0,0,0-.266,1.054,2.22,2.22,0,0,0,1.008,1.864,2.448,2.448,0,0,0,.236.139v1.528A2.85,2.85,0,0,0,0,17.825v.114a2.837,2.837,0,0,0,.907,2.08,2.218,2.218,0,0,0,.326,2.51v2.029A3.937,3.937,0,0,0,5.165,28.49H23.631a3.937,3.937,0,0,0,3.932-3.932V22.784a2.221,2.221,0,0,0,.5-2.941,2.833,2.833,0,0,0,.733-1.9Zm-1.125,0v.114a1.723,1.723,0,0,1-1.72,1.72H17.23L20.816,16.1H25.95a1.722,1.722,0,0,1,1.72,1.72ZM8.525,16.1l.089.089.577.577L7.983,17.978,6.109,16.1Zm5.31,3.719-3.45-3.45h0l-.268-.268h9.1l-3.759,3.717h0l-.81.81ZM1.8,9.48A9.385,9.385,0,0,1,5.977,3.566,15.142,15.142,0,0,1,14.4,1.125a15.142,15.142,0,0,1,8.421,2.441A9.386,9.386,0,0,1,27,9.48a.707.707,0,0,1-.687.826H2.483A.706.706,0,0,1,1.8,9.48Zm.029,1.828a1.831,1.831,0,0,0,.658.122h23.83a1.834,1.834,0,0,0,.893-.233,1.09,1.09,0,0,1,.08.41,1.112,1.112,0,0,1-.51.931,1.325,1.325,0,0,1-1.133.156c-.187-.059-.364-.136-.558-.177a3.04,3.04,0,0,0-.637-.065,3.083,3.083,0,0,0-1.977.686,2.075,2.075,0,0,1-2.656,0,3.19,3.19,0,0,0-3.953,0,2.076,2.076,0,0,1-2.656,0,3.19,3.19,0,0,0-3.953,0,2.076,2.076,0,0,1-2.656,0,3.081,3.081,0,0,0-1.977-.686,2.847,2.847,0,0,0-1.1.206,1.327,1.327,0,0,1-1.232-.12,1.112,1.112,0,0,1-.51-.931,1.083,1.083,0,0,1,.041-.3ZM3.14,13.881a2.732,2.732,0,0,0,.846-.193,1.937,1.937,0,0,1,.863-.1,2.034,2.034,0,0,1,1.1.471,3.19,3.19,0,0,0,3.953,0,2.076,2.076,0,0,1,2.656,0,3.19,3.19,0,0,0,3.953,0,2.076,2.076,0,0,1,2.656,0,3.189,3.189,0,0,0,3.953,0,1.988,1.988,0,0,1,1.328-.48,1.821,1.821,0,0,1,.67.122,2.6,2.6,0,0,0,.65.167V14.98H3.028v-1.1l.112,0ZM1.126,17.825a1.722,1.722,0,0,1,1.72-1.72H4.519l3.067,3.067a.563.563,0,0,0,.8,0l1.605-1.605,2.093,2.093H2.846a1.723,1.723,0,0,1-1.72-1.72Zm.751,2.789a2.853,2.853,0,0,0,.969.17H13.2l1.043,1.043a.568.568,0,0,0,.794,0l1.054-1.045H25.95a2.861,2.861,0,0,0,.934-.158,1.432,1.432,0,0,0,.186-.074c.019-.01.047-.032.069-.03s.039.042.051.067a1.089,1.089,0,0,1,.1.429,1.17,1.17,0,0,1-.871,1.119,1.332,1.332,0,0,1-.871-.048,2.841,2.841,0,0,0-1.095-.206,3.081,3.081,0,0,0-1.976.686,2.075,2.075,0,0,1-2.656,0,3.19,3.19,0,0,0-3.953,0,2.075,2.075,0,0,1-2.656,0,3.19,3.19,0,0,0-3.953,0,2.075,2.075,0,0,1-2.656,0,3.082,3.082,0,0,0-1.977-.686,2.841,2.841,0,0,0-1.1.206,1.326,1.326,0,0,1-1.141-.065A1.153,1.153,0,0,1,1.8,21.2a1.11,1.11,0,0,1,0-.315c0-.03.056-.286.083-.276Zm24.562,3.945a2.811,2.811,0,0,1-2.807,2.807H5.165a2.811,2.811,0,0,1-2.807-2.807V23.224a2.436,2.436,0,0,0,1.435-.036l.029-.01c.043-.015.087-.031.129-.048a1.741,1.741,0,0,1,.67-.123,1.986,1.986,0,0,1,1.328.48,3.19,3.19,0,0,0,3.953,0,2.076,2.076,0,0,1,2.656,0,3.19,3.19,0,0,0,3.953,0,2.076,2.076,0,0,1,2.656,0,3.19,3.19,0,0,0,3.953,0,1.987,1.987,0,0,1,1.328-.48,1.856,1.856,0,0,1,.5.064c.154.043.3.111.453.154a2.427,2.427,0,0,0,1.038.058v1.275Zm0,0" transform="translate(-0.001 0)" fill="#000000"/>
      <path id="Path_26581" data-name="Path 26581" d="M225.226,88.739a.562.562,0,1,0,.194-.674A.574.574,0,0,0,225.226,88.739Zm0,0" transform="translate(-212.521 -83.017)" fill="#000000"/>
      <path id="Path_26582" data-name="Path 26582" d="M270.345,132.825a.562.562,0,1,0,.194-.674.575.575,0,0,0-.194.674Zm0,0" transform="translate(-255.103 -124.624)" fill="#000000"/>
      <path id="Path_26583" data-name="Path 26583" d="M241.336,38.737a.563.563,0,1,0-.213-.667.574.574,0,0,0,.213.667Zm0,0" transform="translate(-227.53 -35.586)" fill="#000000"/>
    </g>
  </g>
</svg>
