<svg xmlns="http://www.w3.org/2000/svg" width="214.021" height="258.604" viewBox="0 0 214.021 258.604">
  <g id="zzz" transform="translate(-35.551 0)">
    <g id="Group_2908" data-name="Group 2908" transform="translate(95.068 30.603)">
      <g id="Group_2907" data-name="Group 2907">
        <path id="Path_26171" data-name="Path 26171" d="M169.8,83.635a5.568,5.568,0,0,0-3.862-1.2H144.673L164.486,60.31l1.856-2.057,1.2-1.455a6.587,6.587,0,0,0,.8-1.5,5.015,5.015,0,0,0,.451-1.856,3.763,3.763,0,0,0-1.856-3.612,11.242,11.242,0,0,0-5.267-1h-24.93a5.417,5.417,0,0,0-3.662,1.1,3.712,3.712,0,0,0-1.3,2.96q0,2.558,1.706,3.11a16.1,16.1,0,0,0,5.016.6h16.1q-1,1.4-2.659,3.311l-4.113,4.765-5.417,6.019-6.471,7.324q-3.361,3.762-4.414,5.016a4.562,4.562,0,0,0-1.053,2.809,4.666,4.666,0,0,0,1.5,3.662,6.822,6.822,0,0,0,4.615,1.354h29.294A5.716,5.716,0,0,0,169.8,89.7a3.814,3.814,0,0,0,1.3-2.96A4.013,4.013,0,0,0,169.8,83.635Z" transform="translate(-130.471 -48.807)" fill="#ffd100"/>
      </g>
    </g>
    <g id="Group_2910" data-name="Group 2910" transform="translate(147.442 52.426)">
      <g id="Group_2909" data-name="Group 2909">
        <path id="Path_26172" data-name="Path 26172" d="M245.15,111.414a4.413,4.413,0,0,0-3.11-.953h-17l15.8-17.657,1.455-1.655.953-1.154a5.264,5.264,0,0,0,.652-1.2,3.954,3.954,0,0,0,.3-1.455,3.011,3.011,0,0,0-1.455-2.909,8.93,8.93,0,0,0-4.214-.8H218.915a4.363,4.363,0,0,0-2.909.9,2.96,2.96,0,0,0-1.053,2.358q0,2.006,1.354,2.508a12.805,12.805,0,0,0,4.013.451h12.841c-.5.752-1.254,1.605-2.107,2.659l-3.311,3.913-4.314,5.016-5.016,5.718c-1.806,2.006-2.96,3.361-3.561,4.113A3.66,3.66,0,0,0,214,113.47a3.712,3.712,0,0,0,1,2.608,5.415,5.415,0,0,0,3.662,1.053H242.04a4.566,4.566,0,0,0,3.11-.9,3.011,3.011,0,0,0,1.053-2.358A3.208,3.208,0,0,0,245.15,111.414Z" transform="translate(-213.999 -83.611)" fill="#ffd100"/>
      </g>
    </g>
    <g id="Group_2912" data-name="Group 2912" transform="translate(35.551 0)">
      <g id="Group_2911" data-name="Group 2911">
        <path id="Path_26173" data-name="Path 26173" d="M84.138,42.557A6.82,6.82,0,0,0,79.122,41.3H53.138L77.517,14.065l2.307-2.508q.9-1.053,1.455-1.756a7.923,7.923,0,0,0,.953-1.856,6.169,6.169,0,0,0,.451-2.207,4.615,4.615,0,0,0-2.257-4.464A13.745,13.745,0,0,0,73.905.02h-30.8a6.671,6.671,0,0,0-4.515,1.354,4.564,4.564,0,0,0-1.605,3.662c0,2.107.7,3.361,2.107,3.862a20.052,20.052,0,0,0,6.17.752H65.027q-1.2,1.705-3.261,4.113T56.75,19.583l-6.672,7.374L42.1,35.785q-4.164,4.615-5.468,6.371a5.819,5.819,0,0,0,.752,7.625,8.379,8.379,0,0,0,5.668,1.655H79.122a7.02,7.02,0,0,0,5.016-1.4,4.665,4.665,0,0,0,1.605-3.662A5.016,5.016,0,0,0,84.138,42.557Z" transform="translate(-35.551 0)" fill="#ffd100"/>
      </g>
    </g>
    <g id="Group_2914" data-name="Group 2914" transform="translate(87.148 96.18)">
      <g id="Group_2913" data-name="Group 2913">
        <path id="Path_26174" data-name="Path 26174" d="M199.2,153.392a81.212,81.212,0,1,0,81.062,81.362v-.15A81.312,81.312,0,0,0,199.2,153.392Zm0,152.392v-.05a71.18,71.18,0,1,1,71.029-71.33v.2A71.23,71.23,0,0,1,199.2,305.784Z" transform="translate(-117.84 -153.392)" fill="#ffd100"/>
      </g>
    </g>
    <g id="Group_2916" data-name="Group 2916" transform="translate(114.737 147.545)">
      <g id="Group_2915" data-name="Group 2915" transform="translate(0)">
        <path id="Path_26175" data-name="Path 26175" d="M201.016,235.312A5.016,5.016,0,0,0,196,240.328a12.089,12.089,0,1,1-24.128,0,5.016,5.016,0,1,0-10.032,0,22.121,22.121,0,0,0,44.193,0A5.016,5.016,0,0,0,201.016,235.312Z" transform="translate(-161.84 -235.311)" fill="#ffd100"/>
      </g>
    </g>
    <g id="Group_2918" data-name="Group 2918" transform="translate(177.791 147.546)">
      <g id="Group_2917" data-name="Group 2917">
        <path id="Path_26176" data-name="Path 26176" d="M301.576,235.312a5.016,5.016,0,0,0-5.016,5.016,12.089,12.089,0,0,1-24.128,0,5.016,5.016,0,0,0-10.032,0,22.121,22.121,0,0,0,44.193,0A5.016,5.016,0,0,0,301.576,235.312Z" transform="translate(-262.4 -235.312)" fill="#ffd100"/>
      </g>
    </g>
    <g id="Group_2920" data-name="Group 2920" transform="translate(138.765 192.993)">
      <g id="Group_2919" data-name="Group 2919" transform="translate(0)">
        <path id="Path_26177" data-name="Path 26177" d="M218.77,307.792a18.61,18.61,0,0,0,0,37.22c4.314,0,40.531-8.828,40.531-18.61S222.984,307.792,218.77,307.792Zm0,27.338v-.151a8.578,8.578,0,1,1-.018-17.155h.018a107.047,107.047,0,0,1,26.887,8.628A105.772,105.772,0,0,1,218.77,335.13Z" transform="translate(-200.16 -307.792)" fill="#ffd100"/>
      </g>
    </g>
  </g>
</svg>
